<svg xmlns="http://www.w3.org/2000/svg" viewBox="0 0 73.394 65.095">
    <defs>
        <style>
            .cls-1{fill:#ffcb5d}.cls-2{fill:#ffe675}.cls-3{fill:#4db8cc}.cls-4{fill:#46abbe}.cls-5{fill:#fd6f71}.cls-6{fill:#e86466}.cls-7{fill:#1e557b}
        </style>
    </defs>
    <g id="blockchain-landing-page-icon" transform="translate(-34.87 -38.476)">
        <g id="Group_2261" data-name="Group 2261" transform="translate(39.986 39.551)">
            <path id="Path_11830" d="M49.473 7.5H38.624a2.918 2.918 0 0 0-2.924 2.924v3.927l8.355 2.723 8.355-2.723v-3.927A2.93 2.93 0 0 0 49.473 7.5z" class="cls-1" data-name="Path 11830" transform="translate(-35.7 -7.5)"/>
            <path id="Path_11831" d="M362.723 7.5h10.863a2.918 2.918 0 0 1 2.924 2.924v3.927l-8.355 2.723-8.355-2.723v-3.927a2.909 2.909 0 0 1 2.923-2.924z" class="cls-1" data-name="Path 11831" transform="translate(-313.35 -7.5)"/>
            <path id="Path_11832" d="M211.487 7.5h-10.863a2.918 2.918 0 0 0-2.924 2.924v3.927l8.355 2.723 8.355-2.723v-3.927a2.918 2.918 0 0 0-2.923-2.924z" class="cls-1" data-name="Path 11832" transform="translate(-174.482 -7.5)"/>
        </g>
        <path id="Path_11833" d="M74.687 55.3H11.542A4.037 4.037 0 0 0 7.5 59.342V74l35.615 4.944L78.729 74V59.342a4.037 4.037 0 0 0-4.042-4.042z" class="cls-2" data-name="Path 11833" transform="translate(28.444 -8.898)"/>
        <path id="Path_11834" d="M13.233 74V59.342a4.037 4.037 0 0 1 4.041-4.042h-5.732A4.037 4.037 0 0 0 7.5 59.342V74l35.615 4.944 2.866-.4z" class="cls-1" data-name="Path 11834" transform="translate(28.444 -8.898)"/>
        <path id="Path_11835" d="M43.115 287.1L7.5 291.271v14.661a4.037 4.037 0 0 0 4.042 4.042H74.7a4.037 4.037 0 0 0 4.042-4.042v-14.661z" class="cls-3" data-name="Path 11835" transform="translate(28.444 -207.477)"/>
        <path id="Path_11836" d="M13.233 306.018v-14.662l32.748-3.827-2.866-.33L7.5 291.356v14.661a4.037 4.037 0 0 0 4.042 4.042h5.733a4.037 4.037 0 0 1-4.042-4.041z" class="cls-4" data-name="Path 11836" transform="translate(28.444 -207.563)"/>
        <path id="Path_11837" d="M7.5 185.8h71.229v18.689H7.5z" class="cls-5" data-name="Path 11837" transform="translate(28.444 -120.695)"/>
        <path id="Path_11838" d="M7.5 185.8h5.733v18.689H7.5z" class="cls-6" data-name="Path 11838" transform="translate(28.444 -120.695)"/>
        <path id="Path_11839" d="M73.379 11.967a5.131 5.131 0 0 0-4.042-5V4a4 4 0 0 0-4-4H54.475a4 4 0 0 0-4 4v2.851H46.12V4a4 4 0 0 0-4-4H31.258a4 4 0 0 0-4 4v2.851H22.9V4a4 4 0 0 0-4-4H8.04a4 4 0 0 0-4 4v2.965a5.131 5.131 0 0 0-4.042 5v48.014A5.119 5.119 0 0 0 5.116 65.1h63.16a5.119 5.119 0 0 0 5.116-5.116V11.967zM29.409 4a1.853 1.853 0 0 1 1.849-1.85h10.863A1.853 1.853 0 0 1 43.97 4v2.851H29.409zm23.217 0a1.853 1.853 0 0 1 1.849-1.85h10.864A1.853 1.853 0 0 1 67.187 4v2.851H52.626zM6.191 4A1.853 1.853 0 0 1 8.04 2.15H18.9A1.853 1.853 0 0 1 20.752 4v2.851H6.191zM2.15 11.967A2.973 2.973 0 0 1 5.116 9h63.16a2.973 2.973 0 0 1 2.967 2.967v13.587H15.564a1.075 1.075 0 0 0 0 2.15h55.665v16.538h-9.946a1.075 1.075 0 0 0 0 2.15h9.946v13.587a2.973 2.973 0 0 1-2.967 2.967H5.116a2.973 2.973 0 0 1-2.966-2.967V46.392h54.833a1.075 1.075 0 1 0 0-2.15H2.15V27.7h9.115a1.075 1.075 0 0 0 0-2.15H2.15z" class="cls-7" data-name="Path 11839" transform="translate(34.869 38.476)"/>
    </g>
</svg>
