<svg xmlns="http://www.w3.org/2000/svg" viewBox="0 0 47.864 52.579">
    <defs>
        <style>
            .cls-1{fill:#fff}
        </style>
    </defs>
    <g id="business-icon" transform="translate(-858.508 -3314.354)">
        <path id="Path_1090" d="M46.98 50.822h-1.469V4.428a.883.883 0 0 0-.884-.884h-16.55a.883.883 0 0 0-.884.884V8.27h-1.777V4.428a.883.883 0 0 0-.884-.884h-3.841V.884a.884.884 0 0 0-1.767 0v2.66h-3.843a.883.883 0 0 0-.884.884V8.27h-2.66a.883.883 0 0 0-.884.884v7.386H3.246a.883.883 0 0 0-.884.884v33.388H.884a.884.884 0 1 0 0 1.767h46.1a.878.878 0 1 0 0-1.757zm-31.025-45.5h7.684V8.28h-7.684zm-2.948 45.5h-.6v-1.479a.884.884 0 1 0-1.767 0v1.479h-.6v-2.948h2.959v2.948zm5.907-22.745v22.745h-4.14V46.98a.883.883 0 0 0-.884-.884H9.164a.883.883 0 0 0-.884.884v3.842H4.14v-32.5h14.773v9.76zM19.8 16.55h-7.39v-6.5h14.773v17.133h-6.5v-2.958h2.661a.884.884 0 0 0 0-1.767H20.68V19.5h2.661a.884.884 0 0 0 0-1.767H20.68v-.3a.877.877 0 0 0-.88-.883zm15.664 34.272H20.68V28.961h14.773v21.861zm8.27 0h-6.5V26.9a.884.884 0 0 0-1.767 0v.3h-1.781v-.3a.884.884 0 0 0-1.767 0v.3h-2.958V5.322h14.773v45.5z" class="cls-1" data-name="Path 1090" transform="translate(858.508 3314.354)"/>
        <path id="Path_1091" d="M230.984 317.517a.883.883 0 0 0 .884-.884v-16.55a.884.884 0 0 0-1.767 0v16.55a.89.89 0 0 0 .883.884z" class="cls-1" data-name="Path 1091" transform="translate(652.047 3045.891)"/>
        <path id="Path_1092" d="M265.582 317.517a.883.883 0 0 0 .884-.884v-16.55a.884.884 0 1 0-1.767 0v16.55a.877.877 0 0 0 .883.884z" class="cls-1" data-name="Path 1092" transform="translate(621.003 3045.891)"/>
        <path id="Path_1093" d="M300.082 317.517a.883.883 0 0 0 .884-.884v-16.55a.884.884 0 0 0-1.767 0v16.55a.877.877 0 0 0 .883.884z" class="cls-1" data-name="Path 1093" transform="translate(590.047 3045.891)"/>
        <path id="Path_1094" d="M311.583 83.548a.883.883 0 0 0 .884-.884v-1.18a.884.884 0 0 0-1.767 0v1.181a.883.883 0 0 0 .883.883z" class="cls-1" data-name="Path 1094" transform="translate(579.727 3242.034)"/>
        <path id="Path_1095" d="M346.083 83.548a.883.883 0 0 0 .884-.884v-1.18a.883.883 0 1 0-1.767 0v1.181a.883.883 0 0 0 .883.883z" class="cls-1" data-name="Path 1095" transform="translate(548.771 3242.034)"/>
        <path id="Path_1096" d="M380.583 83.548a.883.883 0 0 0 .884-.884v-1.18a.884.884 0 0 0-1.767 0v1.181a.883.883 0 0 0 .883.883z" class="cls-1" data-name="Path 1096" transform="translate(517.816 3242.034)"/>
        <path id="Path_1097" d="M311.583 141.048a.883.883 0 0 0 .884-.883v-1.181a.884.884 0 1 0-1.767 0v1.181a.877.877 0 0 0 .883.883z" class="cls-1" data-name="Path 1097" transform="translate(579.727 3190.441)"/>
        <path id="Path_1098" d="M346.083 141.048a.883.883 0 0 0 .884-.883v-1.181a.883.883 0 1 0-1.767 0v1.181a.877.877 0 0 0 .883.883z" class="cls-1" data-name="Path 1098" transform="translate(548.771 3190.441)"/>
        <path id="Path_1099" d="M380.583 141.048a.883.883 0 0 0 .884-.883v-1.181a.884.884 0 1 0-1.767 0v1.181a.877.877 0 0 0 .883.883z" class="cls-1" data-name="Path 1099" transform="translate(517.816 3190.441)"/>
        <path id="Path_1100" d="M311.583 198.648a.883.883 0 0 0 .884-.884v-1.181a.884.884 0 1 0-1.767 0v1.181a.883.883 0 0 0 .883.884z" class="cls-1" data-name="Path 1100" transform="translate(579.727 3138.759)"/>
        <path id="Path_1101" d="M346.083 198.648a.883.883 0 0 0 .884-.884v-1.181a.883.883 0 1 0-1.767 0v1.181a.883.883 0 0 0 .883.884z" class="cls-1" data-name="Path 1101" transform="translate(548.771 3138.759)"/>
        <path id="Path_1102" d="M380.583 198.648a.883.883 0 0 0 .884-.884v-1.181a.884.884 0 1 0-1.767 0v1.181a.883.883 0 0 0 .883.884z" class="cls-1" data-name="Path 1102" transform="translate(517.816 3138.759)"/>
        <path id="Path_1103" d="M69.982 221.648a.883.883 0 0 0 .883-.884v-1.181a.884.884 0 1 0-1.767 0v1.181a.877.877 0 0 0 .884.884z" class="cls-1" data-name="Path 1103" transform="translate(796.508 3118.121)"/>
        <path id="Path_1104" d="M104.484 221.648a.883.883 0 0 0 .884-.884v-1.181a.884.884 0 1 0-1.767 0v1.181a.883.883 0 0 0 .883.884z" class="cls-1" data-name="Path 1104" transform="translate(765.551 3118.121)"/>
        <path id="Path_1105" d="M138.984 221.648a.883.883 0 0 0 .884-.884v-1.181a.884.884 0 1 0-1.767 0v1.181a.883.883 0 0 0 .883.884z" class="cls-1" data-name="Path 1105" transform="translate(734.595 3118.121)"/>
        <path id="Path_1106" d="M69.894 279.148a.883.883 0 0 0 .884-.884v-1.181a.889.889 0 0 0-1.777 0v1.181a.892.892 0 0 0 .893.884z" class="cls-1" data-name="Path 1106" transform="translate(796.596 3066.529)"/>
        <path id="Path_1107" d="M104.484 279.148a.883.883 0 0 0 .884-.884v-1.181a.884.884 0 1 0-1.767 0v1.181a.883.883 0 0 0 .883.884z" class="cls-1" data-name="Path 1107" transform="translate(765.551 3066.529)"/>
        <path id="Path_1108" d="M138.984 279.148a.883.883 0 0 0 .884-.884v-1.181a.884.884 0 1 0-1.767 0v1.181a.883.883 0 0 0 .883.884z" class="cls-1" data-name="Path 1108" transform="translate(734.595 3066.529)"/>
        <path id="Path_1109" d="M69.982 336.648a.883.883 0 0 0 .883-.883v-1.181a.884.884 0 1 0-1.767 0v1.181a.871.871 0 0 0 .884.883z" class="cls-1" data-name="Path 1109" transform="translate(796.508 3014.936)"/>
        <path id="Path_1110" d="M104.484 336.648a.883.883 0 0 0 .884-.883v-1.181a.884.884 0 1 0-1.767 0v1.181a.877.877 0 0 0 .883.883z" class="cls-1" data-name="Path 1110" transform="translate(765.551 3014.936)"/>
        <path id="Path_1111" d="M138.984 336.648a.883.883 0 0 0 .884-.883v-1.181a.884.884 0 1 0-1.767 0v1.181a.877.877 0 0 0 .883.883z" class="cls-1" data-name="Path 1111" transform="translate(734.595 3014.936)"/>
        <path id="Path_1112" d="M69.982 394.248a.883.883 0 0 0 .883-.883v-1.181a.884.884 0 1 0-1.767 0v1.181a.877.877 0 0 0 .884.883z" class="cls-1" data-name="Path 1112" transform="translate(796.508 2963.253)"/>
        <path id="Path_1113" d="M104.484 394.248a.883.883 0 0 0 .884-.883v-1.181a.884.884 0 1 0-1.767 0v1.181a.883.883 0 0 0 .883.883z" class="cls-1" data-name="Path 1113" transform="translate(765.551 2963.253)"/>
        <path id="Path_1114" d="M138.984 394.248a.883.883 0 0 0 .884-.883v-1.181a.884.884 0 1 0-1.767 0v1.181a.883.883 0 0 0 .883.883z" class="cls-1" data-name="Path 1114" transform="translate(734.595 2963.253)"/>
        <path id="Path_1115" d="M380.583 256.148a.883.883 0 0 0 .884-.883v-1.181a.884.884 0 1 0-1.767 0v1.181a.883.883 0 0 0 .883.883z" class="cls-1" data-name="Path 1115" transform="translate(517.816 3087.166)"/>
        <path id="Path_1116" d="M380.583 313.648a.883.883 0 0 0 .884-.884v-1.181a.884.884 0 0 0-1.767 0v1.181a.877.877 0 0 0 .883.884z" class="cls-1" data-name="Path 1116" transform="translate(517.816 3035.573)"/>
        <path id="Path_1117" d="M380.583 371.148a.883.883 0 0 0 .884-.883v-1.181a.884.884 0 0 0-1.767 0v1.181a.877.877 0 0 0 .883.883z" class="cls-1" data-name="Path 1117" transform="translate(517.816 2983.98)"/>
        <path id="Path_1118" d="M380.583 428.748a.883.883 0 0 0 .884-.884v-1.181a.884.884 0 1 0-1.767 0v1.181a.883.883 0 0 0 .883.884z" class="cls-1" data-name="Path 1118" transform="translate(517.816 2932.297)"/>
        <path id="Path_1119" d="M158.556 127.484a.883.883 0 0 0-.884-.883h-7.089a.884.884 0 1 0 0 1.767h7.089a.883.883 0 0 0 .884-.884z" class="cls-1" data-name="Path 1119" transform="translate(724.187 3200.76)"/>
    </g>
</svg>
