<svg xmlns="http://www.w3.org/2000/svg" viewBox="0 0 58.793 79.931">
    <defs>
        <style>
            .cls-1{fill:#919191}.cls-2{fill:#767678}.cls-3{fill:#efedee}.cls-4{fill:#d9d7d8}.cls-5{fill:#ffa93f}.cls-6{fill:#73da8c}.cls-7{fill:#a4e7ff}.cls-8{fill:#5ad6ff}.cls-9{fill:#29ce69}.cls-10{fill:#1e557b}
        </style>
    </defs>
    <g id="calculator-icon" transform="translate(-1030.371 -2575.59)">
        <path id="Path_11805" d="M7.5 76.721V15.868A8.368 8.368 0 0 1 15.868 7.5h39.715a8.368 8.368 0 0 1 8.368 8.368v60.853a8.368 8.368 0 0 1-8.368 8.368H15.868A8.368 8.368 0 0 1 7.5 76.721z" class="cls-1" data-name="Path 11805" transform="translate(1024.042 2569.261)"/>
        <path id="Path_11806" d="M46.544 7.5H15.868A8.368 8.368 0 0 0 7.5 15.868v60.853a8.368 8.368 0 0 0 8.368 8.368h13.8a10.345 10.345 0 0 1-1.858-6.057c0-8.6-.062-20.638-.047-28.382a10.021 10.021 0 0 1 5.714-9.023c6.51-3.122 9.632-10.335 9.632-10.335S34.867 20.239 34.68 20C45.093 16.555 46.544 7.5 46.544 7.5z" class="cls-2" data-name="Path 11806" transform="translate(1024.042 2569.261)"/>
        <path id="Path_11807" d="M91.312 71.345H60.324A5.33 5.33 0 0 1 55 66.022v-5.7A5.31 5.31 0 0 1 60.324 55h30.988a5.33 5.33 0 0 1 5.324 5.324v5.714a5.317 5.317 0 0 1-5.324 5.307z" class="cls-3" data-name="Path 11807" transform="translate(983.957 2529.176)"/>
        <path id="Path_11808" d="M67.583 66.022v-5.7A5.33 5.33 0 0 1 72.906 55H60.324A5.31 5.31 0 0 0 55 60.324v5.714a5.33 5.33 0 0 0 5.324 5.324h12.6a5.347 5.347 0 0 1-5.341-5.34z" class="cls-4" data-name="Path 11808" transform="translate(983.957 2529.176)"/>
        <path id="Path_11809" d="M264.126 204.891h-3.06a3.468 3.468 0 0 1-3.466-3.466v-3.06a3.468 3.468 0 0 1 3.466-3.466h3.06a3.468 3.468 0 0 1 3.466 3.466v3.06a3.448 3.448 0 0 1-3.466 3.466z" class="cls-5" data-name="Path 11809" transform="translate(812.986 2411.117)"/>
        <path id="Path_11810" d="M162.826 204.891h-3.06a3.468 3.468 0 0 1-3.466-3.466v-3.06a3.468 3.468 0 0 1 3.466-3.466h3.06a3.468 3.468 0 0 1 3.466 3.466v3.06a3.458 3.458 0 0 1-3.466 3.466z" class="cls-6" data-name="Path 11810" transform="translate(898.472 2411.117)"/>
        <path id="Path_11811" d="M162.826 302.491h-3.06a3.468 3.468 0 0 1-3.466-3.466v-3.06a3.468 3.468 0 0 1 3.466-3.466h3.06a3.468 3.468 0 0 1 3.466 3.466v3.06a3.458 3.458 0 0 1-3.466 3.466z" class="cls-7" data-name="Path 11811" transform="translate(898.472 2328.753)"/>
        <path id="Path_11812" d="M162.826 400.191h-3.06a3.468 3.468 0 0 1-3.466-3.466v-3.06a3.468 3.468 0 0 1 3.466-3.466h3.06a3.468 3.468 0 0 1 3.466 3.466v3.06a3.468 3.468 0 0 1-3.466 3.466z" class="cls-6" data-name="Path 11812" transform="translate(898.472 2246.306)"/>
        <path id="Path_11813" d="M61.526 302.491h-3.06A3.468 3.468 0 0 1 55 299.026v-3.06a3.468 3.468 0 0 1 3.466-3.466h3.06a3.468 3.468 0 0 1 3.466 3.466v3.06a3.458 3.458 0 0 1-3.466 3.465z" class="cls-8" data-name="Path 11813" transform="translate(983.957 2328.753)"/>
        <path id="Path_11814" d="M61.526 204.891h-3.06A3.468 3.468 0 0 1 55 201.426v-3.06a3.468 3.468 0 0 1 3.466-3.466h3.06a3.468 3.468 0 0 1 3.466 3.466v3.06a3.458 3.458 0 0 1-3.466 3.465z" class="cls-9" data-name="Path 11814" transform="translate(983.957 2411.117)"/>
        <path id="Path_11815" d="M61.526 400.191h-3.06A3.468 3.468 0 0 1 55 396.726v-3.06a3.468 3.468 0 0 1 3.466-3.466h3.06a3.468 3.468 0 0 1 3.466 3.466v3.06a3.468 3.468 0 0 1-3.466 3.465z" class="cls-9" data-name="Path 11815" transform="translate(983.957 2246.306)"/>
        <path id="Path_11816" d="M264.126 317.744h-3.06a3.468 3.468 0 0 1-3.466-3.466v-18.312a3.468 3.468 0 0 1 3.466-3.466h3.06a3.468 3.468 0 0 1 3.466 3.466v18.3a3.461 3.461 0 0 1-3.466 3.478z" class="cls-5" data-name="Path 11816" transform="translate(812.986 2328.753)"/>
        <path id="Path_11820" d="M49.254 79.931H9.539A9.548 9.548 0 0 1 0 70.392V21.919a1.179 1.179 0 0 1 1.171-1.171 1.179 1.179 0 0 1 1.171 1.171v48.473a7.209 7.209 0 0 0 7.2 7.2h39.712a7.209 7.209 0 0 0 7.2-7.2V9.539a7.209 7.209 0 0 0-7.2-7.2H9.539a7.209 7.209 0 0 0-7.2 7.2v7.618a1.171 1.171 0 1 1-2.342 0V9.539A9.548 9.548 0 0 1 9.539 0h39.715a9.548 9.548 0 0 1 9.539 9.539v60.853a9.538 9.538 0 0 1-9.539 9.539z" class="cls-10" data-name="Path 11820" transform="translate(1030.371 2575.59)"/>
        <path id="Path_11821" d="M84.983 66.187H53.994a6.509 6.509 0 0 1-6.494-6.494v-5.7a6.509 6.509 0 0 1 6.494-6.493h30.989a6.509 6.509 0 0 1 6.494 6.494v5.714a6.5 6.5 0 0 1-6.494 6.479zM53.994 49.842a4.151 4.151 0 0 0-4.153 4.153v5.7a4.151 4.151 0 0 0 4.153 4.153h30.989a4.151 4.151 0 0 0 4.153-4.153v-5.7a4.151 4.151 0 0 0-4.153-4.153z" class="cls-10" data-name="Path 11821" transform="translate(990.287 2535.505)"/>
        <path id="Path_11822" d="M257.8 199.733h-3.06a4.637 4.637 0 0 1-4.64-4.633v-3.06a4.637 4.637 0 0 1 4.637-4.637h3.06a4.637 4.637 0 0 1 4.637 4.637v3.06a4.627 4.627 0 0 1-4.634 4.633zm-3.044-9.991a2.3 2.3 0 0 0-2.295 2.295v3.06a2.3 2.3 0 0 0 2.295 2.295h3.06a2.3 2.3 0 0 0 2.295-2.295v-3.06a2.3 2.3 0 0 0-2.295-2.295z" class="cls-10" data-name="Path 11822" transform="translate(819.315 2417.446)"/>
        <path id="Path_11823" d="M156.5 199.733h-3.06a4.637 4.637 0 0 1-4.64-4.633v-3.06a4.637 4.637 0 0 1 4.637-4.637h3.06a4.637 4.637 0 0 1 4.637 4.637v3.06a4.637 4.637 0 0 1-4.634 4.633zm-3.044-9.991a2.3 2.3 0 0 0-2.295 2.295v3.06a2.3 2.3 0 0 0 2.295 2.295h3.06a2.3 2.3 0 0 0 2.295-2.295v-3.06a2.3 2.3 0 0 0-2.295-2.295z" class="cls-10" data-name="Path 11823" transform="translate(904.801 2417.446)"/>
        <path id="Path_11824" d="M156.5 297.333h-3.06a4.637 4.637 0 0 1-4.64-4.633v-3.06a4.637 4.637 0 0 1 4.637-4.64h3.06a4.637 4.637 0 0 1 4.637 4.637v3.06a4.637 4.637 0 0 1-4.634 4.636zm-3.044-9.991a2.3 2.3 0 0 0-2.295 2.295v3.06a2.3 2.3 0 0 0 2.295 2.295h3.06a2.3 2.3 0 0 0 2.295-2.295v-3.06a2.3 2.3 0 0 0-2.295-2.295z" class="cls-10" data-name="Path 11824" transform="translate(904.801 2335.083)"/>
        <path id="Path_11825" d="M156.5 395.033h-3.06a4.637 4.637 0 0 1-4.64-4.633v-3.06a4.637 4.637 0 0 1 4.637-4.637h3.06a4.637 4.637 0 0 1 4.637 4.637v3.06a4.647 4.647 0 0 1-4.634 4.633zm-3.044-10.007a2.3 2.3 0 0 0-2.295 2.295v3.06a2.3 2.3 0 0 0 2.295 2.295h3.06a2.3 2.3 0 0 0 2.295-2.295v-3.06a2.3 2.3 0 0 0-2.295-2.295z" class="cls-10" data-name="Path 11825" transform="translate(904.801 2252.635)"/>
        <path id="Path_11826" d="M55.2 297.333h-3.06a4.637 4.637 0 0 1-4.64-4.633v-3.06a4.637 4.637 0 0 1 4.637-4.64H55.2a4.637 4.637 0 0 1 4.637 4.637v3.06a4.637 4.637 0 0 1-4.637 4.636zm-3.06-9.991a2.3 2.3 0 0 0-2.295 2.295v3.06a2.3 2.3 0 0 0 2.295 2.295h3.06a2.3 2.3 0 0 0 2.295-2.295v-3.06a2.3 2.3 0 0 0-2.295-2.295z" class="cls-10" data-name="Path 11826" transform="translate(990.287 2335.083)"/>
        <path id="Path_11827" d="M55.2 199.733h-3.06a4.637 4.637 0 0 1-4.64-4.633v-3.06a4.637 4.637 0 0 1 4.637-4.637H55.2a4.637 4.637 0 0 1 4.637 4.637v3.06a4.637 4.637 0 0 1-4.637 4.633zm-3.06-9.991a2.3 2.3 0 0 0-2.295 2.295v3.06a2.3 2.3 0 0 0 2.295 2.295h3.06a2.3 2.3 0 0 0 2.295-2.295v-3.06a2.3 2.3 0 0 0-2.295-2.295z" class="cls-10" data-name="Path 11827" transform="translate(990.287 2417.446)"/>
        <path id="Path_11828" d="M55.2 395.033h-3.06a4.637 4.637 0 0 1-4.64-4.633v-3.06a4.637 4.637 0 0 1 4.637-4.637H55.2a4.637 4.637 0 0 1 4.637 4.637v3.06a4.647 4.647 0 0 1-4.637 4.633zm-3.06-10.007a2.3 2.3 0 0 0-2.295 2.295v3.06a2.3 2.3 0 0 0 2.295 2.295h3.06a2.3 2.3 0 0 0 2.295-2.295v-3.06a2.3 2.3 0 0 0-2.295-2.295z" class="cls-10" data-name="Path 11828" transform="translate(990.287 2252.635)"/>
        <path id="Path_11829" d="M257.8 312.586h-3.06a4.637 4.637 0 0 1-4.637-4.637v-18.312a4.637 4.637 0 0 1 4.634-4.637h3.06a4.637 4.637 0 0 1 4.637 4.637v11.537a1.171 1.171 0 0 1-2.342 0v-11.537a2.3 2.3 0 0 0-2.295-2.295h-3.06a2.3 2.3 0 0 0-2.295 2.295v18.3a2.3 2.3 0 0 0 2.295 2.295h3.06a2.3 2.3 0 0 0 2.295-2.295v-1.8a1.171 1.171 0 1 1 2.342 0v1.8a4.641 4.641 0 0 1-4.634 4.649z" class="cls-10" data-name="Path 11829" transform="translate(819.315 2335.083)"/>
    </g>
</svg>
