<svg xmlns="http://www.w3.org/2000/svg" viewBox="0 0 26.154 28.158">
    <defs>
        <style>
            .cls-1{fill:#fff}
        </style>
    </defs>
    <g id="calender-icon" transform="translate(-695.293 -300.328)">
        <path id="date-icon" d="M25.549 4.618a1.935 1.935 0 0 0-1.414-.594h-2.01V2.515a2.436 2.436 0 0 0-.737-1.777A2.436 2.436 0 0 0 19.61 0H18.6a2.436 2.436 0 0 0-1.778.738 2.427 2.427 0 0 0-.738 1.778v1.507h-6.029V2.515A2.436 2.436 0 0 0 9.318.738 2.427 2.427 0 0 0 7.54 0H6.533a2.436 2.436 0 0 0-1.778.738 2.427 2.427 0 0 0-.738 1.778v1.507H2.009a1.935 1.935 0 0 0-1.414.594A1.944 1.944 0 0 0 0 6.032v20.117a1.919 1.919 0 0 0 .6 1.415 1.935 1.935 0 0 0 1.414.594H24.14a2.039 2.039 0 0 0 2.014-2.009V6.032a1.955 1.955 0 0 0-.605-1.414zM6.539 26.149h-4.53v-4.524h4.524v4.524zm0-5.531h-4.53v-5.031h4.524v5.031zm0-6.032h-4.53v-4.525h4.524v4.524zm-.353-7.194a.478.478 0 0 1-.149-.352V2.515a.508.508 0 0 1 .5-.5h1a.508.508 0 0 1 .5.5V7.04a.508.508 0 0 1-.5.5H6.533a.475.475 0 0 1-.347-.148zm6.384 18.757H7.54v-4.524h5.03v4.524zm0-5.531H7.54v-5.031h5.03v5.031zm0-6.032H7.54v-4.525h5.03v4.524zm6.03 11.563h-5.03v-4.524h5.03zm0-5.531h-5.03v-5.031h5.03zm0-6.032h-5.03v-4.525h5.03zm-.352-7.194a.478.478 0 0 1-.148-.352V2.515a.508.508 0 0 1 .5-.5h1.01a.508.508 0 0 1 .5.5V7.04a.508.508 0 0 1-.5.5H18.6a.487.487 0 0 1-.349-.148zm5.884 18.757H19.61v-4.524h4.524zm0-5.531H19.61v-5.031h4.524zm0-6.032H19.61v-4.525h4.524z" class="cls-1" transform="translate(695.293 300.328)"/>
    </g>
</svg>
