<svg xmlns="http://www.w3.org/2000/svg" viewBox="0 0 62.177 85.073">
    <defs>
        <style>
            .cls-1{fill:#fa9f6a}.cls-2{fill:#eb8f59}.cls-3{fill:#efedee}.cls-4{fill:#d9d7d8}.cls-5{fill:#fadc60}.cls-6{fill:#e6cb59}.cls-7{fill:#1e557b}
        </style>
    </defs>
    <g id="clipboard-icon" transform="translate(-468.535 -2570.327)">
        <path id="Path_11786" d="M65.008 132.107H9.677A2.184 2.184 0 0 1 7.5 129.93V60.077A2.184 2.184 0 0 1 9.677 57.9h55.331a2.184 2.184 0 0 1 2.177 2.177v69.853a2.173 2.173 0 0 1-2.177 2.177z" class="cls-1" data-name="Path 11786" transform="translate(462.281 2522.048)"/>
        <path id="Path_11787" d="M13.731 129.93V60.077a2.184 2.184 0 0 1 2.177-2.177H9.677A2.184 2.184 0 0 0 7.5 60.077v69.853a2.184 2.184 0 0 0 2.177 2.177h6.231a2.173 2.173 0 0 1-2.177-2.177z" class="cls-2" data-name="Path 11787" transform="translate(462.281 2522.048)"/>
        <path id="Path_11788" d="M45 155.251V97.294a1.893 1.893 0 0 1 1.894-1.894h43.434a1.893 1.893 0 0 1 1.894 1.894v41.573l-18.277 18.278H46.894A1.893 1.893 0 0 1 45 155.251z" class="cls-3" data-name="Path 11788" transform="translate(431.012 2490.779)"/>
        <path id="Path_11789" d="M49.985 155.251V97.294a1.893 1.893 0 0 1 1.894-1.894h-4.985A1.893 1.893 0 0 0 45 97.294v57.956a1.893 1.893 0 0 0 1.894 1.894h4.985a1.893 1.893 0 0 1-1.894-1.893z" class="cls-4" data-name="Path 11789" transform="translate(431.012 2490.779)"/>
        <path id="Path_11790" d="M129.956 12.983h-6.248a5.483 5.483 0 0 0-10.967 0h-6.248a1.893 1.893 0 0 0-1.894 1.894V23.1a1.893 1.893 0 0 0 1.895 1.9h23.478a1.893 1.893 0 0 0 1.894-1.894v-8.229a1.918 1.918 0 0 0-1.91-1.894zm-11.731 1.628A1.612 1.612 0 1 1 119.837 13a1.613 1.613 0 0 1-1.612 1.612z" class="cls-5" data-name="Path 11790" transform="translate(381.315 2564.073)"/>
        <path id="Path_11791" d="M109.485 50.619v-8.225a1.893 1.893 0 0 1 1.894-1.894h-4.985a1.893 1.893 0 0 0-1.894 1.894v8.225a1.893 1.893 0 0 0 1.894 1.894h4.985a1.893 1.893 0 0 1-1.894-1.894z" class="cls-6" data-name="Path 11791" transform="translate(381.399 2536.557)"/>
        <path id="Path_11792" d="M221.193 357h16.383L219.3 375.277v-16.383a1.883 1.883 0 0 1 1.893-1.894z" class="cls-4" data-name="Path 11792" transform="translate(285.675 2272.646)"/>
        <path id="Path_11796" d="M58.754 8.374H45.86a3.147 3.147 0 0 0-3.124-2.891h-5.118a6.73 6.73 0 0 0-13.226 0h-5.118a3.147 3.147 0 0 0-3.124 2.891H3.423A3.429 3.429 0 0 0 0 11.8v69.851a3.418 3.418 0 0 0 3.423 3.423h55.331a3.418 3.418 0 0 0 3.423-3.423V11.8a3.429 3.429 0 0 0-3.423-3.426zm-39.5-.4h6.248a1.255 1.255 0 0 0 1.246-1.246 4.237 4.237 0 1 1 8.474 0 1.255 1.255 0 0 0 1.246 1.246h6.252a.649.649 0 0 1 .648.648v8.214a.649.649 0 0 1-.648.648h-1.662a1.246 1.246 0 0 0 0 2.492h1.662a3.147 3.147 0 0 0 3.124-2.891h6.945a.649.649 0 0 1 .648.648v40.323H38.3a3.149 3.149 0 0 0-3.14 3.14v15.138H9.371a.649.649 0 0 1-.648-.648v-57.94a.649.649 0 0 1 .648-.648h6.763a3.147 3.147 0 0 0 3.124 2.891h17.164a1.246 1.246 0 0 0 0-2.492H19.258a.649.649 0 0 1-.648-.648V8.621a.66.66 0 0 1 .648-.645zm18.41 66.613V61.213a.649.649 0 0 1 .648-.648h13.38zm22.016 7.062a.929.929 0 0 1-.93.93H3.423a.929.929 0 0 1-.93-.93V11.8a.929.929 0 0 1 .93-.93h12.694v3.739H9.371a3.149 3.149 0 0 0-3.14 3.14V75.7a3.149 3.149 0 0 0 3.14 3.14h27.184a.15.15 0 0 0 .083-.017h.033a.72.72 0 0 0 .083-.017h.033c.033-.017.066-.017.083-.033.017 0 .017 0 .033-.017.033-.017.05-.017.083-.033.017 0 .017-.017.033-.017a.229.229 0 0 0 .066-.05c.017 0 .017-.017.033-.017.017-.017.05-.033.066-.05.017 0 .017-.017.033-.017.033-.033.066-.05.1-.083L55.6 60.216c.033-.033.066-.083.116-.133 0-.017.017-.017.017-.033a.583.583 0 0 0 .083-.133V59.9c.017-.05.05-.1.066-.15 0-.017 0-.017.017-.033.017-.05.033-.1.05-.166a.46.46 0 0 0 .017-.15V17.746a3.149 3.149 0 0 0-3.14-3.14h-6.933v-3.739H58.77a.929.929 0 0 1 .93.93v69.854z" class="cls-7" data-name="Path 11796" transform="translate(468.535 2570.327)"/>
    </g>
</svg>
