<svg xmlns="http://www.w3.org/2000/svg" viewBox="0 0 255.281 255.281">
    <defs>
        <style>
            .cls-1{fill:#f9b54c}.cls-2{fill:#f4a200}.cls-3{fill:#e9eff4}.cls-4{fill:#cfdbe6}.cls-5{fill:#d0d1d3}.cls-6{fill:#a6a8aa}.cls-7{fill:#324a5e}.cls-8{fill:#2b3b4e}
        </style>
    </defs>
    <g id="doc-sign-icon" transform="translate(-188.359 -1059.359)">
        <circle id="Ellipse_475" cx="127.641" cy="127.641" r="127.641" class="cls-1" data-name="Ellipse 475" transform="translate(188.359 1059.359)"/>
        <path id="Path_1148" d="M326.581 184.7l-70.9-70.9-56.142 88.1-57.339 53.7 56.74 56.74A127.631 127.631 0 0 0 326.581 184.7z" class="cls-2" data-name="Path 1148" transform="translate(117.06 1002.3)"/>
        <path id="Path_1149" d="M167.878 113.8L142.2 139.428V255.6h113.48V113.8z" class="cls-3" data-name="Path 1149" transform="translate(117.06 1002.3)"/>
        <path id="Rectangle_1016" d="M0 0h56.99v141.801H0z" class="cls-4" data-name="Rectangle 1016" transform="translate(315.701 1116.1)"/>
        <path id="Path_1150" d="M167.878 139.428V113.8L142.2 139.428z" class="cls-4" data-name="Path 1150" transform="translate(117.06 1002.3)"/>
        <path id="Rectangle_1017" d="M0 0h85.11v2.593H0z" class="cls-5" data-name="Rectangle 1017" transform="translate(273.47 1157.333)"/>
        <path id="Rectangle_1018" d="M0 0h85.11v2.593H0z" class="cls-5" data-name="Rectangle 1018" transform="translate(273.47 1171.543)"/>
        <path id="Rectangle_1019" d="M0 0h85.11v2.593H0z" class="cls-5" data-name="Rectangle 1019" transform="translate(273.47 1185.704)"/>
        <path id="Rectangle_1020" d="M0 0h85.11v2.593H0z" class="cls-5" data-name="Rectangle 1020" transform="translate(273.47 1199.914)"/>
        <path id="Rectangle_1021" d="M0 0h85.11v2.593H0z" class="cls-5" data-name="Rectangle 1021" transform="translate(273.47 1214.074)"/>
        <path id="Path_1151" d="M226.725 342.115c-2.942.4-4.338-.848-6.033-3.041a5.775 5.775 0 0 0-1.147-1.3c-1.945-1.247-3.839.3-5.534 1.246-1.645.9-3.291 1.795-4.886 2.742-.848.449-3.59 2.543-4.437 2.244a55.825 55.825 0 0 0-1.795-6.482 1.3 1.3 0 0 0-2.343.3 28.334 28.334 0 0 1-1.845 3.939c-1.5 2.294-4.388 4.238-7.28 3.041a3.411 3.411 0 0 1-1.795-1.745 11.221 11.221 0 0 0 2.742-3.49c1-1.994 2.294-5.435 1.4-7.678-.8-1.994-2.443-1.994-3.939-.7a11.51 11.51 0 0 0-3.141 10.77 4.7 4.7 0 0 1-5.933-.7c-1.2-1.147-3.041.7-1.845 1.845a7.42 7.42 0 0 0 8.676 1.246 7.041 7.041 0 0 0 1.645 1.994c5.086 4.288 9.623-.15 12.265-4.737a24.2 24.2 0 0 0 .349 3.141 2.779 2.779 0 0 0 .7 1.5c1.7 1.645 4.288-.3 5.784-1.147 1.895-1.047 3.739-2.094 5.634-3.091 1.7-.947 2.992-2.094 5.185-.7.349.249.5.848.848 1.1 2.144 1.645 3.989 2.593 6.831 2.244 1.49-.197 1.54-2.79-.106-2.541zm-36.447-7.18c.449-.6.548-1.6.848-.449.2.8-.7 2.692-1 3.39a7.946 7.946 0 0 1-1.3 2.144 8.422 8.422 0 0 1 1.452-5.085z" class="cls-5" data-name="Path 1151" transform="translate(98.848 893.747)"/>
        <path id="Rectangle_1022" d="M0 0h42.829v2.593H0z" class="cls-6" data-name="Rectangle 1022" transform="translate(315.701 1157.333)"/>
        <path id="Rectangle_1023" d="M0 0h42.829v2.593H0z" class="cls-6" data-name="Rectangle 1023" transform="translate(315.701 1171.543)"/>
        <path id="Rectangle_1024" d="M0 0h42.829v2.593H0z" class="cls-6" data-name="Rectangle 1024" transform="translate(315.701 1185.704)"/>
        <path id="Rectangle_1025" d="M0 0h42.829v2.593H0z" class="cls-6" data-name="Rectangle 1025" transform="translate(315.701 1199.914)"/>
        <path id="Rectangle_1026" d="M0 0h42.829v2.593H0z" class="cls-6" data-name="Rectangle 1026" transform="translate(315.701 1214.074)"/>
        <path id="Path_1152" d="M265.322 349.186c-2.942.4-4.338-.848-6.033-3.041a5.778 5.778 0 0 0-1.147-1.3 2.952 2.952 0 0 0-2.643-.249v3.191a3.424 3.424 0 0 1 2.194.648c.349.249.5.848.848 1.1 2.144 1.645 3.989 2.593 6.831 2.244 1.546-.25 1.596-2.843-.05-2.593z" class="cls-6" data-name="Path 1152" transform="translate(60.251 886.677)"/>
        <path id="Path_1153" d="M292.066 245.186l-11.966-7.629 49.71-77.631a7.083 7.083 0 0 1 9.772-2.144 7.083 7.083 0 0 1 2.144 9.772z" class="cls-7" data-name="Path 1153" transform="translate(47.916 980.804)"/>
        <path id="Path_1154" d="M345.549 158.75c-.05 0-.05-.05-.1-.05L292 242.364l6.033 3.839 49.71-77.631a7.165 7.165 0 0 0-2.194-9.822z" class="cls-8" data-name="Path 1154" transform="translate(41.949 979.787)"/>
        <path id="Path_1155" d="M276.7 334.656l13.662-8.127L278.4 318.9z" class="cls-1" data-name="Path 1155" transform="translate(49.621 899.462)"/>
        <path id="Path_1156" d="M276.75 338.317l-.05.15 13.662-8.127-6.033-3.839z" class="cls-2" data-name="Path 1156" transform="translate(49.621 895.651)"/>
    </g>
</svg>
