<svg xmlns="http://www.w3.org/2000/svg" viewBox="0 0 63 52.146">
    <defs>
        <style>
            .cls-1{fill:#fff}
        </style>
    </defs>
    <g id="free-icon" transform="translate(-157 -3314.354)">
        <path id="Path_1088" d="M62.964 14.333a.038.038 0 0 0 .012-.025.093.093 0 0 0 .024-.049c0-.012.012-.025.012-.037s.012-.037.025-.049.012-.025.012-.037.012-.025.012-.049.012-.025.012-.049a.045.045 0 0 1 .015-.038.074.074 0 0 1 .012-.049v-.21a.045.045 0 0 0-.012-.037.074.074 0 0 0-.012-.049.045.045 0 0 0-.012-.037c0-.012-.012-.037-.012-.049s-.012-.025-.012-.037-.012-.037-.025-.049-.015-.026-.015-.038-.012-.025-.025-.049-.012-.025-.025-.037-.012-.025-.025-.037l-.037-.037c-.012-.012-.012-.025-.025-.025l-.037-.037-.026-.023-.037-.037c-.012-.012-.025-.025-.037-.025s-.025-.012-.037-.025a.064.064 0 0 0-.049-.025.012.012 0 0 1-.012-.012l-7.89-4.934a.012.012 0 0 1-.012-.012c-.012-.012-.025-.012-.037-.025s-.012-.012-.025-.012-.025-.012-.037-.012-.012-.012-.025-.012-.012 0-.025-.012-.025-.012-.049-.012H54.5c-.012 0-.037-.012-.049-.012h-.037a.074.074 0 0 1-.049-.012h-.305a.045.045 0 0 0-.037.012c-.012 0-.037.012-.049.012s-.025.012-.037.012a.043.043 0 0 0-.025.012H53.9c-.012 0-.025.012-.037.025a.043.043 0 0 0-.025.012l-14.11 7.524-8.4-10.262a.012.012 0 0 0-.012-.012l-.025-.025-.037-.037-.025-.025-.037-.037c-.012-.012-.025-.025-.037-.025l-.025-.025c-.012-.012-.025-.012-.049-.025s-.025-.012-.037-.025-.025-.012-.037-.025-.025-.012-.037-.012-.025-.012-.037-.012-.037-.012-.049-.012c-.012 0-.025-.012-.037-.012s-.025-.012-.037-.012h-.01L3.171.112h-.025A.074.074 0 0 1 3.1.1h-.188a.074.074 0 0 0-.049.012.045.045 0 0 0-.037.012c-.012 0-.025.012-.049.012s-.025.012-.037.012-.025.014-.04.014-.025.012-.049.012-.025.012-.037.012-.023.014-.035.025c-.049 0-.062 0-.074.012s-.025.013-.037.025-.025.025-.037.025-.012.012-.025.012L2.394.3l-.037.034c-.012.012-.025.012-.025.025L2.3.4c-.012.012-.025.025-.025.037s-.029.021-.029.033-.012.025-.025.037-.012.025-.021.037-.025.025-.025.037-.015.025-.028.037-.012.025-.025.037S2.11.68 2.11.692 2.1.717 2.1.741s-.012.025-.012.037-.012.037-.012.049V1.1a.074.074 0 0 0 .012.049.045.045 0 0 0 .012.037c0 .012.012.025.012.049s.012.025.012.037.012.025.012.037.012.025.012.049.012.025.012.037.012.025.025.037.012.025.025.037.012.025.025.037.025.025.025.037.012.012.012.025l5.9 7.4H.889a.045.045 0 0 0-.037.012c-.012 0-.037.012-.049.012S.778 9 .766 9s-.037.012-.049.012-.025.018-.037.018-.025.012-.049.025-.025.012-.037.025a.045.045 0 0 0-.037.012C.544 9.1.532 9.1.519 9.116s-.025.012-.037.025-.025.025-.037.025-.025.012-.037.025l-.037.037-.037.037C.322 9.276.31 9.289.31 9.3l-.037.037c0 .012-.012.012-.012.025a.012.012 0 0 1-.012.012.064.064 0 0 0-.025.049c0-.012-.012 0-.012.012s-.012.026-.026.051-.012.025-.012.037-.012.025-.012.049-.013.028-.013.037-.012.025-.012.037-.012.037-.012.054a.045.045 0 0 1-.012.037.074.074 0 0 1-.013.045V10a.093.093 0 0 0 .012.049c0 .012.012.037.012.049s.012.025.012.037.012.037.012.049.012.025.012.037.012.025.012.049.012.025.025.037a.045.045 0 0 0 .012.037c.012.012.012.025.025.037s.012.025.025.037.025.025.025.037.012.025.025.025l.037.037.037.037c.012.012.025.025.037.025l.037.037c.012 0 .012.012.025.012l21.251 15.459-3.86 25.087V51.2c0 .025-.012.049-.012.074v.173a.074.074 0 0 0 .012.049.045.045 0 0 0 .012.037c0 .012.012.037.012.049s.012.025.012.037.012.037.012.049.012.025.012.037.012.025.025.037.012.025.025.037.012.025.025.037a.064.064 0 0 1 .025.049l.025.025a.17.17 0 0 1 .037.049l.025.025.037.037c.012.012.025.012.037.025s.025.025.037.025.037.025.049.037.012.012.025.012l.074.037h.012c.037.012.062.025.1.037.012 0 .012 0 .025.012s.049.012.074.025.037.012.049.012a.045.045 0 0 1 .037.012h.012c.037 0 .086.012.123.012a.342.342 0 0 0 .111-.012h.025a1.492 1.492 0 0 0 .222-.062c.012 0 .012 0 .025-.012.037-.012.062-.037.1-.049l.006-.012c.025-.012.049-.037.074-.049s.012-.012.025-.012l.074-.074c.012-.012.012-.012.012-.025.025-.025.049-.062.074-.086a.5.5 0 0 0 .062-.111v-.012l6.734-13.493L48.744 28.5a.012.012 0 0 0 .012-.012c.012-.012.037-.012.049-.025h.012c.012 0 .012-.012.025-.012s.025-.012.037-.025.012-.012.025-.012a.012.012 0 0 0 .012-.012c.012-.012.025-.012.025-.025h.025l.025-.025.025-.025a.012.012 0 0 0 .012-.012l.012-.012c0-.012.012-.012.012-.025l.025-.025.025-.025.012-.012a112.811 112.811 0 0 0 .025-.025c.012-.012.012-.025.025-.025a.012.012 0 0 1 .012-.012c.012-.012.012-.025.025-.037s.012-.025.025-.037c.012-.012.012-.025.025-.037s.012-.025.012-.037c0-.012.012-.025.012-.049v-.037l4.144-13.16H62.2a.272.272 0 0 0 .1-.012h.025c.025 0 .049-.012.074-.012s.025 0 .025-.012c.025-.012.049-.012.074-.025s.012 0 .025-.012a.369.369 0 0 0 .1-.049c.025-.012.062-.037.086-.049s.025-.012.025-.025.037-.025.049-.049.025-.012.025-.025a.327.327 0 0 0 .062-.074l.012-.012c.045-.009.058-.034.082-.071zm-10.237-3.54L48 25.742l-7.079-8.658zM5.243 2.357l24.088 4.3-6.882 17.21zm41.046 24.211l-22.237-1.714L30.9 7.747zm-19.98 9.67l-2.38-9.538 20.659 1.591zm-1.6 1.172l-4.119 8.227 2.356-15.281zM17.7 20.882L3.862 10.818h5.784zm37.112-10.557l4.144 2.59H54z" class="cls-1" data-name="Path 1088" transform="translate(156.9 3314.253)"/>
    </g>
</svg>
