<svg xmlns="http://www.w3.org/2000/svg" id="id-icon" viewBox="0 0 66.369 57.214">
    <defs>
        <style>
            .cls-1{fill:#e7eced}.cls-2{fill:#acb3ba}.cls-3{fill:#9e73b1}.cls-4{fill:#afb6bb}
        </style>
    </defs>
    <path id="Path_1031" d="M40.05 10v5.378a1.515 1.515 0 0 1-1.488 1.488H27.806a1.515 1.515 0 0 1-1.488-1.488V10H4.234A4.224 4.224 0 0 0 0 14.234v37.3a4.224 4.224 0 0 0 4.234 4.234h57.9a4.224 4.224 0 0 0 4.234-4.234v-37.3A4.224 4.224 0 0 0 62.135 10z" class="cls-1" data-name="Path 1031" transform="translate(0 1.443)"/>
    <path id="Path_1032" d="M35.244 0H24.488A1.515 1.515 0 0 0 23 1.488v15.333a1.515 1.515 0 0 0 1.488 1.488h10.756a1.515 1.515 0 0 0 1.488-1.488V1.488A1.515 1.515 0 0 0 35.244 0zm-5.378 10.3a3.372 3.372 0 0 1-3.433-3.433 3.433 3.433 0 0 1 6.866 0 3.372 3.372 0 0 1-3.433 3.433z" class="cls-2" data-name="Path 1032" transform="translate(3.319)"/>
    <path id="Path_1033" d="M24.537 41.116l-4.348-2.174a.766.766 0 0 1-.458-.8v-1.374a7.555 7.555 0 0 0 4.119-5.149 2.339 2.339 0 0 0 1.6-2.174V28.3a2.279 2.279 0 0 0-1.259-2.06c-.458-4.234-3.318-5.95-7.9-5.95h-.687a6.826 6.826 0 0 1-4.463-1.03 4.169 4.169 0 0 1-1.259-1.144.246.246 0 0 0-.458.114 5.744 5.744 0 0 0 .238 1.37c.343 1.945.114 1.6-.572 3.433a10.144 10.144 0 0 0-.8 3.2A2.557 2.557 0 0 0 7.144 28.3v1.144a2.339 2.339 0 0 0 1.6 2.174 7.5 7.5 0 0 0 4.119 5.149v1.259a.963.963 0 0 1-.458.8L7.945 41A3.946 3.946 0 0 0 6 44.32v1.488c0 1.259 4.577 1.945 10.3 1.945s10.3-.687 10.3-1.945v-1.374a3.566 3.566 0 0 0-2.063-3.318z" class="cls-3" data-name="Path 1033" transform="translate(.866 2.596)"/>
    <path id="Path_1034" d="M51.343 39.343a1.106 1.106 0 0 0 0 1.6 1.133 1.133 0 1 0 1.6-1.6 1.106 1.106 0 0 0-1.6 0z" class="cls-4" data-name="Path 1034" transform="translate(7.359 5.627)"/>
    <path id="Path_1035" d="M30.144 24.289h11.443a1.144 1.144 0 0 0 0-2.289H30.144a1.144 1.144 0 0 0 0 2.289z" class="cls-4" data-name="Path 1035" transform="translate(4.184 3.174)"/>
    <path id="Path_1036" d="M31.289 39h-1.145a1.144 1.144 0 0 0 0 2.289h1.144a1.144 1.144 0 0 0 0-2.289z" class="cls-4" data-name="Path 1036" transform="translate(4.184 5.627)"/>
    <path id="Path_1037" d="M37.433 39h-2.289a1.144 1.144 0 0 0 0 2.289h2.289a1.144 1.144 0 0 0 0-2.289z" class="cls-4" data-name="Path 1037" transform="translate(4.906 5.627)"/>
    <path id="Path_1038" d="M42.289 39h-1.145a1.144 1.144 0 0 0 0 2.289h1.144a1.144 1.144 0 0 0 0-2.289z" class="cls-4" data-name="Path 1038" transform="translate(5.771 5.627)"/>
    <path id="Path_1039" d="M48.433 39h-2.289a1.144 1.144 0 0 0 0 2.289h2.289a1.144 1.144 0 0 0 0-2.289z" class="cls-4" data-name="Path 1039" transform="translate(6.493 5.627)"/>
    <path id="Path_1040" d="M30.144 30.289h25.175a1.144 1.144 0 0 0 0-2.289H30.144a1.144 1.144 0 0 0 0 2.289z" class="cls-4" data-name="Path 1040" transform="translate(4.184 4.04)"/>
    <path id="Path_1041" d="M55.319 34H30.144a1.144 1.144 0 0 0 0 2.289h25.175a1.144 1.144 0 0 0 0-2.289z" class="cls-4" data-name="Path 1041" transform="translate(4.184 4.906)"/>
</svg>
