<svg xmlns="http://www.w3.org/2000/svg" viewBox="0 0 357.408 489.771">
    <defs>
        <style>
            .cls-1{fill:#f9b54c}.cls-2{fill:#f0f6f8}.cls-3{fill:#e2e7e7}.cls-4{fill:#3d5771}.cls-5{fill:#2f7aa1}.cls-6{fill:#3387aa}.cls-7{fill:#2f7291}.cls-8{fill:#ebe8d9}.cls-9{fill:none}.cls-10{fill:#cdc7ad}.cls-11{fill:#35b1d2}.cls-12{fill:#fff}.cls-13{fill:#f4d4b8}.cls-14{fill:#efb89f}.cls-15{fill:#97d7db}.cls-15,.cls-24{opacity:.3}.cls-16{fill:#ee6a71}.cls-17{fill:#da5764}.cls-18{fill:#0c81a6}.cls-19{fill:#10557b}.cls-20,.cls-24{fill:#154554}.cls-21{fill:#e6384c}.cls-22{fill:#f3808c}.cls-23{fill:#106876}.cls-25{fill:#fdfad5}.cls-26{fill:#f2f4fa}.cls-27{fill:#dfe3f3}.cls-28{fill:#bf735b}.cls-29{fill:#0c9dbf}.cls-30{fill:#0587ab}.cls-31{fill:#0c92b2}.cls-32{fill:#0c7a93}.cls-33{fill:#cdc8ae}.cls-34{fill:#f0592e;opacity:.7}.cls-35{fill:#0b557c}.cls-36{fill:#1081a7}.cls-37{fill:#127099}.cls-38{fill:#46b09c}
        </style>
    </defs>
    <g id="illustration" transform="translate(-161.55 -992.504)">
        <path id="background" d="M215.859 356.7c122.231-10.106 157.7-17.734 194.311-54.537 36.8-36.8 84.856-84.856 79.135-183.06-4.767-82.377-77.038-67.122-99.92-60.067-4 2.86-8.772 5.149-12.967 7.818-17.734 15.255-71.508 56.253-111.171 30.7C217.193 66.668 121.659 8.508 121.659 8.508S5.149-42.787 0 106.522c0 0 1.335 42.333 32.989 91.149s37.375 67.122 37.375 67.122S93.628 366.81 215.859 356.7z" class="cls-1" transform="rotate(-90 821.913 660.363)"/>
        <g id="desktop" transform="translate(88 988.805)">
            <path id="Path_2404" d="M332.768 155.139H63.181a9.213 9.213 0 0 1-9.281-9.281V126h288.15v19.857a9.213 9.213 0 0 1-9.282 9.282z" class="cls-2" data-name="Path 2404" transform="translate(54.441 206.783)"/>
            <path id="Rectangle_1090" d="M0 0h59.141v25.469H0z" class="cls-3" data-name="Rectangle 1090" transform="translate(223.385 361.922)"/>
            <path id="Path_2405" d="M342.05 216.557H53.9v-158A10.363 10.363 0 0 1 64.26 48.2h267.429a10.363 10.363 0 0 1 10.36 10.36v158z" class="cls-4" data-name="Path 2405" transform="translate(54.441 116.658)"/>
            <path id="Path_2452" d="M0 0h266.565v145.909H0z" class="cls-5" data-name="Path 2452" transform="translate(119.996 176.945)"/>
            <path id="Path_2406" d="M130.651 135.575a6.475 6.475 0 1 1-6.475-6.475 6.639 6.639 0 0 1 6.475 6.475z" class="cls-4" data-name="Path 2406" transform="translate(128.348 210.374)"/>
            <path id="Path_2407" d="M177.438 173.047H67.79a2.625 2.625 0 0 1-2.59-2.59V70.09a2.625 2.625 0 0 1 2.59-2.59h109.648a2.625 2.625 0 0 1 2.59 2.59v100.583a2.45 2.45 0 0 1-2.59 2.374z" class="cls-6" data-name="Path 2407" transform="translate(67.531 139.015)"/>
            <path id="Path_2408" d="M236.138 173.047H126.49a2.625 2.625 0 0 1-2.59-2.59V70.09a2.625 2.625 0 0 1 2.59-2.59h109.648a2.625 2.625 0 0 1 2.59 2.59v100.583a2.592 2.592 0 0 1-2.59 2.374z" class="cls-6" data-name="Path 2408" transform="translate(135.531 139.015)"/>
            <path id="Path_2409" d="M205.727 159.834H95a8.659 8.659 0 0 1 8.634-8.634h93.676a8.758 8.758 0 0 1 8.418 8.634z" class="cls-2" data-name="Path 2409" transform="translate(102.052 235.975)"/>
            <path id="Rectangle_1092" d="M0 0h17.483v6.259H0z" class="cls-4" data-name="Rectangle 1092" transform="translate(255.114 164.858)"/>
            <path id="Rectangle_1093" d="M0 0h266.565v14.893H0z" class="cls-7" data-name="Rectangle 1093" transform="translate(119.996 176.729)"/>
            <circle id="Ellipse_483" cx="3.885" cy="3.885" r="3.885" class="cls-5" data-name="Ellipse 483" transform="translate(366.057 180.614)"/>
            <path id="Path_2410" d="M93.06 62.159h-27.2A.928.928 0 0 1 65 61.3v-4.537a.928.928 0 0 1 .863-.863h27.2a.928.928 0 0 1 .863.863V61.3a.928.928 0 0 1-.866.859z" class="cls-5" data-name="Path 2410" transform="translate(67.299 125.578)"/>
            <path id="Path_2411" d="M224.313 160.111H129.99a2.625 2.625 0 0 1-2.59-2.59V73.99a2.625 2.625 0 0 1 2.59-2.59h94.323a2.625 2.625 0 0 1 2.59 2.59v83.531a2.494 2.494 0 0 1-2.59 2.59z" class="cls-5" data-name="Path 2411" transform="translate(139.585 143.533)"/>
            <path id="Path_2412" d="M87.478 100.539H71.29a2.625 2.625 0 0 1-2.59-2.59V73.99a2.625 2.625 0 0 1 2.59-2.59h16.188a2.625 2.625 0 0 1 2.59 2.59v24.174a2.759 2.759 0 0 1-2.59 2.375z" class="cls-5" data-name="Path 2412" transform="translate(71.586 143.533)"/>
            <path id="Path_2413" d="M100.978 100.539H84.79a2.625 2.625 0 0 1-2.59-2.59V73.99a2.625 2.625 0 0 1 2.59-2.59h16.188a2.625 2.625 0 0 1 2.59 2.59v24.174a2.759 2.759 0 0 1-2.59 2.375z" class="cls-5" data-name="Path 2413" transform="translate(87.224 143.533)"/>
        </g>
        <g id="man-3" transform="translate(88 988.805)">
            <path id="Path_1863_2_" d="M457.3 153.4v36.909h29.139V162.25l-9.065-8.85z" class="cls-8" transform="translate(-123.719 126.377)"/>
            <path id="Path_1864_2_" d="M457.3 190.525h29.355V153.4H457.3z" class="cls-9" transform="translate(-123.719 126.377)"/>
            <path id="Path_1865_2_" d="M460.648 160.9h16.188a.572.572 0 0 0 .648-.648.572.572 0 0 0-.648-.648h-16.188a.572.572 0 0 0-.647.648.689.689 0 0 0 .647.648" class="cls-10" transform="translate(-120.591 133.559)"/>
            <path id="Path_1866_2_" d="M460.648 158.5h6.475a.572.572 0 0 0 .647-.648.572.572 0 0 0-.647-.648h-6.475a.572.572 0 0 0-.647.648.572.572 0 0 0 .647.648" class="cls-10" transform="translate(-120.591 130.779)"/>
            <path id="Path_1867_2_" d="M476.836 161.9h-16.188a.572.572 0 0 0-.647.648.572.572 0 0 0 .647.648h16.188a.572.572 0 0 0 .648-.648.689.689 0 0 0-.648-.648" class="cls-10" transform="translate(-120.591 136.223)"/>
            <path id="Path_1868_2_" d="M457.3 178.014h29.139V164.2H457.3z" class="cls-11" transform="translate(-123.719 138.888)"/>
            <path id="Path_1869_2_" d="M466.6 153.4v8.85h9.065z" class="cls-10" transform="translate(-112.946 126.377)"/>
            <path id="Path_1870_2_" d="M461.311 167.2v4.533h.647a3.068 3.068 0 0 0 1.3-.432 2.055 2.055 0 0 0 .432-1.511v-.432a3.119 3.119 0 0 0-.432-1.511 1.038 1.038 0 0 0-1.3-.432h-.647zm-1.511 5.612V165.9h2.158a5.08 5.08 0 0 1 1.727.432 2.6 2.6 0 0 1 1.079 1.079 4.065 4.065 0 0 1 .432 1.727v.216a5.078 5.078 0 0 1-.432 1.727 2.6 2.6 0 0 1-1.079 1.079 4.065 4.065 0 0 1-1.727.432z" class="cls-12" transform="translate(-120.823 140.857)"/>
            <path id="Path_1871_2_" d="M467.133 169.353a2.6 2.6 0 0 0-.432-1.727 1.223 1.223 0 0 0-2.158 0 4 4 0 0 0-.432 1.511v.432a2.6 2.6 0 0 0 .432 1.727 1.223 1.223 0 0 0 2.158 0 4.066 4.066 0 0 0 .432-1.727zm1.511.216a4.066 4.066 0 0 1-.432 1.727 2.6 2.6 0 0 1-1.079 1.079 4 4 0 0 1-1.511.432 3.12 3.12 0 0 1-1.511-.432 2.6 2.6 0 0 1-1.079-1.079 5.08 5.08 0 0 1-.432-1.727v-.432a4.066 4.066 0 0 1 .432-1.727 2.6 2.6 0 0 1 1.079-1.079 4 4 0 0 1 1.511-.432 3.12 3.12 0 0 1 1.511.432 2.6 2.6 0 0 1 1.079 1.079 5.079 5.079 0 0 1 .432 1.727z" class="cls-12" transform="translate(-117.579 140.857)"/>
            <path id="Path_1872_2_" d="M471.528 170.533a2.665 2.665 0 0 1-.863 1.727 3.482 3.482 0 0 1-1.943.648 2.771 2.771 0 0 1-2.158-.863 3.246 3.246 0 0 1-.863-2.374v-.432a4.066 4.066 0 0 1 .432-1.727 2.6 2.6 0 0 1 1.079-1.079 4 4 0 0 1 1.511-.432 3.481 3.481 0 0 1 1.943.648 2.665 2.665 0 0 1 .863 1.727h-1.511a1.121 1.121 0 0 0-.432-.863.949.949 0 0 0-1.079-.216 1.649 1.649 0 0 0-1.079.432 4 4 0 0 0-.432 1.511v.432a1.821 1.821 0 0 0 .432 1.511.788.788 0 0 0 1.079.432 1.946 1.946 0 0 0 1.079-.216 1.636 1.636 0 0 0 .432-.863z" class="cls-12" transform="translate(-113.988 140.973)"/>
            <path id="Path_2442" d="M192.962 121.865c-.648-1.079-2.158-2.158-4.317-3.669-2.806-1.727-7.339-4.1-9.713-5.4a15.129 15.129 0 0 1-4.533 4.533c2.59 1.943 7.123 4.749 9.281 6.044 3.022 1.943 7.339 4.1 9.281 1.079a2.752 2.752 0 0 0 .001-2.587z" class="cls-13" data-name="Path 2442" transform="translate(194.031 191.492)"/>
            <path id="Path_2443" d="M192.962 120.128c0 1.511-2.158 3.453-8.85-.863-3.669-2.374-6.259-3.885-7.986-4.964a11.975 11.975 0 0 1-1.727 1.3c2.59 1.943 7.123 4.749 9.281 6.044 3.022 1.943 7.339 4.1 9.281 1.079a2.752 2.752 0 0 0 .001-2.596z" class="cls-14" data-name="Path 2443" transform="translate(194.031 193.23)"/>
            <path id="Path_2444" d="M191.535 120.464c-2.59-1.727-6.259-3.885-8.2-4.964a9.65 9.65 0 0 1-4.533 4.749c2.806 1.943 7.123 4.749 9.281 6.044.216 0 .216.216.432.216a12.362 12.362 0 0 1 3.02-6.045z" class="cls-13" data-name="Path 2444" transform="translate(199.128 194.62)"/>
            <path id="Path_2445" d="M189.045 122.5c-.216-.216-.432-.216-.648-.432a603.856 603.856 0 0 0-7.77-4.964c-.648.432-1.079.863-1.727 1.3 2.806 1.943 7.123 4.749 9.281 6.044.216 0 .216.216.432.216a7.669 7.669 0 0 1 .432-2.164z" class="cls-14" data-name="Path 2445" transform="translate(199.244 196.473)"/>
            <path id="Path_2446" d="M190.724 121.159l.216-.216-9.929-6.044-1.511 1.727 3.453 3.238 7.339 1.727c.216-.432.432-.432.432-.432z" class="cls-13" data-name="Path 2446" transform="translate(199.939 193.925)"/>
            <path id="Path_2447" d="M172.8 110.632s.216 3.022 1.511 4.533 2.158 2.158 3.669 3.885a17.2 17.2 0 0 0 2.806 2.806 13.36 13.36 0 0 1 1.511-4.1c.216-.432.648-.863.863-1.3-.648-.432-1.511-.863-2.374-1.511-3.669-1.943-3.238-3.453-4.317-4.964-.863-1.511-3.885-1.079-5.612-.863a2.531 2.531 0 0 0-2.158 1.3z" class="cls-13" data-name="Path 2447" transform="translate(187.428 186.968)"/>
            <path id="Path_2448" d="M174.3 114.439c1.3 1.511 2.158 2.158 3.669 3.885a17.2 17.2 0 0 0 2.806 2.806c.216-.648.216-1.3.432-1.943a56.434 56.434 0 0 1-4.964-4.749c-1.3-1.727-.863-3.669-1.943-4.533s-5.18 0-5.4 0l3.885.216c-.216-.215 0 2.807 1.515 4.318z" class="cls-14" data-name="Path 2448" transform="translate(187.66 187.695)"/>
            <path id="Path_2449" d="M177.122 112.4a12.021 12.021 0 0 1 3.022 1.511c1.079.863-5.612 3.885-5.612 3.885l-.432-.648.216-2.374 1.511-1.727z" class="cls-13" data-name="Path 2449" transform="translate(193.684 191.029)"/>
            <path id="Path_2450" d="M174.243 113.3l5.612 4.1-3.885-.216s-1.511-1.3-2.158-1.943.431-1.941.431-1.941z" class="cls-14" data-name="Path 2450" transform="translate(193.109 192.071)"/>
            <path id="Path_2451" d="M174.3 115.148a.754.754 0 0 0 .432.216l.216-.648-.432-.216z" class="cls-14" data-name="Path 2451" transform="translate(193.915 193.461)"/>
            <path id="XMLID_57_" d="M199.234 121.31c1.511 3.238 5.612 11.224 5.828 12.735 0 1.3-1.943 5.18-3.022 7.339l-2.374 4.749c-.863 1.727-3.885 3.022-3.885 3.022l1.079 3.669s-1.3 0-1.943-1.727c-.648-1.511-2.374-4.317-1.079-5.828 1.079-1.3 2.806-1.511 3.454-5.828a16.763 16.763 0 0 1 1.511-5.18s-4.317-7.339-6.475-11.44c-1.079-2.374-1.727-4.1-1.727-5.4a2.167 2.167 0 0 1 1.3-2.158c3.016-1.507 5.606 2.81 7.333 6.047z" class="cls-13" transform="translate(212.798 193.99)"/>
            <path id="XMLID_56_" d="M199.35 121.239c1.511 3.238 5.612 11.224 5.828 12.735 0 1.3-1.943 5.18-3.022 7.339l-2.374 4.749c-.863 1.727-3.885 3.022-3.885 3.022l1.079 3.669c-.216-.216-2.158-3.885-1.727-5.18.432-1.511 2.374-1.511 3.669-3.453a57.314 57.314 0 0 0 4.1-9.929c.216-1.079-1.511-3.885-5.18-11.224s-6.475-6.691-7.339-5.4a2.167 2.167 0 0 1 1.3-2.158c3.234-1.724 5.824 2.591 7.551 5.83z" class="cls-14" transform="translate(212.682 194.061)"/>
            <path id="XMLID_54_" d="M183.706 110.6s-1.511 4.1-1.3 4.317 1.511.216 1.511.216z" class="cls-14" transform="translate(203.287 188.943)"/>
            <path id="XMLID_53_" d="M182.019 110.616l2.59-.216v3.885s-1.511.216-2.158-.648c-.651-.647-.432-3.021-.432-3.021z" class="cls-15" transform="translate(202.817 188.712)"/>
            <path id="XMLID_51_" d="M196.928 121.633a28.825 28.825 0 0 1-.863 3.885l-4.965-10.792a3.914 3.914 0 0 1 3.885.216 6.682 6.682 0 0 1 1.943 4.1z" class="cls-16" transform="translate(213.377 193.235)"/>
            <path id="XMLID_50_" d="M196.928 121.407a28.826 28.826 0 0 1-.863 3.885L191.1 114.5l1.943.648a9.466 9.466 0 0 1 2.59 3.238c1.3 2.59 1.3.432 1.3.432z" class="cls-17" transform="translate(213.377 193.461)"/>
            <path id="XMLID_48_" d="M196.914 123.625l-6.475 3.238s-1.079-2.806-1.727-3.022-2.374.432-3.885.432h-.216c-.863-.432-1.3-2.374-1.511-5.4v-4.317c0-5.18 2.374-5.828 4.749-6.907a6.541 6.541 0 0 1 7.123.432c3.022 1.943 2.59 6.475 1.943 9.929-.216.863-.216 1.511-.432 2.158-.864 2.809.431 3.457.431 3.457z" class="cls-13" transform="translate(204.109 184.552)"/>
            <path id="XMLID_47_" d="M185.9 111.1s.432-1.079 1.3-.648c.648.432.648 1.943 0 3.022 0 0 .432-1.727-.216-2.374-.436-.429-1.084 0-1.084 0z" class="cls-14" transform="translate(207.353 188.657)"/>
            <path id="XMLID_46_" d="M196.1 117.728l-6.475 3.238s-1.079-2.806-1.727-3.022-2.374.432-3.885.432h-.213s2.806-1.079 3.669-1.511c.648-.432 1.511-3.453 1.511-3.453l6.907-1.511c-.216.863-.216 1.511-.432 2.158-.647 3.021.645 3.669.645 3.669z" class="cls-14" transform="translate(204.92 190.449)"/>
            <path id="XMLID_45_" d="M214.749 172.563c-1.727 3.669-4.317 3.453-4.317 3.453s-10.792-15.109-11.008-16.4c-.432-1.3-2.158-11.655-2.158-11.655l-3.885 13.382a17.118 17.118 0 0 1 .432 3.669 36.3 36.3 0 0 1-.863 7.123c-1.079 5.4-2.158 9.929-2.158 9.929a3.738 3.738 0 0 1-3.238.648 7.624 7.624 0 0 1-2.59-.863s.216-12.735 0-15.972c-.216-3.453-.648-4.964-.432-7.123s.863-7.77 1.511-13.382c.648-5.828 1.943-13.6 1.943-13.6l16.836-3.669s1.727 2.158 1.943 9.5c.216 5.828.648 20.073.648 20.073 2.59 1.727 3.453 3.454 4.748 6.691.863 1.943 1.727 4.749 2.374 6.691-.001.426.214 1.29.214 1.505z" class="cls-18" transform="translate(205.7 209.216)"/>
            <path id="XMLID_44_" d="M207.883 167.119c-1.727 3.669-4.317 3.454-4.317 3.454s-10.792-15.109-11.008-16.4c-.432-1.3-2.158-11.655-2.158-11.655l1.727-5.612a22.3 22.3 0 0 0 5.612-4.1 17.689 17.689 0 0 1-3.669 4.964v12.951c0 2.806 3.669 9.065 7.339 14.03 3.238 4.533 5.612 1.3 6.044.432a17.589 17.589 0 0 1 .43 1.936z" class="cls-19" transform="translate(212.566 214.66)"/>
            <path id="XMLID_43_" d="M200.43 113c-.648-1.727-1.727-1.943-1.727-1.943a3.894 3.894 0 0 0-3.022-3.022c-2.806-.863-3.022.216-5.828 0-3.022-.216-2.59-4.749-3.885-3.022-1.3 1.511.216 4.749.216 4.749a8.958 8.958 0 0 1-3.022-1.3c-1.079-.863-2.59-1.511-1.3 1.511a5.4 5.4 0 0 0 4.317 3.238 5.257 5.257 0 0 0 2.59 2.374v2.158c0 1.3.432 1.943.863 1.727s.648-1.727.863-2.374v-.216c.216-.216.432-.216.432-.432 1.3-.863 2.158 0 2.59 1.3a3.3 3.3 0 0 1-.863 3.238 1.394 1.394 0 0 1-1.079.648c.216 3.669 2.158 4.749 2.374 4.1a8.351 8.351 0 0 0 .216-1.943 3.728 3.728 0 0 0 .648.863c.648.648 1.943.432 1.727-.432a4.9 4.9 0 0 0-.216-.863c.216.432.432.863.648.863.432.432 1.3 0 1.3-1.079a6.551 6.551 0 0 1 .648-2.374c1.08-1.729 2.158-6.046 1.51-7.769z" class="cls-20" transform="translate(202.104 182.015)"/>
            <path id="XMLID_42_" d="M188.088 110.316l-3.669.216-2.59.216v.216a8.151 8.151 0 0 0 .216 3.022c.216.863 1.3 1.079 1.943 1.079h.432v-.648c-.216 0-1.511.216-1.727-.648a10.592 10.592 0 0 1-.216-2.374l1.943-.216 3.669-.216 1.943-.216v-.216c.216-.216.432-.216.432-.432z" class="cls-21" transform="translate(202.574 188.364)"/>
            <path id="XMLID_38_" d="M188.107 120.054c-1.079.648-3.885 1.943-4.533 3.885s1.079 7.77 2.806 10.576a16.591 16.591 0 0 1 2.59 6.691 35.119 35.119 0 0 1-.216 5.18c0 .863 5.18 2.59 10.576.648 5.612-1.943 6.691-3.885 6.475-5.18 0-1.3-.863-6.475-.863-11.656s-.432-11.008-2.158-13.814-3.669-1.727-5.18-1.079c-1.079.864-9.497 4.749-9.497 4.749z" class="cls-22" transform="translate(204.498 193.519)"/>
            <path id="XMLID_36_" d="M206.845 152.654s-.432 11.008-.216 11.224c0 .216-4.1 2.59-5.828 3.669a.211.211 0 0 0-.216.216 2.735 2.735 0 0 1-2.806-.648 4.514 4.514 0 0 1 1.079-5.18s.216 0 .216-1.727 0-4.317-.432-4.964a15.664 15.664 0 0 0-1.943-2.374l3.454-2.374 1.943-1.3a15.14 15.14 0 0 0 3.453 2.158c1.511.652 1.296 1.3 1.296 1.3z" class="cls-23" transform="translate(219.864 233.659)"/>
            <path id="XMLID_35_" d="M202 164.377a4.823 4.823 0 0 1-1.511 2.59 2.735 2.735 0 0 1-2.806-.648 4.515 4.515 0 0 1 1.079-5.18s.216 0 .216-1.727 0-4.317-.432-4.964a15.655 15.655 0 0 0-1.943-2.374l3.454-2.374c.648.432 1.511 1.079 1.511 1.943 0 1.511.216 1.943 1.511 2.59 1.291.867-.22 7.986-1.079 10.144z" class="cls-24" transform="translate(219.748 234.238)"/>
            <path id="XMLID_34_" d="M197.9 155.732a.432.432 0 1 1 .432.432c-.432-.001-.432-.216-.432-.432z" class="cls-25" transform="translate(221.254 240.725)"/>
            <circle id="XMLID_33_" cx=".432" cy=".432" r=".432" class="cls-25" transform="translate(419.37 393.867)"/>
            <path id="XMLID_32_" d="M198 153.432a.432.432 0 1 1 .432.432.464.464 0 0 1-.432-.432z" class="cls-25" transform="translate(221.37 238.061)"/>
            <path id="XMLID_31_" d="M200.369 155.176a2.98 2.98 0 0 0-.648.863 7.335 7.335 0 0 0-.648 4.317c-3.022-.216-3.669-1.943-3.669-1.943a2.781 2.781 0 0 1 1.511-2.59c.216-.216.432-.216.648-.432a4.266 4.266 0 0 1 2.806-.215z" class="cls-26" transform="translate(218.353 240.418)"/>
            <path id="XMLID_30_" d="M199.074 160.164c-3.022-.216-3.669-1.943-3.669-1.943a2.781 2.781 0 0 1 1.511-2.59c.216-.216.432-.216.648-.432-.216.216-1.3 1.3-1.079 2.158.432.863 1.943-.863 3.022-1.511a8.9 8.9 0 0 0-.433 4.318z" class="cls-27" transform="translate(218.353 240.609)"/>
            <path id="XMLID_29_" d="M205.607 151.116c.863.216.648 2.374 0 4.533-.432 2.158-.863 2.806-.432 4.533.216 1.727.432 2.374-.216 3.022s-6.259 3.238-6.259 3.238a21.511 21.511 0 0 0 1.3-6.475c.216-3.885.432-6.259 2.158-7.986a3.046 3.046 0 0 1 3.449-.865z" class="cls-28" transform="translate(222.181 235.628)"/>
            <path id="XMLID_28_" d="M195.645 163.468a9.867 9.867 0 0 0 4.533 1.943c2.374.216 2.59-.648 2.806-3.669s.432-6.907 1.511-8.85c1.079-1.727 3.022-2.59 3.885-2.374a1.914 1.914 0 0 1 1.079.863 4.18 4.18 0 0 0-3.238 1.3c-1.511 1.511-1.727 4.749-1.943 7.555 0 2.806-.216 6.259-2.59 6.691a7.864 7.864 0 0 1-6.259-1.943c-.647-.437.216-1.516.216-1.516z" class="cls-26" transform="translate(218.113 235.147)"/>
            <path id="XMLID_27_" d="M188.66 156.021l-6.26 4.749c-3.885-.648-4.1-2.158-4.1-2.158a1.67 1.67 0 0 1 .216-.648c-.216-1.3.647-2.59 2.59-3.453a1.946 1.946 0 0 1 1.079-.216c4.533-.864 6.475 1.726 6.475 1.726z" class="cls-26" transform="translate(198.549 239.356)"/>
            <path id="XMLID_26_" d="M188.545 155.927l-6.044 4.533c-3.885-.647-4.1-2.158-4.1-2.158a1.67 1.67 0 0 1 .216-.648c-.216-1.3.648-2.59 2.59-3.453a2.336 2.336 0 0 0-.863 3.669c1.078 1.079 5.179-2.807 8.201-1.943z" class="cls-27" transform="translate(198.665 239.451)"/>
            <path id="XMLID_25_" d="M196.057 161.27s-2.59 2.374-5.18 2.59c-2.59 0-3.238-.863-6.044-1.511s-4.533-.863-4.533-.863a.668.668 0 0 1 .216-.432c.432-1.3 1.727-4.533 6.475-4.317a1.7 1.7 0 0 0 1.511-1.079 9.249 9.249 0 0 0 .648-2.158h3.022l3.885.216a15.286 15.286 0 0 0 .216 3.238 14.524 14.524 0 0 1-.216 4.316z" class="cls-23" transform="translate(200.866 238.64)"/>
            <path id="XMLID_24_" d="M196.057 161.154s-2.59 2.374-5.18 2.59c-2.59 0-3.238-.863-6.044-1.511s-4.533-.863-4.533-.863a.668.668 0 0 1 .216-.432 25.321 25.321 0 0 1 5.828 0c2.374.648 3.453 1.079 4.748.648 2.806-.648 1.727-3.022 1.727-4.749a8.228 8.228 0 0 1 .216-3.238l2.806.216a15.287 15.287 0 0 0 .216 3.238 13.067 13.067 0 0 1 0 4.101z" class="cls-24" transform="translate(200.866 238.756)"/>
            <circle id="XMLID_23_" cx=".432" cy=".432" r=".432" class="cls-25" transform="translate(388.289 396.241)"/>
            <circle id="XMLID_22_" cx=".432" cy=".432" r=".432" class="cls-25" transform="translate(383.972 396.673)"/>
            <path id="XMLID_21_" d="M182.6 156.132a.432.432 0 1 1 .432.432.464.464 0 0 1-.432-.432z" class="cls-25" transform="translate(203.53 241.188)"/>
            <path id="XMLID_20_" d="M198.258 158.706a7.293 7.293 0 0 1-5.4 1.727c-3.453-.216-4.533-1.511-7.339-1.943-3.022-.432-5.4-.216-6.907-2.59 0 0-.216 0-.216 1.079s1.511 2.374 3.669 2.59c1.943.216 4.1 0 6.259 1.079a11.019 11.019 0 0 0 4.748 1.511 7.891 7.891 0 0 0 5.4-1.943 1.683 1.683 0 0 0-.214-1.51z" class="cls-28" transform="translate(198.665 241.42)"/>
            <path id="XMLID_19_" d="M198.258 158.606a7.293 7.293 0 0 1-5.4 1.727c-3.453-.216-4.533-1.511-7.339-1.943-3.022-.432-5.4-.216-6.907-2.59 0 0-.216 0-.216 1.079s1.511 2.374 3.669 2.59c1.943.216 4.1 0 6.259 1.079a11.019 11.019 0 0 0 4.748 1.511 7.891 7.891 0 0 0 5.4-1.943c.217-1.294-.214-1.51-.214-1.51z" class="cls-26" transform="translate(198.665 241.304)"/>
            <path id="XMLID_17_" d="M195.96 117.212c-.216.216-1.511 2.158-5.612 3.022a22.3 22.3 0 0 0-4.749.648 6.556 6.556 0 0 1 1.943-3.453 26.393 26.393 0 0 1 4.1-2.59 10.292 10.292 0 0 0 1.727-.863s.863-.648 1.511.863a13.1 13.1 0 0 0 1.08 2.373z" class="cls-16" transform="translate(207.005 192.692)"/>
            <path id="XMLID_16_" d="M192.07 152.479l-.432 3.669c-.863 1.3-4.964 1.079-6.691 0-.432-.216-.648-.432-.648-.863v-3.454a.464.464 0 0 1 .432-.432 11.319 11.319 0 0 0 6.907.432c.001.217.432.432.432.648z" class="cls-29" transform="translate(205.499 236.207)"/>
            <path id="XMLID_15_" d="M192.067 152.132l-.432 3.669c-.863 1.3-4.964 1.079-6.691 0 1.079.432 3.885.216 4.317-.648.432-.648-2.59-1.727-3.885-2.59s-1.3-1.079-.648-.648a10.662 10.662 0 0 0 5.18.863c1.943-.432 1.727-.863 1.511-.863a.414.414 0 0 1 .648.217z" class="cls-30" transform="translate(205.503 236.555)"/>
            <path id="XMLID_14_" d="M195.451 151.688l1.943 3.022c1.3.648 4.964-1.3 6.044-2.806.216-.432.432-.648.216-1.079l-1.511-3.238a.4.4 0 0 0-.647 0 12.026 12.026 0 0 1-6.044 3.453c-.001.216-.216.432-.001.648z" class="cls-29" transform="translate(218.307 231.602)"/>
            <path id="XMLID_13_" d="M195.445 151.443l1.943 3.022c1.3.648 4.964-1.3 6.044-2.806-.863.863-3.454 1.727-4.1 1.3-.863-.432 1.511-2.806 2.374-4.1s.648-1.511.216-.863a12.323 12.323 0 0 1-4.317 3.022c-1.943.648-1.943 0-1.727-.216-.433.21-.648.425-.433.641z" class="cls-30" transform="translate(218.313 231.847)"/>
            <path id="XMLID_11_" d="M186.046 126.583a40.333 40.333 0 0 1-6.046-3.237c-.648-.648-.432-1.943.432-3.453 1.079-2.374 3.669-4.964 5.612-4.1 0 0 4.533 3.238 6.259 4.749 1.3 1.079 2.374 2.59 1.943 4.317a12.38 12.38 0 0 1-.863 1.511c-2.157 2.156-4.963 1.077-7.337.213z" class="cls-16" transform="translate(200.085 194.76)"/>
            <path id="XMLID_8_" d="M186.046 124.291a40.331 40.331 0 0 1-6.046-3.238c-.648-.648-.432-1.943.432-3.453a83.25 83.25 0 0 0 7.77 4.749c3.453 1.727 5.18 1.3 5.828 0a12.385 12.385 0 0 1-.863 1.511c-1.941 2.374-4.747 1.294-7.121.431z" class="cls-17" transform="translate(200.085 197.052)"/>
            <path id="XMLID_7_" d="M195.96 116.79c-.216.216-1.511 2.158-5.612 2.806a22.3 22.3 0 0 0-4.749.648 6.557 6.557 0 0 1 1.943-3.453 26.394 26.394 0 0 1 4.1-2.59c-1.3 1.079-1.511 3.022-1.079 3.453.437 1.079 3.887.646 5.397-.864z" class="cls-17" transform="translate(207.005 193.114)"/>
            <path id="XMLID_6_" d="M185.7 154.974a3.565 3.565 0 0 0-4.1 1.727s.216.216.648 0a10.3 10.3 0 0 1 3.452-1.727z" class="cls-31" transform="translate(202.372 240.187)"/>
            <path id="XMLID_5_" d="M184.958 154.8s-1.727-.216-2.158 2.158c0 0 0 .432.432 0a3.56 3.56 0 0 1 1.726-2.158z" class="cls-31" transform="translate(203.762 240.143)"/>
            <path id="XMLID_4_" d="M183.729 157.206a4.129 4.129 0 0 1 .216-2.158c.432-.648.648-.648.648-.648a7.026 7.026 0 0 0-.648 2.806z" class="cls-31" transform="translate(204.775 239.682)"/>
            <path id="XMLID_3_" d="M197.932 154.6l-.432.432a1.45 1.45 0 0 0 .863 1.511c.216.216.648 0 0-.432-.215-.648-.431-1.511-.431-1.511z" class="cls-31" transform="translate(220.791 239.914)"/>
            <path id="XMLID_2_" d="M197.816 153.6a.754.754 0 0 0-.216.432 2.234 2.234 0 0 0 1.079 1.511c.648.216.216-.432 0-.648-.216.005-.863-1.295-.863-1.295z" class="cls-31" transform="translate(220.907 238.756)"/>
            <path id="XMLID_1_" d="M197.816 152.6a.754.754 0 0 0-.216.432 2.753 2.753 0 0 0 1.511 1.079c.432 0 .432-.216 0-.432a10.094 10.094 0 0 1-1.295-1.079z" class="cls-31" transform="translate(220.907 237.597)"/>
        </g>
        <g id="man-2" transform="translate(88 988.805)">
            <path id="XMLID_278_" d="M67.3 170.29l6.044 3.238c3.453-1.079 3.238-2.374 3.238-2.374a1.671 1.671 0 0 0-.216-.648c0-1.079-.863-2.158-2.806-2.59a2.347 2.347 0 0 1-1.079-.216c-3.881.216-5.181 2.59-5.181 2.59z" class="cls-26" transform="translate(69.964 255.089)"/>
            <path id="XMLID_277_" d="M67.3 170.174l5.828 3.238c3.453-1.079 3.238-2.374 3.238-2.374a1.67 1.67 0 0 0-.216-.648c0-1.079-.863-2.158-2.806-2.59 1.511.648 1.943 2.158 1.079 3.022-.432 1.078-4.533-1.722-7.123-.648z" class="cls-27" transform="translate(69.964 255.205)"/>
            <path id="XMLID_276_" d="M64.163 175.355s2.59 1.727 4.749 1.511 2.806-1.3 5.18-2.158 3.885-1.3 3.885-1.3a.668.668 0 0 0-.216-.432c-.432-1.079-1.943-3.669-6.259-2.806a2.335 2.335 0 0 1-1.511-.647 11.733 11.733 0 0 1-.863-1.727l-2.59.432-3.238.648c0 .863.216 1.943.216 2.806.216 1.082.432 3.025.647 3.673z" class="cls-23" transform="translate(65.33 255.205)"/>
            <path id="XMLID_275_" d="M64.163 175.123s2.59 1.727 4.749 1.511 2.806-1.3 5.18-2.158 3.885-1.3 3.885-1.3a.668.668 0 0 0-.216-.432 16.23 16.23 0 0 0-4.964.648c-1.943.863-2.806 1.3-4.1 1.3-2.59-.216-1.943-2.374-2.158-3.885A4.817 4.817 0 0 0 65.89 168l-2.59.432c0 .863.216 1.943.216 2.806.216 1.295.432 3.237.647 3.885z" class="cls-24" transform="translate(65.33 255.437)"/>
            <circle id="XMLID_273_" cx=".432" cy=".432" r=".432" class="cls-25" transform="translate(135.753 426.459)"/>
            <circle id="XMLID_272_" cx=".432" cy=".432" r=".432" class="cls-25" transform="translate(139.638 426.027)"/>
            <path id="XMLID_271_" d="M68.363 169.832a.432.432 0 1 0-.432.432.464.464 0 0 0 .432-.432z" class="cls-25" transform="translate(70.196 257.059)"/>
            <path id="XMLID_270_" d="M63.758 174.074a6.3 6.3 0 0 0 4.964.863c3.022-.648 3.669-1.943 6.259-2.59s4.749-.863 5.612-3.238c0 0 .216-.216.432.863.216.863-1.079 2.158-2.806 2.806-1.727.432-3.669.648-5.18 1.727-1.727 1.079-2.374 1.511-3.885 1.727a9.312 9.312 0 0 1-4.964-.863c-.864-.863-.432-1.295-.432-1.295z" class="cls-28" transform="translate(65.736 256.702)"/>
            <path id="XMLID_269_" d="M63.758 173.974a6.3 6.3 0 0 0 4.964.863c3.022-.648 3.669-1.943 6.259-2.59s4.749-.863 5.612-3.238c0 0 .216-.216.432.863s-1.079 2.158-2.806 2.806c-1.727.432-3.669.648-5.18 1.727-1.727 1.079-2.374 1.511-3.885 1.727a9.312 9.312 0 0 1-4.964-.863c-.864-.863-.432-1.295-.432-1.295z" class="cls-26" transform="translate(65.736 256.586)"/>
            <path id="XMLID_268_" d="M66.9 169a3.583 3.583 0 0 1 3.885 1.079.3.3 0 0 1-.432 0A10.865 10.865 0 0 0 66.9 169z" class="cls-31" transform="translate(69.501 256.377)"/>
            <path id="XMLID_267_" d="M66.7 168.922s1.511-.432 2.158 1.511c0 0 0 .432-.432 0a2.417 2.417 0 0 0-1.726-1.511z" class="cls-31" transform="translate(69.269 256.458)"/>
            <path id="XMLID_266_" d="M67.479 170.874a4.408 4.408 0 0 0-.432-1.943c-.432-.432-.648-.432-.648-.432a7.632 7.632 0 0 1 .863 2.374c.001.217.217.217.217.001z" class="cls-31" transform="translate(68.921 256.016)"/>
            <path id="XMLID_264_" d="M52.7 176.4l5.4 4.317c3.453-.432 3.669-1.727 3.669-1.727v-.648c.216-1.079-.432-2.374-2.158-3.022a1.617 1.617 0 0 0-1.079-.216c-4.105-.858-5.832 1.296-5.832 1.296z" class="cls-26" transform="translate(53.051 263.437)"/>
            <path id="XMLID_263_" d="M52.7 176.279l5.18 4.317c3.453-.432 3.669-1.727 3.669-1.727v-.648c.216-1.079-.432-2.374-2.158-3.022a2 2 0 0 1 .648 3.238c-1.08.432-4.533-3.021-7.339-2.158z" class="cls-27" transform="translate(53.051 263.778)"/>
            <path id="XMLID_262_" d="M48.743 180.875a8.8 8.8 0 0 0 4.533 2.374c2.158.216 2.806-.648 5.4-1.3a27.742 27.742 0 0 1 4.1-.432v-.432c-.216-1.079-1.3-3.885-5.612-3.885a2.446 2.446 0 0 1-1.3-.863 4.992 4.992 0 0 1-.432-1.943h-5.825a12.308 12.308 0 0 1-.216 2.806 5.6 5.6 0 0 0-.648 3.675z" class="cls-23" transform="translate(48.374 262.851)"/>
            <path id="XMLID_261_" d="M48.748 180.875a8.8 8.8 0 0 0 4.533 2.374c2.158.216 2.806-.648 5.4-1.3a27.742 27.742 0 0 1 4.1-.432v-.432c-.648 0-3.238-.648-4.964-.216-1.943.432-3.022.863-4.317.432-2.374-.648-1.511-2.806-1.511-4.1a6.43 6.43 0 0 0-.216-2.806H49.18a12.308 12.308 0 0 1-.216 2.806 10.531 10.531 0 0 0-.216 3.674z" class="cls-24" transform="translate(48.369 262.851)"/>
            <circle id="XMLID_260_" cx=".432" cy=".432" r=".432" class="cls-25" transform="translate(104.024 440.704)"/>
            <circle id="XMLID_259_" cx=".432" cy=".432" r=".432" class="cls-25" transform="translate(107.909 441.136)"/>
            <path id="XMLID_258_" d="M53.563 176.632a.432.432 0 1 0-.432.432.464.464 0 0 0 .432-.432z" class="cls-25" transform="translate(53.051 264.936)"/>
            <path id="XMLID_257_" d="M48.776 178.543a7.051 7.051 0 0 0 4.749 1.727c3.022 0 3.885-1.3 6.475-1.511s4.749 0 6.259-2.158c0 0 .216 0 .216.863 0 1.079-1.511 1.943-3.238 2.158s-3.669 0-5.4.648a7.789 7.789 0 0 1-4.1 1.079 9.052 9.052 0 0 1-4.749-1.727c-.644-.864-.212-1.079-.212-1.079z" class="cls-28" transform="translate(48.342 265.399)"/>
            <path id="XMLID_256_" d="M48.776 178.443a7.051 7.051 0 0 0 4.749 1.727c3.022 0 3.885-1.3 6.475-1.511s4.749 0 6.259-2.158c0 0 .216 0 .216.863 0 1.079-1.511 1.943-3.238 2.158s-3.669 0-5.4.648a7.789 7.789 0 0 1-4.1 1.079 9.052 9.052 0 0 1-4.749-1.727c-.644-.864-.212-1.079-.212-1.079z" class="cls-26" transform="translate(48.342 265.284)"/>
            <path id="XMLID_255_" d="M52.3 175.643a3.026 3.026 0 0 1 3.453 1.727.3.3 0 0 1-.432 0 5.115 5.115 0 0 0-3.021-1.727z" class="cls-31" transform="translate(52.588 264.198)"/>
            <path id="XMLID_254_" d="M52.1 175.5s1.511-.216 1.943 1.943c0 0 0 .432-.432 0A3.617 3.617 0 0 0 52.1 175.5z" class="cls-31" transform="translate(52.356 264.122)"/>
            <path id="XMLID_253_" d="M52.548 177.59a5.509 5.509 0 0 0 0-1.943C52.116 175 51.9 175 51.9 175a9 9 0 0 1 .432 2.374c-.216.432 0 .432.216.216z" class="cls-31" transform="translate(52.124 263.546)"/>
            <path id="Path_2414" d="M82.992 175.391v-3.238l-.432-5.4a5.608 5.608 0 0 0-1.943-3.453l-.648-.432L59.034 146.9 50.4 160.714l22.663 9.5v.432a10.457 10.457 0 0 0 0 3.669 34.212 34.212 0 0 0 1.727 7.339l3.453 10.36a5.6 5.6 0 0 0 3.669.432 8.184 8.184 0 0 0 2.59-1.3s-1.294-11.006-1.51-15.755z" class="cls-32" data-name="Path 2414" transform="translate(50.387 230.994)"/>
            <path id="Path_2415" d="M73.11 177.427c-1.511-5.4-2.374-9.281-2.374-9.281a52.641 52.641 0 0 1-.216-6.044c0-.216-.432-2.806-2.374-3.238a6.673 6.673 0 0 1-1.727-.432L53.9 153.9l1.727 2.374 5.828 2.374 7.339 3.238s-.216 4.749.432 6.907 3.453 11.655 3.453 11.655l.648 1.943s3.453.216 3.453-.432c.22.216-2.159.864-3.67-4.532z" class="cls-19" data-name="Path 2415" transform="translate(54.441 239.103)"/>
            <path id="Path_2416" d="M63.641 171.479a.793.793 0 0 0-.216-.648l-.216-1.079-2.59-21.152-12.519 4.749 4.749 19.21-.216 1.3c-2.158 2.806-2.374 5.18-2.59 9.5-.216 2.806-.216 6.691-.216 9.281v11.86l6.907.432 4.749-22.663c1.3-4.533 2.59-8.418 2.374-9.065-.216-.214-.216-.861-.216-1.725z" class="cls-18" data-name="Path 2416" transform="translate(47.722 232.964)"/>
            <path id="XMLID_251_" d="M57.781 173.479l-.648 4.317c-1.079 1.3-5.828 1.079-7.77 0-.432-.216-.648-.648-.863-.863v-4.1c0-.216.216-.432.648-.432a17.115 17.115 0 0 0 8.2.863c.217-.216.433-.001.433.215z" class="cls-29" transform="translate(48.186 260.534)"/>
            <path id="XMLID_250_" d="M57.467 173.244l-.648 4.317c-1.079 1.3-5.828 1.079-7.77 0 1.3.432 4.533.216 5.18-.648s-3.022-2.158-4.317-3.238c-1.511-1.079-1.3-1.3-.648-.863a13.7 13.7 0 0 0 6.044 1.079c2.374-.432 1.943-.863 1.727-1.079a.464.464 0 0 1 .432.432z" class="cls-30" transform="translate(48.5 260.77)"/>
            <path id="XMLID_249_" d="M62.645 168.027l1.079 3.885c1.079 1.079 5.4.432 7.123-.648a1.157 1.157 0 0 0 .648-.863l-.432-3.669c0-.216-.432-.432-.648-.432a11.8 11.8 0 0 1-7.339 1.3c-.431 0-.646.211-.431.427z" class="cls-29" transform="translate(64.474 253.468)"/>
            <path id="XMLID_248_" d="M62.648 167.675l1.079 3.885c1.079 1.079 5.4.432 7.123-.648-1.079.648-4.1.648-4.749 0s2.59-2.158 3.669-3.238c1.3-1.079 1.079-1.3.432-.863a13.647 13.647 0 0 1-5.612 1.511c-2.158-.216-1.943-.648-1.727-.863-.215-.215-.431 0-.215.216z" class="cls-30" transform="translate(64.471 253.819)"/>
            <path id="Path_2417" d="M65.047 157.637a16.8 16.8 0 0 1-.648-7.77c.216-3.453-1.079-10.145-2.374-11.655-1.511-1.511-4.749-1.3-6.044-1.511 0 0-3.885 0-7.123.216a11.9 11.9 0 0 1-2.158 7.553c.648 1.3 1.727 3.669 1.943 3.885a24.954 24.954 0 0 1 1.727 6.907 9.568 9.568 0 0 1-2.59 6.907c.863 2.158 1.3 3.885 1.727 4.533.648 1.3 2.59 2.806 8.85 1.943s10.36-4.964 9.929-5.828c-1.081-1.295-2.808-3.454-3.239-5.18z" class="cls-22" data-name="Path 2417" transform="translate(46.1 219.178)"/>
            <path id="Path_2418" d="M67.342 147.26a5.627 5.627 0 0 1-.648-2.374c-2.59-1.3-5.18-2.374-7.123-4.748a11.969 11.969 0 0 0-1.3-1.727c-1.079 0-2.158-.216-3.238-.216a22.768 22.768 0 0 1-4.1-1.079 1.946 1.946 0 0 1-1.079-.216 9.788 9.788 0 0 0-5.828 11.871l8.634 17.915 16.188-5.828a28.862 28.862 0 0 1-1.506-13.598z" class="cls-22" data-name="Path 2418" transform="translate(42.51 219.41)"/>
            <path id="XMLID_247_" d="M51.4 129.5s2.806 3.669 2.59 3.885c-.216.432-1.511.863-1.511.863z" class="cls-14" transform="translate(51.545 210.838)"/>
            <path id="XMLID_246_" d="M53.79 129.1l-2.59.648 1.3 3.885s1.727-.216 1.943-1.3c.426-1.075-.653-3.233-.653-3.233z" class="cls-15" transform="translate(51.313 210.374)"/>
            <path id="XMLID_243_" d="M48.481 146.321l7.554 1.3s.216-3.238.648-3.669 2.59-.432 4.1-.863a.211.211 0 0 0 .216-.216c.863-.648.648-2.806-.216-6.044 0-.216-.216-.432-.216-.648a18.993 18.993 0 0 0-1.079-3.238v-.648c-1.727-5.4-4.317-5.18-7.123-5.612a7.243 7.243 0 0 0-7.123 2.59c-2.59 3.022-.432 7.554 1.3 10.792a19.967 19.967 0 0 1 1.079 2.158c1.939 3.019.86 4.098.86 4.098z" class="cls-13" transform="translate(43.024 207.399)"/>
            <path id="XMLID_238_" d="M49.4 130.8s-.863-1.079-1.511-.216c-.432.648 0 2.374 1.079 3.022 0 0-1.079-1.727-.648-2.374.216-.652 1.08-.432 1.08-.432z" class="cls-14" transform="translate(47.286 211.701)"/>
            <path id="XMLID_237_" d="M47.143 139.407l7.554 1.3s.216-3.238.648-3.669 2.59-.432 4.1-.863a.211.211 0 0 0 .216-.216s-3.238-.216-4.1-.432-2.806-3.022-2.806-3.022l-7.554.648a19.961 19.961 0 0 1 1.079 2.158c1.942 3.017.863 4.096.863 4.096z" class="cls-14" transform="translate(44.363 214.313)"/>
            <path id="XMLID_236_" d="M43.407 136.858a2.924 2.924 0 0 1 1.079-2.59 4.273 4.273 0 0 1 2.158-4.1c2.59-1.943 3.022-.648 6.044-1.943s1.079-5.612 3.022-4.533c1.943 1.3 1.3 4.964 1.3 4.964a10.017 10.017 0 0 0 2.59-2.374c.863-1.079 2.158-2.374 1.943 1.079a5.781 5.781 0 0 1-3.453 4.749 6.645 6.645 0 0 1-1.943 3.238 9.077 9.077 0 0 1 .432 1.079c0 .216.216.432.216.648a.754.754 0 0 0 .216.432c.432 1.3.216 2.158-.432 2.158s-1.3-1.511-1.727-2.158l-.216-.216a.793.793 0 0 0-.648-.216c-1.511-.432-2.158.863-2.158 2.158a4.221 4.221 0 0 0 1.943 3.238c.863.648 1.3.216 1.3.216 1.079 3.885-.648 5.612-1.079 4.964a10.644 10.644 0 0 1-.863-1.943 2.888 2.888 0 0 1-.216 1.079c-.432.863-1.727 1.079-1.943.216a4.9 4.9 0 0 0-.216-.863c-.216.432-.216.863-.432 1.3s-1.3.216-1.727-.648c-.432-.648-.648-1.079-1.511-2.374-1.305-1.518-3.895-5.618-3.679-7.56z" class="cls-20" transform="translate(42.271 203.911)"/>
            <path id="XMLID_235_" d="M50.874 130.627l3.885-1.079 2.59-.648v.216a20.091 20.091 0 0 1 .863 3.022c0 1.079-1.079 1.511-1.727 1.727-.216 0-.432 0-.432.216 0-.216-.216-.432-.216-.648.216 0 1.727-.432 1.727-1.3a7.544 7.544 0 0 0-.648-2.59l-1.943.432-3.669.863-1.943.432-.216-.216a.793.793 0 0 0-.648-.216z" class="cls-21" transform="translate(48.186 210.143)"/>
            <path id="XMLID_232_" d="M45.5 139.539c.216.216 2.59 1.511 6.907.216a35.245 35.245 0 0 1 4.964-1.511 6.181 6.181 0 0 0-3.453-2.374 18.4 18.4 0 0 0-4.964-.648H46.8s-1.079-.432-1.079 1.511a25.074 25.074 0 0 0-.221 2.806z" class="cls-16" transform="translate(44.71 217.419)"/>
            <path id="XMLID_231_" d="M45.5 139.517c.216.216 2.59 1.511 6.907.216a35.251 35.251 0 0 1 4.964-1.511 6.181 6.181 0 0 0-3.453-2.374 18.4 18.4 0 0 0-4.964-.648c1.943.432 2.806 2.158 2.59 3.022-.432.647-3.886 2.158-6.044 1.295z" class="cls-17" transform="translate(44.71 217.441)"/>
            <path id="Path_2572_2_" d="M446.476 191.007l-11.655-6.907-20.721 5.4 9.929 38.636 30-7.77z" class="cls-8" transform="translate(-309.644 161.85)"/>
            <path id="Path_2573_2_" d="M419.509 195.857l16.62-4.317c.432 0 .648-.432.432-.863 0-.432-.432-.648-.863-.432l-16.62 4.317c-.432 0-.647.432-.432.863.215.432.647.648.863.432z" class="cls-33" transform="translate(-304.477 168.871)"/>
            <path id="Path_2574_2_" d="M418.909 191.967l6.691-1.727c.432 0 .647-.432.432-.863 0-.432-.432-.648-.863-.432l-6.691 1.727c-.432 0-.647.432-.432.863-.001.432.431.648.863.432z" class="cls-33" transform="translate(-305.172 167.365)"/>
            <path id="Path_2575_2_" d="M436.4 192.7l-16.62 4.317c-.432 0-.647.432-.432.863 0 .432.432.648.863.432L436.829 194c.432 0 .648-.432.432-.863 0-.216-.432-.432-.863-.432z" class="cls-33" transform="translate(-303.666 171.812)"/>
            <path id="Rectangle_174_2_" d="M417 201.97l30-7.77 3.669 14.677-30 7.77z" class="cls-34" transform="translate(-306.285 173.55)"/>
            <path id="Path_2576_2_" d="M423.7 184.1l2.374 9.281 9.281-2.374z" class="cls-33" transform="translate(-298.523 161.85)"/>
            <path id="Path_2577_2_" d="M422.906 203.535l.647 2.59-1.511.432-1.943-7.123 2.806-.648a1.844 1.844 0 0 1 1.511 0 2.595 2.595 0 0 1 1.727 1.727 2.293 2.293 0 0 1-.216 1.727 2.2 2.2 0 0 1-1.727 1.079zm-.216-1.3l1.3-.432a1.121 1.121 0 0 0 .863-.432.656.656 0 0 0 0-.863 1.636 1.636 0 0 0-.432-.863 1.3 1.3 0 0 0-.863-.216l-1.3.432z" class="cls-12" transform="translate(-302.694 178.676)"/>
            <path id="Path_2578_2_" d="M425.043 205.757l-1.943-7.123 2.158-.648a2.364 2.364 0 0 1 1.727 0 3.48 3.48 0 0 1 1.511.863 4.339 4.339 0 0 1 .863 1.727v.432a3 3 0 0 1 0 1.943 3.48 3.48 0 0 1-.863 1.511 5.411 5.411 0 0 1-1.511.863l-1.943.432zm0-6.475l1.3 4.749.648-.216a1.434 1.434 0 0 0 1.079-.863 2.383 2.383 0 0 0 0-1.727v-.432a3.48 3.48 0 0 0-.863-1.511 1.773 1.773 0 0 0-1.511-.216z" class="cls-12" transform="translate(-299.218 177.749)"/>
            <path id="Path_2579_2_" d="M431.712 201.117l-2.806.648.647 3.022-1.511.432-1.942-7.119 4.749-1.3.216 1.079-3.238.863.432 1.943 2.806-.648z" class="cls-12" transform="translate(-295.743 176.562)"/>
            <path id="Path_2419" d="M72.263 143.558c-1.727-.648-4.964-1.727-6.259-.432s-1.3 3.238-5.612 4.317a22.322 22.322 0 0 0-5.4 2.374s-2.374-1.079-5.4-2.374a6.214 6.214 0 0 1 .216 2.806v.648A6.36 6.36 0 0 1 50.9 153.7c0 .432.216.863.216 1.3a4.515 4.515 0 0 1 1.3.863 7.6 7.6 0 0 0 2.59.432c1.511-.216 5.4-2.806 7.339-4.1 2.158-1.511 3.022-1.943 4.749-3.238s2.59-4.533 2.59-4.533l4.1.648s.206-1.082-1.521-1.514z" class="cls-13" data-name="Path 2419" transform="translate(49.46 225.918)"/>
            <path id="Path_2420" d="M67.683 143.418c-1.511.648-1.3 2.806-3.022 4.317a88.951 88.951 0 0 1-9.929 5.828c-.648.216-2.158-.216-4.533-1.079 0 .216.216.432.216.863s.216.863.216 1.3a4.516 4.516 0 0 1 1.3.863 7.6 7.6 0 0 0 2.59.432c1.511-.216 5.4-2.806 7.339-4.1 2.158-1.511 3.022-1.943 4.749-3.238s2.59-4.533 2.59-4.533l4.1.648c.001-.219-4.105-2.164-5.616-1.301z" class="cls-14" data-name="Path 2420" transform="translate(50.155 226.706)"/>
            <path id="Path_2421" d="M56.1 158.887c.648.216 1.3.216 1.727.432h.216c.216-.216.432-.216.648-.432a31.055 31.055 0 0 1 1.943-5.18v-.216c-1.727-2.374-4.964-7.123-7.339-9.929-1.727-2.158-3.238-3.669-4.533-4.1a2.618 2.618 0 0 0-2.806.216c-3.238 2.374-.216 6.907 2.158 9.929 2.161 2.373 5.614 6.693 7.986 9.28z" class="cls-13" data-name="Path 2421" transform="translate(43.605 222.029)"/>
            <path id="Path_2422" d="M56.1 158.887c.648.216 1.3.216 1.727.432h.216c.216-.216.432-.216.648-.432v-.432c-1.3-1.3-3.453-4.1-7.77-9.5-5.612-6.691-3.669-9.281-2.158-9.5a2.619 2.619 0 0 0-2.806.216c-3.238 2.374-.216 6.907 2.158 9.929 2.16 2.38 5.613 6.7 7.985 9.287z" class="cls-14" data-name="Path 2422" transform="translate(43.605 222.029)"/>
            <path id="XMLID_228_" d="M46.011 147.468a52.3 52.3 0 0 0 4.317 6.044c.648.648 2.158.216 3.453-.863 2.374-1.511 4.749-4.533 3.669-6.475a64.1 64.1 0 0 0-5.828-6.044c-1.511-1.3-3.022-2.158-4.749-1.511a6.56 6.56 0 0 0-1.511 1.079c-2.372 2.589-.862 5.395.649 7.77z" class="cls-16" transform="translate(43.12 221.145)"/>
            <path id="XMLID_225_" d="M45.984 147.35a52.294 52.294 0 0 0 4.317 6.044c.648.648 2.158.216 3.453-.863a54.331 54.331 0 0 1-6.044-7.77c-2.158-3.453-1.943-5.4-.648-6.259a6.559 6.559 0 0 0-1.511 1.079c-2.588 2.588-1.078 5.394.433 7.769z" class="cls-17" transform="translate(43.147 221.264)"/>
            <path id="Path_2423" d="M49.9 146.7s1.943 2.158 3.022 2.374-.648 1.3-.648 1.3l-1.727-1.3z" class="cls-14" data-name="Path 2423" transform="translate(49.807 230.763)"/>
            <path id="Path_2424" d="M52.511 150.2a5.447 5.447 0 0 1-2.806-1.943c-1.511-1.727 1.943.432 1.943.432l1.943 1.3z" class="cls-14" data-name="Path 2424" transform="translate(49.139 231.793)"/>
        </g>
        <g id="man-1" transform="translate(88 988.805)">
            <path id="Path_2425" d="M122.059 26.4a22.261 22.261 0 0 0-1.079 3.453c-1.079 4.533-2.59 13.166-2.59 13.166a12.277 12.277 0 0 0-2.59 1.511c.432.863.647 1.511 1.079 2.374l-.216-.432a30.746 30.746 0 0 0 1.079 3.453c2.158-.863 5.18-2.374 5.828-3.238 1.079-1.3 3.022-9.929 3.885-13.6a15.34 15.34 0 0 0 .647-4.533 10.723 10.723 0 0 1-6.043-2.154z" class="cls-13" data-name="Path 2425" transform="translate(126.147 91.404)"/>
            <path id="Path_2426" d="M125.134 27.2a27.855 27.855 0 0 1-.648 5.18c-1.943 7.986-2.59 11.224-3.453 12.087a28.8 28.8 0 0 1-4.533 2.59 5.08 5.08 0 0 1 .432 1.727c2.158-.863 5.18-2.374 5.828-3.238 1.079-1.3 3.022-9.929 3.885-13.6a15.339 15.339 0 0 0 .648-4.533 7.343 7.343 0 0 1-2.159-.213z" class="cls-14" data-name="Path 2426" transform="translate(126.958 92.331)"/>
            <path id="Path_2427" d="M126.818 28.806A9.913 9.913 0 0 1 119.48 26c-.863 2.158-2.374 7.123-2.374 7.123-.216 2.158 3.022 3.669 5.828 3.885 1.511.216 3.022 0 3.238-.863a57.406 57.406 0 0 0 1.3-6.907v-.648a.793.793 0 0 1-.654.216z" class="cls-16" data-name="Path 2427" transform="translate(127.648 90.941)"/>
            <path id="Path_2428" d="M123.685 27.416a5.976 5.976 0 0 1-1.943-.216c-.648 3.453-1.727 7.554-1.943 8.418 1.511.216 3.022 0 3.238-.863a57.4 57.4 0 0 0 1.3-6.907V27.2a.793.793 0 0 1-.652.216z" class="cls-17" data-name="Path 2428" transform="translate(130.781 92.331)"/>
            <path id="Path_2429" d="M120.547 36.1a15.314 15.314 0 0 0-4.1 2.806c-3.238 2.806-4.533 1.943-6.475 2.158-1.727.216-2.374 3.453-2.806 5.18a2.737 2.737 0 0 0 .432 2.59l1.511-3.669s3.022 1.079 4.964.216 2.806-1.3 4.964-2.158a29.833 29.833 0 0 0 4.748-2.158 24.51 24.51 0 0 1-3.238-4.965z" class="cls-13" data-name="Path 2429" transform="translate(116.004 102.641)"/>
            <path id="Path_2430" d="M122.409 37.7c-2.374 1.3-6.259 3.453-7.986 3.885-2.158.648-3.885-.648-5.18.216s-1.943 4.964-1.943 5.18l1.511-3.669s3.022 1.079 4.964.216 2.806-1.3 4.964-2.158a29.834 29.834 0 0 0 4.749-2.158 6.559 6.559 0 0 1-1.079-1.512z" class="cls-14" data-name="Path 2430" transform="translate(116.301 104.494)"/>
            <path id="Path_2431" d="M114 38.533S121.981 34 122.2 34a12.891 12.891 0 0 1 1.3 2.374l-2.6 2.806-4.749 2.59H112.7z" class="cls-13" data-name="Path 2431" transform="translate(122.556 100.208)"/>
            <path id="Path_2432" d="M125.683 36.3s-10.145 5.828-12.087 6.259-.216-1.727-.216-1.727l7.339-4.1z" class="cls-14" data-name="Path 2432" transform="translate(122.524 102.873)"/>
            <path id="XMLID_94_" d="M137.461 58.186l-4.749 4.964c-3.453 0-3.885-1.3-3.885-1.3v-.648c-.216-1.079.216-2.374 1.943-3.238.216-.216.648-.216 1.079-.432 3.67-1.288 5.612.654 5.612.654z" class="cls-26" transform="translate(141.179 126.961)"/>
            <path id="XMLID_93_" d="M137.461 57.816l-4.749 4.964c-3.453 0-3.885-1.3-3.885-1.3v-.648c-.216-1.079.216-2.374 1.943-3.238-1.3 1.079-1.079 2.806-.216 3.238 1.079.437 4.101-3.448 6.907-3.016z" class="cls-27" transform="translate(141.179 127.547)"/>
            <path id="XMLID_92_" d="M144.414 62.375s-1.943 2.59-4.1 2.806c-2.158.432-3.022-.432-5.612-.648a20.208 20.208 0 0 0-4.1 0V64.1c.216-1.079.863-4.1 5.18-4.533a1.57 1.57 0 0 0 1.079-1.079 9.49 9.49 0 0 0 .216-1.943l2.59-.216 3.233-.429a13.182 13.182 0 0 0 .648 2.806 12.8 12.8 0 0 1 .866 3.669z" class="cls-23" transform="translate(143.292 125.578)"/>
            <path id="XMLID_91_" d="M144.414 62.375s-1.943 2.59-4.1 2.806c-2.158.432-3.022-.432-5.612-.648a20.208 20.208 0 0 0-4.1 0V64.1a18.9 18.9 0 0 1 4.964-.863c2.158.216 3.238.432 4.317 0 2.374-1.079 1.079-3.022.863-4.317a5.977 5.977 0 0 1-.216-2.806l2.59-.216a13.182 13.182 0 0 0 .648 2.806 26.4 26.4 0 0 1 .646 3.671z" class="cls-24" transform="translate(143.292 125.578)"/>
            <circle id="XMLID_90_" cx=".432" cy=".432" r=".432" class="cls-25" transform="translate(279.72 186.01)"/>
            <circle id="XMLID_89_" cx=".432" cy=".432" r=".432" class="cls-25" transform="translate(275.835 186.658)"/>
            <path id="XMLID_88_" d="M132.4 58.732a.341.341 0 1 1 .432.216c0 .215-.216 0-.432-.216z" class="cls-25" transform="translate(145.377 128.358)"/>
            <path id="XMLID_87_" d="M146.551 59a7.308 7.308 0 0 1-4.533 2.374c-3.022.432-4.1-.648-6.691-.648s-4.748.648-6.475-1.3c0 0-.216 0 0 .863.216 1.079 1.727 1.727 3.453 1.727s3.669-.648 5.4 0a11.041 11.041 0 0 0 4.317.648 11.421 11.421 0 0 0 4.533-2.374c.427-1.074-.004-1.29-.004-1.29z" class="cls-28" transform="translate(141.155 129.169)"/>
            <path id="XMLID_86_" d="M146.551 58.9a7.308 7.308 0 0 1-4.533 2.374c-3.022.432-4.1-.648-6.691-.648s-4.748.648-6.475-1.3c0 0-.216 0 0 .863s1.727 1.727 3.453 1.727 3.669-.648 5.4 0a11.042 11.042 0 0 0 4.317.648c1.511 0 3.454-1.511 4.533-2.374.427-1.074-.004-1.29-.004-1.29z" class="cls-26" transform="translate(141.155 129.053)"/>
            <path id="XMLID_85_" d="M134.838 57.614a3.008 3.008 0 0 0-3.238 2.158.3.3 0 0 0 .432 0 5.791 5.791 0 0 1 2.806-2.158z" class="cls-31" transform="translate(144.451 127.533)"/>
            <path id="XMLID_84_" d="M134.227 57.4s-1.511 0-1.727 2.158c0 0 .216.432.432-.216z" class="cls-31" transform="translate(145.493 127.315)"/>
            <path id="XMLID_83_" d="M133.548 59.59a4.261 4.261 0 0 1-.216-1.943c.216-.648.432-.648.432-.648a3.948 3.948 0 0 0 0 2.374c.216.217-.216.433-.216.217z" class="cls-31" transform="translate(146.387 126.852)"/>
            <path id="Path_2433" d="M135.761 59.308c-.863-3.885-1.511-5.828-4.1-8.2a7.794 7.794 0 0 1-.863-1.079l-.216-.432 28.275-8.85-5.613-14.247-31.513 15.109-.432.216a4.99 4.99 0 0 0-2.374 6.475l13.382 24.174s3.022.648 5.4-3.022c0-.216-.216-1.079-.432-2.374a461.575 461.575 0 0 1-1.514-7.77z" class="cls-35" data-name="Path 2433" transform="translate(129.282 91.52)"/>
            <path id="Path_2434" d="M131.916 39.2l14.893 1.079v-1.507A14.477 14.477 0 0 0 131.7 24.311z" class="cls-36" data-name="Path 2434" transform="translate(144.566 88.961)"/>
            <path id="Path_2435" d="M143.185 70.278c-.216-1.727-.648-3.885-1.079-6.259a48.728 48.728 0 0 0-1.943-7.339.754.754 0 0 0-.216-.432l-.216-1.3 9.929-20.937-14.893-4.311-4.967 23.1-.216.863a2.994 2.994 0 0 0 0 1.943l3.022 11.008s1.079 3.238 1.943 6.044c1.079 3.238 4.1 15.756 4.1 15.756a9.41 9.41 0 0 0 2.59.432 3.769 3.769 0 0 0 3.022-1.511s-.216-4.533-.432-10.36a43.535 43.535 0 0 0-.644-6.697z" class="cls-18" data-name="Path 2435" transform="translate(141.931 95.227)"/>
            <path id="XMLID_82_" d="M133.045 56.559l.863 3.669c.863 1.079 5.18.648 6.691-.648a1.157 1.157 0 0 0 .648-.863l-.216-3.453c0-.216-.216-.432-.648-.216-1.079.432-4.1 1.727-6.907 1.079-.431-.216-.646 0-.431.432z" class="cls-29" transform="translate(146.027 124.487)"/>
            <path id="XMLID_81_" d="M133.045 56.359l.863 3.669c.863 1.079 5.18.648 6.691-.648-1.079.432-3.885.432-4.533-.216s2.374-1.943 3.669-3.022 1.079-1.3.432-.648a10.031 10.031 0 0 1-5.18 1.3c-1.943-.216-1.727-.648-1.511-.863-.431-.22-.646-.004-.431.428z" class="cls-30" transform="translate(146.027 124.687)"/>
            <path id="XMLID_80_" d="M124.243 48.722l1.3 3.453c1.079 1.079 5.18 0 6.691-1.3a1.157 1.157 0 0 0 .648-.863l-.648-3.453a.414.414 0 0 0-.648-.216 12.317 12.317 0 0 1-6.691 1.943c-.652.005-.867.22-.652.436z" class="cls-37" transform="translate(135.835 114.409)"/>
            <path id="XMLID_79_" d="M124.245 48.554l1.3 3.453c1.079 1.079 5.18 0 6.691-1.3-1.079.648-3.885.863-4.533.216s2.158-2.374 3.238-3.453.863-1.3.432-.863a13.856 13.856 0 0 1-4.964 1.943c-1.943 0-1.943-.432-1.727-.648-.437.221-.652.437-.437.652z" class="cls-35" transform="translate(135.833 114.577)"/>
            <path id="XMLID_77_" d="M123.382 42.231c.648 1.079 1.943 3.885 3.885 4.533s7.986-1.079 10.792-2.806a16.232 16.232 0 0 1 6.907-2.59 35.118 35.118 0 0 1 5.18.216c.863 0 2.59-5.18.648-10.792s-3.885-6.691-5.18-6.691-6.475.863-11.656.863-11.224.432-14.03 2.158-1.943 3.669-1.079 5.18c.432 1.298 4.533 9.929 4.533 9.929z" class="cls-22" transform="translate(128.71 88.74)"/>
            <path id="Path_1902_2_" d="M529.023 89.1l-7.123 35.83 28.491 5.612 5.4-27.2-7.123-10.36z" class="cls-8" transform="translate(-312.527 51.89)"/>
            <path id="Path_1903_2_" d="M521.9 125.146l28.491 5.612 7.123-36.046-28.491-5.612z" class="cls-9" transform="translate(-312.527 51.89)"/>
            <path id="Path_1904_2_" d="M527.177 96.779l15.756 3.238c.432 0 .648-.216.648-.432 0-.432-.216-.648-.432-.648L527.393 95.7c-.432 0-.647.216-.647.432-.216.216 0 .648.432.648" class="cls-10" transform="translate(-307.013 59.536)"/>
            <path id="Path_1905_2_" d="M527.532 94.479l6.26 1.3c.432 0 .647-.216.647-.432 0-.432-.216-.648-.432-.648l-6.26-1.3c-.432 0-.647.216-.647.432 0 .432.216.648.432.648" class="cls-10" transform="translate(-306.504 56.871)"/>
            <path id="Path_1906_2_" d="M542.6 101.138L526.848 97.9c-.432 0-.648.216-.648.432 0 .432.216.648.432.648l15.757 3.238c.432 0 .647-.216.647-.432.216-.216 0-.648-.432-.648" class="cls-10" transform="translate(-307.546 62.084)"/>
            <path id="Path_1907_2_" d="M521.9 113.1l28.491 5.612 2.59-13.6L524.49 99.5z" class="cls-38" transform="translate(-312.527 63.938)"/>
            <path id="Path_1908_2_" d="M535.227 90.9l-1.727 8.634 8.849 1.727z" class="cls-10" transform="translate(-299.09 53.975)"/>
            <path id="Path_1909_2_" d="M528.669 104.606l1.727-1.943 1.511.216-2.59 2.806 1.295 3.669-1.511-.216-.863-2.59-1.727 1.943-1.511-.216 2.59-2.806-1.29-3.669 1.511.216z" class="cls-12" transform="translate(-308.936 66.602)"/>
            <path id="Path_1910_2_" d="M529.511 108.012l3.022.648-.216 1.079-4.317-.864 1.3-6.475 1.295.216z" class="cls-12" transform="translate(-305.461 67.297)"/>
            <path id="Path_1911_2_" d="M534.417 108.18a.793.793 0 0 0-.216-.648c-.216-.216-.648-.432-.863-.648-.432-.216-.647-.432-1.079-.648a2.1 2.1 0 0 1-.863-1.943 1.121 1.121 0 0 1 .432-.863 1.649 1.649 0 0 1 1.079-.432h1.3a3.068 3.068 0 0 1 1.3.432c.216.216.647.432.647.863a.981.981 0 0 1 0 1.079l-1.295-.216a.793.793 0 0 0-.216-.648 1.121 1.121 0 0 0-.863-.432h-.863a.464.464 0 0 0-.432.432.793.793 0 0 0 .216.648c.216.216.648.432.863.648a2.9 2.9 0 0 1 1.511 1.3 1.427 1.427 0 0 1 .216 1.3 1.775 1.775 0 0 1-.863 1.3 5.975 5.975 0 0 1-1.943.216 1.865 1.865 0 0 1-1.3-.648c-.432-.216-.647-.648-.863-.863a2.346 2.346 0 0 1-.216-1.079l1.3.216c-.216.648.216 1.079 1.079 1.3h.863c.864-.216 1.079-.432 1.079-.647" class="cls-12" transform="translate(-303.029 67.992)"/>
            <path id="XMLID_76_" d="M112.3 30.1s3.238 2.806 3.669 2.59c.432 0 .863-1.3.863-1.3z" class="cls-14" transform="translate(122.093 95.69)"/>
            <path id="XMLID_75_" d="M111.9 32.374l.648-2.374 3.669 1.3s-.216 1.511-1.3 1.943c-.859.21-3.017-.869-3.017-.869z" class="cls-15" transform="translate(121.63 95.575)"/>
            <path id="XMLID_73_" d="M128.41 28l.863 7.123s-3.022 0-3.453.432-.432 2.374-1.079 3.885a.211.211 0 0 1-.216.216c-.648.863-2.806.432-5.612-.432-.216 0-.432-.216-.648-.216a26.18 26.18 0 0 1-3.022-1.079h-.216l-.216-.216c-4.964-1.943-4.749-4.317-4.964-6.907a6.921 6.921 0 0 1 2.806-6.691c3.022-2.158 7.123-.216 10.145 1.511a8.749 8.749 0 0 0 1.943 1.079C127.115 28.86 128.41 28 128.41 28z" class="cls-13" transform="translate(119.149 87.649)"/>
            <path id="XMLID_72_" d="M113.606 28.285s-.863-.863 0-1.511c.648-.432 2.158.216 2.806 1.079 0 0-1.511-1.079-2.374-.648a.96.96 0 0 0-.432 1.08z" class="cls-14" transform="translate(123.161 91.678)"/>
            <path id="XMLID_71_" d="M122.107 26.558l.863 7.123s-3.022 0-3.453.432-.432 2.374-1.079 3.885a.211.211 0 0 1-.216.216 29.291 29.291 0 0 0-.216-3.885c-.216-.863-2.806-2.806-2.806-2.806l.863-7.123a8.749 8.749 0 0 0 1.943 1.079c2.806 1.943 4.101 1.079 4.101 1.079z" class="cls-14" transform="translate(125.452 89.087)"/>
            <path id="XMLID_70_" d="M119.615 22.6c-1.943 0-2.374 1.079-2.374 1.079a4.084 4.084 0 0 0-3.885 1.943c-1.727 2.374-.648 2.806-1.943 5.612s-5.4.863-4.317 2.59 4.749 1.511 4.749 1.511a14.206 14.206 0 0 1-2.158 2.374c-1.079.648-2.374 1.943 1.079 1.727a4.836 4.836 0 0 0 4.533-3.022 5.859 5.859 0 0 0 3.022-1.727 9.075 9.075 0 0 0 1.079.432c.216 0 .432.216.648.216s.216.216.432.216c1.3.432 2.158.432 1.943-.216 0-.648-1.3-1.3-1.943-1.727l-.216-.216c0-.216-.216-.432-.216-.648a1.574 1.574 0 0 1 1.943-1.943 3.451 3.451 0 0 1 2.806 1.943 1.586 1.586 0 0 1 .216 1.3c3.669 1.079 5.18-.432 4.748-.863a11.733 11.733 0 0 0-1.727-.863 2.888 2.888 0 0 0 1.079-.216c.863-.432 1.079-1.727.216-1.943a4.9 4.9 0 0 1-.863-.216 1.649 1.649 0 0 0 1.079-.432c.432-.216.432-1.3-.432-1.727a21.2 21.2 0 0 1-2.158-1.511c-1.944-1.299-5.397-3.673-7.34-3.673z" class="cls-20" transform="translate(115.857 87.002)"/>
            <path id="XMLID_69_" d="M113.427 29.674l-1.079 3.453-.648 2.373.216.216a23.862 23.862 0 0 0 2.806.863 1.853 1.853 0 0 0 1.727-1.511.754.754 0 0 1 .216-.432c-.216 0-.432-.216-.648-.216 0 .216-.432 1.511-1.3 1.511a6.26 6.26 0 0 1-2.374-.648l.657-1.939 1.079-3.453.648-1.727-.216-.216c0-.216-.216-.432-.216-.648z" class="cls-21" transform="translate(121.398 92.447)"/>
            <path id="XMLID_66_" d="M121.511 24.8c.216.216 1.511 2.158.863 6.475-.216 1.511-.863 2.374-.863 4.749a7.427 7.427 0 0 1-2.59-3.024 16.945 16.945 0 0 1-1.079-4.749 8.906 8.906 0 0 0-.216-1.943s-.432-1.079 1.3-1.3a11.875 11.875 0 0 0 2.585-.208z" class="cls-16" transform="translate(128.207 89.551)"/>
            <path id="XMLID_65_" d="M121.369 24.8c.216.216 1.511 2.158.863 6.475-.216 1.511-.863 2.374-.863 4.749a7.427 7.427 0 0 1-2.59-3.024 16.945 16.945 0 0 1-1.079-4.749c.648 1.727 2.374 2.374 3.022 2.158s1.727-3.666.647-5.609z" class="cls-17" transform="translate(128.348 89.551)"/>
            <path id="Path_2436" d="M123.032 47.758a13.582 13.582 0 0 0-1.727 2.374 16.483 16.483 0 0 1 1.943 1.943c0-.216-.216-.216-.216-.432a25.867 25.867 0 0 0 2.374 2.59c1.727-1.727 3.885-4.1 4.1-5.18.432-1.511-1.079-10.36-1.727-14.03s-1.943-8.634-5.612-7.77a2.634 2.634 0 0 0-1.943 1.727c-.432 1.3-.216 3.238.216 5.828a116.709 116.709 0 0 0 2.592 12.95z" class="cls-13" data-name="Path 2436" transform="translate(131.002 92.278)"/>
            <path id="Path_2437" d="M125.4 36.434c1.3 8.2 2.158 11.224 1.727 12.3a20.333 20.333 0 0 1-3.022 4.1c.432.432.648.863 1.079 1.3 1.727-1.727 3.885-4.1 4.1-5.18.432-1.511-1.079-10.36-1.727-14.03s-1.943-8.634-5.612-7.77A2.634 2.634 0 0 0 120 28.88c1.079-.863 4.1-.648 5.4 7.554z" class="cls-14" data-name="Path 2437" transform="translate(131.013 92.162)"/>
            <path id="XMLID_63_" d="M128.05 31.586a45.52 45.52 0 0 1 1.511 6.691c0 .863-1.3 1.511-2.806 1.943-2.59.648-6.259.648-6.907-1.3 0 0-.648-5.612-.648-7.77 0-1.727.432-3.453 1.943-4.317a4.066 4.066 0 0 1 1.727-.432c3.237-.211 4.316 2.811 5.18 5.185z" class="cls-16" transform="translate(130.086 91.398)"/>
            <path id="XMLID_60_" d="M127.007 31.586a45.515 45.515 0 0 1 1.511 6.691c0 .863-1.3 1.511-2.806 1.943a44.262 44.262 0 0 0-1.727-9.065c-1.079-3.669-2.59-4.749-3.885-4.317a4.066 4.066 0 0 1 1.727-.432c3.237-.216 4.317 2.806 5.18 5.18z" class="cls-17" transform="translate(131.129 91.398)"/>
            <path id="Path_2438" d="M123.276 40a19.488 19.488 0 0 0-2.59 4.1c-1.943 3.885-3.453 3.453-4.964 4.533s-.863 4.1-.648 5.828a2.531 2.531 0 0 0 1.3 2.158v-3.884s3.238-.216 4.533-1.727c1.511-1.511 1.943-2.374 3.669-3.885 1.079-1.079 2.374-2.59 3.454-3.885A30.907 30.907 0 0 1 123.276 40z" class="cls-13" data-name="Path 2438" transform="translate(124.931 107.159)"/>
            <path id="Path_2439" d="M126.04 41.1a47.851 47.851 0 0 1-5.828 6.691c-1.727 1.511-3.669.863-4.533 2.158s.216 5.4.216 5.612v-3.885s3.238-.216 4.533-1.727c1.511-1.511 1.943-2.374 3.669-3.885 1.079-1.079 2.374-2.59 3.453-3.885-.431-.431-1.078-.647-1.51-1.079z" class="cls-14" data-name="Path 2439" transform="translate(125.62 108.433)"/>
            <path id="Path_2440" d="M118.7 43.939s5.612-7.123 5.612-7.339a18.67 18.67 0 0 1 2.158 1.511l-1.079 3.669-3.453 4.32-3.238 1.3z" class="cls-13" data-name="Path 2440" transform="translate(129.507 103.22)"/>
            <path id="Path_2441" d="M128.971 38.1s-7.123 9.281-8.634 10.576-.863-1.511-.863-1.511l5.18-6.691z" class="cls-14" data-name="Path 2441" transform="translate(130.244 104.958)"/>
        </g>
        <path id="screen-cover" d="M0 0h17.483v6.259H0z" class="cls-4" transform="translate(343.33 1153.663)"/>
    </g>
</svg>
