<svg xmlns="http://www.w3.org/2000/svg" id="individual-icon" viewBox="0 0 40.259 52.546">
    <defs>
        <style>
            .cls-1{fill:#fff}
        </style>
    </defs>
    <path id="Path_1120" d="M38.889 39.854a7.659 7.659 0 0 1-.615-.559c-.084-.07-.182-.126-.252-.2a13.5 13.5 0 0 0-1.817-.992L30.11 35.9a.99.99 0 0 0-.28-.8l-1.957-2.055v-3.438c.21-.168.405-.349.6-.531a12.3 12.3 0 0 0 3.872-8.946v-2.754a12.162 12.162 0 0 0 1.118-5.1V1.048A1.056 1.056 0 0 0 32.417 0h-15.67A10.032 10.032 0 0 0 6.724 10.023v2.237a12.209 12.209 0 0 0 1.118 5.1v2.362a12.8 12.8 0 0 0 4.487 9.778v3.523l-1.957 2.055a1.024 1.024 0 0 0-.28.8l-6.444 2.34a5.5 5.5 0 0 0-1.3.685 15.2 15.2 0 0 0-1.467 1.412 1.822 1.822 0 0 1-.14.21A10.8 10.8 0 0 0 0 43.432V51.5a1.056 1.056 0 0 0 1.048 1.048A1.056 1.056 0 0 0 2.1 51.5v-8.068A3.442 3.442 0 0 1 4.361 40.2l6.808-2.474 2.838 4.25a2.118 2.118 0 0 0 1.594.951 1.058 1.058 0 0 0 .21.014 2.2 2.2 0 0 0 1.538-.629l1.733-1.733v.028a.818.818 0 0 1 .238-.14 1.742 1.742 0 0 1 1.3-.042 3.2 3.2 0 0 0 .559.154l1.733 1.733a2.179 2.179 0 0 0 1.538.629 1.058 1.058 0 0 0 .21-.014 2.229 2.229 0 0 0 1.594-.951l2.838-4.25L35.9 40.2a3.442 3.442 0 0 1 2.265 3.229V51.5a1.048 1.048 0 0 0 2.1 0v-8.068a5.763 5.763 0 0 0-1.376-3.578zm-28.95-20.13v-2.6a1.365 1.365 0 0 0-.1-.461 10.112 10.112 0 0 1-1.02-4.4v-2.24A7.938 7.938 0 0 1 16.747 2.1H31.4v10.159a9.919 9.919 0 0 1-1.02 4.4 1.013 1.013 0 0 0-.1.461v2.991a10.069 10.069 0 0 1-3.215 7.409c-.266.238-.531.475-.811.685l-.014.014a10.083 10.083 0 0 1-6.808 2.027 10.4 10.4 0 0 1-9.493-10.522zm5.913 21.094c-.014.014-.028.028-.056.014s-.042-.028-.056-.028l-3.257-4.893 1.048-1.1 4.949 3.379zm4.25-4.054l-5.675-3.886v-1.957a11.746 11.746 0 0 0 4.865 1.4c.28.014.545.028.825.028a12.149 12.149 0 0 0 5.661-1.384v1.915zm4.375 4.04c0 .014-.014.028-.056.028a.145.145 0 0 1-.056-.014l-2.628-2.628 4.949-3.383 1.048 1.1z" class="cls-1" data-name="Path 1120"/>
    <path id="Path_1121" d="M82.211 70.708a.064.064 0 0 1 .056-.07 32.871 32.871 0 0 1 6.808-.335c3.271.224 5.633 1.034 7.031 2.446a1.048 1.048 0 0 0 1.482-1.482c-3.956-3.984-12.259-3.215-15.642-2.712a2.154 2.154 0 0 0-1.846 2.139v2.418a1.048 1.048 0 0 0 2.1 0v-2.4z" class="cls-1" data-name="Path 1121" transform="translate(-68.903 -58.616)"/>
    <path id="Path_1122" d="M49.148 328.8a1.056 1.056 0 0 0-1.048 1.048v4.487a1.048 1.048 0 0 0 2.1 0v-4.487a1.038 1.038 0 0 0-1.052-1.048z" class="cls-1" data-name="Path 1122" transform="translate(-41.376 -282.838)"/>
    <path id="Path_1123" d="M225.548 328.8a1.056 1.056 0 0 0-1.048 1.048v4.487a1.048 1.048 0 0 0 2.1 0v-4.487a1.038 1.038 0 0 0-1.052-1.048z" class="cls-1" data-name="Path 1123" transform="translate(-193.118 -282.838)"/>
    <circle id="Ellipse_472" cx="1.076" cy="1.076" r="1.076" class="cls-1" data-name="Ellipse 472" transform="rotate(-67.5 41.336 7.449)"/>
    <circle id="Ellipse_473" cx="1.076" cy="1.076" r="1.076" class="cls-1" data-name="Ellipse 473" transform="rotate(-13.286 203.731 -57.87)"/>
</svg>
