<svg xmlns="http://www.w3.org/2000/svg" viewBox="0 0 41.129 27.5">
    <defs>
        <style>
            .cls-1{fill:#fff}
        </style>
    </defs>
    <g id="mail-icon" transform="translate(-749.977 -300.986)">
        <path id="mail-icon-2" d="M20.618 16.5h.007a1.561 1.561 0 0 0 .867-.255l.067-.04a.292.292 0 0 1 .047-.027l.786-.645L41.088.087A.223.223 0 0 0 40.914 0H.215a.232.232 0 0 0-.134.047l19.563 16.129a1.572 1.572 0 0 0 .974.324zM0 2.184v22.877l14.019-11.324zm27.13 11.633l14 11.25V2.265zm-4.456 3.669a3.337 3.337 0 0 1-4.113.007l-3.212-2.648L0 27.245v.04a.218.218 0 0 0 .222.215h40.692a.222.222 0 0 0 .215-.222v-.034L25.786 14.92z" class="cls-1" data-name="mail-icon" transform="translate(749.977 300.986)"/>
    </g>
</svg>
