<svg
    xmlns="http://www.w3.org/2000/svg" viewBox="0 0 98.34 39.579">
    <defs>
        <style>
            .cls-1,.cls-3{opacity:.5}.cls-2,.cls-3{fill:#fff}.cls-3{font-size:10px;font-family:Roboto-Regular,Roboto;letter-spacing:.01em}
        </style>
    </defs>
    <g id="powered-by-proven-db" class="cls-1" transform="translate(-94.849 -2733.779)">
        <path id="Path_896" d="M0 5h8.306c4.259 0 7.169 2.407 7.169 6.216 0 4.365-3.307 6.375-7.274 6.375H4.338V25.1H0zm4.338 9.126h3.333c2.01 0 3.439-.767 3.439-2.83S9.6 8.439 7.777 8.439H4.338z" class="cls-2" data-name="Path 896" transform="translate(95.712 2744.234)"/>
        <path id="Path_897" d="M63.226 27.044c0-1.508 0-2.83-.026-4.1h4.1c.053.344.106 1.825.106 2.645a4.81 4.81 0 0 1 4.841-2.989v3.994c-3.042-.079-4.841.741-4.841 4.867v6.587h-4.18z" class="cls-2" data-name="Path 897" transform="translate(49.23 2731.289)"/>
        <path id="Path_898" d="M270.826 26.753c0-1.27 0-2.7-.026-3.809h4.047c.079.4.132 1.428.159 1.931a4.592 4.592 0 0 1 4.364-2.275c3.042 0 5 2.037 5 5.846v9.6h-4.18V28.9c0-1.693-.555-2.936-2.407-2.936-1.772 0-2.8.979-2.8 3.65v8.438H270.8v-11.3z" class="cls-2" data-name="Path 898" transform="translate(-103.455 2731.289)"/>
        <path id="Path_899" d="M221.371 29.236a7.912 7.912 0 1 0-.556 2.936h-4.6a3.987 3.987 0 0 1-2.777 1.111 4.036 4.036 0 0 1-3.968-3.333s6.481.026 9.867.026h2.01c-.002-.026.024-.502.024-.74zm-11.533-1.8a4.023 4.023 0 0 1 7.195 0z" class="cls-2" data-name="Path 899" transform="translate(-55.429 2732.245)"/>
        <path id="Path_900" d="M166.346.026L162.22 0l-5.978 17.088-4.761-6.11-3.28 2.539 6.163 7.989h4.5z" class="cls-2" data-name="Path 900" transform="translate(-13.286 2747.911)"/>
        <path id="Path_901" d="M112.5 30.649a3.892 3.892 0 0 1-3.068 1.455 3.968 3.968 0 0 1 0-7.936 3.889 3.889 0 0 1 3.227 1.693 9.985 9.985 0 0 1 .873 1.561l3.174-2.434a7.946 7.946 0 1 0-.794 7.7l-2.434-3.359a6.063 6.063 0 0 1-.978 1.32z" class="cls-2" data-name="Path 901" transform="translate(21.061 2733.054)"/>
        <path id="Path_902" d="M332.9 26.977a2.776 2.776 0 0 1-3.042 2.8H327.5V24.2h2.407a2.74 2.74 0 0 1 2.993 2.777zm-1.512.023a1.5 1.5 0 0 0-1.508-1.614h-.926v3.227h.979A1.477 1.477 0 0 0 331.388 27z" class="cls-2" data-name="Path 902" transform="translate(-145.157 2730.113)"/>
        <path id="Path_903" d="M354.708 25.6a1.241 1.241 0 0 1-.952 1.217 1.352 1.352 0 0 1 1.137 1.4c0 .952-.846 1.561-2.143 1.561H350V24.2h2.645c1.27 0 2.063.529 2.063 1.4zm-1.508.265c0-.344-.238-.529-.661-.529h-1.111v1.085h1.111c.424.001.661-.211.661-.555zm.185 2.169c0-.344-.317-.582-.82-.555h-1.111v1.164h1.111c.503.001.821-.211.821-.607z" class="cls-2" data-name="Path 903" transform="translate(-161.705 2730.113)"/>
        <path id="Path_904" d="M143.749 12.283a2.463 2.463 0 0 1 2.275-1.508h9.285l.5-1.376h-9.972a3.675 3.675 0 0 0-3.439 2.407 5.134 5.134 0 0 1 1.351.477z" class="cls-2" data-name="Path 904" transform="translate(-9.02 2740.998)"/>
        <path id="Path_905" d="M160.466 77.3v1.137a2.484 2.484 0 0 1-2.486 2.486h-12.618a2.484 2.484 0 0 1-2.486-2.486v-.265a8.929 8.929 0 0 1-1.376.582 3.654 3.654 0 0 0 3.65 3.545h13.041a3.658 3.658 0 0 0 3.65-3.65v-.423a8.952 8.952 0 0 1-1.375-.926z" class="cls-2" data-name="Path 905" transform="translate(-8.358 2691.059)"/>
        <text id="Powered_by" class="cls-3" data-name="Powered by" transform="translate(94.849 2733.779)">
            <tspan x="16.987" y="9">Powered by</tspan>
        </text>
    </g>
</svg>
