<svg xmlns="http://www.w3.org/2000/svg" viewBox="0 0 74.377 76.908">
    <defs>
        <style>
            .cls-1{fill:#fadc60}.cls-2{fill:#f2c42c}.cls-3{fill:#fd6f71}.cls-4{fill:#efedee}.cls-5{fill:#4db8cc}.cls-6{fill:#1e557b}
        </style>
    </defs>
    <g id="property-icon" transform="translate(-740.189 -2578.92)">
        <g id="Group_2255" data-name="Group 2255" transform="translate(741.342 2580.046)">
            <path id="Rectangle_2379" d="M0 0h11.882v26.692H0z" class="cls-1" data-name="Rectangle 2379" transform="translate(50.732 2.524)"/>
            <path id="Rectangle_2380" d="M0 0h11.882v7.03H0z" class="cls-2" data-name="Rectangle 2380" transform="translate(50.732 2.524)"/>
            <path id="Path_11779" d="M344.181 7.5H331.2a1.8 1.8 0 0 0-1.8 1.8v1.442a1.8 1.8 0 0 0 1.8 1.8h12.978a1.8 1.8 0 0 0 1.8-1.8V9.3a1.789 1.789 0 0 0-1.797-1.8z" class="cls-3" data-name="Path 11779" transform="translate(-281.026 -7.5)"/>
            <path id="Path_11780" d="M112.731 106.478V71.194L83.816 40.1 54.9 71.194v35.285z" class="cls-1" data-name="Path 11780" transform="translate(-47.759 -35.203)"/>
            <path id="Path_11781" d="M54.9 71.194v9.9a6.449 6.449 0 0 0 3.23-1.788L83.816 52.9 109.5 79.305a6.449 6.449 0 0 0 3.23 1.788v-9.914L83.816 40.1z" class="cls-2" data-name="Path 11781" transform="translate(-47.759 -35.203)"/>
            <path id="Path_11782" d="M194.5 291.8h-15.2a3.09 3.09 0 0 0-3.094 3.094v25.476h21.39v-25.476a3.09 3.09 0 0 0-3.096-3.094z" class="cls-3" data-name="Path 11782" transform="translate(-150.839 -249.095)"/>
            <path id="Rectangle_2381" d="M0 0h12.182v23.959H0z" class="cls-4" data-name="Rectangle 2381" transform="translate(29.973 47.316)"/>
            <path id="Path_11783" d="M82.649 459.5H24.817a5.318 5.318 0 0 0-5.317 5.317v1.442h68.451v-1.442a5.3 5.3 0 0 0-5.302-5.317z" class="cls-5" data-name="Path 11783" transform="translate(-17.677 -391.605)"/>
            <g id="Group_2254" data-name="Group 2254">
                <g id="Group_2253" data-name="Group 2253">
                    <path id="Path_11784" d="M78.943 42.033L46.723 8.9a4.607 4.607 0 0 0-6.609 0L7.893 42.033a1.854 1.854 0 0 0 .03 2.629l3.951 3.83a1.854 1.854 0 0 0 2.629-.03l28.915-29.741 28.916 29.742a1.854 1.854 0 0 0 2.629.03l3.951-3.83a1.882 1.882 0 0 0 .029-2.63z" class="cls-3" data-name="Path 11784" transform="translate(-7.362 -7.5)"/>
                </g>
            </g>
        </g>
        <path id="Path_11785" d="M65.813 57.065a1.135 1.135 0 0 0 1.127-1.127V43.756a3.005 3.005 0 0 0 2.283-.826l3.951-3.83a3.015 3.015 0 0 0 .06-4.221l-8.652-8.908V7.255a2.934 2.934 0 0 0 2.358-2.884V2.929A2.933 2.933 0 0 0 64.01 0H51.032A2.933 2.933 0 0 0 48.1 2.929v1.442a2.949 2.949 0 0 0 2.358 2.884v4.191l-9.433-9.7a5.8 5.8 0 0 0-8.232 0l-19.663 20.2a1.143 1.143 0 0 0 .045 1.622 1.169 1.169 0 0 0 1.607-.075L34.4 3.32a3.518 3.518 0 0 1 4.987 0l32.22 33.137a.735.735 0 0 1-.015 1.036l-3.951 3.815a.735.735 0 0 1-1.036-.015S37.693 11.566 37.693 11.551a1.142 1.142 0 0 0-1.622 0S7.216 41.233 7.155 41.293a.735.735 0 0 1-1.036.015l-3.951-3.83a.735.735 0 0 1-.015-1.036l9.388-9.659a1.152 1.152 0 0 0 .03-1.607 1.129 1.129 0 0 0-1.622 0l-9.433 9.7a3.029 3.029 0 0 0 .105 4.266l3.89 3.785a2.958 2.958 0 0 0 2.073.841.992.992 0 0 0 .21-.015v24.232a6.472 6.472 0 0 0-5.257 6.354v1.442a1.135 1.135 0 0 0 1.127 1.127h68.451a1.135 1.135 0 0 0 1.127-1.127v-1.442A6.451 6.451 0 0 0 66.924 68v-6.368a1.159 1.159 0 0 0-1.1-1.172 1.132 1.132 0 0 0-1.157 1.127V67.9H48.719V46.926A4.225 4.225 0 0 0 44.5 42.7H29.3a4.225 4.225 0 0 0-4.221 4.221V67.9H9.108V42.54L36.9 13.97l27.786 28.57v13.4a1.116 1.116 0 0 0 1.127 1.125zm-3.5-33.407l-9.629-9.9V7.315h9.629zM64 5.062H51.017a.673.673 0 0 1-.676-.676V2.944a.673.673 0 0 1 .676-.676H64a.673.673 0 0 1 .676.676v1.442a.673.673 0 0 1-.676.676zM27.329 46.926a1.975 1.975 0 0 1 1.971-1.968h15.2a1.975 1.975 0 0 1 1.968 1.968V67.9h-2.361V48.443a1.135 1.135 0 0 0-1.127-1.127H30.8a1.135 1.135 0 0 0-1.127 1.127V67.9h-2.359l.015-20.969zm14.525 2.644V67.9h-9.929V49.57zm23.959 20.578A4.193 4.193 0 0 1 70 74.339v.315H3.791v-.315a4.193 4.193 0 0 1 4.191-4.191z" class="cls-6" data-name="Path 11785" transform="translate(740.501 2578.92)"/>
    </g>
</svg>
