<svg xmlns="http://www.w3.org/2000/svg" viewBox="0 0 43.621 43.621">
    <defs>
        <style>
            .cls-1{fill:#b2e59c}.cls-2{fill:#9ad880}.cls-3{fill:#fff}.cls-4{fill:#ccf8ff}.cls-5{fill:#1e557b}
        </style>
    </defs>
    <g id="tick-icon" transform="translate(-788.898 -120.48)">
        <path id="Path_11773" d="M42.985 7.5H14.358A6.854 6.854 0 0 0 7.5 14.358v28.627a6.854 6.854 0 0 0 6.858 6.858h28.627a6.854 6.854 0 0 0 6.858-6.858V14.358A6.854 6.854 0 0 0 42.985 7.5z" class="cls-1" data-name="Path 11773" transform="translate(782.037 113.619)"/>
        <path id="Path_11774" d="M31.193 7.5H14.358A6.854 6.854 0 0 0 7.5 14.358v28.627a6.854 6.854 0 0 0 6.858 6.858h8.835c-6.952-8.341-4.337-23.745.92-29.751 5.061-5.802 6.612-10.454 7.08-12.592z" class="cls-2" data-name="Path 11774" transform="translate(782.037 113.619)"/>
        <path id="Path_11775" d="M101.761 154.42a3.417 3.417 0 0 1-2.343-.929l-8.92-8.443a3.408 3.408 0 0 1 4.686-4.95l6.381 6.04 10.309-11.468a3.409 3.409 0 0 1 5.069 4.558L104.3 153.287a3.405 3.405 0 0 1-2.394 1.125.826.826 0 0 1-.145.008z" class="cls-3" data-name="Path 11775" transform="translate(707.083 -1.684)"/>
        <path id="Path_11776" d="M95.1 200.37a3.408 3.408 0 1 0-4.686 4.95l3.621 3.425a30.481 30.481 0 0 1 1.832-7.651z" class="cls-4" data-name="Path 11776" transform="translate(707.164 -61.964)"/>
        <path id="Path_11777" d="M42.982 32.29a.644.644 0 0 0 .639-.639V7.5a7.508 7.508 0 0 0-7.5-7.5H7.5A7.508 7.508 0 0 0 0 7.5v28.624a7.508 7.508 0 0 0 7.5 7.5h28.624a7.508 7.508 0 0 0 7.5-7.5v-1.747a.639.639 0 1 0-1.278 0v1.747a6.227 6.227 0 0 1-6.219 6.219H7.5a6.227 6.227 0 0 1-6.219-6.219V7.5A6.227 6.227 0 0 1 7.5 1.278h28.624A6.227 6.227 0 0 1 42.343 7.5v24.151a.638.638 0 0 0 .639.639z" class="cls-5" data-name="Path 11777" transform="translate(788.898 120.48)"/>
        <path id="Path_11778" d="M87.763 133.428l1.8 1.7a.635.635 0 0 0 .9-.026.643.643 0 0 0-.026-.9l-1.8-1.7a4.047 4.047 0 1 0-5.572 5.87l8.92 8.443a4.109 4.109 0 0 0 2.948 1.108 3.891 3.891 0 0 0 2.846-1.338l12.652-14.075a4.048 4.048 0 0 0-6.023-5.41l-9.857 11-2.1-1.985a.635.635 0 0 0-.9.026.643.643 0 0 0 .026.9l2.573 2.437a.639.639 0 0 0 .912-.034l10.309-11.468a2.769 2.769 0 1 1 4.115 3.706l-12.641 14.057a2.779 2.779 0 0 1-3.97.153l-8.912-8.443a2.766 2.766 0 1 1 3.8-4.021z" class="cls-5" data-name="Path 11778" transform="translate(714.06 5.438)"/>
    </g>
</svg>
