<svg xmlns="http://www.w3.org/2000/svg" viewBox="0 0 68.618 77.147">
    <defs>
        <style>
            .cls-1{fill:#efedee}.cls-2{fill:#d2d2d2}.cls-3{fill:#1e557b}.cls-4{fill:#ffa5b5}.cls-5{fill:#ff8896}
        </style>
    </defs>
    <g id="upload-files-icon" transform="translate(-466.45 -1033.609)">
        <g id="Group_2266" data-name="Group 2266" transform="translate(466.45 1033.609)">
            <path id="Path_11875" d="M59.106 11.008V74.57a3.515 3.515 0 0 1-3.506 3.508H11.008A3.515 3.515 0 0 1 7.5 74.57V26.245l12.809-5.936L26.245 7.5H55.6a3.515 3.515 0 0 1 3.506 3.508z" class="cls-1" data-name="Path 11875" transform="translate(-6.435 -6.435)"/>
            <path id="Path_11876" d="M7.5 26.245h14.57a4.173 4.173 0 0 0 4.175-4.175V7.5z" class="cls-2" data-name="Path 11876" transform="translate(-6.435 -6.435)"/>
            <path id="Path_11877" d="M53.365 216.03h36.666a1.065 1.065 0 0 0 0-2.13H53.365a1.065 1.065 0 0 0 0 2.13z" class="cls-3" data-name="Path 11877" transform="translate(-44.873 -183.524)"/>
            <path id="Path_11878" d="M90.031 271.1H53.365a1.065 1.065 0 0 0 0 2.13h36.666a1.073 1.073 0 0 0 1.065-1.065 1.055 1.055 0 0 0-1.065-1.065z" class="cls-3" data-name="Path 11878" transform="translate(-44.873 -232.602)"/>
            <path id="Path_11879" d="M90.031 328.3H53.365a1.065 1.065 0 1 0 0 2.13h36.666a1.073 1.073 0 0 0 1.065-1.065 1.055 1.055 0 0 0-1.065-1.065z" class="cls-3" data-name="Path 11879" transform="translate(-44.873 -281.679)"/>
            <path id="Path_11880" d="M90.031 385.4H53.365a1.065 1.065 0 1 0 0 2.13h36.666a1.065 1.065 0 1 0 0-2.13z" class="cls-3" data-name="Path 11880" transform="translate(-44.873 -330.67)"/>
            <path id="Path_11881" d="M53.736 4.573A4.57 4.57 0 0 0 49.163 0H19.81a1.064 1.064 0 0 0-.753.312L.312 19.057A1.089 1.089 0 0 0 0 19.81v39.237a1.073 1.073 0 0 0 1.065 1.065 1.073 1.073 0 0 0 1.065-1.065V20.875h13.5a5.269 5.269 0 0 0 5.254-5.254V2.13h28.293a2.442 2.442 0 0 1 2.443 2.443V19a1.065 1.065 0 0 0 2.13 0V4.573zm-34.991-.938v12a3.146 3.146 0 0 1-3.11 3.11h-12z" class="cls-3" data-name="Path 11881"/>
            <path id="Path_11882" d="M1.065 196.346A1.073 1.073 0 0 0 0 197.411v4.828a4.57 4.57 0 0 0 4.573 4.573h44.59a4.57 4.57 0 0 0 4.573-4.573v-44.874a1.065 1.065 0 1 0-2.13 0v44.874a2.442 2.442 0 0 1-2.443 2.443H4.573a2.442 2.442 0 0 1-2.443-2.443v-4.828a1.073 1.073 0 0 0-1.065-1.065z" class="cls-3" data-name="Path 11882" transform="translate(0 -134.104)"/>
            <g id="Group_2267" data-name="Group 2267" transform="translate(38.929 35.034)">
                <path id="Path_11883" d="M193.888 247.42a4.232 4.232 0 0 1-5.972.047l-2.265-2.234v8.686a4.235 4.235 0 1 1-8.469 0v-8.686l-2.265 2.234a4.223 4.223 0 0 1-5.925-6.018l9.462-9.322a4.234 4.234 0 0 1 2.963-1.225 4.168 4.168 0 0 1 2.963 1.225l9.462 9.322a4.232 4.232 0 0 1 .046 5.971z" class="cls-4" data-name="Path 11883" transform="translate(-166.573 -229.721)"/>
                <path id="Path_11884" d="M237.254 306.7v8.609a4.273 4.273 0 0 1-4.111 4.312 4.222 4.222 0 0 1-4.343-4.221v-8.686l2.73-2.482a2.237 2.237 0 0 1 3.009 0z" class="cls-5" data-name="Path 11884" transform="translate(-218.175 -291.187)"/>
                <path id="Path_11885" d="M237.169 437.035a4.235 4.235 0 1 1-4.235-4.235 4.23 4.23 0 0 1 4.235 4.235z" class="cls-5" data-name="Path 11885" transform="translate(-218.09 -400.304)"/>
                <path id="Path_11886" d="M178.929 224.851a5.313 5.313 0 0 0-3.785-1.551 5.378 5.378 0 0 0-3.785 1.551l-9.462 9.322a5.3 5.3 0 0 0-1.6 3.8 5.124 5.124 0 0 0 1.551 3.816c3.909 3.676 7.9-.217 7.9-.217v5.91a5.4 5.4 0 1 0 10.8 0v-5.91s4.079 3.893 7.9.217a5.172 5.172 0 0 0 1.551-3.816 5.366 5.366 0 0 0-1.6-3.8zm-3.785 25.718a3.078 3.078 0 0 1-3.071-3.071v-8.174l2.342-2.141a1.071 1.071 0 0 1 1.443 0l2.342 2.141v8.176a3.055 3.055 0 0 1-3.056 3.069zm11.634-10.393a2.806 2.806 0 0 1-4.328.031l-5.01-4.746a3.37 3.37 0 0 0-4.576 0l-5.01 4.746a3.061 3.061 0 0 1-4.328-.031 3.007 3.007 0 0 1 .031-4.328l9.462-9.322a3.071 3.071 0 0 1 4.312 0l9.462 9.322a2.869 2.869 0 0 1-.015 4.328z" class="cls-3" data-name="Path 11886" transform="translate(-160.3 -223.3)"/>
                <path id="Path_11887" d="M226.6 425.3a5.369 5.369 0 0 0-2.094.419 1.161 1.161 0 0 0 .9 2.141 3.067 3.067 0 1 1-1.877 2.823 1.163 1.163 0 1 0-2.327 0 5.4 5.4 0 1 0 5.4-5.382z" class="cls-3" data-name="Path 11887" transform="translate(-211.754 -393.967)"/>
            </g>
        </g>
    </g>
</svg>
