<svg xmlns="http://www.w3.org/2000/svg" viewBox="0 0 67.761 67.754">
    <defs>
        <style>
            .cls-1{fill:#bab8b9}.cls-2{fill:#85cdea}.cls-3{fill:#78b7d2}.cls-4{fill:#596674}.cls-5{fill:#565c62}.cls-6{fill:#d9d7d8}.cls-7{fill:#1e557b}
        </style>
    </defs>
    <g id="user-sign-up-icon" transform="translate(-609.924 -218.246)">
        <path id="Path_11696" d="M248.686 198.481a3.938 3.938 0 0 1 0-5.585l20.41-20.409a3.95 3.95 0 0 1 5.586 5.585l-20.4 20.41a3.978 3.978 0 0 1-5.596-.001z" class="cls-1" data-name="Path 11696" transform="translate(395.154 69.597)"/>
        <path id="Path_11697" d="M17.659 326.5l-4.712 4.7-5.36 17.855a.788.788 0 0 0 .979.979l17.842-5.374 4.7-4.7z" class="cls-2" data-name="Path 11697" transform="translate(603.362 -65.039)"/>
        <path id="Path_11698" d="M15.846 334.184l4.7-4.7-2.887-2.884-4.712 4.685-5.36 17.855a.788.788 0 0 0 .979.979l2.74-.821z" class="cls-3" data-name="Path 11698" transform="translate(603.362 -65.126)"/>
        <path id="Path_11699" d="M48.3 104.31L87.623 65l13.447 13.447-39.31 39.323z" class="cls-2" data-name="Path 11699" transform="translate(568.01 161.85)"/>
        <path id="Path_11700" d="M48.3 104.31L87.623 65l2.885 2.885L51.2 107.209z" class="cls-3" data-name="Path 11700" transform="translate(568.01 161.85)"/>
        <path id="Path_11701" d="M377.9 25.57l-9.6-9.6 7.531-7.531a3.068 3.068 0 0 1 4.328 0l5.268 5.255a3.068 3.068 0 0 1 0 4.328z" class="cls-4" data-name="Path 11701" transform="translate(290.364 211.696)"/>
        <path id="Path_11702" d="M383.145 11.329l-2.885-2.885a3.068 3.068 0 0 0-4.328 0l-7.532 7.531 2.872 2.885 7.531-7.531a3.084 3.084 0 0 1 4.342 0z" class="cls-5" data-name="Path 11702" transform="translate(290.277 211.696)"/>
        <path id="Path_11703" d="M330.32 63.888L317.4 50.97a1.478 1.478 0 0 1 0-2.078l4.09-4.09a1.478 1.478 0 0 1 2.078 0l12.92 12.918a1.478 1.478 0 0 1 0 2.078l-4.09 4.09a1.478 1.478 0 0 1-2.078 0z" class="cls-6" data-name="Path 11703" transform="translate(334.896 179.745)"/>
        <path id="Path_11704" d="M320.374 51.79l4.1-4.1a1.478 1.478 0 0 1 2.078 0l-2.882-2.89a1.478 1.478 0 0 0-2.078 0l-4.09 4.09a1.478 1.478 0 0 0 0 2.078l2.872 2.885a1.462 1.462 0 0 1 0-2.063z" class="cls-1" data-name="Path 11704" transform="translate(334.809 179.745)"/>
        <path id="Path_11705" d="M60.015 244.263L46.792 231.04a1.238 1.238 0 0 1 0-1.76l17.988-17.988a1.238 1.238 0 0 1 1.76 0l13.222 13.222a1.238 1.238 0 0 1 0 1.76l-17.974 17.989a1.254 1.254 0 0 1-1.773 0z" class="cls-4" data-name="Path 11705" transform="translate(569.636 35.239)"/>
        <path id="Path_11706" d="M49.678 232.165l17.987-17.987a1.238 1.238 0 0 1 1.76 0l-2.885-2.885a1.238 1.238 0 0 0-1.76 0l-17.988 17.973a1.238 1.238 0 0 0 0 1.76l2.885 2.9a1.238 1.238 0 0 1 .001-1.761z" class="cls-5" data-name="Path 11706" transform="translate(569.636 35.239)"/>
        <path id="Path_11707" d="M67.807 9.318a4.035 4.035 0 0 0-1.191-2.872l-5.255-5.255a4.058 4.058 0 0 0-5.744 0l-5.374 5.374-.966-.965a2.46 2.46 0 0 0-3.468 0l-4.09 4.09a2.487 2.487 0 0 0-.675 2.21L25.956 26.988a2.436 2.436 0 0 0-.543-.066 2.245 2.245 0 0 0-1.588.662L5.851 45.557a2.25 2.25 0 0 0-.476 2.462L.12 65.477a1.774 1.774 0 0 0 1.707 2.277 1.747 1.747 0 0 0 .516-.079L19.8 62.42a2.2 2.2 0 0 0 .874.185 2.244 2.244 0 0 0 1.588-.662l3.428-3.428a.992.992 0 0 0-1.4-1.4l-3.43 3.425a.256.256 0 0 1-.371 0L7.267 47.318a.241.241 0 0 1 0-.357l17.974-17.975a.241.241 0 0 1 .357 0l13.223 13.223a.241.241 0 0 1 0 .357L26.882 54.5a.992.992 0 0 0 1.4 1.4l5.188-5.188a4.934 4.934 0 0 0 6.777-.185L60.66 30.125a4.956 4.956 0 0 0 .2-6.777L62.209 22a2.477 2.477 0 0 0 0-3.481l-.953-.953 5.36-5.374a4.035 4.035 0 0 0 1.191-2.874zM2.132 65.676L6.91 49.793l11.1 11.1zm57.125-36.954l-20.4 20.409a2.964 2.964 0 0 1-3.971.185l5.347-5.347a2.225 2.225 0 0 0 .582-2.131l15.093-15.089a2.917 2.917 0 0 0 .476.053 2.433 2.433 0 0 0 1.734-.715l1.337-1.337a2.965 2.965 0 0 1-.198 3.972zm1.549-8.127l-4.09 4.09a.479.479 0 0 1-.675 0l-6.79-6.79a.992.992 0 0 0-1.4 1.4l6.349 6.356L39.642 40.21 27.6 28.166l14.556-14.56 2.938 2.938a.992.992 0 1 0 1.4-1.4l-3.375-3.375c-.013-.013-.013-.026-.026-.026-.026-.053-.053-.093-.079-.146a.451.451 0 0 1 .106-.49l4.09-4.09a.466.466 0 0 1 .331-.132.448.448 0 0 1 .331.132l12.92 12.916a.452.452 0 0 1 .014.662zm4.407-9.808l-5.36 5.36-8.193-8.192 5.374-5.374a2.077 2.077 0 0 1 2.938 0l5.268 5.268a2.052 2.052 0 0 1 .609 1.469 2.078 2.078 0 0 1-.636 1.469z" class="cls-7" data-name="Path 11707" transform="translate(609.876 218.246)"/>
    </g>
</svg>
