<svg xmlns="http://www.w3.org/2000/svg" viewBox="0 0 27.645 27.637">
    <defs>
        <style>
            .cls-1{fill:#fff}
        </style>
    </defs>
    <g id="user-icon" transform="translate(-829.5 -300.818)">
        <path id="user-icon-2" d="M22.46 18.969h-1.726a3.46 3.46 0 0 1-3.458-3.459V14.4a8.745 8.745 0 0 0 1.652-3.117c.034-.194.222-.285.342-.416a2.134 2.134 0 0 0 .3-2.57c-.068-.12-.188-.228-.182-.376 0-1.014.006-2.028 0-3.043a5.092 5.092 0 0 0-1.231-3.4A4.841 4.841 0 0 0 15.532.121a8.812 8.812 0 0 0-3.76.085 4.533 4.533 0 0 0-2.679 1.812 5.234 5.234 0 0 0-.826 2.735c-.017 1.031-.006 2.063-.006 3.1.023.205-.154.348-.234.519a2.142 2.142 0 0 0 .49 2.621 1.022 1.022 0 0 1 .3.575 8.343 8.343 0 0 0 1.555 2.786V15.5a3.46 3.46 0 0 1-3.458 3.459H5.185S2.051 19.824 0 24.143v1.726A1.725 1.725 0 0 0 1.726 27.6h24.193a1.725 1.725 0 0 0 1.726-1.726v-1.731c-2.051-4.314-5.185-5.174-5.185-5.174z" class="cls-1" data-name="user-icon" transform="translate(829.5 300.859)"/>
    </g>
</svg>
