<svg xmlns="http://www.w3.org/2000/svg" viewBox="0 0 85.774 75.381">
    <defs>
        <style>
            .cls-1{fill:#d8d7da}.cls-2{fill:#c6c5ca}.cls-3{fill:#a0f0f2}.cls-4{fill:#7de2e2}.cls-5{fill:#b9bbc1}.cls-6{fill:#1e557b}.cls-7{fill:#efebde}.cls-8{fill:#d5d0bb}.cls-9{fill:#ff66a8}
        </style>
    </defs>
    <g id="view-share-documents-icon" transform="translate(-1022.854 -1033.609)">
        <path id="Path_11853" d="M125.578 207.779H64.1v-37.21a8.162 8.162 0 0 1 8.169-8.169h45.155a8.162 8.162 0 0 1 8.169 8.169l-.016 37.21z" class="cls-1" data-name="Path 11853" transform="translate(969.02 897.223)"/>
        <path id="Path_11854" d="M77.571 170.6a8.162 8.162 0 0 1 8.169-8.169h32.341c-.224-.016-.432-.032-.657-.032H72.269a8.162 8.162 0 0 0-8.169 8.169v37.21h13.471V170.6z" class="cls-2" data-name="Path 11854" transform="translate(969.02 897.223)"/>
        <path id="Path_11855" d="M97.3 234.076v-35.625a2.858 2.858 0 0 1 2.851-2.851h45.155a2.858 2.858 0 0 1 2.851 2.851v35.624z" class="cls-3" data-name="Path 11855" transform="translate(941.138 869.341)"/>
        <path id="Path_11856" d="M105.453 198.483a7.875 7.875 0 0 1 .529-2.883h-5.831a2.858 2.858 0 0 0-2.851 2.851v35.624h8.153v-35.592z" class="cls-4" data-name="Path 11856" transform="translate(941.138 869.341)"/>
        <path id="Path_11857" d="M7.593 411.691l.5 1.986a4.816 4.816 0 0 0 4.677 3.652H81.9a4.816 4.816 0 0 0 4.677-3.652l.5-1.986a2.5 2.5 0 0 0-2.419-3.091H10.012a2.476 2.476 0 0 0-2.419 3.091z" class="cls-5" data-name="Path 11857" transform="translate(1016.54 690.46)"/>
        <g id="Group_2263" data-name="Group 2263" transform="translate(1024.056 1099.043)">
            <path id="Path_11858" d="M20.536 413.677l-.5-1.986a2.5 2.5 0 0 1 2.419-3.091H10.012a2.476 2.476 0 0 0-2.419 3.091l.5 1.986a4.816 4.816 0 0 0 4.677 3.652h12.443a4.816 4.816 0 0 1-4.677-3.652z" class="cls-1" data-name="Path 11858" transform="translate(-7.516 -408.583)"/>
            <path id="Path_11859" d="M209.1 408.5v1.682a2.652 2.652 0 0 0 2.659 2.659h9.691a2.652 2.652 0 0 0 2.659-2.659V408.5z" class="cls-1" data-name="Path 11859" transform="translate(-176.81 -408.5)"/>
        </g>
        <path id="Path_11860" d="M214.434 410.182V408.5H209.1v1.682a2.652 2.652 0 0 0 2.659 2.659h5.334a2.652 2.652 0 0 1-2.659-2.659z" class="cls-2" data-name="Path 11860" transform="translate(847.246 690.543)"/>
        <path id="Path_11861" d="M81.242 195.746a3.688 3.688 0 0 0-2.915-1.426h-5.366v-30.05a9.383 9.383 0 0 0-9.371-9.37H18.451a9.383 9.383 0 0 0-9.371 9.371v30.05H3.714A3.642 3.642 0 0 0 .8 195.746a3.683 3.683 0 0 0-.673 3.172l.5 1.986a6.015 6.015 0 0 0 5.847 4.565H75.6a6.015 6.015 0 0 0 5.85-4.569l.5-1.986a3.8 3.8 0 0 0-.708-3.168zm-69.759-31.475a6.973 6.973 0 0 1 6.968-6.968h45.155a6.973 6.973 0 0 1 6.968 6.968v30.05H16.8v-30.05a1.648 1.648 0 0 1 1.65-1.65h45.156a1.648 1.648 0 0 1 1.65 1.65v25.837a1.2 1.2 0 0 0 2.4 0v-25.837a4.057 4.057 0 0 0-4.053-4.053H18.451a4.057 4.057 0 0 0-4.053 4.053v30.05h-2.915zm68.109 34.071l-.5 1.986a3.6 3.6 0 0 1-3.508 2.739H6.453a3.6 3.6 0 0 1-3.508-2.739l-.5-1.986a1.248 1.248 0 0 1 .24-1.105 1.275 1.275 0 0 1 1.025-.5h43.622s0 1.938-1.458 1.938h-9.691a1.457 1.457 0 0 1-.593-.128 1.2 1.2 0 1 0-.977 2.194 3.808 3.808 0 0 0 1.586.336h9.691c3.636 0 3.86-4.341 3.86-4.341h28.593a1.3 1.3 0 0 1 1.025.5 1.335 1.335 0 0 1 .224 1.105z" class="cls-6" data-name="Path 11861" transform="translate(1022.838 903.521)"/>
        <g id="Group_2265" data-name="Group 2265" transform="translate(1075.568 1033.609)">
            <g id="Group_2264" data-name="Group 2264">
                <path id="Path_11862" d="M362.065 2.243v40.605a2.249 2.249 0 0 1-2.243 2.243h-28.48a2.249 2.249 0 0 1-2.243-2.243V11.982l8.185-3.8L341.082 0h18.741a2.249 2.249 0 0 1 2.242 2.243z" class="cls-7" data-name="Path 11862" transform="translate(-329.1)"/>
            </g>
        </g>
        <path id="Path_11863" d="M360.439 0H341.7l-1.06 2.259h18.933a.769.769 0 0 1 .769.769v38.843a.769.769 0 0 1-.769.769h-26.765a.769.769 0 0 1-.769-.769V10.892l-2.339 1.09v30.866a2.249 2.249 0 0 0 2.243 2.243h28.48a2.249 2.249 0 0 0 2.243-2.243V2.243A2.225 2.225 0 0 0 360.439 0z" class="cls-6" data-name="Path 11863" transform="translate(745.964 1033.609)"/>
        <path id="Path_11864" d="M329.1 11.982h9.307a2.68 2.68 0 0 0 2.675-2.675V0z" class="cls-8" data-name="Path 11864" transform="translate(746.468 1033.609)"/>
        <path id="Path_11865" d="M341.21 2.21L341.082 0l-10.348 10.348-1.634 1.634h9.306a2.68 2.68 0 0 0 2.675-2.675V2.323zm-1.762 7.048a1.073 1.073 0 0 1-1.073 1.073h-5.3l6.375-6.375z" class="cls-6" data-name="Path 11865" transform="translate(746.468 1033.609)"/>
        <path id="Path_11866" d="M388.821 90.882h-17.78A1.039 1.039 0 0 1 370 89.841a1.039 1.039 0 0 1 1.041-1.041h17.78a1.039 1.039 0 0 1 1.041 1.041 1.049 1.049 0 0 1-1.041 1.041z" class="cls-6" data-name="Path 11866" transform="translate(712.119 959.033)"/>
        <path id="Path_11867" d="M388.821 139.882h-17.78a1.039 1.039 0 0 1-1.041-1.041 1.039 1.039 0 0 1 1.041-1.041h17.78a1.039 1.039 0 0 1 1.041 1.041 1.049 1.049 0 0 1-1.041 1.041z" class="cls-6" data-name="Path 11867" transform="translate(712.119 917.882)"/>
        <path id="Path_11868" d="M388.821 191.882h-17.78a1.039 1.039 0 0 1-1.041-1.041 1.039 1.039 0 0 1 1.041-1.041h17.78a1.039 1.039 0 0 1 1.041 1.041 1.049 1.049 0 0 1-1.041 1.041z" class="cls-6" data-name="Path 11868" transform="translate(712.119 874.212)"/>
        <path id="Path_11869" d="M238.561 120.3a.964.964 0 0 0-.961.961v1.762a.964.964 0 0 0 .961.961.964.964 0 0 0 .961-.961v-1.762a.964.964 0 0 0-.961-.961z" class="cls-9" data-name="Path 11869" transform="translate(823.311 932.579)"/>
        <path id="Path_11870" d="M238.561 83.3a.964.964 0 0 0-.961.961v1.762a.964.964 0 0 0 .961.961.964.964 0 0 0 .961-.961v-1.762a.964.964 0 0 0-.961-.961z" class="cls-9" data-name="Path 11870" transform="translate(823.311 963.652)"/>
        <path id="Path_11871" d="M238.561 45.8a.964.964 0 0 0-.961.961v1.762a.964.964 0 0 0 .961.961.964.964 0 0 0 .961-.961v-1.762a.964.964 0 0 0-.961-.961z" class="cls-9" data-name="Path 11871" transform="translate(823.311 995.146)"/>
        <path id="Path_11872" d="M271.1 46.761a.964.964 0 0 0 .961.961h1.762a.964.964 0 0 0 .961-.961.964.964 0 0 0-.961-.961h-1.762a.964.964 0 0 0-.961.961z" class="cls-9" data-name="Path 11872" transform="translate(795.177 995.146)"/>
        <path id="Path_11873" d="M237.6 46.761a.964.964 0 0 0 .961.961h1.762a.964.964 0 0 0 .961-.961.964.964 0 0 0-.961-.961h-1.762a.964.964 0 0 0-.961.961z" class="cls-9" data-name="Path 11873" transform="translate(823.311 995.146)"/>
        <path id="Path_11874" d="M307.1 46.761a.964.964 0 0 0 .961.961h1.762a.964.964 0 0 0 .961-.961.964.964 0 0 0-.961-.961h-1.762a.964.964 0 0 0-.961.961z" class="cls-9" data-name="Path 11874" transform="translate(764.944 995.146)"/>
    </g>
</svg>
