<svg xmlns="http://www.w3.org/2000/svg" viewBox="0 0 123.396 84.816">
    <defs>
        <style>
            .cls-1{fill:#efedee}.cls-2{fill:#d2d2d2}.cls-3{fill:#1e557b}.cls-4{fill:#bab8b9}.cls-5{fill:#85cdea}.cls-6{fill:#78b7d2}.cls-7{fill:#596674}.cls-8{fill:#565c62}.cls-9{fill:#d9d7d8}
        </style>
    </defs>
    <g id="will-icon" transform="translate(-181.313 -2571.219)">
        <path id="Path_11797" d="M63.825 11.328V80.7A3.837 3.837 0 0 1 60 84.532H11.328A3.837 3.837 0 0 1 7.5 80.7V27.959l13.98-6.479L27.959 7.5H60a3.837 3.837 0 0 1 3.825 3.828z" class="cls-1" data-name="Path 11797" transform="translate(174.975 2569.744)"/>
        <path id="Path_11798" d="M7.5 27.959h15.9a4.554 4.554 0 0 0 4.559-4.559V7.5z" class="cls-2" data-name="Path 11798" transform="translate(174.975 2569.744)"/>
        <path id="Path_11799" d="M53.462 216.225h40.02a1.162 1.162 0 1 0 0-2.325h-40.02a1.162 1.162 0 1 0 0 2.325z" class="cls-3" data-name="Path 11799" transform="translate(137.119 2395.335)"/>
        <path id="Path_11800" d="M93.482 271.1h-40.02a1.162 1.162 0 0 0 0 2.325h40.02a1.171 1.171 0 0 0 1.162-1.162 1.151 1.151 0 0 0-1.162-1.163z" class="cls-3" data-name="Path 11800" transform="translate(137.119 2347.001)"/>
        <path id="Path_11801" d="M93.482 328.3h-40.02a1.162 1.162 0 1 0 0 2.325h40.02a1.171 1.171 0 0 0 1.162-1.162 1.151 1.151 0 0 0-1.162-1.163z" class="cls-3" data-name="Path 11801" transform="translate(137.119 2298.666)"/>
        <path id="Path_11802" d="M93.482 385.4h-40.02a1.162 1.162 0 1 0 0 2.325h40.02a1.162 1.162 0 1 0 0-2.325z" class="cls-3" data-name="Path 11802" transform="translate(137.119 2250.417)"/>
        <path id="Path_11803" d="M58.649 4.991A4.988 4.988 0 0 0 53.659 0H21.622a1.161 1.161 0 0 0-.822.341L.341 20.8a1.189 1.189 0 0 0-.341.822v42.824a1.171 1.171 0 0 0 1.162 1.162 1.171 1.171 0 0 0 1.162-1.162V22.784h14.74a5.751 5.751 0 0 0 5.736-5.735V2.325h30.874a2.666 2.666 0 0 1 2.666 2.666v15.747a1.162 1.162 0 1 0 2.325 0V4.991zm-38.19-1.023v13.1a3.434 3.434 0 0 1-3.394 3.394H3.968z" class="cls-3" data-name="Path 11803" transform="translate(181.313 2576.082)"/>
        <path id="Path_11804" d="M1.162 200.008A1.171 1.171 0 0 0 0 201.171v5.27a4.988 4.988 0 0 0 4.991 4.991h48.668a4.988 4.988 0 0 0 4.991-4.991v-48.979a1.162 1.162 0 1 0-2.325 0v48.978a2.666 2.666 0 0 1-2.666 2.666H4.991a2.666 2.666 0 0 1-2.666-2.666v-5.27a1.171 1.171 0 0 0-1.163-1.162z" class="cls-3" data-name="Path 11804" transform="translate(181.312 2444.008)"/>
        <path id="Path_11696" d="M1.028 24.037a3.486 3.486 0 0 1 0-4.944L19.093 1.028a3.5 3.5 0 1 1 4.944 4.944L5.984 24.037a3.521 3.521 0 0 1-4.956 0z" class="cls-4" data-name="Path 11696" transform="rotate(-45 3274.608 996.348)"/>
        <path id="Path_11697" d="M8.944 0L4.773 4.159.029 19.963a.7.7 0 0 0 .871.867l15.792-4.756 4.159-4.159z" class="cls-5" data-name="Path 11697" transform="rotate(-45 3310.609 1021.195)"/>
        <path id="Path_11698" d="M7.339 6.713L11.5 2.554 8.944 0 4.773 4.147.029 19.951a.7.7 0 0 0 .867.867l2.425-.726z" class="cls-6" data-name="Path 11698" transform="rotate(-45 3310.623 1021.188)"/>
        <path id="Path_11699" d="M0 34.795L34.806 0l11.9 11.9-34.791 34.809z" class="cls-5" data-name="Path 11699" transform="rotate(-45 3271.242 1030.75)"/>
        <path id="Path_11700" d="M0 34.795L34.806 0l2.554 2.554L2.566 37.36z" class="cls-6" data-name="Path 11700" transform="rotate(-45 3271.242 1030.75)"/>
        <path id="Path_11701" d="M8.494 15.95L0 7.457 6.666.791a2.715 2.715 0 0 1 3.831 0l4.663 4.651a2.715 2.715 0 0 1 0 3.831z" class="cls-7" data-name="Path 11701" transform="rotate(-45 3244.373 988.862)"/>
        <path id="Path_11702" d="M13.051 3.345L10.5.791a2.715 2.715 0 0 0-3.831 0L0 7.457l2.542 2.554 6.666-6.666a2.729 2.729 0 0 1 3.843 0z" class="cls-8" data-name="Path 11702" transform="rotate(-45 3244.366 988.848)"/>
        <path id="Path_11703" d="M11.812 17.271L.378 5.837A1.308 1.308 0 0 1 .378 4L4 .378a1.308 1.308 0 0 1 1.839 0l11.432 11.434a1.308 1.308 0 0 1 0 1.839l-3.62 3.62a1.308 1.308 0 0 1-1.839 0z" class="cls-9" data-name="Path 11703" transform="rotate(-45 3252.586 993.964)"/>
        <path id="Path_11704" d="M2.92 6.564l3.632-3.632a1.308 1.308 0 0 1 1.839 0L5.837.378A1.308 1.308 0 0 0 4 .378L.378 4a1.308 1.308 0 0 0 0 1.839L2.92 8.391a1.294 1.294 0 0 1 0-1.827z" class="cls-4" data-name="Path 11704" transform="rotate(-45 3252.581 993.949)"/>
        <path id="Path_11705" d="M12.029 29.508L.325 17.8a1.1 1.1 0 0 1 0-1.558L16.246.325a1.1 1.1 0 0 1 1.558 0l11.7 11.7a1.1 1.1 0 0 1 0 1.558L13.6 29.508a1.11 1.11 0 0 1-1.571 0z" class="cls-7" data-name="Path 11705" transform="rotate(-45 3291.987 1022.467)"/>
        <path id="Path_11706" d="M2.879 18.8L18.8 2.879a1.1 1.1 0 0 1 1.558 0L17.8.325a1.1 1.1 0 0 0-1.558 0L.325 16.234a1.1 1.1 0 0 0 0 1.558l2.554 2.566a1.1 1.1 0 0 1 0-1.558z" class="cls-8" data-name="Path 11706" transform="rotate(-45 3291.987 1022.467)"/>
        <path id="Path_11707" d="M59.977 8.248a3.571 3.571 0 0 0-1.054-2.542l-4.651-4.652a3.592 3.592 0 0 0-5.084 0l-4.757 4.757-.855-.855a2.178 2.178 0 0 0-3.069 0l-3.62 3.62a2.2 2.2 0 0 0-.6 1.956L22.933 23.888a2.156 2.156 0 0 0-.48-.059 1.987 1.987 0 0 0-1.406.586L5.138 40.324a1.992 1.992 0 0 0-.422 2.176L.065 57.956a1.57 1.57 0 0 0 1.511 2.015 1.546 1.546 0 0 0 .457-.07l15.453-4.651a1.948 1.948 0 0 0 .773.164 1.987 1.987 0 0 0 1.406-.586l3.035-3.034a.878.878 0 1 0-1.242-1.242l-3.034 3.034a.227.227 0 0 1-.328 0l-11.7-11.7a.213.213 0 0 1 0-.316L22.3 25.657a.213.213 0 0 1 .316 0l11.7 11.7a.213.213 0 0 1 0 .316L23.753 48.244A.878.878 0 0 0 25 49.486l4.592-4.592a4.367 4.367 0 0 0 6-.164l18.059-18.066a4.387 4.387 0 0 0 .176-6l1.195-1.195a2.192 2.192 0 0 0 0-3.081l-.844-.844 4.745-4.756a3.571 3.571 0 0 0 1.054-2.54zM1.846 58.132l4.229-14.059L15.9 53.9zm50.563-32.71L34.356 43.487a2.623 2.623 0 0 1-3.515.164l4.733-4.733a1.97 1.97 0 0 0 .515-1.886l13.356-13.355a2.582 2.582 0 0 0 .422.047 2.154 2.154 0 0 0 1.535-.633l1.183-1.183a2.625 2.625 0 0 1-.176 3.514zm1.371-7.193l-3.62 3.62a.424.424 0 0 1-.6 0l-6.01-6.01a.878.878 0 0 0-1.242 1.242l5.626 5.619-12.887 12.891L24.386 24.93l12.887-12.887 2.6 2.6a.878.878 0 0 0 1.242-1.243l-2.987-2.987c-.012-.012-.012-.023-.023-.023-.023-.047-.047-.082-.07-.129a.4.4 0 0 1 .094-.433l3.62-3.62a.412.412 0 0 1 .293-.117.4.4 0 0 1 .293.117l11.433 11.435a.4.4 0 0 1 .012.586zm3.9-8.681l-4.745 4.745-7.251-7.252 4.756-4.756a1.838 1.838 0 0 1 2.6 0l4.66 4.662a1.816 1.816 0 0 1 .539 1.3 1.839 1.839 0 0 1-.558 1.301z" class="cls-3" data-name="Path 11707" transform="rotate(-45 3264.875 1041.381)"/>
    </g>
</svg>
