<svg width="2672" height="956" viewBox="0 0 2672 956" fill="none" xmlns="http://www.w3.org/2000/svg">
<g clip-path="url(#clip0)">
<path d="M92 93.7H334.476C458.79 93.7 543.866 164.154 543.866 275.597C543.866 403.32 447.343 462.123 331.514 462.123H218.648V681.939H92V93.7ZM218.648 360.72H315.95C374.642 360.72 416.365 338.276 416.365 277.912C416.365 217.548 372.308 194.348 319.038 194.348H218.623L218.648 360.72Z" fill="#35B3D4"/>
<path d="M580.818 359.939C580.818 315.83 580.818 277.131 580.04 239.966H699.734C701.29 250.031 702.822 293.36 702.822 317.365C722.126 267.041 769.221 229.901 844.13 229.901V346.779C755.339 344.464 702.822 368.444 702.822 489.197V681.913H580.818V359.939Z" fill="#35B3D4"/>
<path d="M2183.91 351.409C2183.91 314.245 2183.91 272.45 2183.14 239.941H2301.27C2303.58 251.541 2305.14 281.735 2305.92 296.455C2320.58 268.601 2356.88 229.901 2433.34 229.901C2522.14 229.901 2579.3 289.51 2579.3 401.004V681.913H2457.29V414.113C2457.29 364.569 2441.08 328.21 2387 328.21C2335.26 328.21 2305.14 356.844 2305.14 435.023V681.938H2183.14V351.409H2183.91Z" fill="#35B3D4"/>
<path d="M2142.19 452.058C2142.02 394.464 2120.44 339.002 2081.66 296.505C2042.87 254.007 1989.68 227.526 1932.46 222.233C1875.25 216.941 1818.11 233.217 1772.23 267.883C1726.34 302.55 1695 353.116 1684.31 409.706C1673.63 466.296 1684.38 524.845 1714.45 573.919C1744.53 622.993 1791.78 659.066 1846.97 675.093C1902.16 691.12 1961.33 685.95 2012.92 660.592C2064.52 635.235 2104.82 591.512 2125.98 537.962H1991.62C1969.83 558.935 1940.75 570.593 1910.54 570.471C1882.88 570.423 1856.12 560.626 1834.95 542.796C1813.77 524.966 1799.53 500.239 1794.71 472.943C1794.71 472.943 1983.89 473.723 2082.75 473.723H2141.44C2141.44 472.968 2142.19 459.028 2142.19 452.058ZM1805.5 399.419C1815.27 379.883 1830.26 363.456 1848.81 351.975C1867.36 340.495 1888.72 334.414 1910.52 334.414C1932.32 334.414 1953.69 340.495 1972.24 351.975C1990.79 363.456 2005.78 379.883 2015.54 399.419H1805.5Z" fill="#35B3D4"/>
<path d="M1766.09 55.78L1645.59 55L1471.07 554.996L1332.07 376.194L1236.4 450.523L1416.32 684.279H1547.69L1766.09 55.78Z" fill="#35B3D4"/>
<path d="M1197.11 517.052C1186.36 530.471 1172.72 541.273 1157.21 548.647C1141.69 556.021 1124.71 559.775 1107.54 559.626C1076.83 559.626 1047.36 547.395 1025.64 525.622C1003.92 503.85 991.716 474.32 991.716 443.529C991.716 412.737 1003.92 383.208 1025.64 361.435C1047.36 339.662 1076.83 327.431 1107.54 327.431C1126.09 327.346 1144.38 331.818 1160.8 340.455C1177.23 349.092 1191.29 361.631 1201.76 376.975C1211.6 391.42 1220.13 406.721 1227.24 422.694L1319.9 351.486C1299.62 304.18 1264.26 264.956 1219.34 239.967C1174.43 214.978 1122.52 205.636 1071.74 213.406C1020.96 221.177 974.19 245.62 938.764 282.903C903.338 320.186 881.259 368.2 875.991 419.415C870.722 470.63 882.561 522.15 909.651 565.894C936.741 609.639 977.55 643.134 1025.68 661.127C1073.81 679.121 1126.53 680.594 1175.58 665.317C1224.64 650.039 1267.25 618.875 1296.73 576.712L1225.68 478.403C1217.95 492.526 1208.34 505.529 1197.11 517.052V517.052Z" fill="#35B3D4"/>
<path d="M2082.74 817.387C2082.9 828.707 2080.68 839.932 2076.21 850.332C2071.75 860.731 2065.15 870.071 2056.84 877.74C2048.53 885.409 2038.71 891.237 2028 894.842C2017.29 898.446 2005.95 899.747 1994.71 898.66H1926.75V736.113H1997.04C2008.12 735.245 2019.27 736.716 2029.75 740.43C2040.23 744.145 2049.82 750.021 2057.89 757.68C2065.97 765.338 2072.35 774.608 2076.63 784.893C2080.91 795.177 2083 806.246 2082.74 817.387V817.387ZM2039.49 818.167C2039.94 812.114 2039.13 806.035 2037.12 800.311C2035.11 794.586 2031.93 789.342 2027.8 784.908C2023.66 780.473 2018.66 776.945 2013.1 774.545C2007.54 772.145 2001.54 770.925 1995.48 770.963H1968.45V864.616H1997.04C2002.96 864.637 2008.81 863.419 2014.23 861.04C2019.65 858.661 2024.52 855.173 2028.51 850.8C2032.51 846.427 2035.55 841.265 2037.44 835.645C2039.33 830.026 2040.03 824.073 2039.49 818.167V818.167Z" fill="#35B3D4"/>
<path d="M2366.14 770.937C2360.23 770.916 2354.37 772.095 2348.91 774.402C2343.46 776.71 2338.53 780.098 2334.42 784.364C2330.31 788.631 2327.1 793.686 2324.99 799.227C2322.88 804.768 2321.91 810.68 2322.14 816.606C2321.9 822.574 2322.86 828.529 2324.95 834.119C2327.05 839.709 2330.25 844.82 2334.35 849.151C2338.45 853.482 2343.38 856.944 2348.84 859.332C2354.3 861.72 2360.19 862.986 2366.14 863.056C2381.52 862.029 2395.9 855.098 2406.31 843.706L2431.01 870.806C2422.38 880.058 2411.99 887.494 2400.45 892.678C2388.92 897.862 2376.47 900.691 2363.83 901C2352.72 901.317 2341.65 899.382 2331.29 895.311C2320.94 891.241 2311.51 885.119 2303.57 877.311C2295.63 869.503 2289.35 860.17 2285.09 849.87C2280.83 839.571 2278.69 828.517 2278.8 817.369C2278.9 806.221 2281.25 795.209 2285.7 784.992C2290.15 774.775 2296.61 765.562 2304.69 757.906C2312.78 750.249 2322.32 744.306 2332.75 740.432C2343.18 736.557 2354.28 734.832 2365.39 735.358C2390.07 735.675 2413.63 745.675 2431.04 763.213L2406.33 792.627C2401.55 786.364 2395.49 781.191 2388.56 777.452C2381.64 773.712 2373.99 771.492 2366.14 770.937V770.937Z" fill="#35B3D4"/>
<path d="M2511.32 768.596C2501.27 768.596 2494.32 772.471 2494.32 779.441C2494.32 806.541 2580.02 791.041 2580.02 849.895C2580.02 883.185 2550.68 900.219 2514.38 900.219C2487.17 900.134 2460.79 890.852 2439.49 873.875L2455.71 840.585C2472.14 854.901 2492.71 863.576 2514.4 865.345C2526.76 865.345 2534.49 860.69 2534.49 852.185C2534.49 824.33 2448.78 841.34 2448.78 784.071C2448.78 753.877 2474.26 734.527 2513.65 734.527C2536.56 734.668 2558.99 741.089 2578.52 753.097L2562.3 786.386C2546.95 776.502 2529.47 770.405 2511.32 768.596V768.596Z" fill="#35B3D4"/>
<path d="M2180.83 730.703C2164.02 730.703 2147.6 735.697 2133.63 745.053C2119.66 754.41 2108.77 767.708 2102.34 783.267C2095.91 798.826 2094.23 815.946 2097.51 832.463C2100.79 848.981 2108.88 864.153 2120.76 876.061C2132.64 887.969 2147.77 896.079 2164.25 899.364C2180.73 902.65 2197.81 900.964 2213.34 894.519C2228.86 888.074 2242.13 877.16 2251.46 863.158C2260.79 849.155 2265.78 832.693 2265.78 815.852C2265.81 804.661 2263.64 793.573 2259.38 783.228C2255.12 772.882 2248.86 763.482 2240.97 755.569C2233.07 747.655 2223.7 741.384 2213.37 737.117C2203.05 732.85 2191.99 730.67 2180.83 730.703V730.703ZM2180.83 858.426C2172.43 858.426 2164.21 855.929 2157.23 851.251C2150.24 846.573 2144.8 839.924 2141.58 832.144C2138.37 824.365 2137.53 815.805 2139.17 807.546C2140.81 799.287 2144.85 791.701 2150.79 785.747C2156.73 779.793 2164.3 775.738 2172.54 774.096C2180.78 772.453 2189.32 773.296 2197.08 776.518C2204.84 779.741 2211.48 785.197 2216.14 792.199C2220.81 799.2 2223.3 807.431 2223.3 815.852C2223.2 827.113 2218.7 837.885 2210.75 845.848C2202.81 853.811 2192.06 858.328 2180.83 858.426Z" fill="#35B3D4"/>
<path d="M1346.06 343.685C1354.54 355.285 1363.83 368.445 1373.85 382.384H1502.02L1515.93 343.685H1346.06Z" fill="#1C4D6B"/>
<path d="M1231 212.112C1236.5 199.019 1245.74 187.846 1257.55 179.998C1269.37 172.15 1283.23 167.977 1297.4 168.003H1568.52L1583.23 127.744H1292.03C1270.12 127.801 1248.75 134.583 1230.79 147.179C1212.84 159.775 1199.17 177.579 1191.62 198.198C1205.33 200.97 1218.59 205.654 1231 212.112V212.112Z" fill="#1C4D6B"/>
<path d="M1738.32 653.305V686.594C1738.33 696.152 1736.47 705.618 1732.82 714.451C1729.18 723.284 1723.84 731.31 1717.1 738.07C1710.35 744.829 1702.35 750.19 1693.54 753.843C1684.73 757.497 1675.28 759.373 1665.75 759.363H1297.4C1287.87 759.373 1278.42 757.497 1269.61 753.843C1260.8 750.19 1252.79 744.829 1246.05 738.07C1239.31 731.31 1233.97 723.284 1230.32 714.451C1226.68 705.618 1224.81 696.152 1224.83 686.594V678.844C1211.94 685.636 1198.5 691.334 1184.66 695.879C1185.49 723.659 1197.08 750.024 1216.97 769.386C1236.86 788.747 1263.5 799.583 1291.23 799.597H1671.92C1700.17 799.544 1727.24 788.273 1747.22 768.253C1767.19 748.233 1778.43 721.096 1778.49 692.784V680.404C1764.29 672.636 1750.84 663.564 1738.32 653.305V653.305Z" fill="#1C4D6B"/>
<path d="M1831.01 705.919V780.222C1831.02 789.778 1829.15 799.242 1825.5 808.072C1821.86 816.902 1816.52 824.925 1809.77 831.682C1803.03 838.439 1795.03 843.797 1786.22 847.449C1777.41 851.101 1767.97 852.976 1758.43 852.966H1390.09C1378.81 852.98 1367.68 850.323 1357.62 845.211C1347.55 840.1 1338.84 832.679 1332.17 823.551H1283.52C1291.26 843.987 1305 861.587 1322.93 874.024C1340.86 886.461 1362.13 893.148 1383.94 893.2H1764.63C1783.86 893.142 1802.73 887.947 1819.29 878.151C1835.85 868.355 1849.5 854.311 1858.85 837.466C1867.51 821.844 1872.03 804.258 1871.98 786.387V714.424C1858.1 712.786 1844.39 709.941 1831.01 705.919V705.919Z" fill="#1C4D6B"/>
<path d="M1349.92 644.773H1260.35V683.473H1379.27L1349.92 644.773Z" fill="#1C4D6B"/>
<path d="M1590.87 644.773L1577.74 683.473H1707.47V644.773H1590.87Z" fill="#1C4D6B"/>
<path d="M1519.82 243.061H1276.57C1290.34 254.771 1303 267.725 1314.4 281.761H1537.57L1551.48 243.061H1519.82Z" fill="#1C4D6B"/>
<path d="M1671.17 544.931H1624.08L1610.95 583.631H1688.17C1681.58 571.159 1675.9 558.225 1671.17 544.931V544.931Z" fill="#1C4D6B"/>
</g>
<defs>
<clipPath id="clip0">
<rect width="2488" height="846" fill="white" transform="translate(92 55)"/>
</clipPath>
</defs>
</svg>
