<svg
    xmlns="http://www.w3.org/2000/svg" viewBox="0 0 80.063 80.063">
    <defs>
        <style>.a{fill:#32ba7c;}.b{fill:#0aa06e;}.c{fill:#fff;}</style>
    </defs>
    <circle class="a" cx="40.031" cy="40.031" r="40.031" transform="translate(0 0)"/>
    <path class="b" d="M188.8,186.1l20.584,20.584a40.005,40.005,0,0,0,29.676-38.642V166.9L222.9,152Z" transform="translate(-158.997 -128.006)"/>
    <g transform="translate(13.449 19.763)">
        <path class="c" d="M112.793,217.09a4.728,4.728,0,0,1,0,6.567l-3.662,3.662a4.728,4.728,0,0,1-6.567,0L86.526,211.155a4.728,4.728,0,0,1,0-6.567l3.662-3.662a4.728,4.728,0,0,1,6.567,0Z" transform="translate(-85.2 -187.856)"/>
        <path class="c" d="M193.508,126.526a4.728,4.728,0,0,1,6.567,0l3.662,3.662a4.728,4.728,0,0,1,0,6.567l-27.782,27.656a4.728,4.728,0,0,1-6.567,0l-3.662-3.662a4.728,4.728,0,0,1,0-6.567Z" transform="translate(-151.898 -125.2)"/>
    </g>
</svg>