<svg xmlns="http://www.w3.org/2000/svg" viewBox="0 0 66.76 74.682">
    <defs>
        <style>
            .cls-1{fill:#c86d5c}.cls-2{fill:#efedee}.cls-3{fill:#d2d2d2}.cls-4{fill:#fff}.cls-5{fill:#f2c42c}.cls-6{fill:#1e557b}
        </style>
    </defs>
    <g id="clock-icon" transform="translate(-606.726 -209.284)">
        <g id="Group_2245" data-name="Group 2245" transform="translate(607.82 209.912)">
            <circle id="Ellipse_579" cx="32.286" cy="32.286" r="32.286" class="cls-1" data-name="Ellipse 579" transform="translate(0 8.388)"/>
            <circle id="Ellipse_580" cx="25.808" cy="25.808" r="25.808" class="cls-2" data-name="Ellipse 580" transform="translate(6.478 14.866)"/>
            <path id="Path_11766" d="M56.814 132.108a25.8 25.8 0 0 1 23.4-25.692 26.058 26.058 0 0 0-2.407-.117 25.8 25.8 0 1 0-.015 51.6c.817 0 1.619-.044 2.407-.117a25.788 25.788 0 0 1-23.385-25.674z" class="cls-3" data-name="Path 11766" transform="translate(-45.508 -91.434)"/>
            <circle id="Ellipse_581" cx="2.305" cy="2.305" r="2.305" class="cls-4" data-name="Ellipse 581" transform="rotate(-77.067 17.584 -16.292)"/>
            <path id="Path_11767" d="M217.432 192.582l-1.138-2.261a1.177 1.177 0 0 0-2.1 0l-1.138 2.261a1.169 1.169 0 0 0 1.05 1.692h2.261a1.172 1.172 0 0 0 1.065-1.692z" class="cls-5" data-name="Path 11767" transform="translate(-182.958 -162.645)"/>
            <path id="Path_11768" d="M292.492 271.732l2.261-1.138a1.177 1.177 0 0 0 0-2.1l-2.261-1.138a1.169 1.169 0 0 0-1.692 1.05v2.261a1.167 1.167 0 0 0 1.692 1.065z" class="cls-5" data-name="Path 11768" transform="translate(-249.469 -228.884)"/>
            <circle id="Ellipse_582" cx="2.451" cy="2.451" r="2.451" class="cls-5" data-name="Ellipse 582" transform="translate(29.835 38.223)"/>
        </g>
        <g id="Group_2246" data-name="Group 2246" transform="translate(606.726 209.284)">
            <path id="Path_11769" d="M156.925 102.784a1.077 1.077 0 0 0-1.532.175 1.088 1.088 0 0 0 .175 1.532 31.212 31.212 0 0 1-33.7 52.171 1.093 1.093 0 0 0-1.007 1.94 33.395 33.395 0 0 0 36.065-55.818z" class="cls-6" data-name="Path 11769" transform="translate(-102.726 -87.596)"/>
            <path id="Path_11770" d="M14.152 68.7a1.109 1.109 0 0 0 .627.2 1.056 1.056 0 0 0 .89-.467 1.1 1.1 0 0 0-.263-1.532A31.282 31.282 0 0 1 2.188 41.4a30.962 30.962 0 0 1 9.133-22.059A31.212 31.212 0 0 1 49.3 14.573a1.1 1.1 0 0 0 1.123-1.882 33.069 33.069 0 0 0-10.259-3.969L36.444 5a3.449 3.449 0 0 0 .35-1.5 3.4 3.4 0 0 0-6.8 0 3.449 3.449 0 0 0 .35 1.5l-3.72 3.691A33.4 33.4 0 0 0 14.152 68.7zM33.38 2.274a1.211 1.211 0 1 1-1.211 1.211 1.208 1.208 0 0 1 1.211-1.211zm-1.5 4.26a3.4 3.4 0 0 0 3.005 0L36.5 8.168c-1.036-.1-2.086-.146-3.122-.146s-2.086.044-3.122.146z" class="cls-6" data-name="Path 11770" transform="translate(0 -.1)"/>
            <path id="Path_11771" d="M52.509 106.561a1.988 1.988 0 0 0-.248.248 26.876 26.876 0 0 0 0 37.786 1.989 1.989 0 0 0 .248.248 26.876 26.876 0 0 0 37.786 0c.044-.044.2-.19.248-.248a26.876 26.876 0 0 0 0-37.786 1.992 1.992 0 0 0-.248-.248 26.876 26.876 0 0 0-37.786 0zm33.132 4.887a1.1 1.1 0 0 0 1.546 0l2.422-2.422a24.624 24.624 0 0 1 6.463 15.581H92.63a1.094 1.094 0 0 0 0 2.188h3.443a24.624 24.624 0 0 1-6.463 15.581l-2.422-2.422a1.094 1.094 0 0 0-1.546 1.546l2.422 2.422a24.624 24.624 0 0 1-15.581 6.463v-3.443a1.094 1.094 0 1 0-2.188 0v3.443a24.624 24.624 0 0 1-15.581-6.463l2.422-2.422a1.094 1.094 0 0 0-1.546-1.546l-2.422 2.422A24.624 24.624 0 0 1 46.7 126.8h3.443a1.094 1.094 0 0 0 0-2.188H46.7a24.624 24.624 0 0 1 6.463-15.581l2.422 2.422a1.094 1.094 0 0 0 1.546-1.546l-2.422-2.422a24.624 24.624 0 0 1 15.581-6.463v3.443a1.094 1.094 0 1 0 2.188 0v-3.443a24.624 24.624 0 0 1 15.581 6.463l-2.417 2.415a1.075 1.075 0 0 0 0 1.549z" class="cls-6" data-name="Path 11771" transform="translate(-38.008 -84.4)"/>
            <path id="Path_11772" d="M219.35 193.769a2.215 2.215 0 0 0-1.007-.233 2.263 2.263 0 0 0-2.261 2.261v.044h-4.566a3.541 3.541 0 0 0-2.276-2.276V189h.044a2.273 2.273 0 0 0 2.028-3.283l-1.138-2.261a2.266 2.266 0 0 0-4.056 0l-1.138 2.261a2.24 2.24 0 0 0 .1 2.2 2.271 2.271 0 0 0 1.926 1.08h.044v4.566a3.544 3.544 0 1 0 4.464 4.464h4.566v.044a2.263 2.263 0 0 0 2.261 2.261 2.37 2.37 0 0 0 1.007-.233l2.261-1.138a2.266 2.266 0 0 0 0-4.056zm-12.415-7a.065.065 0 0 1 0-.073s1.123-2.247 1.138-2.261a.071.071 0 0 1 .131 0s1.123 2.247 1.138 2.261a.08.08 0 0 1-.073.117h-2.261a.32.32 0 0 1-.074-.047zm1.2 11.526a1.357 1.357 0 1 1 1.357-1.357 1.354 1.354 0 0 1-1.361 1.354zm12.5-1.3l-2.261 1.138a.083.083 0 0 1-.117-.073v-2.26c0-.058.058-.088.117-.073l2.261 1.138a.071.071 0 0 1-.001.128z" class="cls-6" data-name="Path 11772" transform="translate(-174.75 -155.633)"/>
        </g>
    </g>
</svg>
