<svg xmlns="http://www.w3.org/2000/svg" viewBox="0 0 92.855 91.5"><defs><style>.a{fill:#d07c40;}.b{fill:#efefef;}.c{fill:#26a6d1;}.d{fill:#efc75e;}.e{fill:#e8c15b;}.f{fill:#d6d9db;}.g{fill:#e2574c;}.h{fill:#fff;}.i{fill:#32ba7c;}</style></defs><g transform="translate(-591.816 -199.172)"><g transform="translate(591.816 199.172)"><path class="a" d="M0,64.5,42.3,39.4,84.575,64.5V101.51H0Z" transform="translate(0 -32.79)"/><path class="b" d="M41.951,0h66.086a2.656,2.656,0,0,1,2.651,2.651V48.906a2.656,2.656,0,0,1-2.651,2.651H41.951A2.656,2.656,0,0,1,39.3,48.906V2.651A2.678,2.678,0,0,1,41.951,0Z" transform="translate(-32.706)"/><path class="c" d="M102.567,5.285,106.795,0h1.325a2.656,2.656,0,0,1,2.651,2.651V5.3h-8.2Zm-34.36,0L72.435,0h9.244L77.451,5.285Zm-28.807,0V2.651A2.653,2.653,0,0,1,42.034,0h6.61L44.416,5.285Z" transform="translate(-32.79)"/><path class="d" d="M84.575,233.947a3.967,3.967,0,0,1-3.959,3.959H3.959A3.967,3.967,0,0,1,0,233.947V189l42.3,18.505L84.575,189v44.947Z" transform="translate(0 -157.291)"/><path class="e" d="M84.575,233.947a3.967,3.967,0,0,1-3.959,3.959H3.959A3.967,3.967,0,0,1,0,233.947v-7.936L84.575,189Z" transform="translate(0 -157.291)"/><path class="f" d="M112.443,105.346l.537,2.768-4.245-6.594-5.939,9.244c-.067.856,3.758,1.527,8.523,1.527s8.59-.654,8.59-1.527l-5.218-7.734Zm.52-3.624a1.644,1.644,0,1,0-1.644-1.644A1.626,1.626,0,0,0,112.963,101.722Zm13.556-.671h26.424a1.325,1.325,0,1,0,0-2.651H126.519a1.325,1.325,0,0,0,0,2.651Zm26.424,2.651H126.519a1.325,1.325,0,0,0,0,2.651h26.424a1.325,1.325,0,1,0,0-2.651Zm-6.61,5.285H126.519a1.325,1.325,0,0,0,0,2.651H146.35a1.328,1.328,0,0,0,1.325-1.325A1.343,1.343,0,0,0,146.333,108.987Z" transform="translate(-85.549 -81.891)"/><path class="g" d="M143.06,5.285,147.288,0h9.244L152.3,5.285Zm-34.36,0L112.928,0h9.244l-4.228,5.285Z" transform="translate(-90.463)"/></g><circle class="h" cx="16.672" cy="16.672" r="16.672" transform="translate(651.328 257.328)"/><circle class="i" cx="15.005" cy="15.005" r="15.005" transform="translate(652.995 258.995)"/><path class="h" d="M90.981,203.264a.99.99,0,0,1,0,1.376l-.767.767a.991.991,0,0,1-1.376,0l-3.36-3.386a.99.99,0,0,1,0-1.376l.767-.767a.991.991,0,0,1,1.376,0Z" transform="translate(577.677 72.294)"/><path class="h" d="M170.5,125.478a.991.991,0,0,1,1.376,0l.767.767a.991.991,0,0,1,0,1.376l-5.821,5.794a.99.99,0,0,1-1.376,0l-.767-.767a.991.991,0,0,1,0-1.376Z" transform="translate(501.096 144.233)"/></g></svg>