<svg xmlns="http://www.w3.org/2000/svg" viewBox="0 0 92.372 81.137"><defs><style>.a{fill:#f3d55b;}.b{fill:#f29c1f;}.c{fill:#f0c419;}.d{fill:#fff;}.e{fill:#32ba7c;}</style></defs><g transform="translate(-594.3 -225.534)"><g transform="translate(594.3 224.583)"><path class="a" d="M83.457,1.206a1.316,1.316,0,0,0-1.3-.148L8.707,30.712,0,34.326,26.286,44.972h.033v.016L33.35,69.532a1.461,1.461,0,0,0,2.431.624L50.435,55.174,70.2,62.944a2.86,2.86,0,0,0,3.91-2.234L84.081,2.718A1.428,1.428,0,0,0,83.457,1.206ZM40.874,51.28l.033-.1.049.016Z" transform="translate(0 0)"/><path class="b" d="M232.354,310.776,217.7,325.758a1.611,1.611,0,0,0,.361-.657l4.731-18.219.066-.082,6.292,2.645,2.809,1.183Z" transform="translate(-181.935 -255.602)"/><path class="c" d="M217.37,3,174.738,52.91l-.049-.016-.033.1-4.715,18.219a1.723,1.723,0,0,1-.361.657,1.461,1.461,0,0,1-2.431-.624l-7.031-24.561v-.016H160.1V46.65Z" transform="translate(-133.798 -1.712)"/></g><circle class="d" cx="16.672" cy="16.672" r="16.672" transform="translate(653.328 273.328)"/><circle class="e" cx="15.005" cy="15.005" r="15.005" transform="translate(654.995 274.995)"/><path class="d" d="M90.981,203.264a.99.99,0,0,1,0,1.376l-.767.767a.991.991,0,0,1-1.376,0l-3.36-3.386a.99.99,0,0,1,0-1.376l.767-.767a.991.991,0,0,1,1.376,0Z" transform="translate(579.677 88.293)"/><path class="d" d="M170.5,125.478a.991.991,0,0,1,1.376,0l.767.767a.991.991,0,0,1,0,1.376l-5.821,5.794a.99.99,0,0,1-1.376,0l-.767-.767a.991.991,0,0,1,0-1.376Z" transform="translate(503.096 160.233)"/></g></svg>