<svg xmlns="http://www.w3.org/2000/svg" viewBox="0 0 65.699 67.201">
    <defs>
        <style>
            .cls-1{fill:#fdba6d}.cls-2{opacity:.1}.cls-3{opacity:.15}.cls-4{opacity:.05}.cls-5{fill:#b2e59c}.cls-6{fill:#1e557b}.cls-7{fill:#fff}.cls-8{fill:#ccf8ff}
        </style>
    </defs>
    <g id="email-tick-icon" transform="translate(-607.634 -234.246)">
        <g id="Group_2295" data-name="Group 2295" transform="translate(608.619 235.227)">
            <path id="Path_11929" d="M66.021 243.951H12.709a5.214 5.214 0 0 1-5.209-5.209V204.6h63.73v34.142a5.214 5.214 0 0 1-5.209 5.209z" class="cls-1" data-name="Path 11929" transform="translate(-7.5 -178.741)"/>
            <path id="Path_11930" d="M36.459 8.6L7.5 33.384h63.73L42.272 8.6a4.474 4.474 0 0 0-5.813 0z" class="cls-1" data-name="Path 11930" transform="translate(-7.5 -7.525)"/>
        </g>
        <path id="Path_11931" d="M36.459 8.6L7.5 33.384h63.73L42.272 8.6a4.474 4.474 0 0 0-5.813 0z" class="cls-2" data-name="Path 11931" transform="translate(601.119 227.702)"/>
        <path id="Path_11932" d="M39.372 224.282L7.5 204.6h63.73z" class="cls-3" data-name="Path 11932" transform="translate(601.119 56.486)"/>
        <path id="Path_11933" d="M25.393 243.951h53.3a5.214 5.214 0 0 0 5.209-5.209V204.6L22.1 242.77a5.18 5.18 0 0 0 3.293 1.181z" class="cls-4" data-name="Path 11933" transform="translate(588.434 56.486)"/>
        <path id="Path_11934" d="M97.4 75.025v21.322l20.063 12.387 20.063-12.387V75.025A3.427 3.427 0 0 0 134.1 71.6h-33.275a3.419 3.419 0 0 0-3.425 3.425z" class="cls-5" data-name="Path 11934" transform="translate(523.015 172.035)"/>
        <path id="Path_11935" d="M116.229 250.212L97.4 238.6v2.821l20.063 12.387 20.063-12.387V238.6l-18.816 11.626a2.375 2.375 0 0 1-2.481-.014z" class="cls-2" data-name="Path 11935" transform="translate(523.015 26.947)"/>
        <path id="Path_11936" d="M52.056 354.6L22.1 373.1a5.217 5.217 0 0 0 3.307 1.181h53.3a5.217 5.217 0 0 0 3.307-1.181z" class="cls-4" data-name="Path 11936" transform="translate(588.434 -73.832)"/>
        <path id="Path_11937" d="M64.715 33.608a.991.991 0 0 0 .984-.984v-5.931a811084985749.106 811084985749.106 0 0 1-.026-.079v-.026c0-.013-.013-.026-.013-.039s0-.013-.013-.026 0-.013-.013-.026-.013-.026-.013-.039 0-.013-.013-.026-.013-.013-.013-.026-.013-.026-.026-.039a.013.013 0 0 0-.013-.013c0-.013-.013-.013-.013-.026s-.013-.026-.026-.039-.013-.013-.013-.026l-.013-.013c-.013-.013-.013-.026-.026-.039l-.026-.026a.013.013 0 0 1-.013-.013l-.026-.026c-.013-.013-.026-.026-.039-.026L53.9 16.314v-3.451a4.418 4.418 0 0 0-4.409-4.409h-4.813L36.4 1.369a5.436 5.436 0 0 0-7.1 0l-8.28 7.085H16.2a4.418 4.418 0 0 0-4.4 4.409v3.477L.341 26.142c-.013.013-.026.026-.039.026s-.026.013-.026.026a.013.013 0 0 0-.013.013l-.026.026c-.013.013-.026.026-.026.039l-.011.014c0 .013-.013.013-.013.026s-.013.026-.026.039-.013.013-.013.026l-.013.013c-.013.013-.013.026-.026.039s-.013.013-.013.026 0 .013-.013.026-.013.026-.013.039 0 .013-.013.026 0 .013-.013.026-.013.026-.013.039v.026a.048.048 0 0 1-.013.039.048.048 0 0 1-.018.043v34.339a6.2 6.2 0 0 0 2.2 4.737.514.514 0 0 0 .131.1 6.207 6.207 0 0 0 3.858 1.352h53.3A6.207 6.207 0 0 0 63.35 65.9a.919.919 0 0 0 .131-.1 6.172 6.172 0 0 0 2.2-4.737v-22.7a.984.984 0 1 0-1.968 0v22.7a4.219 4.219 0 0 1-1.063 2.795L34.706 46.6 63.73 28.648v3.976a.983.983 0 0 0 .985.984zM30.586 2.851a3.467 3.467 0 0 1 4.54 0l6.534 5.59H24.051zM11.8 18.925v6.981H3.648zm0 8.949v4.54l-7.348-4.54zM60.87 65.02a4.337 4.337 0 0 1-1.378.236H6.193a4 4 0 0 1-1.378-.236l8.476-5.235a.981.981 0 0 0-1.037-1.666l-9.236 5.707a4.219 4.219 0 0 1-1.063-2.795V28.648l29.011 17.911-13.279 8.2a.988.988 0 0 0 .525 1.824 1.042 1.042 0 0 0 .512-.144l14.119-8.726zm-8.936-31.4L32.856 45.4 13.777 33.621V12.863a2.436 2.436 0 0 1 2.441-2.441h33.289a2.436 2.436 0 0 1 2.441 2.441l-.013 20.758zm1.966-1.206v-4.54h7.348zm0-6.508v-6.981l8.148 6.981z" class="cls-6" data-name="Path 11937" transform="translate(607.634 234.196)"/>
        <path id="Path_11944" d="M100.9 152.957a3.177 3.177 0 0 1-2.179-.864l-8.3-7.852a3.169 3.169 0 0 1 4.358-4.6l5.934 5.617 9.587-10.664a3.17 3.17 0 0 1 4.714 4.239L103.258 151.9a3.167 3.167 0 0 1-2.226 1.046.771.771 0 0 1-.132.011z" class="cls-7" data-name="Path 11944" transform="translate(538.586 118.014)"/>
        <path id="Path_11945" d="M94.7 200.3a3.169 3.169 0 1 0-4.358 4.6l3.367 3.185a28.345 28.345 0 0 1 1.7-7.115z" class="cls-8" data-name="Path 11945" transform="translate(538.668 57.341)"/>
        <path id="Path_11946" d="M87.345 132.89l1.672 1.585a.591.591 0 0 0 .84-.024.6.6 0 0 0-.024-.84l-1.672-1.585a3.763 3.763 0 1 0-5.182 5.459l8.3 7.851a3.821 3.821 0 0 0 2.741 1.03 3.618 3.618 0 0 0 2.646-1.244l11.765-13.088a3.765 3.765 0 0 0-5.6-5.031l-9.171 10.229-1.949-1.846a.591.591 0 0 0-.84.024.6.6 0 0 0 .024.84l2.393 2.266a.594.594 0 0 0 .848-.032l9.587-10.664a2.575 2.575 0 1 1 3.827 3.446l-11.759 13.073a2.584 2.584 0 0 1-3.692.143l-8.287-7.851a2.572 2.572 0 1 1 3.534-3.74z" class="cls-6" data-name="Path 11946" transform="translate(545.609 125.183)"/>
    </g>
</svg>
