<svg xmlns="http://www.w3.org/2000/svg" viewBox="0 0 75.649 67.18">
    <defs>
        <style>
            .cls-1{fill:#e5646e}.cls-2{fill:#ff8086}.cls-3{fill:#fff}.cls-4{fill:#db4655}.cls-5{fill:#1e557b}
        </style>
    </defs>
    <g id="error-icon" transform="translate(-602.489 -235.246)">
        <g id="Group_2230" data-name="Group 2230" transform="translate(603.606 236.354)">
            <path id="Path_11685" d="M80.233 64.633l-31.47-54.518a5.241 5.241 0 0 0-9.072 0L8.222 64.633a5.232 5.232 0 0 0 4.536 7.845H75.7a5.232 5.232 0 0 0 4.533-7.845z" class="cls-1" data-name="Path 11685" transform="translate(-7.515 -7.5)"/>
            <path id="Path_11686" d="M113.729 65.315L82.259 10.8a5.139 5.139 0 0 0-3.442-2.5L47.451 62.493a4.759 4.759 0 0 0 1.566 6.383 4.87 4.87 0 0 0 2.63.724h62.5a5.137 5.137 0 0 0-.418-4.285z" class="cls-2" data-name="Path 11686" transform="translate(-41.011 -8.182)"/>
            <path id="Path_11687" d="M121.439 117.189L93.219 68.3 65 117.189z" class="cls-3" data-name="Path 11687" transform="translate(-56.507 -59.317)"/>
            <circle id="Ellipse_578" cx="3.546" cy="3.546" r="3.546" class="cls-1" data-name="Ellipse 578" transform="translate(33.167 51.962)"/>
            <path id="Path_11688" d="M237.036 197.2h-2.5a1.174 1.174 0 0 1-1.182-1.123l-1.064-20.138a1.181 1.181 0 0 1 1.182-1.241h4.61a1.189 1.189 0 0 1 1.182 1.241l-1.064 20.14a1.151 1.151 0 0 1-1.164 1.121z" class="cls-1" data-name="Path 11688" transform="translate(-199.082 -149.997)"/>
            <path id="Path_11689" d="M237.393 366.149a3.547 3.547 0 0 1-3.546-3.546 3.412 3.412 0 0 1 .3-1.4 3.551 3.551 0 1 0 4.669 4.669 3.793 3.793 0 0 1-1.423.277z" class="cls-4" data-name="Path 11689" transform="translate(-198.833 -308.943)"/>
            <path id="Path_11690" d="M233.575 174.7a1.189 1.189 0 0 0-1.182 1.241l1.064 20.138a1.174 1.174 0 0 0 1.182 1.123h1.389l-.148-22.5z" class="cls-4" data-name="Path 11690" transform="translate(-199.168 -149.997)"/>
        </g>
        <g id="Group_2231" data-name="Group 2231" transform="translate(602.489 235.246)">
            <path id="Path_11691" d="M74.746 57.68L43.276 3.162a6.358 6.358 0 0 0-10.992 0L.814 57.68a6.242 6.242 0 0 0 0 6.338 6.28 6.28 0 0 0 5.5 3.162H69.25a6.331 6.331 0 0 0 5.5-9.5zm-1.921 5.23a4.1 4.1 0 0 1-3.575 2.068H6.31a4.129 4.129 0 0 1-3.575-6.191L34.2 4.27a4.139 4.139 0 0 1 7.151 0l31.47 54.518a4.111 4.111 0 0 1 .004 4.122z" class="cls-5" data-name="Path 11691" transform="translate(.05)"/>
            <path id="Path_11692" d="M282.625 116.918a1.1 1.1 0 0 0-1.906 1.108l22.531 39.02h-18.024a1.108 1.108 0 1 0 0 2.216h19.931a1.1 1.1 0 0 0 .96-.547 1.138 1.138 0 0 0 0-1.108z" class="cls-5" data-name="Path 11692" transform="translate(-239.107 -99.174)"/>
            <path id="Path_11693" d="M78.475 109.774H60.45L86.764 64.21l1.285 2.231a1.1 1.1 0 0 0 1.906-1.108l-2.246-3.886a1.117 1.117 0 0 0-1.921 0l-28.219 48.889a1.137 1.137 0 0 0 0 1.108 1.1 1.1 0 0 0 .96.547H78.46a1.116 1.116 0 0 0 1.108-1.108 1.1 1.1 0 0 0-1.093-1.109z" class="cls-5" data-name="Path 11693" transform="translate(-48.933 -51.902)"/>
            <path id="Path_11694" d="M229.154 351.6a4.654 4.654 0 1 0 4.654 4.654 4.663 4.663 0 0 0-4.654-4.654zm0 7.107a2.438 2.438 0 1 1 2.438-2.438 2.44 2.44 0 0 1-2.438 2.438z" class="cls-5" data-name="Path 11694" transform="translate(-191.324 -299.653)"/>
            <path id="Path_11695" d="M227.16 167.2a2.387 2.387 0 0 0-1.67.709 2.276 2.276 0 0 0-.621 1.7l1.064 20.138a2.289 2.289 0 0 0 2.29 2.172h2.5a2.289 2.289 0 0 0 2.29-2.172l1.064-20.138a2.335 2.335 0 0 0-.621-1.7 2.277 2.277 0 0 0-1.67-.709zm4.684 2.3l-1.064 20.138a.07.07 0 0 1-.074.074h-2.5a.07.07 0 0 1-.074-.074l-1.061-20.138a.112.112 0 0 1 .015-.059c.03-.03.044-.03.059-.03h4.61c.015 0 .03 0 .059.03s.029.049.029.059z" class="cls-5" data-name="Path 11695" transform="translate(-191.634 -142.497)"/>
        </g>
    </g>
</svg>
