<svg xmlns="http://www.w3.org/2000/svg" viewBox="0 0 16.652 20.921"><defs><style>.a{fill:#fff;}</style></defs><g transform="translate(-525.189 -452.267)"><path class="a" d="M797.08,628.79a11.1,11.1,0,0,0,.133-1.6,5.239,5.239,0,0,0-1.469-3.873,4.437,4.437,0,0,0-.267-3.138c-.668-.267-2.4.668-3.339,1.269a12.111,12.111,0,0,0-6.009.134c-2.27-1.6-3.472-1.335-3.472-1.335a11.87,11.87,0,0,1-1.469,6.811,7.263,7.263,0,0,0,.067,1.2,6.258,6.258,0,0,0,5.876,5.075,2.266,2.266,0,0,0-.935,1.536,3.163,3.163,0,0,1-2.27.2c-1.068-.334-1.469-2.471-3.138-2.2-.334.067-.267.267,0,.467a3.7,3.7,0,0,1,1.335,1.6,2.63,2.63,0,0,0,2.671,1.8,9.383,9.383,0,0,0,1.2-.067v2.337c0,.734-1,.935-1,1.335,0,.133.334.133.6.133.534,0,1.6-.467,1.6-1.2V636.2a1.252,1.252,0,0,1,.4-1.068,41.653,41.653,0,0,1-.134,4.807c-.2.668-.534.6-.534.868,0,.467,1.335.134,1.736-.868.334-.734.2-4.941.2-4.941h.334v2.8c0,.868-.134,2.07.4,2.6.334.334,1.4,1,1.4.4,0-.334-.735-.6-.735-1.469v-4.073c.467,0,.534,1.335.534,1.335l.134,2.537a1.2,1.2,0,0,0,1,1.269c.4.134,1.2.2,1.269-.067.067-.2-1-.534-1-1.269v-2.537c0-1.87-.267-2.537-1.135-3.138C793.941,632.93,796.612,631.795,797.08,628.79Z" transform="translate(-255.373 -167.863)"/></g></svg>