<svg
  xmlns="http://www.w3.org/2000/svg" viewBox="0 0 23.136 14.682">
  <defs>
    <style>
            .cls-1{fill:#dc4e41}.cls-2{fill:#fff}
        </style>
  </defs>
  <g id="google-icon" transform="translate(-515.508 -367.251)">
    <path id="Path_799" d="M-.008 7.394a7.354 7.354 0 0 0 4.957 6.927 7.26 7.26 0 0 0 7.912-2.1 8.4 8.4 0 0 0 1.493-5.878c-2.351-.032-4.7 0-7.022 0v2.51c1.4.032 2.8.032 4.226.064a4.136 4.136 0 0 1-2.383 2.8 4.64 4.64 0 0 1-6.133-2.8A4.713 4.713 0 0 1 6.03 2.913a5.126 5.126 0 0 1 4.353.858c.667-.6 1.271-1.271 1.875-1.938A7.487 7.487 0 0 0 6.951.054a7.29 7.29 0 0 0-6.959 7.34z" class="cls-1" data-name="Path 799" transform="translate(518.519 367.219)"/>
    <path id="Path_800" d="M55.029 13.2c0 .7 0 1.4-.032 2.1H52.9v2.1H55v2.1h2.1v-2.1h2.1v-2.1h-2.1v-2.1z" class="cls-1" data-name="Path 800" transform="translate(482.42 358.235)"/>
    <path id="Path_801" d="M-.008 7.394A7.29 7.29 0 0 1 6.951.054a7.372 7.372 0 0 1 5.306 1.811c-.6.667-1.207 1.3-1.875 1.938a5.229 5.229 0 0 0-4.353-.89 4.647 4.647 0 1 0 3.146 8.738 4 4 0 0 0 2.383-2.8c-1.4-.032-2.8 0-4.226-.064V6.282h7.022a8.244 8.244 0 0 1-1.493 5.878 7.206 7.206 0 0 1-7.912 2.1A7.213 7.213 0 0 1-.008 7.394z" class="cls-2" data-name="Path 801" transform="translate(518.519 367.219)"/>
    <path id="Path_802" d="M55.1 13.2h2.1v2.1h2.1v2.1h-2.1v2.1h-2.1v-2.1H53v-2.1h2.1c-.035-.7 0-1.4 0-2.1z" class="cls-2" data-name="Path 802" transform="translate(482.352 358.235)"/>
  </g>
</svg>
