<svg xmlns="http://www.w3.org/2000/svg" viewBox="0 0 83.919 83.919">
    <defs>
        <style>
            .cls-1{fill:#e5b965}.cls-2{fill:#cea65b}.cls-3{fill:#ffce71}.cls-4{fill:#1e557b}
        </style>
    </defs>
    <g id="key-icon" transform="translate(-597.888 -207.267)">
        <g id="Group_2243" data-name="Group 2243" transform="translate(-16 28)">
            <g id="Group_2242" data-name="Group 2242" transform="rotate(45 756.796 157.036)">
                <path id="Path_11754" d="M158.216 367.584v-4.127a.8.8 0 0 1 .8-.8h2.47a.8.8 0 0 0 .8-.8V359a.8.8 0 0 0-.8-.8H149.6v18.572h11.885a.8.8 0 0 0 .8-.8v-6.793a.8.8 0 0 0-.8-.8h-2.47a.794.794 0 0 1-.799-.795z" class="cls-1" data-name="Path 11754" transform="translate(582.959 -68.999)"/>
                <path id="Rectangle_2376" d="M0 0h6.161v18.572H0z" class="cls-2" data-name="Rectangle 2376" transform="translate(732.559 289.216)"/>
                <path id="Path_11755" d="M113.118 243.233H109.2a2.8 2.8 0 0 1-2.8-2.8V199.7a2.8 2.8 0 0 1 2.8-2.8h3.916a2.8 2.8 0 0 1 2.8 2.8v40.73a2.8 2.8 0 0 1-2.798 2.803z" class="cls-3" data-name="Path 11755" transform="translate(619.652 68.005)"/>
                <path id="Path_11756" d="M113.118 196.8H109.2a2.8 2.8 0 0 0-2.8 2.8v9.716a21.887 21.887 0 0 0 9.55 0V199.6a2.852 2.852 0 0 0-2.832-2.8z" class="cls-1" data-name="Path 11756" transform="translate(619.652 68.09)"/>
                <path id="Path_11757" d="M27.157 7.5A19.649 19.649 0 1 0 46.8 27.157 19.652 19.652 0 0 0 27.157 7.5zm0 17.639a5.769 5.769 0 1 1 5.769-5.769 5.77 5.77 0 0 1-5.769 5.769z" class="cls-3" data-name="Path 11757" transform="translate(703.655 228.876)"/>
                <path id="Path_11761" d="M34.419 52.84h-7.743V40.715a20.8 20.8 0 0 0 14.882-19.928 20.526 20.526 0 0 0-1.1-6.673 1.129 1.129 0 1 0-2.139.723 18.425 18.425 0 1 1-1.672-3.63 1.129 1.129 0 1 0 1.928-1.175 21.119 21.119 0 0 0-7.441-7.275 20.787 20.787 0 1 0-16.252 37.958v15.123a1.13 1.13 0 1 0 2.259 0v-14.6a20.641 20.641 0 0 0 3.645.316 20.893 20.893 0 0 0 3.645-.316V73.19a1.678 1.678 0 0 1-1.672 1.672h-.828v-29.3a1.13 1.13 0 1 0-2.259 0v29.3h-.828a1.678 1.678 0 0 1-1.672-1.672V60.055a1.13 1.13 0 0 0-2.259 0V73.19a3.934 3.934 0 0 0 3.931 3.931h3.916a3.927 3.927 0 0 0 3.9-3.449h7.772a1.922 1.922 0 0 0 1.928-1.928v-6.793a1.922 1.922 0 0 0-1.928-1.928h-2.137v-3.465h2.139a1.922 1.922 0 0 0 1.928-1.928v-2.862a1.945 1.945 0 0 0-1.943-1.928zm-.332 4.46h-2.139a1.922 1.922 0 0 0-1.928 1.928v4.127a1.922 1.922 0 0 0 1.928 1.928h2.139v6.131h-7.411V55.1h7.411z" class="cls-4" data-name="Path 11761" transform="translate(710.025 235.246)"/>
                <path id="Path_11765" d="M105.913 47.4A6.906 6.906 0 1 0 99 54.3a6.907 6.907 0 0 0 6.913-6.9zm-6.9 4.639a4.639 4.639 0 1 1 4.639-4.639 4.641 4.641 0 0 1-4.638 4.638z" class="cls-4" data-name="Path 11765" transform="translate(631.798 200.847)"/>
            </g>
        </g>
    </g>
</svg>
