<svg xmlns="http://www.w3.org/2000/svg" viewBox="0 0 66.183 66.173">
    <defs>
        <style>
            .cls-1{fill:#fcc54e}.cls-2{fill:#2c6245;opacity:.2}.cls-3{fill:#3cb7c6}.cls-4{fill:#1e557b}
        </style>
    </defs>
    <g id="link-icon" transform="translate(-606.633 -235.246)">
        <path id="Path_11708" d="M186.778 37.014l-11.864 11.864a17.281 17.281 0 1 1-24.439-24.439l11.864-11.864a17.281 17.281 0 0 1 24.439 24.439zm-30.41-6.682a8.947 8.947 0 1 0 12.652 12.652l11.864-11.864a8.947 8.947 0 0 0-12.652-12.652z" class="cls-1" data-name="Path 11708" transform="translate(480.002 228.697)"/>
        <path id="Path_11709" d="M164.071 142.064c-8.271-.31-11.347-3.774-12.562-7.806a2.566 2.566 0 0 1 .62-2.546c.582-.594 1.137-1.163 1.667-1.68a8.928 8.928 0 0 1 2.572-7.147l1.047-1.047a17.839 17.839 0 0 0-5.738.4 36.211 36.211 0 0 1 1.99-8.439l-3.192 3.192a17.281 17.281 0 1 0 24.439 24.439l7.108-7.108c-4.885 4.059-11.282 7.988-17.951 7.742z" class="cls-2" data-name="Path 11709" transform="translate(480.002 136.157)"/>
        <path id="Path_11710" d="M38.487 173.418l-7.367 7.367a8.947 8.947 0 1 1-12.652-12.652l11.864-11.864a8.946 8.946 0 0 1 14.888 8.917 8.874 8.874 0 0 0 3.735-2.236l4.485-4.485a17.283 17.283 0 0 0-29-8.09l-11.865 11.864a17.281 17.281 0 0 0 24.439 24.439l11.864-11.864a17.217 17.217 0 0 0 2.611-3.347 17.3 17.3 0 0 1-13.002 1.951z" class="cls-3" data-name="Path 11710" transform="translate(600.08 108.706)"/>
        <path id="Path_11711" d="M48.943 223.646l4.485-4.485A17.041 17.041 0 0 0 51.812 215a42.921 42.921 0 0 1-6.41 6.5 9.047 9.047 0 0 1-.194 4.394 9.234 9.234 0 0 0 3.735-2.248zm-10.456 10.443l-1.977 1.977a15.058 15.058 0 0 0 4.808 1.771c-4.1 5.363-10.83 11.631-18.765 10.249-13.1-2.275-13.376-17.137-7.483-27.657l-2.494 2.494a17.281 17.281 0 0 0 24.439 24.439L48.878 235.5a17.217 17.217 0 0 0 2.611-3.347 17.358 17.358 0 0 1-13.002 1.936z" class="cls-2" data-name="Path 11711" transform="translate(600.08 48.036)"/>
        <path id="Path_11712" d="M60.833 5.317a18.292 18.292 0 0 0-22.54-2.61.966.966 0 0 0 1.021 1.641A16.321 16.321 0 0 1 59.45 6.674a16.318 16.318 0 0 1 0 23.056L47.586 41.594a16.128 16.128 0 0 1-3.14 2.456c-.013.013-.026.013-.052.026a16.3 16.3 0 0 1-24.038-9.589l4.1-4.1a7.75 7.75 0 0 1 1.744-1.316 9.9 9.9 0 0 0 16.853 8l11.86-11.864a9.915 9.915 0 0 0-14.022-14.022L33.925 18.2a18.743 18.743 0 0 0-3.825-.4 18.206 18.206 0 0 0-5.738.918c.052-.052.1-.116.155-.168L36.045 7.023a.969.969 0 1 0-1.37-1.37L23.147 17.181a17.988 17.988 0 0 0-2.624 3.319 18.028 18.028 0 0 0-3.334 2.636L5.338 35a18.255 18.255 0 0 0 20.316 29.586.969.969 0 1 0-.788-1.771 16.366 16.366 0 0 1-9.486 1.15 16.32 16.32 0 0 1-8.673-27.592l11.865-11.864a16.119 16.119 0 0 1 3.115-2.443l.078-.039A16.225 16.225 0 0 1 30.1 19.74a16.392 16.392 0 0 1 3.825.452c.052.013.1.026.168.039A16.278 16.278 0 0 1 45.8 31.617l-4.1 4.1a7.75 7.75 0 0 1-1.745 1.318 9.9 9.9 0 0 0-12.712-10.484.045.045 0 0 0-.026.013 9.828 9.828 0 0 0-4.11 2.468L11.244 40.9a9.911 9.911 0 0 0 14.009 14.019l6.992-6.992a18.743 18.743 0 0 0 3.825.4 18.206 18.206 0 0 0 5.738-.918c-.052.052-.1.116-.155.168L29.789 59.442c-.414.414-.853.8-1.305 1.176a.965.965 0 0 0-.142 1.357.994.994 0 0 0 .75.362.9.9 0 0 0 .607-.22c.5-.414 1-.853 1.46-1.305l11.864-11.864a18.671 18.671 0 0 0 2.624-3.321 18.028 18.028 0 0 0 3.334-2.636l11.864-11.865a18.253 18.253 0 0 0-.013-25.809zM43.011 23.139a18.2 18.2 0 0 0-6.928-4.339l6.217-6.22a7.973 7.973 0 0 1 11.282 11.27l-6.216 6.216a18.474 18.474 0 0 0-4.355-6.927zM28.3 28.283a7.956 7.956 0 0 1 9.564 9.564 7.956 7.956 0 0 1-9.564-9.564zm-4.42 25.266A7.978 7.978 0 0 1 12.6 42.266l6.216-6.216a18.265 18.265 0 0 0 11.27 11.283z" class="cls-4" data-name="Path 11712" transform="translate(606.633 235.27)"/>
    </g>
</svg>
