<svg xmlns="http://www.w3.org/2000/svg" viewBox="0 0 44.816 66.975">
    <defs>
        <style>
            .cls-1{fill:#d8d7da}.cls-2{fill:#c6c5ca}.cls-3{fill:#ffeb99}.cls-4{fill:#acabb1}.cls-5{fill:#ffde55}.cls-6{fill:#898890}.cls-7{fill:#1e557b}
        </style>
    </defs>
    <g id="lock-icon" transform="translate(-618 -217.025)">
        <path id="Path_11741" d="M59.348 7.5A16.9 16.9 0 0 0 42.5 24.348v18.693a16.848 16.848 0 1 0 33.7-.013v-18.68A16.9 16.9 0 0 0 59.348 7.5zm10.7 35.528a10.7 10.7 0 0 1-21.4 0v-18.68a10.7 10.7 0 0 1 21.4 0z" class="cls-1" data-name="Path 11741" transform="translate(581.059 210.506)"/>
        <path id="Path_11742" d="M59.348 100.728A16.9 16.9 0 0 0 76.2 83.88V69.412C76.2 54.5 59.348 54.5 59.348 54.5a10.764 10.764 0 0 1 10.7 10.7v18.693a10.7 10.7 0 0 1-21.4 0V65.2a10.764 10.764 0 0 1 10.7-10.7C43.978 54.5 42.5 69.412 42.5 69.412v14.481a16.9 16.9 0 0 0 16.848 16.835z" class="cls-2" data-name="Path 11742" transform="translate(581.059 169.654)"/>
        <path id="Path_11743" d="M40.137 227.663H17.716A10.214 10.214 0 0 1 7.5 217.447v-10.02a21.427 21.427 0 0 1 42.854 0v10.02a10.205 10.205 0 0 1-10.217 10.216z" class="cls-3" data-name="Path 11743" transform="translate(611.481 55.356)"/>
        <path id="Path_11744" d="M133.239 289.6a6.746 6.746 0 1 0-11.224 5.049 4.4 4.4 0 0 1 1.465 3.3v2.839a3.009 3.009 0 1 0 6.017 0v-2.838a4.537 4.537 0 0 1 1.517-3.336 6.766 6.766 0 0 0 2.225-5.014z" class="cls-4" data-name="Path 11744" transform="translate(513.919 -28.837)"/>
        <path id="Path_11745" d="M32.576 186.214a20.927 20.927 0 0 0-3.65-.314A21.429 21.429 0 0 0 7.5 207.327v10.02a10.214 10.214 0 0 0 10.216 10.216h7.6c-8.66-6.619-8.333-22.643-3.95-30.152 5.703-9.758 11.21-11.197 11.21-11.197z" class="cls-5" data-name="Path 11745" transform="translate(611.481 55.443)"/>
        <path id="Path_11746" d="M125.334 290.892c-1.3-2.839-.392-5.9.419-7.692a6.741 6.741 0 0 0-3.637 11.734 4.4 4.4 0 0 1 1.465 3.3v2.839a3.009 3.009 0 0 0 6.017 0v-2.843a4.232 4.232 0 0 1 .2-1.282c-1.547-2.027-3.379-3.689-4.464-6.056z" class="cls-6" data-name="Path 11746" transform="translate(513.832 -29.13)"/>
        <path id="Path_11747" d="M40.237 32.179v-14.35a17.587 17.587 0 0 0-3.82-10.988.979.979 0 1 0-1.544 1.2 15.642 15.642 0 0 1 3.388 9.772v12.116a22.587 22.587 0 0 0-4.173-3.3v-8.813a11.681 11.681 0 0 0-23.363.013v8.817a22.161 22.161 0 0 0-4.173 3.3V17.829A15.88 15.88 0 0 1 22.408 1.962a15.665 15.665 0 0 1 9.68 3.323.979.979 0 1 0 1.2-1.544A17.588 17.588 0 0 0 22.408 0 17.84 17.84 0 0 0 4.591 17.829v14.35A22.3 22.3 0 0 0 0 45.758v10.02a11.21 11.21 0 0 0 11.2 11.2h22.418a11.21 11.21 0 0 0 11.2-11.2v-10.02a22.207 22.207 0 0 0-4.581-13.579zm-27.548-14.35a9.719 9.719 0 0 1 19.438 0v7.731a22.351 22.351 0 0 0-19.438 0zm30.178 37.949a9.242 9.242 0 0 1-9.235 9.235H11.2a9.242 9.242 0 0 1-9.235-9.235v-10.02a20.446 20.446 0 1 1 40.891 0v10.02z" class="cls-7" data-name="Path 11747" transform="translate(618 217.025)"/>
        <path id="Path_11748" d="M119.567 275.362a7.7 7.7 0 0 0-4.866 1.988.989.989 0 0 0-.078 1.387.976.976 0 0 0 1.387.065 5.776 5.776 0 0 1 3.623-1.478 5.755 5.755 0 0 1 4.094 10.02 5.529 5.529 0 0 0-1.844 4.055v2.839a2.028 2.028 0 0 1-4.055 0V291.4a5.389 5.389 0 0 0-1.792-4.029 5.714 5.714 0 0 1-1.923-4.762c.026-.366.6-1.962-.51-2.276-1.2-.34-1.413 1.635-1.452 2.119a7.679 7.679 0 0 0 2.577 6.37 3.406 3.406 0 0 1 1.125 2.551v2.839a3.99 3.99 0 1 0 7.979 0v-2.839a3.524 3.524 0 0 1 1.19-2.6 7.757 7.757 0 0 0 2.538-5.729 7.667 7.667 0 0 0-7.993-7.679z" class="cls-7" data-name="Path 11748" transform="translate(520.539 -22.312)"/>
    </g>
</svg>
