<svg xmlns="http://www.w3.org/2000/svg" viewBox="0 0 73.277 85.27"><defs><style>.a{fill:#ecc45c;}.b{fill:#f8d578;}.c{fill:#d4b053;}.d{fill:#e4e7e7;}.e{fill:#324d5b;}.f{fill:#cdcfcf;}</style></defs><path class="a" d="M5.328,196.9h62.62a5.349,5.349,0,0,1,5.328,5.328v41.307a5.349,5.349,0,0,1-5.328,5.328H5.328A5.349,5.349,0,0,1,0,243.535V202.228A5.349,5.349,0,0,1,5.328,196.9Z" transform="translate(0 -163.594)"/><path class="b" d="M5.328,181.2h62.62a5.349,5.349,0,0,1,5.328,5.328V189.2a5.349,5.349,0,0,1-5.328,5.328H5.328A5.364,5.364,0,0,1,0,189.184v-2.673A5.335,5.335,0,0,1,5.328,181.2Z" transform="translate(0 -150.55)"/><path class="c" d="M49.388,204.8c-3.332,0-5.988,1.2-5.988,2.673s2.673,2.673,5.988,2.673,5.988-1.2,5.988-2.673S52.72,204.8,49.388,204.8Zm46.635,0c-3.332,0-5.988,1.2-5.988,2.673s2.673,2.673,5.988,2.673,5.988-1.2,5.988-2.673S99.356,204.8,96.023,204.8ZM72.7,224.794a10,10,0,1,1-10,10A9.984,9.984,0,0,1,72.7,224.794Z" transform="translate(-36.059 -170.158)"/><path class="d" d="M180.624,338.7a7.324,7.324,0,1,1-7.324,7.324A7.306,7.306,0,0,1,180.624,338.7Z" transform="translate(-143.986 -281.408)"/><path class="e" d="M210.036,362.3a1.339,1.339,0,0,1,1.336,1.336v3.992a1.336,1.336,0,0,1-2.673,0v-3.992A1.35,1.35,0,0,1,210.036,362.3Z" transform="translate(-173.398 -301.016)"/><path class="d" d="M79.178,0A27.967,27.967,0,0,0,51.2,27.978v8c0,1.472,2.064,2.673,4.669,2.673s4.669-1.2,4.669-2.673v-8a18.658,18.658,0,1,1,37.315,0v8c0,1.472,2.064,2.673,4.669,2.673s4.669-1.2,4.669-2.673v-8A28.017,28.017,0,0,0,79.178,0Z" transform="translate(-42.539)"/><path class="f" d="M105.35,31.5A22.639,22.639,0,0,0,82.7,54.15V64.806c2.267-.2,3.992-1.269,3.992-2.673v-8a18.658,18.658,0,0,1,37.315,0v8c0,1.336,1.725,2.47,3.992,2.673V54.15A22.628,22.628,0,0,0,105.35,31.5Z" transform="translate(-68.711 -26.172)"/></svg>