<svg xmlns="http://www.w3.org/2000/svg" viewBox="0 0 67.972 66.173">
    <defs>
        <style>
            .cls-1{fill:#bab8b9}.cls-2{fill:#efedee}.cls-3{fill:#d4d2d3}.cls-4{fill:#1e557b}
        </style>
    </defs>
    <g id="paper-plane-icon" transform="translate(-606.023 -235.246)">
        <g id="Group_2240" data-name="Group 2240" transform="translate(607.008 236.234)">
            <path id="Path_11749" d="M181.1 311.142l19.392-6.531 3.73-11.136-15.782-9.875-6.477 13.765z" class="cls-1" data-name="Path 11749" transform="translate(-158.04 -246.952)"/>
            <path id="Path_11750" d="M8.808 34.1a2.331 2.331 0 0 0-.385 4.1l12.251 7.977 7.026 1.236L73.37 7.5z" class="cls-2" data-name="Path 11750" transform="translate(-7.37 -7.5)"/>
            <path id="Path_11751" d="M107.7 46.179l9.743 25.512 7.34-14.375h9.889L160.382 7.5z" class="cls-3" data-name="Path 11751" transform="translate(-94.383 -7.5)"/>
            <path id="Path_11752" d="M236.4 57.315l20.481 13.34a2.329 2.329 0 0 0 3.557-1.513L272 7.5z" class="cls-2" data-name="Path 11752" transform="translate(-206 -7.5)"/>
        </g>
        <path id="Path_11753" d="M23.052 65.6a1 1 0 0 0 1.248.584l18.928-6.371 8.03 5.23a3.349 3.349 0 0 0 5.07-2.164L67.9 1.233a.974.974 0 0 0-.159-.743 1 1 0 0 0-1.192-.359l-24.9 10.247a1 1 0 0 0 .757 1.845L59.74 5.082 14.2 38.518S2.531 30.925 2.518 30.912a1.337 1.337 0 0 1 .212-2.336l36.223-14.933A1 1 0 0 0 38.2 11.8S2.013 26.7 1.974 26.731a3.348 3.348 0 0 0-.544 5.854l11.986 7.8s9.623 25.197 9.636 25.215zm2.92-2.084L31.693 52.3l9.4 6.119zM54.377 62.5a1.334 1.334 0 0 1-2.031.863L32.728 50.6l5.362-7.5a1 1 0 1 0-1.619-1.168l-5.96 8.336a1.167 1.167 0 0 0-.08.133l-6.318 12.4-8.68-22.717L62.487 5.533 38.768 38.717a1 1 0 1 0 1.619 1.168L65.115 5.294S54.377 62.476 54.377 62.5z" class="cls-4" data-name="Path 11753" transform="translate(606.074 235.187)"/>
    </g>
</svg>
