<svg xmlns="http://www.w3.org/2000/svg" viewBox="0 0 78.328 86.424"><defs><style>.a{fill:#fcb47e;}.b{fill:#4296d9;}.c{fill:#dbdbdb;}.d{fill:#bfbfbf;}.e{fill:#4bb9ec;}.f{fill:#ffdcad;}.g{fill:#aeefff;}.h{fill:#fff;}.i{fill:#7e5c62;}.j{fill:#5c546a;}.k{fill:#868491;}</style></defs><g transform="translate(0 0.071)"><g transform="translate(29.67 52.599)"><rect class="a" width="18.903" height="17.552"/></g><g transform="translate(32.265 66.074)"><path class="b" d="M203.467,396.256a15.6,15.6,0,0,1-5.4,2.38,15.3,15.3,0,0,1-5.4-2.363s-1.958-4.945-1.384-4.388c.557.557,6.785,0,6.785,0l5.367,1.35Z" transform="translate(-191.176 -391.841)"/></g><g transform="translate(0 59.35)"><path class="c" d="M55.324,352l14.059,2.363c5.654,1.586,8.945,7.139,8.945,12.337v8.759A3.818,3.818,0,0,1,74.277,379H4.051A3.818,3.818,0,0,1,0,375.459v-8.742c0-5.2,3.274-10.751,8.945-12.337l13.974-2.363,16.236,6.751Z" transform="translate(0 -352)"/></g><g transform="translate(16.641 59.35)"><path class="d" d="M98.6,353.063a.441.441,0,0,0,.051.135c10.261,16.557,20.253,18.734,21.367,18.936l.878.152a1.662,1.662,0,0,0,.473,0l.878-.152c1.1-.186,11.105-2.38,21.367-18.936a.7.7,0,0,1,.051-.135L137.317,352l-16.2,6.751L104.878,352Z" transform="translate(-98.6 -352)"/></g><g transform="translate(21.907 52.599)"><path class="e" d="M134.9,312l-5.1,6.751,8.236,12.152a1.355,1.355,0,0,0,2.076.2l6.937-5.6Z" transform="translate(-129.8 -312)"/></g><g transform="translate(39.155 52.599)"><path class="e" d="M244.152,312l5.1,6.751L241.013,330.9a1.355,1.355,0,0,1-2.076.2L232,325.5Z" transform="translate(-232 -312)"/></g><g transform="translate(18.869 18.282)"><path class="f" d="M151.023,119.8l-2.734-6.515s-11.814-6.532-31.054-4.051H117.2a25.288,25.288,0,0,0-5.4,16.2c0,13.417,9.063,24.3,20.253,24.3s20.253-10.886,20.253-24.3a28.443,28.443,0,0,0-.709-6.3C151.242,119.542,151.023,119.8,151.023,119.8Z" transform="translate(-111.8 -108.668)"/></g><g transform="translate(25.62 29.646)"><circle class="g" cx="5.401" cy="5.401" r="5.401"/></g><g transform="translate(27.223 29.646)"><path class="h" d="M165.1,176a5.33,5.33,0,0,0-3.8,1.57l7.629,7.629A5.394,5.394,0,0,0,165.1,176Z" transform="translate(-161.3 -176)"/></g><g transform="translate(41.822 29.646)"><circle class="g" cx="5.401" cy="5.401" r="5.401"/></g><g transform="translate(43.459 29.646)"><path class="h" d="M261.3,176a5.33,5.33,0,0,0-3.8,1.57l7.629,7.629A5.394,5.394,0,0,0,261.3,176Z" transform="translate(-257.5 -176)"/></g><g transform="translate(16.202 -0.071)"><path class="i" d="M140.438,3.452A1.348,1.348,0,0,0,139,2.659c-3.375.489-7.494-.338-11.831-1.215-7.274-1.468-14.8-2.97-20.675,1.215a1.312,1.312,0,0,0-.27-.034C100.219,2.642,96,7.654,96,14.793c0,5.823,2.582,16.962,2.7,17.434a1.368,1.368,0,0,0,1.266,1.046h.051a1.342,1.342,0,0,0,1.283-.945l3.831-12.253c16.118-1.857,26.818,2.751,28.978,3.8l2.532,6.042a1.313,1.313,0,0,0,1.3.827,1.356,1.356,0,0,0,1.232-.945C143.223,17.139,141.738,6.405,140.438,3.452Z" transform="translate(-96 0.071)"/></g><g transform="translate(35.105 30.996)"><path class="j" d="M214.751,189.4a1.354,1.354,0,0,1-1.35-1.35,1.35,1.35,0,1,0-2.7,0,1.35,1.35,0,1,1-2.7,0,4.051,4.051,0,1,1,8.1,0A1.343,1.343,0,0,1,214.751,189.4Z" transform="translate(-208 -184)"/></g><g transform="translate(17.519 32.346)"><path class="j" d="M111.935,194.7H105.15a1.35,1.35,0,0,1,0-2.7h6.785a1.35,1.35,0,0,1,0,2.7Z" transform="translate(-103.8 -192)"/></g><g transform="translate(51.307 32.346)"><path class="j" d="M312.067,194.7H305.35a1.35,1.35,0,0,1,0-2.7h6.717a1.35,1.35,0,0,1,0,2.7Z" transform="translate(-304 -192)"/></g><g transform="translate(24.303 28.295)"><path class="k" d="M150.751,181.5a6.751,6.751,0,1,1,6.751-6.751A6.749,6.749,0,0,1,150.751,181.5Zm0-10.8a4.051,4.051,0,1,0,4.051,4.051A4.062,4.062,0,0,0,150.751,170.7Z" transform="translate(-144 -168)"/></g><g transform="translate(40.506 28.295)"><path class="k" d="M246.751,181.5a6.751,6.751,0,1,1,6.751-6.751A6.749,6.749,0,0,1,246.751,181.5Zm0-10.8a4.051,4.051,0,1,0,4.051,4.051A4.062,4.062,0,0,0,246.751,170.7Z" transform="translate(-240 -168)"/></g><g transform="translate(3.021 63.738)"><path class="d" d="M28.381,400.616v-9.029A12.078,12.078,0,0,0,24.82,383l-5-5a12,12,0,0,0-1.924,1.89l5.013,5.029A9.34,9.34,0,0,1,25.68,391.6v9.012Z" transform="translate(-17.9 -378)"/></g><g transform="translate(64.792 63.755)"><path class="d" d="M392.457,378.1l-5,5a12.078,12.078,0,0,0-3.561,8.591V400.7h2.7v-9.029a9.368,9.368,0,0,1,2.768-6.683l5.013-5.013A11.912,11.912,0,0,0,392.457,378.1Z" transform="translate(-383.9 -378.1)"/></g></g></svg>