<svg xmlns="http://www.w3.org/2000/svg" viewBox="0 0 65.629 69.344"><defs><style>.a{fill:#4bb9ec;}.b{fill:#ede041;}.c{fill:#ffdcad;}.d{fill:#f7b563;}</style></defs><rect class="a" width="17.336" height="44.578" transform="translate(0 24.766)"/><circle class="b" cx="4.953" cy="4.953" r="4.953" transform="translate(3.715 53.246)"/><path class="c" d="M61.055,32.2A4.968,4.968,0,0,0,56.1,27.242H36.784l1.238-5.7a37.426,37.426,0,0,0,.124-13.373C37.527,4.458,34.184,0,30.717,0h-.248C27.5,0,26.383,3.343,26.383,7.43c0,20.06-9.906,19.813-9.906,19.813H14V66.867H49.91a4.953,4.953,0,0,0,0-9.906h3.715a4.953,4.953,0,0,0,0-9.906H57.34A4.968,4.968,0,0,0,62.293,42.1c0-3.1-1.981-4.21-4.953-4.705a37.576,37.576,0,0,0-4.953-.248H56.1A4.968,4.968,0,0,0,61.055,32.2Z" transform="translate(3.336)"/><path class="d" d="M53.841,29h-15.6a1.238,1.238,0,0,0,0,2.477H54.955a7.605,7.605,0,0,0-3.1-.991,37.576,37.576,0,0,0-4.953-.248h3.715A4.951,4.951,0,0,0,53.841,29Z" transform="translate(8.816 6.91)"/><path class="d" d="M55.079,37H38.238a1.238,1.238,0,0,0,0,2.477H51.364a4.951,4.951,0,0,0-3.22-1.238h3.715A4.951,4.951,0,0,0,55.079,37Z" transform="translate(8.816 8.816)"/><path class="d" d="M51.841,45h-15.6a1.238,1.238,0,0,0,0,2.477H48.126a4.951,4.951,0,0,0-3.22-1.238h3.715A4.951,4.951,0,0,0,51.841,45Z" transform="translate(8.34 10.723)"/></svg>