<svg xmlns="http://www.w3.org/2000/svg" viewBox="0 0 67.077 67.077">
    <defs>
        <style>
            .cls-1{fill:#b2e59c}.cls-2{fill:#9ad880}.cls-3{fill:#fff}.cls-4{fill:#ccf8ff}.cls-5{fill:#1e557b}
        </style>
    </defs>
    <g id="tick-icon" transform="translate(-606.898 -237.025)">
        <path id="Path_11773" d="M62.065 7.5H18.046A10.539 10.539 0 0 0 7.5 18.046v44.019a10.539 10.539 0 0 0 10.546 10.547h44.019a10.539 10.539 0 0 0 10.547-10.547V18.046A10.539 10.539 0 0 0 62.065 7.5z" class="cls-1" data-name="Path 11773" transform="translate(600.381 230.507)"/>
        <path id="Path_11774" d="M43.934 7.5H18.046A10.539 10.539 0 0 0 7.5 18.046v44.019a10.539 10.539 0 0 0 10.546 10.547h13.586c-10.69-12.826-6.668-36.512 1.415-45.749C40.829 17.941 43.213 10.788 43.934 7.5z" class="cls-2" data-name="Path 11774" transform="translate(600.381 230.507)"/>
        <path id="Path_11775" d="M108.388 165.647a5.254 5.254 0 0 1-3.6-1.428l-13.72-12.983a5.241 5.241 0 0 1 7.206-7.612l9.813 9.289 15.852-17.634a5.241 5.241 0 0 1 7.8 7.009L112.292 163.9a5.236 5.236 0 0 1-3.681 1.729 1.27 1.27 0 0 1-.223.018z" class="cls-3" data-name="Path 11775" transform="translate(529.18 120.978)"/>
        <path id="Path_11776" d="M98.2 200.872a5.241 5.241 0 1 0-7.205 7.612l5.568 5.267a46.871 46.871 0 0 1 2.817-11.765z" class="cls-4" data-name="Path 11776" transform="translate(529.257 63.717)"/>
        <path id="Path_11777" d="M66.094 49.652a.99.99 0 0 0 .983-.983v-37.14A11.546 11.546 0 0 0 55.548 0H11.529A11.546 11.546 0 0 0 0 11.529v44.019a11.546 11.546 0 0 0 11.529 11.529h44.019a11.546 11.546 0 0 0 11.529-11.529v-2.686a.983.983 0 1 0-1.965 0v2.686a9.575 9.575 0 0 1-9.564 9.564H11.529a9.575 9.575 0 0 1-9.564-9.564V11.529a9.575 9.575 0 0 1 9.564-9.564h44.019a9.575 9.575 0 0 1 9.564 9.564V48.67a.981.981 0 0 0 .982.982z" class="cls-5" data-name="Path 11777" transform="translate(606.898 237.025)"/>
        <path id="Path_11778" d="M90.964 137.553l2.764 2.62a.977.977 0 0 0 1.389-.039.989.989 0 0 0-.039-1.389l-2.764-2.62a6.223 6.223 0 1 0-8.568 9.027l13.717 12.983a6.319 6.319 0 0 0 4.533 1.7 5.983 5.983 0 0 0 4.376-2.057l19.455-21.643a6.225 6.225 0 0 0-9.262-8.319l-15.158 16.913-3.223-3.053a.977.977 0 0 0-1.389.039.989.989 0 0 0 .039 1.389l3.956 3.747a.983.983 0 0 0 1.4-.052l15.852-17.634a4.258 4.258 0 1 1 6.328 5.7l-19.44 21.619a4.274 4.274 0 0 1-6.105.236l-13.7-12.983a4.254 4.254 0 0 1 5.843-6.184z" class="cls-5" data-name="Path 11778" transform="translate(535.808 127.744)"/>
    </g>
</svg>
