<svg xmlns="http://www.w3.org/2000/svg" viewBox="0 0 68.977 67.078">
    <defs>
        <style>
            .cls-1{fill:#79c6e4}.cls-2{opacity:.1}.cls-3{fill:#fda75f}.cls-4{fill:#fbe096}.cls-5{fill:#fff}.cls-6{fill:#1e557b}
        </style>
    </defs>
    <g id="welcome-icon" transform="translate(-605.146 -234.246)">
        <path id="Path_11713" d="M175.518 58.25h-32.7L127.8 43.228v-32.7a3.036 3.036 0 0 1 3.031-3.028h44.687a3.036 3.036 0 0 1 3.031 3.031v44.7a3.033 3.033 0 0 1-3.031 3.019z" class="cls-1" data-name="Path 11713" transform="translate(494.564 227.757)"/>
        <path id="Path_11714" d="M165.738 134.6H127.8v18.619l15.008 15.008h25.947v-30.609a3.013 3.013 0 0 0-3.017-3.018z" class="cls-2" data-name="Path 11714" transform="translate(494.564 117.78)"/>
        <path id="Path_11715" d="M55.218 164.45h-32.71L7.5 149.442v-32.71a3.036 3.036 0 0 1 3.031-3.031h44.7a3.036 3.036 0 0 1 3.031 3.031v44.7a3.053 3.053 0 0 1-3.044 3.018z" class="cls-3" data-name="Path 11715" transform="translate(598.657 135.864)"/>
        <path id="Path_11716" d="M83.533 409.6c0 2.29 3.26 10.886 6.642 10.886h-6.319l-5.456-7.5z" class="cls-2" data-name="Path 11716" transform="translate(537.308 -120.172)"/>
        <path id="Path_11717" d="M13.064 379.472A24.85 24.85 0 0 1 7.5 379a15.012 15.012 0 0 0 15.008 15.008 24.148 24.148 0 0 1-.472-5.564l.175-6.494a2.547 2.547 0 0 0-2.6-2.614z" class="cls-4" data-name="Path 11717" transform="translate(598.657 -93.694)"/>
        <path id="Path_11718" d="M169.842 201.883a4.045 4.045 0 0 1-4.042-4.042v-2.964a1.081 1.081 0 0 1 1.078-1.078h5.941a1.081 1.081 0 0 1 1.078 1.078v2.964a4.048 4.048 0 0 1-4.055 4.042z" class="cls-5" data-name="Path 11718" transform="translate(461.683 66.555)"/>
        <path id="Path_11719" d="M67.967 10.63a1.018 1.018 0 0 0 1.01-1.01V4.042A4.045 4.045 0 0 0 64.936 0H20.249a4.045 4.045 0 0 0-4.042 4.042v10.279H4.042A4.045 4.045 0 0 0 0 18.363v19.75a1.018 1.018 0 0 0 1.01 1.01 1.018 1.018 0 0 0 1.01-1.01V18.349a2.027 2.027 0 0 1 2.021-2.021h44.7a2.027 2.027 0 0 1 2.021 2.021v44.7a2.027 2.027 0 0 1-2.021 2.021H16.867a24.286 24.286 0 0 1-.31-4.527l.175-6.494a3.473 3.473 0 0 0-1.037-2.6 3.536 3.536 0 0 0-2.6-1.051l-6.547.135h-.014a23.19 23.19 0 0 1-4.527-.31V44.7A1.018 1.018 0 0 0 1 43.69a1 1 0 0 0-1 1v6.372a16.039 16.039 0 0 0 16.018 16.016h32.71a4.045 4.045 0 0 0 4.042-4.042V52.757h12.166a4.045 4.045 0 0 0 4.042-4.042V15.506a1.01 1.01 0 0 0-2.021 0v33.223a2.027 2.027 0 0 1-2.021 2.021H52.757V35.2h6.871a1.01 1.01 0 0 0 0-2.021h-6.871v-4.241h6.871a1.01 1.01 0 0 0 0-2.021h-6.871v-4.243h6.871a1.01 1.01 0 0 0 0-2.021h-6.871v-2.3a4.045 4.045 0 0 0-4.042-4.042H18.228V4.042a2.027 2.027 0 0 1 2.021-2.021h44.687a2.027 2.027 0 0 1 2.021 2.021v5.577a1.018 1.018 0 0 0 1.01 1.011zM2.075 52.272a25.459 25.459 0 0 0 4.527.269l6.547-.135a1.475 1.475 0 0 1 1.118.458 1.513 1.513 0 0 1 .445 1.118l-.175 6.494a25.685 25.685 0 0 0 .269 4.54A14.044 14.044 0 0 1 2.075 52.272zm29.369-22.121v-2.964a2.09 2.09 0 0 0-2.088-2.087h-5.941a2.09 2.09 0 0 0-2.088 2.088v2.964a5.059 5.059 0 0 0 10.118 0zm-8.1 0v-2.964a.064.064 0 0 1 .067-.067h5.941a.064.064 0 0 1 .067.067v2.964a3.038 3.038 0 0 1-6.076 0zM12.327 41.71h28.116a1.01 1.01 0 0 0 0-2.021H12.327a1.01 1.01 0 1 0 0 2.021zm29.127-13.392v-2.4a1.01 1.01 0 1 0-2.021 0v2.4a1.01 1.01 0 1 0 2.021 0zm-29.127 1.01a1.018 1.018 0 0 0 1.01-1.01v-2.4a1.01 1.01 0 1 0-2.021 0v2.4a1.009 1.009 0 0 0 1.011 1.011zm4.2 15.533a1.01 1.01 0 1 0 0 2.021H36.24a1.01 1.01 0 0 0 0-2.021z" class="cls-6" data-name="Path 11719" transform="translate(605.146 234.246)"/>
    </g>
</svg>
