<?xml version="1.0" encoding="utf-8"?>
<!-- Generator: Adobe Illustrator 22.1.0, SVG Export Plug-In . SVG Version: 6.00 Build 0)  -->
<svg version="1.1" id="Layer_1" xmlns="http://www.w3.org/2000/svg" xmlns:xlink="http://www.w3.org/1999/xlink" x="0px" y="0px"
	 viewBox="0 0 405.7 249.8" style="enable-background:new 0 0 405.7 249.8;" xml:space="preserve">
<style type="text/css">
	.st0{opacity:0.5;fill:#0F374F;enable-background:new    ;}
	.st1{fill:#C8D6DE;}
	.st2{fill:#F0F6F8;}
	.st3{fill:#3D5771;}
	.st4{fill:#D9E3EA;}
	.st5{fill:#CEE4EA;}
	.st6{fill:#DFEDF1;}
	.st7{fill:#253B4C;}
	.st8{fill:#B1D345;}
	.st9{fill:#F1F0F8;}
	.st10{fill:#CEC8AF;}
	.st11{fill:#EBE8DA;}
	.st12{fill:none;stroke:#CEC8AF;stroke-width:0.5;stroke-linecap:round;stroke-linejoin:round;stroke-miterlimit:10;}
	.st13{fill:#ECE9DA;}
	.st14{fill:#FFF6E7;}
	.st15{fill:#F2E2CC;}
	.st16{fill:#192034;}
	.st17{fill:#66C8EB;}
	.st18{fill:#3697D0;}
	.st19{fill:#FED94F;}
	.st20{fill:#0C92B2;}
	.st21{opacity:0.3;fill:#0F3242;enable-background:new    ;}
	.st22{fill:#EE6F60;}
	.st23{fill:#DD4B40;}
	.st24{fill:#EFB89F;}
	.st25{opacity:0.3;fill:#97D7DB;enable-background:new    ;}
	.st26{fill:#EE6A71;}
	.st27{fill:#DA5764;}
	.st28{fill:#F4D4B8;}
	.st29{fill:#0C81A6;}
	.st30{fill:#10557B;}
	.st31{fill:#154554;}
	.st32{fill:#E6384C;}
	.st33{fill:#F3808C;}
	.st34{fill:#106876;}
	.st35{opacity:0.3;fill:#154554;enable-background:new    ;}
	.st36{fill:#FDFAD5;}
	.st37{fill:#F2F4FA;}
	.st38{fill:#DFE3F3;}
	.st39{fill:#BF735B;}
	.st40{fill:#0C9DBF;}
	.st41{fill:#0587AB;}
	.st42{fill:url(#Path_11774_1_);}
	.st43{fill:#94CD86;}
	.st44{fill:#3CC1E0;}
	.st45{fill:#58B155;}
	.st46{fill:#32ABC7;}
	.st47{fill:url(#Path_11784_1_);}
	.st48{fill:url(#Path_11792_1_);}
	.st49{fill:#FFFFFF;}
	.st50{fill:#36A3B6;}
	.st51{fill:#49B4CC;}
	.st52{fill:#67CADA;}
	.st53{fill:#FFB357;}
	.st54{fill:#FFC44F;}
	.st55{fill:#FFDA74;}
	.st56{fill:#DBAC27;}
	.st57{fill:#EEC21B;}
	.st58{fill:#3E9A88;}
	.st59{fill:#45B19C;}
	.st60{fill:#5DC3B0;}
	.st61{fill:url(#Path_11917_1_);}
	.st62{fill:#46B19E;}
	.st63{fill:url(#Path_11926_1_);}
	.st64{fill:#0F374F;}
	.st65{font-family:'Roboto-Medium';}
	.st66{font-size:15px;}
</style>
<g id="architecture-diagram" transform="translate(-931.158 -7752.388)">
	<path id="Union_14" class="st0" d="M1257.9,7927.6c-2.9-0.1-5.3-1.5-5.2-3.1c0.2-0.8,0.8-1.5,1.6-1.8l-43.9-25l-0.1,0l-2.6-1.5
		l-2.6-1.5l-0.1,0l-43.8-25c-0.9,0.3-1.7,0.5-2.7,0.4c-3.1,0-5.4-1.2-5.4-2.8c0-1.5,2.5-2.8,5.4-2.8c3.1,0,5.5,1.2,5.5,2.8
		c0,0.8-0.6,1.6-1.3,1.9l48.3,27.4l0,0l44,25l1,0.6c0.7-0.1,1.5-0.2,2.2-0.1c2.9,0.3,5.3,1.6,5.2,2.9c-0.1,1.5-2.3,2.5-5,2.5
		C1258.3,7927.6,1258.1,7927.6,1257.9,7927.6z"/>
	<path id="Union_16" class="st0" d="M1027.6,7926.2c0-1.5,2.5-2.8,5.4-2.8c0.8,0,1.6,0.1,2.4,0.3l16.5-9.6c0.2-0.1,0.4-0.2,0.6-0.2
		l13.4-7.8c1.1-0.6,1.8-1.8,1.8-3.1c0.1-1.3-0.6-2.5-1.8-3l-1-0.6l-0.8-0.4c-1-0.5-1.6-0.9-2.5-1.4l-5.3-3c-1.1-0.6-1.8-1.7-1.8-2.9
		c0-1.2,0.6-2.3,1.6-2.9l2.2-1.2l31.5-17.6c0.1-0.1,0.1-0.1,0.2-0.1l4.6-2.7c-0.8-0.3-1.4-1.1-1.5-1.9c0-1.5,2.4-2.8,5.4-2.8
		s5.4,1.2,5.4,2.8c0,1.5-2.5,2.8-5.4,2.8c-0.8,0-1.6-0.1-2.4-0.3l-2.1,1.2l-3.2,1.9c-0.1,0.1-0.2,0.1-0.3,0.1l-28.1,15.8l0,0
		l-1.6,0.9l-2.7,1.5v0l-1.2,0.7c-0.6,0.4-1,1.2-1,1.9c0,0.7,0.4,1.4,1,1.8l8.7,5l0.7,0.4c1.5,0.7,2.5,2.3,2.5,4
		c0,1.7-0.9,3.3-2.4,4.1l-15.6,9.1c-0.6,0.3-1,0.5-1.5,0.7l-12.5,7.3c1,0.6,1.6,1.3,1.6,2.1c0,1.5-2.5,2.8-5.4,2.8
		C1030,7929,1027.6,7927.8,1027.6,7926.2z"/>
	<g id="Group_3322" transform="translate(931.158 7883.594)">
		<g id="XMLID_342_">
			<g id="XMLID_343_">
				<g id="XMLID_351_" transform="translate(10.606 52.258)">
					<path id="XMLID_506_" class="st1" d="M0,36.5c0,1.6,0.8,3,2.2,3.8l41.7,24c1.4,0.7,3,0.7,4.4,0l58.3-33.7
						c1.4-0.8,2.2-2.2,2.2-3.8v-0.3L0,36.5z"/>
					<g id="XMLID_504_" transform="translate(.663)">
						<path id="XMLID_505_" class="st2" d="M47.8,61.9l59.8-34.5c0.4-0.2,0.7-0.7,0.5-1.1c-0.1-0.2-0.3-0.4-0.5-0.5L63,0L0.2,36.2
							C0,36.4-0.1,36.8,0.1,37c0,0,0.1,0.1,0.1,0.1l42.9,24.7C44.6,62.6,46.3,62.6,47.8,61.9L47.8,61.9z"/>
					</g>
					<path id="XMLID_503_" class="st3" d="M7.4,37.3l-1.6-0.9c-0.2,0-0.3-0.2-0.2-0.4c0-0.1,0.1-0.2,0.2-0.2L62.2,3.2
						c0.3-0.1,0.6-0.1,0.9,0l1.6,0.9c0.2,0,0.3,0.2,0.2,0.4c0,0.1-0.1,0.2-0.2,0.2L8.2,37.3C8,37.4,7.6,37.4,7.4,37.3z"/>
					<g id="XMLID_500_" transform="translate(52.737 30.198)">
						<path id="XMLID_502_" class="st4" d="M30.6,6.3l-0.3,0.3L10.9,17.8L0.3,11.6L0,11.5L19.7,0L30.6,6.3z"/>
						<path id="XMLID_501_" class="st4" d="M30.3,6.6L10.9,17.8L0.3,11.6L19.7,0.4L30.3,6.6z"/>
					</g>
					<g id="XMLID_352_" transform="translate(10.091 5.782)">
						<g id="XMLID_357_">
							<path id="XMLID_499_" class="st5" d="M77.1,12.2L21.3,44.5c-0.3,0.1-0.6,0.1-0.9,0L0.2,33.1c-0.2,0-0.3-0.2-0.2-0.4
								c0-0.1,0.1-0.2,0.2-0.2l56-32.4c0.3-0.1,0.6-0.1,0.9,0L77,11.6C77.3,11.9,77.3,12,77.1,12.2z"/>
							<path id="XMLID_498_" class="st6" d="M77.1,12.2L21.3,44.5c-0.3,0.1-0.6,0.1-0.9,0L0.2,33.1l56-32.4c0.3-0.1,0.6-0.1,0.9,0
								L77.1,12.2z"/>
							<g id="XMLID_358_" transform="translate(1.989 3.057)">
								<g id="XMLID_480_">
									<path id="XMLID_497_" class="st7" d="M15.6,34.9v-0.3l0.4,0.3h0.3l1.8-1v-0.3l0.4,0.3h0.3l1.8-1v-0.3l0.4,0.3h0.3l1.8-1
										v-0.3l0.4,0.3h0.3l1.8-1v-0.3l0.4,0.3h0.3l1.8-1v-0.3l0.4,0.3h0.3l1.8-1v-0.3l0.4,0.3h0.3l1.8-1v-0.3l0.4,0.3h0.3l1.8-1
										v-0.3l0.4,0.3h0.3l1.8-1v-0.3l0.4,0.3h0.3l1.8-1v-0.3l0.4,0.3h0.3l1.8-1v-0.3l0.4,0.3h0.3l3.8-2.2v-0.3l-5.2-2.9h-0.3
										l-1.9,1.2v0.3l-0.4-0.3h-0.3l-1.8,1v0.3l-0.4-0.3h-0.3l-1.8,1v0.3l-0.4-0.3h-0.3l-1.8,1v0.3l-0.4-0.3h-0.3l-1.8,1v0.3
										l-0.4-0.3h-0.3l-1.8,1v0.3l-0.4-0.3h-0.3l-1.8,1v0.3l-0.4-0.3h-0.3l-1.8,1v0.3l-0.4-0.3h-0.3l-1.8,1v0.3l-0.4-0.3h-0.3
										l-1.8,1v0.3l-0.4-0.3h-0.3l-1.8,1v0.3l-0.4-0.3h-0.3l-1.8,1v0.3l-0.4-0.3h-0.3l-1.8,1V32l-0.4-0.3H9.6l-2.7,1.5v0.3
										l2.2,1.2h0.3l2.7-1.5v-0.3l0.4,0.3h0.3l1.8-1v-0.3l0.4,0.3h0.3l1.8-1v-0.3l0.4,0.3h0.3l1.8-1v-0.3l0.4,0.3h0.3l1.8-1v-0.3
										l0.4,0.3h0.3l1.8-1v-0.3L25,28h0.3l1.8-1v-0.3l0.4,0.3h0.3l1.8-1v-0.3l0.4,0.3h0.3l1.8-1v-0.3l0.4,0.3h0.3l1.8-1v-0.3
										l0.4,0.3h0.3l1.8-1v-0.3l0.4,0.3h0.3l1.8-1v-0.3l0.4,0.3h0.3l1.8-1v-0.3l0.7,0.4l-1.2,0.7v0.3l-0.4-0.3H41l-1.8,1V23
										l-0.4-0.3h-0.3l-1.8,1V24l-0.4-0.3h-0.3l-1.8,1V25l-0.4-0.3h-0.3l-1.8,1v0.3l-0.4-0.3h-0.3l-1.8,1v0.3l-0.4-0.3h-0.3
										l-1.8,1v0.3l-0.4-0.3h-0.3l-1.8,1v0.3l-0.4-0.3h-0.3l-1.8,1v0.3l-0.4-0.3h-0.3l-1.8,1v0.3l-0.4-0.3h-0.3l-1.8,1v0.3
										l-0.7-0.7h-0.3l-1.8,1v0.3l-0.4-0.3h-0.3l-3.2,1.9v0.3l2.2,1.2h0.3L15.6,34.9L15.6,34.9z"/>
									<path id="XMLID_496_" class="st7" d="M4,27.7l2.2,1.2h0.3l1.8-1v-0.3l0.4,0.3H9l1.8-1v-0.3l0.4,0.3h0.3l1.8-1v-0.3l0.4,0.3
										H14l1.8-1v-0.3l-2.2-1.2h-0.3l-1.8,1v0.3L11,24.3h-0.3l-1.8,1v0.3l-0.4-0.3H8.2l-1.8,1v0.3L6,26.4H5.7l-1.8,1L4,27.7
										L4,27.7z"/>
									<path id="XMLID_495_" class="st7" d="M17.5,37.4v-0.3l0.4,0.3h0.3l1.8-1v-0.3l0.4,0.3h0.3l1.8-1v-0.3l0.4,0.3h0.3l1.8-1V34
										l0.4,0.3h0.3l1.8-1V33l0.4,0.3h0.3l1.8-1V32l0.4,0.3h0.3l1.8-1v-0.3l0.4,0.3h0.3l1.8-1v-0.3l0.4,0.3h0.3l1.8-1v-0.3
										l0.4,0.3h0.3l1.8-1v-0.3l0.4,0.3h0.3l1.8-1v-0.3l0.4,0.3h0.3l1.8-1v-0.3l0.4,0.3h0.3l5-2.9v-0.3l-2.2-1.2h-0.3l-5,2.9v0.3
										l-0.4-0.3h-0.3l-1.8,1v0.3l-0.4-0.3h-0.3l-1.8,1V27l-0.4-0.3h-0.3l-1.8,1V28l-0.4-0.3h-0.3l-1.8,1V29l-0.4-0.3h-0.3l-1.8,1
										V30l-0.4-0.3H30l-1.8,1v0.3l-0.4-0.3h-0.3l-1.8,1v0.3l-0.4-0.3H25l-1.8,1v0.3l-0.4-0.3h-0.3l-1.8,1v0.3l-0.4-0.3H20l-1.8,1
										v0.3l-0.4-0.3h-0.3l-1.8,1v0.3l-0.4-0.3H15L13,37.1v0.3l2.2,1.2h0.3L17.5,37.4L17.5,37.4z"/>
									<path id="XMLID_494_" class="st7" d="M4.6,29.9v-0.3l-2.2-1.2H2.1L0,29.6v0.3l2.2,1.2h0.3L4.6,29.9L4.6,29.9z"/>
									<path id="XMLID_493_" class="st7" d="M8,32.3V32l0.4,0.3h0.3l1.8-1v-0.3l0.4,0.3h0.3l1.8-1v-0.3l0.4,0.3h0.3l1.8-1v-0.3
										l0.4,0.3h0.3l1.8-1v-0.3l0.4,0.3h0.3l1.8-1v-0.3l0.4,0.3h0.3l1.8-1v-0.3l0.4,0.3h0.3l1.8-1v-0.3l0.4,0.3h0.3l1.8-1v-0.3
										l0.4,0.3h0.3l1.8-1v-0.3l0.4,0.3h0.3l1.8-1v-0.3l0.4,0.3h0.3l1.8-1v-0.3l0.4,0.3h0.3l1.8-1v-0.3l0.4,0.3h0.3l2.9-1.6V18
										l-2.2-1.2h-0.3l-2.9,1.6v0.3l-0.4-0.3h-0.3l-1.8,1v0.3l-0.4-0.3H33l-1.8,1v0.3l-0.4-0.3h-0.3l-1.8,1v0.3l-0.4-0.3H28
										l-1.8,1v0.3l-0.4-0.3h-0.3l-1.8,1v0.3l-0.4-0.3H23l-1.8,1v0.3l-0.4-0.3h-0.3l-1.6-1.9V23l-0.4-0.3h-0.3l-1.8,1V24l-0.4-0.3
										h-0.3l-1.8,1V25l-0.4-0.3h-0.3l-1.8,1v0.3l-0.4-0.3h-0.3l-1.8,1v0.3l-0.4-0.3H8.1l-1.8,1v0.3l-0.4-0.3H5.6l-1.8,1v0.3
										L6,30.3h0.3L8,32.3L8,32.3z"/>
									<path id="XMLID_492_" class="st7" d="M51.3,10.9l1.8-1V9.6l-2.2-1.2h-0.3l-1.8,1v0.3l-0.4-0.3H48l-1.8,1v0.3l-0.4-0.3h-0.3
										l-1.8,1v0.3L46,13h0.3l1.8-1v-0.3l0.4,0.3h0.3l1.8-1v-0.3l0.4,0.3L51.3,10.9z"/>
									<path id="XMLID_491_" class="st7" d="M40.7,10.8l2.2,1.2h0.3l1.8-1v-0.3l0.4,0.3h0.3l1.8-1V9.6l0.4,0.3h0.3l1.8-1V8.5
										l-2.2-1.2h-0.3l-1.8,1v0.3l-0.4-0.3h-0.3l-1.8,1v0.3l-0.4-0.3h-0.3l-1.8,1L40.7,10.8L40.7,10.8z"/>
									<path id="XMLID_490_" class="st7" d="M37,8.7l2.2,1.2h0.3l1.8-1V8.5l0.4,0.3H42l1.8-1V7.5l0.4,0.3h0.3l1.8-1V6.5L44,5.3
										h-0.3l-1.8,1v0.3l-0.4-0.3h-0.3l-1.8,0.1v0.3L39,6.5h-0.3l-1.8,1V8.7z"/>
									<path id="XMLID_489_" class="st7" d="M56.3,1.8l-0.4-0.3h-0.3l-1.8,1v0.3l-0.4-0.3H53l-1.8,1v0.3l-0.4-0.3h-0.3l-1.8,1v0.3
										L51,6h0.3L53,5V4.7L53.5,5h0.3l1.8-1V3.7L56,4h0.3l1.8-1V2.6l0.4,0.3h0.3l1.8-1V1.6l-2.2-1.2H58l-1.8,1L56.3,1.8L56.3,1.8z
										"/>
									<path id="XMLID_488_" class="st7" d="M45.8,4.4l0.6,0.3h0.3l1.8-1V3.4l0.4,0.3h0.3l1.8-1V2.4l0.4,0.3h0.3l1.8-1V1.3
										l0.4,0.3h0.3l1.8-1V0.3L55.4,0h-0.3l-1.8,1v0.3L52.9,1h-0.3l-1.8,1v0.3l-0.4-0.3h-0.3l-1.8,1v0.3l-0.4-0.3h-0.3l-1.8,1
										L45.8,4.4L45.8,4.4z"/>
									<path id="XMLID_487_" class="st7" d="M15.2,21.2l2.2,1.2h0.3l1.8-1v-0.3l0.4,0.3h0.3l1.8-1V20l0.4,0.3h0.3l1.8-1V19
										l0.4,0.3h0.3l1.8-1V18l-2.2-1.2h-0.3l-1.8,1v0.3l-0.4-0.3h-0.3l-1.8,1v0.3l-0.4-0.3h-0.3l-1.8,1v0.3l-0.4-0.3h-0.3l-1.8,1
										V21.2L15.2,21.2z"/>
									<path id="XMLID_486_" class="st7" d="M26.4,14.7l2.2,1.2h0.3l1.8-1v-0.3l0.4,0.3h0.3l1.8-1v-0.3l0.4,0.3h0.3l1.8-1v-0.3
										l0.4,0.3h0.3l1.8-1v-0.3l-2.2-1.2h-0.3l-1.8,1v0.3l-0.4-0.3h-0.3l-1.8,1v0.3l-0.4-0.3h-0.3l-1.8,1v0.3l-0.4-0.3h-0.3
										l-1.8,1v0.1C26.2,14.6,26.2,14.6,26.4,14.7L26.4,14.7z"/>
									<path id="XMLID_485_" class="st7" d="M72.8,8.4l-5.3-3.1h-0.3l-1.8,1v0.3L65,6.3h-0.3l-1.8,1v0.3l-0.4-0.3h-0.3l-1.8,1v0.3
										l-0.4-0.3h-0.3l-1.8,1v0.3l2.2,1.2h0.3l1.8-1V9.6l0.4,0.3h0.3l1.8-1V8.5l0.4,0.3h0.3l1.8-1V7.5L68.1,8h-0.3L66,9.4v0.3
										l-0.4-0.3h-0.3L61,11.9v0.3l2.2,1.2h0.3l4.3-2.5v-0.3l0.4,0.3h0.3l1.8-1V9.6l0.4,0.3H71l1.8-1V8.7L72.8,8.4L72.8,8.4z"/>
									<path id="XMLID_484_" class="st7" d="M54.1,19.2L51.9,18h-0.3l-2.7,1.5v0.3l-0.4-0.3h-0.3l-2.1,1.2v0.3l-0.4-0.3h-0.3
										l-2.1,1.2v0.3l-0.4-0.3h-0.3L40.5,23v0.3L40.1,23h-0.3l-14.1,8.2v0.3l-0.4-0.3h-0.3l-2.1,1.2v0.3l-0.4-0.3h-0.3L20,33.6
										v0.3l-0.4-0.3h-0.3l-2.7,1.5v0.3l2.2,1.2h0.3l2.7-1.5v-0.3l0.4,0.3h0.3l2.1-1.2v-0.3l0.4,0.3h0.3l2.1-1.2v-0.3l0.4,0.3h0.3
										l14.1-8.2v-0.3l0.4,0.3H43l2.1-1.2V23l0.4,0.3h0.3l2.1-1.2v-0.3l0.4,0.3h0.3l2.1-1.2v-0.3l0.4,0.3h0.3l2.7-1.5v-0.1
										L54.1,19.2L54.1,19.2z"/>
									<path id="XMLID_483_" class="st7" d="M56.6,14.1L54.4,13h-0.3l-1.8,1v0.3l2.2,1.2h0.3l1.8-1L56.6,14.1L56.6,14.1z"/>
									<path id="XMLID_482_" class="st7" d="M62.2,14.4L60,13.3h-0.3l-1.8,1v0.3l-0.4-0.3h-0.3l-1.8,1v0.3l-0.4-0.3h-0.3l-1.8,1
										v0.3l2.2,1.2h0.3l1.8-1v-0.3l0.4,0.3h0.3l1.8-1v-0.3l0.4,0.3h0.3l1.8-1L62.2,14.4L62.2,14.4z"/>
									<path id="XMLID_481_" class="st7" d="M59.4,2.8v0.3l-0.4-0.3h-0.3l-1.8,1v0.3l-0.4-0.3h-0.3l-1.8,1v0.3l-0.4-0.3h-0.3
										l-1.8,1v0.3l2.2,1.2h0.3l1.8-1V6l0.4,0.3h0.3l1.8-1V5l0.4,0.3h0.3l1.8-1V4L62,4.4h-0.3l-1.8,1v0.3l-0.4-0.3h-0.3l-1.8,1
										v0.3L57,6.5h-0.3l-1.8,1v0.3L57.2,9h0.3l1.8-1V7.7L59.7,8H60l1.8-1V6.6l0.4,0.3h0.3l1.8-1V5.6l0.4,0.3H65l1.8-1V4.6
										l-5.2-2.9h-0.3L59.4,2.8L59.4,2.8z"/>
								</g>
								<g id="XMLID_359_">
									<path id="XMLID_479_" class="st3" d="M48.8,11.8l1.8-1v-0.1l-2.2-1.2H48l-1.8,1v0.1l2.2,1.2L48.8,11.8z"/>
									<path id="XMLID_478_" class="st3" d="M44.9,7.5l-1.8,1v0.1l2.2,1.2h0.3l1.8-1V8.7l-2.2-1.2H44.9z"/>
									<path id="XMLID_477_" class="st3" d="M39.3,10.8l-2.9,1.6v0.1l2.2,1.2h0.3l2.9-1.6v-0.1l-2.2-1.2H39.3z"/>
									<path id="XMLID_476_" class="st3" d="M42.4,9l-1.8,1v0.1l2.2,1.2h0.3l1.8-1v-0.1L42.7,9H42.4z"/>
									<path id="XMLID_475_" class="st3" d="M35.6,13l-1.8,1v0.1l2.2,1.2h0.3l1.8-1v-0.1L35.9,13C35.8,12.8,35.6,12.8,35.6,13
										L35.6,13z"/>
									<path id="XMLID_474_" class="st3" d="M33.1,14.4l-1.8,1v0.1l2.2,1.2h0.3l1.8-1v-0.1l-2.2-1.2
										C33.3,14.3,33.1,14.3,33.1,14.4z"/>
									<path id="XMLID_473_" class="st3" d="M41.5,19.4l1.8-1v-0.1l-2.2-1.2h-0.3l-1.8,1v0.1l2.2,1.2L41.5,19.4z"/>
									<path id="XMLID_472_" class="st3" d="M39,20.8l1.8-1v-0.1l-2.2-1.2h-0.3l-1.8,1v0.1l2.2,1.2C38.9,20.9,39,20.9,39,20.8z"/>
									<path id="XMLID_471_" class="st3" d="M36.5,22.2l1.8-1v-0.1l-2.2-1.2h-0.3l-1.8,1v0.1l2.2,1.2
										C36.4,22.4,36.4,22.4,36.5,22.2z"/>
									<path id="XMLID_470_" class="st3" d="M34,23.7l1.8-1v-0.1l-2.2-1.2h-0.3l-1.8,1v0.1l2.2,1.2C33.8,23.8,33.9,23.8,34,23.7
										C34,23.7,34,23.7,34,23.7z"/>
									<path id="XMLID_469_" class="st3" d="M46.3,13.3l1.8-1v-0.1l-2.2-1.2h-0.3l-1.8,1v0.1l2.2,1.2L46.3,13.3z"/>
									<path id="XMLID_468_" class="st3" d="M44,18l3.8-2.2v-0.1l-5.2-2.9h-0.3l-1.9,1.2V14l2.8,1.6c0.1,0,0.1,0.1,0,0.1l-1.6,0.9
										v0.1l2.2,1.2L44,18z"/>
									<path id="XMLID_467_" class="st3" d="M30.6,15.8l-1.8,1v0.1l2.2,1.2h0.3l1.8-1v-0.1l-2.2-1.2H30.6z"/>
									<path id="XMLID_466_" class="st3" d="M28.1,17.2l-1.8,1v0.1l2.2,1.2h0.3l1.8-1v-0.1l-2.2-1.2H28.1z"/>
									<path id="XMLID_465_" class="st3" d="M16.1,33.9h0.3l1.8-1v-0.1l-2.2-1.2h-0.3l-1.8,1v0.1L16.1,33.9z"/>
									<path id="XMLID_464_" class="st3" d="M8,28.9l-1.8,1v0.1l2.2,1.2h0.3l1.8-1v-0.1l-2.2-1.2L8,28.9z"/>
									<path id="XMLID_463_" class="st3" d="M12.4,32.6h0.3l1.8-1v-0.1l-2.2-1.2h-0.3l-1.8,1v0.1L12.4,32.6z"/>
									<path id="XMLID_462_" class="st3" d="M20.8,34.9l1.8-1v-0.1l-2.2-1.2H20l-1.8,1v0.1l2.2,1.2L20.8,34.9z"/>
									<path id="XMLID_461_" class="st3" d="M18,36.4h0.3l1.8-1v-0.1L17.8,34h-0.3l-1.8,1v0.1L18,36.4z"/>
									<path id="XMLID_460_" class="st3" d="M10.5,27.4l-1.8,1v0.1l2.2,1.2h0.3l1.8-1v-0.1l-2.2-1.2H10.5z"/>
									<path id="XMLID_459_" class="st3" d="M23,20.2l-1.8,1v0.1l2.2,1.2h0.3l1.8-1v-0.1l-2.2-1.2H23z"/>
									<path id="XMLID_458_" class="st3" d="M13,25.9l-1.8,1v0.1l2.2,1.2h0.3l1.8-1v-0.1l-2.2-1.2H13z"/>
									<path id="XMLID_457_" class="st3" d="M25.6,18.7l-1.8,1v0.1l2.2,1.2h0.3l1.8-1v-0.1l-2.2-1.2H25.6z"/>
									<path id="XMLID_456_" class="st3" d="M20.5,21.7l-1.6,1v0.1l2.2,1.2h0.3l1.8-1v-0.1l-2.2-1.2L20.5,21.7z"/>
									<path id="XMLID_455_" class="st3" d="M18,23.1l-1.8,1v0.1l2.2,1.2h0.3l1.8-1v-0.1l-2.2-1.2C18.3,23,18.1,23,18,23.1z"/>
									<path id="XMLID_454_" class="st3" d="M15.5,24.6l-1.8,1v0.1l2.2,1.2h0.3l1.8-1v-0.1l-2.2-1.2
										C15.8,24.5,15.6,24.5,15.5,24.6L15.5,24.6z"/>
									<path id="XMLID_453_" class="st3" d="M29,26.7l1.6-1v-0.1l-2.2-1.2h-0.3l-1.8,1v0.1l2.2,1.2L29,26.7z"/>
									<path id="XMLID_452_" class="st3" d="M50.5,4.3l-1.8,1v0.1L51,6.6h0.3l1.8-1V5.4l-2.2-1.2H50.5z"/>
									<path id="XMLID_451_" class="st3" d="M47.4,6l-1.8,1v0.1l2.2,1.2h0.3l1.8-1V7.2L47.7,6L47.4,6z"/>
									<path id="XMLID_450_" class="st3" d="M53,2.9l-1.8,1v0.1l2.2,1.2h0.3l1.8-1V4.1l-2.2-1.2C53.2,2.8,53,2.8,53,2.9z"/>
									<path id="XMLID_449_" class="st3" d="M40.4,16.5l1.8-1v-0.1l-2.2-1.2h-0.3l-1.8,1v0.1l2.2,1.2
										C40.2,16.6,40.2,16.6,40.4,16.5z"/>
									<path id="XMLID_448_" class="st3" d="M55.8,1.5h-0.3l-1.8,1v0.1L56,3.8h0.3l1.8-1V2.7L55.8,1.5z"/>
									<path id="XMLID_447_" class="st3" d="M31.5,25.2l1.8-1V24l-2.2-1.2h-0.3l-1.8,1V24l2.2,1.2L31.5,25.2z"/>
									<path id="XMLID_446_" class="st3" d="M62.3,7.4l1.8-1V6.2L61.9,5h-0.3l-1.8,1v0.1L62,7.4L62.3,7.4z"/>
									<path id="XMLID_445_" class="st3" d="M56.7,7.1l1.8-1V5.9l-2.2-1.2H56l-1.8,1v0.1l2.2,1.2L56.7,7.1z"/>
									<path id="XMLID_444_" class="st3" d="M58.9,3.2h-0.3l-1.8,1v0.1l2.2,1.2h0.3l1.8-1V4.4L58.9,3.2z"/>
									<path id="XMLID_443_" class="st3" d="M59.4,2.9l5.2,2.9h0.3l1.8-1V4.7l-5.2-2.9h-0.3l-1.8,1V2.9z"/>
									<path id="XMLID_442_" class="st3" d="M53.5,6l-1.8,1v0.1l2.2,1.2h0.3l1.8-1V7.2L53.8,6L53.5,6z"/>
									<path id="XMLID_441_" class="st3" d="M34.6,17.1l-1.8,1v0.1l2.2,1.2h0.3l1.8-1v-0.1l-2.2-1.2
										C34.8,17.1,34.6,16.9,34.6,17.1z"/>
									<path id="XMLID_440_" class="st3" d="M59.5,8.8h0.3l1.8-1V7.7l-2.2-1.2h-0.3l-1.8,1v0.1L59.5,8.8z"/>
									<path id="XMLID_439_" class="st3" d="M37.1,15.6l-1.8,1v0.1l2.2,1.2h0.3l1.8-1v-0.1l-2.2-1.2L37.1,15.6z"/>
									<path id="XMLID_438_" class="st3" d="M18.6,32.4h0.3l1.8-1v-0.1l-2.2-1.2h-0.3l-1.8,1v0.1L18.6,32.4z"/>
									<path id="XMLID_437_" class="st3" d="M14.4,28.7l-1.8,1v0.1l2.2,1.2h0.3l1.8-1v-0.1l-2.2-1.2
										C14.6,28.6,14.6,28.6,14.4,28.7L14.4,28.7z"/>
									<path id="XMLID_436_" class="st3" d="M21.4,31.1l1.8-1v-0.1l-2.2-1.2h-0.3l-1.8,1v0.1l2.2,1.2L21.4,31.1z"/>
									<path id="XMLID_435_" class="st3" d="M23.9,29.6l1.8-1v-0.1l-2.2-1.2h-0.3l-1.8,1v0.1l2.2,1.2L23.9,29.6z"/>
									<path id="XMLID_433_" class="st3" d="M26.5,28.1l1.8-1V27l-2.2-1.2h-0.3l-1.8,1V27l2.2,1.2H26.5z"/>
									<path id="XMLID_432_" class="st3" d="M16.9,27.3l-1.8,1v0.1l2.2,1.2h0.3l1.8-1v-0.1l-2.2-1.2L16.9,27.3z"/>
									<path id="XMLID_430_" class="st3" d="M19.4,25.8l-1.8,1V27l2.2,1.2h0.3l1.8-1V27l-2.2-1.2H19.4z"/>
									<path id="XMLID_429_" class="st3" d="M29.6,19.9l-1.8,1v0.1l2.2,1.2h0.3l1.8-1v-0.1l-2.2-1.2H29.6z"/>
									<path id="XMLID_428_" class="st3" d="M27.1,21.4l-1.8,1v0.1l2.2,1.2h0.3l1.8-1v-0.1l-2.2-1.2H27.1z"/>
									<path id="XMLID_427_" class="st3" d="M32.1,18.6l-1.8,1v0.1l2.2,1.2h0.3l1.8-1v-0.1l-2.2-1.2
										C32.3,18.4,32.1,18.4,32.1,18.6L32.1,18.6z"/>
									<path id="XMLID_426_" class="st3" d="M21.9,24.3l-1.8,1v0.1l2.2,1.2h0.3l1.8-1v-0.1l-2.2-1.2H21.9z"/>
									<path id="XMLID_425_" class="st3" d="M24.5,22.8l-1.8,1V24l2.2,1.2h0.3l1.8-1V24l-2.2-1.2H24.5z"/>
									<path id="XMLID_424_" class="st3" d="M23.3,33.4l1.8-1v-0.1l-2.2-1.2h-0.3l-1.8,1v0.1l2.2,1.2
										C23.1,33.4,23.3,33.6,23.3,33.4z"/>
									<path id="XMLID_423_" class="st3" d="M7.8,31.7l-2.2-1.2H5.3l-1.8,1v0.1l2.2,1.2H6l1.8-1C8,31.7,8,31.7,7.8,31.7L7.8,31.7z
										"/>
									<path id="XMLID_421_" class="st3" d="M11.8,32.8l-2.2-1.2H9.3l-2.7,1.5v0.1l2.2,1.2h0.3l2.7-1.5
										C11.9,33,11.9,32.8,11.8,32.8z"/>
									<path id="XMLID_420_" class="st3" d="M4.6,29.2L2.4,28H2.1L0,29.2v0.1l2.2,1.2h0.3l2.1-1.2L4.6,29.2z"/>
									<path id="XMLID_419_" class="st3" d="M6.2,28.3h0.3l1.8-1v-0.1L6,25.9H5.7L4,27v0.1L6.2,28.3z"/>
									<path id="XMLID_417_" class="st3" d="M15.6,34.2L13.4,33h-0.3l-3.2,1.9v0.1l2.2,1.2h0.3l3.2-1.9L15.6,34.2z"/>
									<path id="XMLID_416_" class="st3" d="M17.4,36.7l-2.2-1.2h-0.3l-2.1,1.2v0.1L15,38h0.3l2.1-1.2
										C17.5,36.8,17.5,36.7,17.4,36.7z"/>
									<path id="XMLID_415_" class="st3" d="M24.9,17.5h0.3l1.8-1v-0.1l-2.2-1.2h-0.3l-1.8,1v0.1L24.9,17.5z"/>
									<path id="XMLID_413_" class="st3" d="M19.9,20.3h0.3l1.8-1v-0.1L19.7,18h-0.3l-1.8,1v0.1L19.9,20.3z"/>
									<path id="XMLID_412_" class="st3" d="M8.7,26.8H9l1.8-1v-0.1l-2.2-1.2H8.2l-1.8,1v0.1L8.7,26.8z"/>
									<path id="XMLID_411_" class="st3" d="M22.4,19h0.3l1.8-1v-0.1l-2.2-1.2h-0.3l-1.8,1v0.1L22.4,19z"/>
									<path id="XMLID_410_" class="st3" d="M17.4,21.8h0.3l1.8-1v-0.1l-2.2-1.2h-0.3l-1.8,1v0.1L17.4,21.8z"/>
									<path id="XMLID_409_" class="st3" d="M18.9,36.8h-0.3l-2.7,1.5v0.1l2.2,1.2h0.3l2.7-1.5V38L18.9,36.8z"/>
									<path id="XMLID_408_" class="st3" d="M13.7,23.9H14l1.8-1v-0.1l-2.2-1.2h-0.3l-1.8,1v0.1L13.7,23.9z"/>
									<path id="XMLID_407_" class="st3" d="M11.2,25.3h0.3l1.8-1v-0.1L11,23h-0.3L9,24v0.1L11.2,25.3z"/>
									<path id="XMLID_406_" class="st3" d="M65.6,10h-0.3L61,12.5v0.1l2.2,1.2h0.3l4.3-2.5v-0.1L65.6,10z"/>
									<path id="XMLID_405_" class="st3" d="M60,13.1h-0.3l-1.8,1v0.1l2.2,1.2h0.3l1.8-1v-0.1L60,13.1z"/>
									<path id="XMLID_404_" class="st3" d="M25.8,32l1.8-1v-0.1l-2.2-1.2H25l-1.8,1v0.1l2.2,1.2C25.6,32.1,25.8,32.1,25.8,32z"/>
									<path id="XMLID_403_" class="st3" d="M54.9,16.1h-0.3l-1.8,1v0.1l2.2,1.2h0.3l1.8-1v-0.1L54.9,16.1z"/>
									<path id="XMLID_402_" class="st3" d="M68.1,8.5h-0.3L66,9.4v0.1l2.2,1.2h0.3l1.8-1V9.6L68.1,8.5z"/>
									<path id="XMLID_401_" class="st3" d="M72.8,8.2l-5.2-2.9h-0.3l-1.8,1v0.1l5.2,2.9H71l1.8-1L72.8,8.2z"/>
									<path id="XMLID_400_" class="st3" d="M45.5,21.5h-0.3l-2.1,1.2v0.1l2.2,1.2h0.3l2.1-1.2v-0.1L45.5,21.5z"/>
									<path id="XMLID_399_" class="st3" d="M51.9,17.8h-0.3l-2.7,1.5v0.1l2.2,1.2h0.3l2.7-1.5V19L51.9,17.8z"/>
									<path id="XMLID_398_" class="st3" d="M39.6,24.9h-0.3l-14.1,8.2v0.1l2.2,1.2h0.3l14.1-8.2v-0.1L39.6,24.9z"/>
									<path id="XMLID_397_" class="st3" d="M24.7,33.6h-0.3l-2.1,1.2v0.1l2.2,1.2h0.3l2.1-1.2v-0.1L24.7,33.6z"/>
									<path id="XMLID_396_" class="st3" d="M42.6,23.3h-0.3l-2.1,1.2v0.1l2.2,1.2h0.3l2.1-1.2v-0.1L42.6,23.3z"/>
									<path id="XMLID_395_" class="st3" d="M21.8,35.2h-0.3l-2.1,1.2v0.1l2.2,1.2h0.3l2.1-1.2v-0.1L21.8,35.2z"/>
									<path id="XMLID_394_" class="st3" d="M48.5,19.9h-0.3l-2.1,1.2v0.1l2.2,1.2h0.3l2.1-1.2v-0.1L48.5,19.9z"/>
									<path id="XMLID_393_" class="st3" d="M57.5,14.6h-0.3l-1.8,1v0.1l2.2,1.2h0.3l1.8-1v-0.1L57.5,14.6z"/>
									<path id="XMLID_392_" class="st3" d="M62.9,10.6l1.8-1V9.4l-2.2-1.2h-0.3l-1.8,1v0.1l2.2,1.2L62.9,10.6z"/>
									<path id="XMLID_391_" class="st3" d="M51.3,10.3l1.8-1V9.1L50.8,8h-0.3l-1.8,1v0.1l2.2,1.2L51.3,10.3z"/>
									<path id="XMLID_390_" class="st3" d="M46,20.3l5-2.9v-0.1l-2.2-1.2h-0.3l-5,2.9v0.1l2.2,1.2C45.8,20.5,45.8,20.5,46,20.3z"
										/>
									<path id="XMLID_389_" class="st3" d="M60.1,12.1h0.3l1.8-1v-0.1l-2.2-1.2h-0.3l-1.8,1v0.1L60.1,12.1z"/>
									<path id="XMLID_388_" class="st3" d="M57.3,10.3l1.8-1V9.1L56.9,8h-0.3l-1.8,1v0.1l2.2,1.2L57.3,10.3z"/>
									<path id="XMLID_387_" class="st3" d="M43.5,21.8l1.8-1v-0.1L43,19.4h-0.3l-1.8,1v0.1l2.2,1.2
										C43.2,21.9,43.3,21.9,43.5,21.8z"/>
									<path id="XMLID_386_" class="st3" d="M54.5,15.3h0.3l1.8-1v-0.1L54.4,13h-0.3l-1.8,1v0.1L54.5,15.3z"/>
									<path id="XMLID_385_" class="st3" d="M30.8,29.2l1.8-1V28l-2.2-1.2H30l-1.8,1V28l2.2,1.2L30.8,29.2z"/>
									<path id="XMLID_384_" class="st3" d="M33.3,27.7l1.8-1v-0.1l-2.2-1.2h-0.3l-1.8,1v0.1l2.2,1.2L33.3,27.7z"/>
									<path id="XMLID_383_" class="st3" d="M28.3,30.6l1.8-1v-0.1l-2.2-1.2h-0.3l-1.8,1v0.1l2.2,1.2L28.3,30.6z"/>
									<path id="XMLID_382_" class="st3" d="M38.4,24.7l1.8-1v-0.1L38,22.4h-0.3l-1.8,1v0.1l2.2,1.2L38.4,24.7z"/>
									<path id="XMLID_381_" class="st3" d="M35.9,26.2l1.8-1V25l-2.2-1.2h-0.3l-1.8,1V25l2.2,1.2L35.9,26.2z"/>
									<path id="XMLID_380_" class="st3" d="M40.9,23.3l1.8-1v-0.1l-2.2-1.2h-0.3l-1.8,1v0.1l2.2,1.2L40.9,23.3z"/>
									<path id="XMLID_379_" class="st3" d="M39.2,9.3h0.3l1.8-1V8.1L39,6.9h-0.3L37,8v0.1L39.2,9.3z"/>
									<path id="XMLID_378_" class="st3" d="M44.2,6.3h0.3l1.8-1V5.2L44,4h-0.3L42,5v0.1L44.2,6.3z"/>
									<path id="XMLID_377_" class="st3" d="M36.1,11h0.3l1.8-1V9.9l-2.2-1.2h-0.3l-1.8,1v0.1L36.1,11z"/>
									<path id="XMLID_376_" class="st3" d="M41.7,7.8H42l1.8-1V6.6l-2.2-1.2h-0.3l-1.8,1v0.1L41.7,7.8z"/>
									<path id="XMLID_375_" class="st3" d="M31.1,14h0.3l1.8-1v-0.1l-2.2-1.2h-0.3l-1.8,1v0.1L31.1,14z"/>
									<path id="XMLID_374_" class="st3" d="M33.6,12.5h0.3l1.8-1v-0.1l-2.2-1.2h-0.3l-1.8,1v0.1L33.6,12.5z"/>
									<path id="XMLID_373_" class="st3" d="M58.5,2.4h0.3l1.8-1V1.2L58.3,0H58l-1.8,1v0.1L58.5,2.4z"/>
									<path id="XMLID_372_" class="st3" d="M65.4,9.1l1.8-1V8L65,6.8h-0.3l-1.8,1V8l2.2,1.2L65.4,9.1z"/>
									<path id="XMLID_369_" class="st3" d="M28.4,15.5h0.3l1.8-1v-0.1l-2.2-1.2H28l-1.8,1v0.1L28.4,15.5z"/>
								</g>
							</g>
						</g>
						<path id="XMLID_356_" class="st8" d="M53.4,4.2h0.3l1.8-1V3.1l-0.6-0.3h-0.3l-1.8,1v0.1L53.4,4.2z"/>
						<path id="XMLID_355_" class="st8" d="M48.4,7.2h0.3l1.8-1V6l-0.6-0.3h-0.3l-1.8,1v0.1L48.4,7.2z"/>
						<path id="XMLID_354_" class="st8" d="M55.9,2.9h0.3l1.8-1V1.7l-0.6-0.3h-0.3l-1.8,1v0.1L55.9,2.9z"/>
						<path id="XMLID_353_" class="st8" d="M50.9,5.7h0.3l1.8-1V4.5l-0.6-0.3h-0.3l-1.8,1v0.1L50.9,5.7z"/>
					</g>
				</g>
				<g id="XMLID_344_">
					<g id="XMLID_348_">
						<path id="XMLID_350_" class="st2" d="M10.6,88.8l63.6-36.7L65.8,2l-0.4-1.2l-0.6-0.3c-1.4-0.7-3-0.7-4.4,0L2.2,34.1
							C0.8,34.9,0,36.4,0,38l8.4,47C8.8,87.5,9.3,88.1,10.6,88.8L10.6,88.8z"/>
						<path id="XMLID_349_" class="st3" d="M64.4,0.8L3.2,36.2c-0.6,0.4-1,1.1-1,1.9l8.4,50.8l63.6-36.7L65.8,1.9
							c0-0.6-0.4-1.1-1-1.1C64.7,0.8,64.5,0.8,64.4,0.8L64.4,0.8z"/>
					</g>
					<path id="XMLID_347_" class="st7" d="M72,49.8L64.2,3.5l-0.9,0.4l8,45.4L72,49.8z"/>
					<path id="XMLID_346_" class="st9" d="M63.3,3.9l8,45.4L11.8,83.6L4.3,38.1L63.3,3.9z"/>
					<path id="XMLID_345_" class="st7" d="M72,49.8L11.9,84.5l-0.1-0.9l59.5-34.3L72,49.8z"/>
				</g>
			</g>
		</g>
		<g id="XMLID_309_" transform="translate(14.878 19.85)">
			<path id="XMLID_322_" class="st10" d="M45.8,55.2l-21.1,11c2.1-1.2,3.4-3.5,3.4-5.9v-9.1c0-2.1,1.2-3.9,3.1-4.7
				c1.9-1,4.2-1,6.1,0C41.1,48.3,44.1,51.4,45.8,55.2z"/>
			<path id="XMLID_338_" class="st11" d="M53.6,34.2l-17.2,10l-4.7,2.7c-0.1,0.1-0.3,0.1-0.4,0.3c-1.9,1.1-3,3.1-2.9,5.3v9.1
				c0,2-0.9,3.8-2.5,5c-1.1,0.8-2.4,1.3-3.8,1.3c-1.1,0-2.2-0.3-3.1-0.9c-5.9-3.4-9.5-9.6-9.4-16.4v-9.9c0-3.3-0.9-6.6-2.5-9.4
				c-1.7-2.9-4.1-5.2-6.9-6.9L42.4,0c2.9,1.6,5.3,4,6.9,6.9c1.6,2.9,2.5,6.1,2.5,9.4v9.9C51.8,29,52.4,31.7,53.6,34.2L53.6,34.2z"/>
			<g id="XMLID_325_" transform="translate(7.66 5.156)">
				<path id="XMLID_337_" class="st12" d="M35.6,0L0,20.6"/>
				<path id="XMLID_336_" class="st12" d="M38.6,3.7L2.8,24.3"/>
				<path id="XMLID_335_" class="st12" d="M40.5,8L4.7,28.6"/>
				<path id="XMLID_334_" class="st12" d="M41.2,12.7L5.4,33.3"/>
				<path id="XMLID_332_" class="st12" d="M41.2,17.5L5.6,38.2"/>
				<path id="XMLID_331_" class="st12" d="M41.2,22.2L5.6,42.9"/>
				<path id="XMLID_329_" class="st12" d="M41.7,27.1L5.9,47.7"/>
				<path id="XMLID_328_" class="st12" d="M43.2,31.5L7.5,52.1"/>
				<path id="XMLID_327_" class="st12" d="M45.8,35.5L10.2,56.1"/>
				<path id="XMLID_326_" class="st12" d="M49.3,38.7L13.7,59.4"/>
			</g>
			<path id="XMLID_321_" class="st13" d="M106.8,74.2L64.4,98.7l-7.8-4.6c-5.9-3.4-9.5-9.6-9.4-16.4V63.2c0-2.5-0.5-5-1.5-7.4
				c-0.3-0.7-0.6-1.4-1-2.1c-1.7-2.9-4.1-5.2-6.9-6.9c-1.9-1.1-4.1-1.1-6-0.1l4.7-2.7l17.2-10l20.2-11.6c2-1.1,4.4-1.1,6.3,0
				c2.9,1.6,5.3,4,6.9,6.9c1.6,2.9,2.5,6.1,2.5,9.4v14.6c0,6.8,3.6,13,9.4,16.4L106.8,74.2z"/>
			<path id="XMLID_320_" class="st12" d="M60.2,36.7l-16.4,9.6"/>
			<path id="XMLID_319_" class="st12" d="M87.1,52.6L51.4,73.2"/>
			<path id="XMLID_318_" class="st12" d="M87.1,57.2L51.4,77.8"/>
			<path id="XMLID_317_" class="st12" d="M87.1,47.6L51.4,68.2"/>
			<path id="XMLID_316_" class="st12" d="M86.9,42.9L51.3,63.5"/>
			<path id="XMLID_315_" class="st12" d="M67.2,49.2l-16.4,9.4"/>
			<path id="XMLID_312_" class="st12" d="M65.8,44.2l-16.2,9.4"/>
			<path id="XMLID_311_" class="st12" d="M63.3,40.1l-16.2,9.4"/>
			<path id="XMLID_310_" class="st10" d="M70.4,49.2c-0.5-3.2-1.6-6.3-3.2-9.1c-1.4-2.7-3.5-4.9-6-6.5l17.1-9.9
				c2.9,1.7,5.2,4.2,6.8,7.2c1.5,2.5,2.4,5.4,2.7,8.4L70.4,49.2z"/>
		</g>
		<g id="Group_2072" transform="translate(77.337 37.336)">
			<g id="Group_2068">
				<path id="XMLID_308_" class="st14" d="M4,52l-4,8.8l8.5-4.6L4,52z"/>
				<path id="XMLID_307_" class="st15" d="M0,60.9l6.6-6.3l1.9,1.8L0,60.9z"/>
				<path id="XMLID_306_" class="st16" d="M0,60.9l1-2.2v0.4l0.4-0.3l-0.1,0.6l0.6-0.1l-0.3,0.4l0.7-0.1L0,60.9z"/>
				<path id="XMLID_304_" class="st17" d="M51.1,9.9l-0.6,0.6l-0.7,0.7L8.4,56.3c-1,0.1-2-0.2-2.8-0.9c-1.2-0.9-2.1-2.4-1.9-3.2
					L44.9,7.4l1.3-1.3C45.7,6.8,50.4,10.8,51.1,9.9L51.1,9.9z"/>
				<path id="XMLID_302_" class="st18" d="M50.5,10.5l-0.7,0.7L8.4,56.3c-1,0.1-2-0.2-2.8-0.9L48,9.8L50.5,10.5z"/>
				<path id="XMLID_301_" class="st19" d="M49.1,12.3l-1.2,1.3c-0.3,0.4-1.5-0.1-2.5-0.9c-1.3-1-2.8-2.7-2.2-3.1l0.9-1l0.3-0.3
					c-0.4,0.6,0.9,2.1,2.2,3.1C47.6,12.1,48.6,12.6,49.1,12.3L49.1,12.3z"/>
				<path id="XMLID_300_" class="st20" d="M48.8,12.6C48,13.4,43.3,9.5,44,8.4l1.2-1.3c-0.7,0.9,4,5,4.7,4.1L48.8,12.6z"/>
				<path id="XMLID_299_" class="st19" d="M51.1,9.9l-1.2,1.3c-0.7,0.9-5.3-2.9-4.7-4l1.2-1.3C45.7,6.8,50.4,10.8,51.1,9.9z"/>
				<path id="XMLID_298_" class="st21" d="M51.1,9.9l-1.2,1.3l-0.9,1l-0.3,0.3l-0.9,1c-0.3,0.4-1.5-0.1-2.5-0.9l0.9-1l0.3-0.3
					l0.9-0.9l1.2-1.3L48.8,9L51.1,9.9z"/>
				<path id="XMLID_297_" class="st22" d="M56.4,4.3l-5.2,5.6C51,10.4,49.9,9.8,48.8,9c-1.3-1-2.8-2.7-2.4-3.1l5-5.4
					c1-1.3,4,0.3,4.9,2.1C56.7,3.1,56.7,3.8,56.4,4.3L56.4,4.3z"/>
				<path id="XMLID_296_" class="st23" d="M56.4,4.3l-5.2,5.6C51,10.4,49.9,9.8,48.8,9l5-5.7c0,0,1.5,1,2.1,0.7
					c0.7-0.3,0.7-0.9,0.4-1.6C56.7,3,56.7,3.7,56.4,4.3L56.4,4.3z"/>
			</g>
			<g id="Group_2071" transform="translate(13.331 6.887)">
				<path id="XMLID_295_" class="st24" d="M16.4,8c-0.3,0.9-0.6,1.7-0.7,2.7c0.1,0.1,1,0.1,1,0.1L16.4,8z"/>
				<path id="XMLID_294_" class="st25" d="M15.1,8l1.6-0.1v2.5c0,0-1,0.1-1.3-0.4C15.1,9.4,15,8.7,15.1,8z"/>
				<path id="XMLID_292_" class="st26" d="M31.2,17.8c-0.1,0.8-0.3,1.7-0.6,2.5l-3.2-6.8c0.7-0.4,1.7-0.4,2.4,0.1
					c0.7,0.7,1.2,1.5,1.3,2.5C31.1,16.7,31.2,17.2,31.2,17.8z"/>
				<path id="XMLID_291_" class="st27" d="M31.2,17.8c-0.1,0.8-0.3,1.7-0.6,2.5l-3.2-6.8l1.2,0.3c0.7,0.5,1.3,1.2,1.6,2.1
					c0.7,1.6,0.7,0.3,0.7,0.3C31.1,16.6,31.2,17.2,31.2,17.8L31.2,17.8z"/>
				<path id="XMLID_288_" class="st28" d="M25.1,13.6l-4,2.1c-0.3-0.7-0.6-1.3-1-1.9c-0.8,0-1.7,0-2.5,0.1h-0.1
					c-0.6-0.1-0.9-1.5-0.9-3.4V7.7c0-3.2,1.5-3.7,2.9-4.4c1.4-0.8,3.1-0.7,4.4,0.1c1.9,1.3,1.6,4.1,1.2,6.2c-0.1,0.4-0.1,1-0.3,1.3
					C24.4,13,25.1,13.6,25.1,13.6z"/>
				<path id="XMLID_287_" class="st24" d="M20.4,8.2c0,0,0.3-0.7,0.9-0.4c0.4,0.3,0.4,1.3,0,1.9c0,0,0.3-1.2-0.1-1.5
					C20.9,8,20.6,8,20.4,8.2L20.4,8.2z"/>
				<path id="XMLID_286_" class="st24" d="M25.1,13.6l-4,2.1c-0.3-0.7-0.6-1.3-1-1.9c-0.8,0-1.7,0-2.5,0.1h-0.2
					c0.8-0.3,1.5-0.7,2.2-1c0.4-0.3,1-2.2,1-2.2l4.4-1c-0.1,0.4-0.1,1-0.3,1.3C24.4,13,25.1,13.6,25.1,13.6z"/>
				<path id="XMLID_285_" class="st29" d="M37.5,60c-1.2,2.2-2.8,2.2-2.8,2.2s-6.8-9.4-7.1-10.3c-0.1-0.9-1.3-7.4-1.3-7.4L23.8,53
					c0.2,0.7,0.3,1.5,0.3,2.2c0,1.5-0.2,3-0.6,4.4c-0.7,3.4-1.3,6.3-1.3,6.3c-0.6,0.4-1.3,0.6-2.1,0.4c-0.6-0.1-1.1-0.3-1.6-0.6
					c0,0,0.1-8,0-10.2c-0.2-1.5-0.3-3-0.3-4.6c0.1-1.5,0.4-4.9,1-8.5c0.4-3.7,1.2-8.5,1.2-8.5L31,31.6c0,0,1.2,1.3,1.2,5.9
					c0.1,3.7,0.4,12.7,0.4,12.7c1.6,1,2.2,2.2,2.9,4.3c0.4,1.3,1.2,3.1,1.5,4.3C37.2,59.1,37.4,59.6,37.5,60L37.5,60z"/>
				<path id="XMLID_284_" class="st30" d="M37.5,60c-1.2,2.2-2.8,2.2-2.8,2.2s-6.8-9.4-7.1-10.3c-0.1-0.9-1.3-7.4-1.3-7.4l1-3.5
					c1.3-0.6,2.5-1.5,3.5-2.7c-0.6,1.2-1.3,2.3-2.2,3.2v8.2c0,1.8,2.4,5.7,4.6,8.8c1.9,2.8,3.5,0.7,3.8,0.1
					C37.3,59.2,37.4,59.6,37.5,60z"/>
				<g id="XMLID_281_" transform="translate(14.233)">
					<path id="XMLID_283_" class="st31" d="M12.1,5.2c-0.4-1-1-1.2-1-1.2c-0.2-1-1-1.7-1.9-1.9c-1.8-0.6-1.9,0.1-3.7,0
						C3.5,2,3.8-0.8,2.9,0.2s0.1,3.1,0.1,3.1C2.4,3.2,1.8,2.9,1.2,2.6c-0.7-0.4-1.6-1-0.9,1c0.5,1.1,1.6,1.9,2.8,2.1
						C3.5,6.3,4,6.8,4.7,7.2v1.5C4.7,9.4,5,10,5.3,9.8s0.4-1,0.6-1.5V8.2C6,8,6.2,8,6.2,7.9c0.7-0.4,1.3,0,1.6,0.7
						c0.2,0.7,0,1.5-0.6,2.1c-0.2,0.3-0.4,0.4-0.7,0.4c0.1,2.4,1.5,2.9,1.5,2.5c0.1-0.4,0.1-0.8,0.1-1.2L8.4,13
						c0.4,0.4,1.2,0.3,1.2-0.3v-0.6c0.1,0.2,0.3,0.4,0.4,0.6c0.3,0.1,0.7,0,0.9-0.6c0.1-0.6,0.2-1.1,0.4-1.6
						C11.8,8.9,12.4,6.3,12.1,5.2L12.1,5.2z"/>
					<path id="XMLID_282_" class="st32" d="M4.5,7.6L2.2,7.7L0.6,7.9V8c0,0.6,0,1.3,0.1,1.9c0.1,0.6,0.9,0.7,1.3,0.7h0.3v-0.4
						c-0.1,0-1,0.1-1.2-0.4C1,9.3,1,8.7,1,8.2h1.2L4.4,8h1.2V7.9c0.1-0.1,0.3-0.1,0.3-0.3H4.5z"/>
				</g>
				<path id="XMLID_279_" class="st33" d="M19.8,16.9c-0.6,0.4-2.4,1.3-2.8,2.4s0.7,5,1.8,6.8c0.8,1.3,1.4,2.8,1.6,4.3
					c0,1.1,0,2.2-0.1,3.2c0,0.6,3.2,1.6,6.8,0.4s4.1-2.5,4.1-3.2c0-0.9-0.6-4-0.6-7.4c0-3.2-0.3-6.9-1.3-8.8c-1-1.8-2.4-1.2-3.2-0.7
					C25.3,14.4,19.8,16.9,19.8,16.9L19.8,16.9z"/>
				<path id="XMLID_277_" class="st34" d="M41.5,62.8c0,0-0.1,6.9-0.1,7.1c-1.2,0.8-2.4,1.5-3.7,2.2c-0.1,0-0.1,0.1-0.1,0.1
					c0,0,0,0,0,0c-0.6,0.2-1.3,0.1-1.8-0.4c-0.4-1.1-0.1-2.4,0.7-3.2c0,0,0.1,0,0.1-1s0-2.8-0.3-3.1c-0.6-0.9-1-1.5-1.2-1.5l2.2-1.5
					l1.2-0.9c0.9,0.9,1.2,0.7,2.2,1.3C41.6,62.4,41.5,62.8,41.5,62.8L41.5,62.8z"/>
				<path id="XMLID_276_" class="st35" d="M38.4,70.6c-0.3,0.9-0.6,1.5-1,1.6c-0.6,0.2-1.3,0.1-1.8-0.4c-0.4-1.1-0.1-2.4,0.7-3.2
					c0,0,0.1,0,0.1-1s0-2.8-0.3-3.1c-0.6-0.9-1-1.5-1.2-1.5l2.2-1.5c0.5,0.3,0.8,0.7,1,1.2c0,0.9,0.1,1.2,1,1.6
					C39.8,64.7,38.8,69.3,38.4,70.6L38.4,70.6z"/>
				<path id="XMLID_275_" class="st36" d="M36.6,69.3c0-0.2,0.1-0.3,0.3-0.3s0.3,0.1,0.3,0.3c0,0.2-0.1,0.3-0.3,0.3l0,0
					C36.7,69.6,36.6,69.5,36.6,69.3z"/>
				<ellipse id="XMLID_273_" class="st36" cx="37" cy="68" rx="0.3" ry="0.3"/>
				<path id="XMLID_272_" class="st36" d="M36.9,66.1c0-0.2,0.1-0.3,0.3-0.3s0.3,0.1,0.3,0.3c0,0.2-0.1,0.3-0.3,0.3l0,0
					C37,66.4,36.9,66.2,36.9,66.1z"/>
				<path id="XMLID_271_" class="st37" d="M36.3,68.7C36.2,68.9,36,69,36,69.2C35.6,70,35.4,71,35.6,72c-1.9-0.1-2.4-1.2-2.4-1.2
					s-0.1-0.9,1-1.6c0.1-0.1,0.3-0.2,0.4-0.1C35.2,68.7,35.8,68.6,36.3,68.7L36.3,68.7z"/>
				<path id="XMLID_270_" class="st38" d="M35.6,72c-1.9-0.1-2.4-1.2-2.4-1.2s-0.1-0.9,1-1.6c0.1-0.1,0.3-0.2,0.4-0.1
					c-0.1,0.1-0.9,0.9-0.6,1.3c0.1,0.6,1.2-0.6,1.9-1C35.6,70.1,35.4,71.1,35.6,72z"/>
				<path id="XMLID_269_" class="st39" d="M42.2,63.1c0.4,0.1,0.3,1.5,0,2.8c-0.3,0.9-0.4,1.9-0.3,2.8c0.1,1,0.3,1.6-0.1,1.9
					c-1.3,0.8-2.6,1.5-4,2.1c0.5-1.3,0.8-2.7,0.7-4.1c0.1-2.4,0.3-4,1.3-5C40.5,63,41.4,62.9,42.2,63.1L42.2,63.1z"/>
				<path id="XMLID_268_" class="st37" d="M33.2,70.6c0.9,0.6,1.9,1.1,2.9,1.3c1.6,0.1,1.6-0.4,1.8-2.2c0.1-1.9,0.3-4.4,1-5.6
					c0.5-0.9,1.5-1.5,2.5-1.5c0.3,0.1,0.6,0.3,0.7,0.6c-0.8,0-1.5,0.3-2.1,0.9C39.1,65,39,67.1,39,69c0,1.8-0.1,4-1.6,4.1
					c-1.4,0.2-2.9-0.3-4-1.2C33,71.6,33,71.1,33.2,70.6L33.2,70.6z"/>
				<path id="XMLID_267_" class="st37" d="M16.6,68.6l-4,2.9c-2.5-0.4-2.5-1.3-2.5-1.3c0-0.2,0.1-0.3,0.1-0.4c0.1-1,0.8-1.9,1.8-2.1
					c0.2-0.1,0.5-0.2,0.7-0.1C14.1,67.1,15.6,67.5,16.6,68.6z"/>
				<path id="XMLID_266_" class="st38" d="M16.6,68.6l-3.8,2.9c-2.5-0.4-2.5-1.3-2.5-1.3c0-0.2,0.1-0.3,0.1-0.4
					c0.1-1,0.8-1.9,1.8-2.1c-0.7,0.3-1.1,1.1-0.8,1.9c0.1,0.2,0.2,0.4,0.3,0.5C12,70.5,14.5,68,16.6,68.6L16.6,68.6z"/>
				<path id="XMLID_264_" class="st34" d="M22.6,71.4c-0.9,0.9-2,1.4-3.2,1.6c-1.6,0-2.1-0.6-3.8-1c-1-0.3-2-0.4-2.9-0.4v-0.3
					c0.1-0.7,1-2.8,4.1-2.7c0.4,0,0.7-0.2,0.9-0.6c0.2-0.4,0.3-0.9,0.4-1.3h1.8l2.4,0.1c0,0.7,0,1.4,0.1,2.1
					C22.7,69.6,22.8,70.5,22.6,71.4L22.6,71.4z"/>
				<path id="XMLID_263_" class="st35" d="M22.6,71.4c-0.9,0.9-2,1.4-3.2,1.6c-1.6,0-2.1-0.6-3.8-1c-1-0.3-2-0.4-2.9-0.4v-0.3
					c1.2-0.2,2.5-0.2,3.7,0c1,0.4,2,0.6,3.1,0.4c1.8-0.4,1.2-1.9,1.2-2.9c-0.1-0.7,0-1.4,0.1-2.1l1.8,0.1c0,0.7,0,1.4,0.1,2.1
					C22.8,69.7,22.8,70.5,22.6,71.4z"/>
				<ellipse id="XMLID_262_" class="st36" cx="17.5" cy="69.5" rx="0.3" ry="0.3"/>
				<ellipse id="XMLID_261_" class="st36" cx="14.7" cy="69.6" rx="0.3" ry="0.3"/>
				<path id="XMLID_260_" class="st36" d="M15.8,69.8c0-0.2,0.1-0.3,0.3-0.3s0.3,0.1,0.3,0.3c0,0.2-0.1,0.3-0.3,0.3l0,0
					C16,70,15.8,69.9,15.8,69.8z"/>
				<path id="XMLID_259_" class="st39" d="M22.6,71.7c-0.9,0.8-2.2,1.2-3.4,1.2c-2.2-0.1-2.8-0.9-4.7-1.2c-1.9-0.1-3.4-0.1-4.4-1.6
					c0,0-0.1,0-0.1,0.6c0,0.7,1,1.5,2.2,1.6c1.3,0.1,2.7,0,3.8,0.6c0.9,0.5,1.9,0.8,2.9,0.9c1.2-0.1,2.4-0.5,3.4-1.2
					C22.9,71.8,22.6,71.7,22.6,71.7L22.6,71.7z"/>
				<path id="XMLID_258_" class="st37" d="M22.6,71.4c-0.9,0.8-2.2,1.2-3.4,1.2c-2.2-0.1-2.8-0.9-4.7-1.2c-1.9-0.1-3.4-0.1-4.4-1.6
					c0,0-0.1,0-0.1,0.6c0,0.7,1,1.5,2.2,1.6c1.3,0.1,2.7,0,3.8,0.6c0.9,0.5,1.9,0.8,2.9,0.9c1.2-0.1,2.4-0.5,3.4-1.2
					C22.9,71.7,22.6,71.4,22.6,71.4z"/>
				<path id="XMLID_256_" class="st26" d="M26.4,14.7c-0.9,1-2.2,1.7-3.5,1.9c-1,0-2,0.2-2.9,0.4c0.2-0.8,0.6-1.6,1.2-2.2
					c0.8-0.6,1.6-1.2,2.5-1.6c0.4-0.2,0.8-0.3,1.2-0.4c0,0,0.4-0.4,1,0.4C26,13.7,26.2,14.2,26.4,14.7z"/>
				<g id="XMLID_250_" transform="translate(0 18.712)">
					<path id="XMLID_254_" class="st28" d="M17.9,7.1c-1.2,1.9-4.3,6.6-5,7.2c-1.6,0.5-3.3,0.8-5,0.7c-1.1,0-2.3,0.1-3.4,0.3
						c-1,0-2-0.4-2.8-1l-1.6,1.8C-0.1,15.6,0,15,0.4,14.5C1,13.6,2,11.9,3.2,12s1.8,1,4.3,0c1.1-0.4,2.1-0.7,3.2-0.9
						c0,0,2.5-4.7,4.1-7.2c0.6-1.1,1.4-2,2.4-2.8c0.5-0.3,1.1-0.3,1.6,0C20.7,2.3,19.2,5.2,17.9,7.1z"/>
					<path id="XMLID_253_" class="st24" d="M17.9,7.1c-1.2,1.9-4.3,6.6-5,7.2c-1.6,0.5-3.3,0.8-5,0.7c-1.1,0-2.3,0.1-3.4,0.3
						c-1,0-2-0.4-2.8-1l-1.6,1.8c0-0.1,1.3-2.5,2.2-2.7s1.6,0.9,3.1,0.9c2.2-0.1,4.5-0.5,6.6-1c0.6-0.3,1.6-2.1,4.4-6.5
						c2.8-4.3,1.5-5.7,0.6-5.7c0.5-0.3,1.1-0.3,1.6,0C20.7,2.3,19.2,5.2,17.9,7.1L17.9,7.1z"/>
					<path id="XMLID_251_" class="st26" d="M19.5,5.1c-0.6,1.3-1.3,2.6-2.1,3.8c-0.4,0.4-1.2,0.1-2.1-0.1c-1.5-0.7-3.1-2.4-2.7-3.5
						c0,0,2.1-2.9,2.9-4c0.6-0.9,1.6-1.4,2.7-1.2l0.9,0.4C20.8,1.7,20.1,3.6,19.5,5.1z"/>
				</g>
				<path id="XMLID_249_" class="st40" d="M23.1,64.5l-0.3,2.4c-0.6,0.7-3.1,0.6-4.3,0c-0.3-0.1-0.4-0.3-0.4-0.4v-2.2
					c0-0.2,0.1-0.3,0.3-0.3c1.4,0.5,2.9,0.6,4.4,0.3C22.9,64.2,23.1,64.2,23.1,64.5L23.1,64.5z"/>
				<path id="XMLID_248_" class="st41" d="M23.1,64.5l-0.3,2.4c-0.6,0.7-3.1,0.6-4.3,0c0.7,0.3,2.5,0.1,2.8-0.3s-1.6-1.2-2.4-1.6
					c-0.9-0.6-0.7-0.7-0.3-0.4c1.1,0.5,2.2,0.7,3.4,0.4c1.2-0.1,1-0.6,0.9-0.6C22.9,64.2,23.1,64.2,23.1,64.5z"/>
				<path id="XMLID_247_" class="st40" d="M33.2,61.1l1.3,1.9c0.7,0.4,3.1-0.7,3.8-1.8c0.1-0.3,0.3-0.4,0.1-0.6l-0.9-1.9
					c-0.1-0.1-0.3-0.1-0.4-0.1c0,0,0,0-0.1,0.1c-1,1.1-2.4,1.9-3.8,2.2C33.2,60.6,33.2,60.9,33.2,61.1z"/>
				<path id="XMLID_246_" class="st41" d="M33.2,61.1l1.3,1.9c0.7,0.4,3.1-0.7,3.8-1.8c-0.6,0.6-2.2,1.2-2.7,0.9s1-1.8,1.5-2.5
					c0.4-0.9,0.4-0.9,0.1-0.6c-0.8,0.8-1.7,1.5-2.8,1.9c-1.2,0.3-1.2,0-1.2-0.1C33.2,60.6,33.2,60.9,33.2,61.1L33.2,61.1z"/>
				<path id="XMLID_243_" class="st27" d="M19.5,23.8c-0.6,1.3-1.3,2.6-2.1,3.8c-0.4,0.4-1.2,0.1-2.1-0.1c0.3-0.4,2.1-2.9,3.1-4.9
					c1-2.1,0.7-3.4,0-3.7l0.9,0.4C20.8,20.4,20.1,22.3,19.5,23.8L19.5,23.8z"/>
				<path id="XMLID_238_" class="st27" d="M26.4,14.7c-0.9,1-2.2,1.6-3.5,1.8c-1,0-2,0.2-2.9,0.4c0.2-0.8,0.6-1.6,1.2-2.2
					c0.8-0.6,1.6-1.2,2.5-1.6c-0.7,0.5-0.9,1.4-0.6,2.2C23.3,15.8,25.6,15.5,26.4,14.7L26.4,14.7z"/>
				<g id="Group_2069" transform="translate(14.51 67.695)">
					<path id="XMLID_237_" class="st20" d="M2.7,0.7C1.6,0.5,0.5,1,0,1.9C0.1,2,0.2,2,0.3,1.9c0,0,0,0,0,0C1,1.4,1.8,1,2.7,0.7z"/>
					<path id="XMLID_236_" class="st20" d="M2.9,0.6c0,0-1.2-0.1-1.5,1.3c0,0,0,0.3,0.3,0C2,1.4,2.4,0.9,2.9,0.6z"/>
					<path id="XMLID_235_" class="st20" d="M2.8,1.8c0,0-0.1-1,0.1-1.3C3.2,0,3.4,0,3.4,0C3.1,0.6,3,1.2,3.1,1.8
						C3.1,1.9,2.8,1.9,2.8,1.8z"/>
				</g>
				<g id="Group_2070" transform="translate(36.164 65.338)">
					<path id="XMLID_234_" class="st20" d="M0.3,2.7C0.2,2.7,0.2,2.8,0.1,2.9c0,0.4,0.2,0.8,0.6,1c0.1,0.1,0.3,0,0-0.3
						C0.5,3.4,0.3,3,0.3,2.7z"/>
					<path id="XMLID_233_" class="st20" d="M0.3,1.3C0.2,1.4,0.2,1.5,0.1,1.6c0.1,0.4,0.3,0.8,0.6,1c0.3,0.1,0.1-0.3,0-0.4
						C0.6,1.9,0.4,1.6,0.3,1.3z"/>
					<path id="XMLID_232_" class="st20" d="M0.1,0C0.1,0.1,0,0.2,0,0.3C0,0.4,0.7,1,0.9,0.9c0.1,0,0.3-0.1,0-0.3
						C0.7,0.4,0.1,0,0.1,0z"/>
				</g>
			</g>
		</g>
	</g>
	<path id="Union_15" class="st0" d="M1057,7796.2l-0.8-0.5c-0.3-0.2-0.6-0.3-0.9-0.5l-18.2-10.3c-3.4-1.8-7.4-1.7-10.8,0.1l-5.2,2.9
		l-4,2.4c0-0.1-0.7,0.3-1.8,0.9l-10.8,6c0.4,0.3,0.7,0.8,0.7,1.3c0,1.5-2.5,2.8-5.5,2.8c-3.1,0-5.5-1.2-5.5-2.8
		c0-1.5,2.5-2.8,5.5-2.8c1,0,2,0.1,3,0.4c0.3,0,0.4,0,0.6,0.1l13.5-7.5l8.7-5c3.7-2.2,8.2-2.2,11.9-0.1l18.5,10.6
		c0.2,0.1,0.4,0.2,0.6,0.3l45.8,26.1c-0.5,0.1-1,0.3-1.5,0.6L1057,7796.2z"/>
	<g id="Group_3323" transform="translate(1097.532 7796.6)">
		<g id="Group_2079" transform="translate(0 27.399)">
			<g id="Group_2077">
				
					<linearGradient id="Path_11774_1_" gradientUnits="userSpaceOnUse" x1="-911.4556" y1="583.6864" x2="-910.4536" y2="583.6864" gradientTransform="matrix(69.235 0 0 -40.5777 63104.5977 23713.0254)">
					<stop  offset="2.000000e-03" style="stop-color:#37B3D4"/>
					<stop  offset="1" style="stop-color:#2A87AA"/>
				</linearGradient>
				<path id="Path_11774" class="st42" d="M69.3,19.9L57.9,20L39.5,9.1c-2.5-1.3-5.6-1.3-8.1,0L11.5,20.7L0,20.9v7.8
					c0.1,1,0.7,1.9,1.6,2.4l28.1,16.6c2.5,1.3,5.6,1.3,8.1,0l29.8-17.4c1-0.4,1.6-1.3,1.6-2.4L69.3,19.9z"/>
				<g id="Group_2074">
					<path id="Path_11775" class="st43" d="M67.7,17.6c2.2,1.3,2.2,3.4,0,4.7L37.9,39.7c-2.5,1.3-5.6,1.3-8.1,0L1.7,23.1
						c-2.2-1.3-2.2-3.4,0-4.7L31.4,1C34-0.3,37-0.3,39.5,1L67.7,17.6z"/>
				</g>
				<g id="Group_2075">
					<path id="Path_11776" class="st44" d="M67.7,17.6c2.2,1.3,2.2,3.4,0,4.7L37.9,39.7c-2.5,1.3-5.6,1.3-8.1,0L1.7,23.1
						c-2.2-1.3-2.2-3.4,0-4.7L31.4,1C34-0.3,37-0.3,39.5,1L67.7,17.6z"/>
				</g>
				<g id="Group_2076" transform="translate(15.026 8.654)">
					<path id="Path_11777" class="st45" d="M0.8,10.9L18.9,0.4c0.9-0.6,2.1-0.6,2.9,0l16.9,9.9c0.6,0.3,0.8,1.1,0.5,1.7
						c-0.1,0.2-0.3,0.4-0.5,0.5l-18,10.3c-1.2,0.7-2.7,0.7-3.8,0L0.8,13.4c-0.7-0.3-1-1.2-0.6-1.9C0.3,11.3,0.5,11,0.8,10.9z"/>
				</g>
			</g>
			<g id="Group_2078" transform="translate(53.215 23.238)">
				<path id="Path_11778" class="st46" d="M5.7,8.2l-1.6,1V5.2l1.6-1V8.2z"/>
				<path id="Path_11779" class="st46" d="M8.1,6.9L6.5,8V3.8l1.6-1V6.9z"/>
				<path id="Path_11780" class="st46" d="M10.6,5.6L8.8,6.5V2.4l1.8-0.9V5.6z"/>
				<path id="Path_11781" class="st46" d="M13,4.1l-1.8,1V1L13,0V4.1z"/>
				<path id="Path_11782" class="st46" d="M3.2,8.4c0,0.4-0.3,0.9-0.6,0.9S2.1,8.8,2.1,8.4s0.3-0.9,0.6-0.9C2.9,7.4,3.2,7.8,3.2,8.4
					z"/>
				<path id="Path_11783" class="st46" d="M1.2,9.6c0,0.4-0.3,0.9-0.6,0.9S0,10,0,9.6s0.3-0.9,0.6-0.9S1.2,9.1,1.2,9.6z"/>
			</g>
		</g>
		<g id="Group_2084" transform="translate(0 13.7)">
			<g id="Group_2082">
				
					<linearGradient id="Path_11784_1_" gradientUnits="userSpaceOnUse" x1="-911.4556" y1="597.3854" x2="-910.4536" y2="597.3854" gradientTransform="matrix(69.235 0 0 -40.5777 63104.5977 24268.8984)">
					<stop  offset="2.000000e-03" style="stop-color:#37B3D4"/>
					<stop  offset="1" style="stop-color:#2A87AA"/>
				</linearGradient>
				<path id="Path_11784" class="st47" d="M69.3,19.8L57.9,20L39.5,9.1c-2.5-1.3-5.6-1.3-8.1,0L11.5,20.7L0,20.9v7.8
					c0.1,1,0.7,1.9,1.6,2.4l28.1,16.6c2.5,1.3,5.6,1.3,8.1,0l29.8-17.4c1-0.4,1.6-1.3,1.6-2.4L69.3,19.8z"/>
				<g id="Group_2080">
					<path id="Path_11785" class="st44" d="M67.7,17.6c2.2,1.3,2.2,3.4,0,4.7L37.9,39.7c-2.5,1.3-5.6,1.3-8.1,0L1.7,23.1
						c-2.2-1.3-2.2-3.4,0-4.7L31.4,1C34-0.3,37-0.3,39.5,1L67.7,17.6z"/>
				</g>
				<g id="Group_2081" transform="translate(15.026 8.654)">
					<path id="Path_11786" class="st45" d="M0.8,10.9L18.9,0.4c0.9-0.6,2.1-0.6,2.9,0l16.9,9.9c0.6,0.3,0.8,1.1,0.5,1.7
						c-0.1,0.2-0.3,0.4-0.5,0.5l-18,10.3c-1.2,0.7-2.7,0.7-3.8,0L0.8,13.4c-0.7-0.3-1-1.2-0.6-1.9C0.3,11.3,0.5,11,0.8,10.9z"/>
				</g>
			</g>
			<g id="Group_2083" transform="translate(53.215 23.238)">
				<path id="Path_11787" class="st46" d="M5.7,8.2l-1.6,1V5.2l1.6-1V8.2z"/>
				<path id="Path_11788" class="st46" d="M8.1,6.9L6.5,7.8v-4l1.6-1V6.9z"/>
				<path id="Path_11789" class="st46" d="M10.6,5.4l-1.8,1V2.4l1.8-0.9V5.4z"/>
				<path id="Path_11790" class="st46" d="M13,4.1l-1.8,1V1L13,0V4.1z"/>
				<ellipse id="Ellipse_578" class="st46" cx="2.5" cy="8.4" rx="0.6" ry="0.9"/>
				<path id="Path_11791" class="st46" d="M1.2,9.6c0,0.4-0.3,0.9-0.6,0.9S0,10,0,9.6s0.3-0.9,0.6-0.9S1.2,9.1,1.2,9.6z"/>
			</g>
		</g>
		<g id="Group_2089">
			<g id="Group_2087">
				
					<linearGradient id="Path_11792_1_" gradientUnits="userSpaceOnUse" x1="-911.4556" y1="611.0854" x2="-910.4536" y2="611.0854" gradientTransform="matrix(69.235 0 0 -40.5777 63104.5977 24824.8125)">
					<stop  offset="2.000000e-03" style="stop-color:#37B3D4"/>
					<stop  offset="1" style="stop-color:#2A87AA"/>
				</linearGradient>
				<path id="Path_11792" class="st48" d="M69.3,19.8L57.9,20L39.5,9.1c-2.5-1.3-5.6-1.3-8.1,0L11.5,20.7L0,20.9v7.8
					c0.1,1,0.7,1.9,1.6,2.4l28.1,16.6c2.5,1.3,5.6,1.3,8.1,0l29.8-17.4c1-0.4,1.6-1.3,1.6-2.4L69.3,19.8z"/>
				<g id="Group_2085">
					<path id="Path_11793" class="st44" d="M67.7,17.6c2.2,1.3,2.2,3.4,0,4.7L37.9,39.7c-2.5,1.3-5.6,1.3-8.1,0L1.7,23.1
						c-2.2-1.3-2.2-3.4,0-4.7L31.4,1C34-0.3,37-0.3,39.5,1L67.7,17.6z"/>
				</g>
				<g id="Group_2086" transform="translate(15.026 8.654)">
					<path id="Path_11794" class="st49" d="M0.8,10.9L18.9,0.4c0.9-0.6,2.1-0.6,2.9,0l16.9,9.9c0.6,0.3,0.8,1.1,0.5,1.7
						c-0.1,0.2-0.3,0.4-0.5,0.5l-18,10.3c-1.2,0.7-2.7,0.7-3.8,0L0.8,13.4C-0.3,12.7-0.3,11.3,0.8,10.9L0.8,10.9z"/>
				</g>
			</g>
			<g id="Group_2088" transform="translate(53.215 23.238)">
				<path id="Path_11795" class="st46" d="M5.7,8.2l-1.6,1V5.2l1.6-1V8.2z"/>
				<path id="Path_11796" class="st46" d="M8.1,6.9L6.5,7.8V3.7l1.6-0.9V6.9z"/>
				<path id="Path_11797" class="st46" d="M10.6,5.5l-1.8,1V2.4l1.8-1V5.5z"/>
				<path id="Path_11798" class="st46" d="M13,4.1l-1.8,1V1L13,0V4.1z"/>
				<ellipse id="Ellipse_579" class="st46" cx="2.5" cy="8.2" rx="0.6" ry="0.9"/>
				<path id="Path_11799" class="st46" d="M1.2,9.6c0,0.4-0.3,0.9-0.6,0.9S0,10,0,9.6s0.3-0.9,0.6-0.9S1.2,9.1,1.2,9.6z"/>
			</g>
		</g>
	</g>
	<g id="Group_3324" transform="translate(1270.123 7883.172)">
		<g id="Group_2111" transform="translate(0 36.918)">
			<g id="Group_2100">
				<g id="Group_2091" transform="translate(0 .076)">
					<path id="Path_11800" class="st50" d="M47.7,33.4l-17.4,6l0.3-19l17.2-6.8L47.7,33.4z"/>
					<path id="Path_11801" class="st51" d="M30.3,39.5L0,24.7l0.1-18l30.5,13.7L30.3,39.5z"/>
					<path id="Path_11802" class="st52" d="M30.6,20.5L0.1,6.8L15.5,0l32.4,13.7L30.6,20.5z"/>
				</g>
				<g id="Group_2093" transform="translate(6.776 3.83)">
					<path id="Path_11803" class="st50" d="M0,1.4v2.5l8.7,1.2l0.1-2.5L0,1.4z"/>
					<g id="Group_2092">
						<path id="Path_11804" class="st50" d="M8.7,5.1c0,1-2.1,1.6-4.4,1.3S0,4.9,0,3.9s1.9-1.6,4.4-1.3C6.8,2.9,8.7,4.1,8.7,5.1z"/>
						<path id="Path_11805" class="st51" d="M8.8,2.6c0,1-2.1,1.6-4.4,1.3S0.1,2.4,0.1,1.4s1.9-1.6,4.4-1.3C6.8,0.4,8.8,1.6,8.8,2.6
							z"/>
					</g>
				</g>
				<g id="Group_2095" transform="translate(14.731)">
					<path id="Path_11806" class="st50" d="M0,1.5V4l9,1.2V2.6L0,1.5z"/>
					<g id="Group_2094">
						<path id="Path_11807" class="st50" d="M9,5.2c0,1-2.1,1.6-4.6,1.3S0,5.1,0,4.1s2.1-1.6,4.6-1.3C6.9,3,9,4.2,9,5.2z"/>
						<path id="Path_11808" class="st51" d="M9,2.6c0,1-2.1,1.6-4.6,1.3S0,2.4,0,1.4s2.1-1.6,4.6-1.3C6.9,0.5,9,1.6,9,2.6z"/>
					</g>
				</g>
				<g id="Group_2097" transform="translate(31.082 7.66)">
					<path id="Path_11809" class="st50" d="M0,1.4v2.7l9.6,1.3V2.7L0,1.4z"/>
					<g id="Group_2096">
						<path id="Path_11810" class="st50" d="M9.6,5.4c0,1-2.2,1.6-4.9,1.3C2.1,6.3,0,5.1,0,4.1s2.2-1.6,4.7-1.3
							C7.4,3.2,9.6,4.3,9.6,5.4z"/>
						<path id="Path_11811" class="st51" d="M9.6,2.7c0,1-2.2,1.6-4.9,1.3S0,2.6,0,1.4c0-1,2.2-1.6,4.7-1.3C7.4,0.5,9.6,1.7,9.6,2.7
							z"/>
					</g>
				</g>
				<g id="Group_2099" transform="translate(22.98 11.048)">
					<path id="Path_11812" class="st50" d="M0,1.4v2.7l9.3,1.3V2.7L0,1.4z"/>
					<g id="Group_2098">
						<path id="Path_11813" class="st50" d="M9.3,5.4c0,1-2.1,1.6-4.7,1.2C2.1,6.1,0,4.9,0,3.9s2.1-1.6,4.7-1.3
							C7.2,3.2,9.3,4.3,9.3,5.4z"/>
						<path id="Path_11814" class="st51" d="M9.3,2.7c0,1-2.1,1.6-4.7,1.3C2.1,3.6,0,2.6,0,1.4c0-1,2.1-1.6,4.7-1.3
							C7.2,0.5,9.3,1.7,9.3,2.7z"/>
					</g>
				</g>
			</g>
			<g id="Group_2110" transform="translate(15.762 7.218)">
				<g id="Group_2101" transform="translate(0 .076)">
					<path id="Path_11815" class="st50" d="M50.8,34.9l-18.3,6l0.1-19.7L51,14.6L50.8,34.9z"/>
					<path id="Path_11816" class="st51" d="M32.6,41L0,25.2L0.3,6.6l32.4,14.6L32.6,41z"/>
					<path id="Path_11817" class="st52" d="M32.7,21.2L0.3,6.6L16.5,0L51,14.6L32.7,21.2z"/>
				</g>
				<g id="Group_2103" transform="translate(7.218 3.83)">
					<path id="Path_11818" class="st50" d="M0,1.4v2.5l9.3,1.3V2.7L0,1.4z"/>
					<g id="Group_2102">
						<path id="Path_11819" class="st50" d="M9.3,5.2c0,1-2.1,1.6-4.7,1.3C2.1,6.1,0,4.9,0,3.9s2.1-1.6,4.7-1.3
							C7.2,3,9.3,4.2,9.3,5.2z"/>
						<path id="Path_11820" class="st51" d="M9.3,2.7c0,1-2.1,1.6-4.7,1.3C2.1,3.6,0,2.6,0,1.4c0-1,2.1-1.6,4.7-1.3
							C7.2,0.4,9.4,1.6,9.3,2.7z"/>
					</g>
				</g>
				<g id="Group_2105" transform="translate(15.615)">
					<path id="Path_11821" class="st50" d="M0,1.4v2.7l9.6,1.3l0.1-2.7L0,1.4z"/>
					<g id="Group_2104">
						<path id="Path_11822" class="st50" d="M9.6,5.4c0,1-2.2,1.6-4.9,1.3C2.1,6.3,0,5.1,0,4.1s2.2-1.6,4.7-1.3
							C7.5,3.2,9.6,4.3,9.6,5.4L9.6,5.4z"/>
						<path id="Path_11823" class="st51" d="M9.7,2.7c0,1-2.2,1.6-4.9,1.3S0.1,2.6,0.1,1.4c0-1,2.2-1.6,4.7-1.3
							C7.5,0.5,9.7,1.7,9.7,2.7L9.7,2.7z"/>
					</g>
				</g>
				<g id="Group_2107" transform="translate(33.144 8.031)">
					<path id="Path_11824" class="st50" d="M0,1.5v2.8l10.2,1.5V2.9L0,1.5z"/>
					<g id="Group_2106">
						<path id="Path_11825" class="st50" d="M10.2,5.7c0,1.2-2.4,1.8-5.2,1.3S0,5.4,0,4.3s2.2-1.6,5.2-1.3C8,3.4,10.2,4.6,10.2,5.7z
							"/>
						<path id="Path_11826" class="st51" d="M10.2,2.9c0,1.2-2.4,1.8-5.2,1.3S0,2.7,0,1.5s2.2-1.8,5.2-1.3C8,0.6,10.2,1.8,10.2,2.9z
							"/>
					</g>
				</g>
				<g id="Group_2109" transform="translate(24.453 11.49)">
					<path id="Path_11827" class="st50" d="M0,1.4v2.7l10,1.6V3L0,1.4z"/>
					<g id="Group_2108" transform="translate(.147)">
						<path id="Path_11828" class="st50" d="M9.9,5.7c0,1.2-2.2,1.6-5,1.2S0,5.2,0,4.1c0-1,2.2-1.6,5-1.2C7.5,3.3,9.9,4.5,9.9,5.7
							L9.9,5.7z"/>
						<path id="Path_11829" class="st51" d="M9.9,3c0,1.2-2.2,1.6-5,1.2S0,2.6,0,1.4c0-1,2.2-1.6,5-1.3C7.7,0.7,9.9,1.8,9.9,3L9.9,3
							z"/>
					</g>
				</g>
			</g>
		</g>
		<g id="Group_2121" transform="translate(.147 18.367)">
			<g id="Group_2112" transform="translate(0 .213)">
				<path id="Path_11830" class="st53" d="M47.7,32.1l-17.2,6.8l0.1-19l17.1-7.4V32.1z"/>
				<path id="Path_11831" class="st54" d="M30.5,38.9L0,25L0.3,7.2l30.3,12.7L30.5,38.9z"/>
				<path id="Path_11832" class="st55" d="M30.6,19.9L0.3,7.2L15.6,0l32.1,12.5L30.6,19.9z"/>
			</g>
			<g id="Group_2114" transform="translate(31.082 7.071)">
				<path id="Path_11833" class="st56" d="M0,1.5v2.7l9.6,1V2.6L0,1.5z"/>
				<g id="Group_2113">
					<path id="Path_11834" class="st56" d="M9.6,5.2c0,1-2.2,1.8-4.9,1.5S0,5.4,0,4.2c0-1,2.1-1.8,4.7-1.5S9.6,4,9.6,5.2z"/>
					<path id="Path_11835" class="st57" d="M9.6,2.6c0,1-2.2,1.8-4.9,1.5S0,2.7,0,1.5c0-1,2.1-1.8,4.7-1.5C7.5,0.4,9.6,1.5,9.6,2.6z
						"/>
				</g>
			</g>
			<g id="Group_2116" transform="translate(22.98 10.754)">
				<path id="Path_11836" class="st56" d="M0,1.5v2.7l9.3,1V2.6L0,1.5z"/>
				<g id="Group_2115">
					<path id="Path_11837" class="st56" d="M9.3,5.2c0,1-2.1,1.8-4.7,1.5C2.1,6.4,0,5.4,0,4.2c0-1,2.1-1.6,4.6-1.5
						C7.2,3,9.3,4.2,9.3,5.2z"/>
					<path id="Path_11838" class="st57" d="M9.3,2.6c0,1-2.1,1.8-4.7,1.5C2.1,3.7,0,2.7,0,1.5c0-1,2.1-1.8,4.6-1.5
						C7.2,0.4,9.3,1.5,9.3,2.6z"/>
				</g>
			</g>
			<g id="Group_2118" transform="translate(6.776 4.168)">
				<path id="Path_11839" class="st56" d="M0.1,1.5L0,4l8.8,0.9V2.4L0.1,1.5z"/>
				<g id="Group_2117" transform="translate(.147)">
					<path id="Path_11840" class="st56" d="M8.7,4.9c0,1-2.1,1.6-4.4,1.5C1.9,6.1,0,5,0,4s1.9-1.6,4.4-1.5C6.6,2.8,8.7,3.9,8.7,4.9z
						"/>
					<path id="Path_11841" class="st57" d="M8.7,2.4c0,1-2.1,1.6-4.4,1.5C1.9,3.6,0,2.5,0,1.5S1.9-0.1,4.4,0
						C6.8,0.2,8.7,1.2,8.7,2.4z"/>
				</g>
			</g>
			<g id="Group_2120" transform="translate(14.731)">
				<path id="Path_11842" class="st56" d="M0,1.7v2.5l9,0.9V2.4L0,1.7z"/>
				<g id="Group_2119">
					<path id="Path_11843" class="st56" d="M9,5.1c0,1-2.1,1.8-4.6,1.5S0,5.2,0,4.2s2.1-1.8,4.4-1.5C6.9,3,9,4,9,5.1z"/>
					<path id="Path_11844" class="st57" d="M9,2.4c0,1-2.1,1.8-4.6,1.5S0,2.6,0,1.5s2.1-1.8,4.4-1.5C7.1,0.4,9,1.4,9,2.4z"/>
				</g>
			</g>
		</g>
		<g id="Group_2131" transform="translate(.442)">
			<g id="Group_2122" transform="translate(0 .313)">
				<path id="Path_11845" class="st58" d="M47.4,30.8l-17.1,7.4l0.1-19l17.1-7.7L47.4,30.8z"/>
				<path id="Path_11846" class="st59" d="M30.3,38.2L0,25.5L0.1,7.7l30.3,11.5L30.3,38.2z"/>
				<path id="Path_11847" class="st60" d="M30.5,19.2L0.1,7.7L15.5,0l32.1,11.5L30.5,19.2z"/>
			</g>
			<g id="Group_2124" transform="translate(6.776 4.272)">
				<path id="Path_11848" class="st58" d="M0,1.6v2.5l8.7,0.6V2.2L0,1.6z"/>
				<g id="Group_2123">
					<path id="Path_11849" class="st58" d="M8.7,4.7c0,1-2.1,1.8-4.4,1.6S0,5.2,0,4.1s1.9-1.8,4.4-1.6C6.8,2.8,8.7,3.7,8.7,4.7z"/>
					<path id="Path_11850" class="st59" d="M8.7,2.2c0,1-2.1,1.8-4.4,1.6S0,2.7,0,1.6S1.9-0.1,4.4,0C6.8,0.3,8.7,1.2,8.7,2.2z"/>
				</g>
			</g>
			<g id="Group_2126" transform="translate(14.584)">
				<path id="Path_11851" class="st58" d="M0.1,1.8L0,4.3l9,0.6l0.1-2.7L0.1,1.8z"/>
				<g id="Group_2125">
					<path id="Path_11852" class="st58" d="M9,4.9c0,1-2.1,1.8-4.6,1.6S0,5.3,0,4.3s2.1-1.8,4.4-1.6C7.1,2.8,9.1,3.8,9,4.9z"/>
					<path id="Path_11853" class="st59" d="M9.1,2.2c0,1-2.1,1.8-4.6,1.6s-4.4-1-4.4-2.2c0-1,2.1-1.8,4.4-1.6
						C7.1,0.3,9.1,1.2,9.1,2.2z"/>
				</g>
			</g>
			<g id="Group_2128" transform="translate(30.935 6.629)">
				<path id="Path_11854" class="st58" d="M0,1.6v2.5l9.6,0.7V2.2L0,1.6z"/>
				<g id="Group_2127">
					<path id="Path_11855" class="st58" d="M9.6,4.9c0,1-2.2,1.8-4.9,1.6S0,5.3,0,4.1c0-1,2.1-1.8,4.7-1.6S9.6,3.7,9.6,4.9L9.6,4.9z
						"/>
					<path id="Path_11856" class="st59" d="M9.6,2.2c0,1-2.2,1.8-4.9,1.6S0,2.7,0,1.6S2.1-0.1,4.7,0C7.5,0.2,9.6,1,9.6,2.2L9.6,2.2z
						"/>
				</g>
			</g>
			<g id="Group_2130" transform="translate(22.833 10.606)">
				<path id="Path_11857" class="st58" d="M0.1,1.5L0,4l9.3,0.7l0.1-2.5L0.1,1.5z"/>
				<g id="Group_2129">
					<path id="Path_11858" class="st58" d="M9.3,4.7c0,1-2.1,1.8-4.7,1.6C2.1,6.2,0,5.2,0,4c0-1,2.1-1.8,4.6-1.6
						C7.2,2.7,9.3,3.7,9.3,4.7z"/>
					<path id="Path_11859" class="st59" d="M9.4,2.2c0,1-2.1,1.8-4.7,1.6C2.2,3.7,0.1,2.7,0.1,1.6S2.2-0.1,4.7,0S9.4,1.2,9.4,2.2z"
						/>
				</g>
			</g>
		</g>
	</g>
	<g id="Group_3325" transform="translate(937.32 7786.617)">
		<g id="Group_2176" transform="translate(0 13.847)">
			<g id="Group_2174">
				
					<linearGradient id="Path_11917_1_" gradientUnits="userSpaceOnUse" x1="-751.2658" y1="607.2213" x2="-750.2658" y2="607.2213" gradientTransform="matrix(69.382 0 0 -40.5777 52124.3633 24668.0273)">
					<stop  offset="1.000000e-03" style="stop-color:#43B19C"/>
					<stop  offset="1" style="stop-color:#3D9988"/>
				</linearGradient>
				<path id="Path_11917" class="st61" d="M69.4,19.8L58.1,20L39.7,9.1c-2.5-1.3-5.6-1.3-8.1,0L11.7,20.7L0,20.9v7.8
					c0.1,1,0.7,1.9,1.6,2.4l28.1,16.6c2.5,1.3,5.6,1.3,8.1,0l29.9-17.2c1-0.4,1.6-1.3,1.6-2.4L69.4,19.8z"/>
				<g id="Group_2171">
					<path id="Path_11918" class="st43" d="M67.8,17.6c2.2,1.3,2.2,3.4,0,4.7L38,39.7c-2.5,1.3-5.6,1.3-8.1,0L1.7,23.1
						c-2.2-1.3-2.2-3.4,0-4.7L31.4,1C34-0.3,37-0.3,39.5,1L67.8,17.6z"/>
				</g>
				<g id="Group_2172">
					<path id="Path_11919" class="st60" d="M67.8,17.6c2.2,1.3,2.2,3.4,0,4.7L38,39.7c-2.5,1.3-5.6,1.3-8.1,0L1.7,23.1
						c-2.2-1.3-2.2-3.4,0-4.7L31.4,1C34-0.3,37-0.3,39.5,1L67.8,17.6z"/>
				</g>
				<g id="Group_2173" transform="translate(15.136 8.654)">
					<path id="Path_11920" class="st49" d="M0.7,10.9L18.8,0.4c0.9-0.6,2.1-0.6,2.9,0l16.9,9.9c0.6,0.3,0.8,1.1,0.5,1.7
						c-0.1,0.2-0.3,0.4-0.5,0.5l-18,10.3c-1.2,0.7-2.7,0.7-3.8,0L0.7,13.4C0,12.9-0.2,12,0.3,11.3C0.4,11.1,0.5,11,0.7,10.9z"/>
				</g>
			</g>
			<g id="Group_2175" transform="translate(53.215 23.238)">
				<path id="Path_11921" class="st62" d="M5.9,8.2l-1.6,1V5.2l1.6-1V8.2z"/>
				<path id="Path_11922" class="st62" d="M8.2,6.9L6.6,7.8V3.7l1.6-0.9V6.9z"/>
				<path id="Path_11923" class="st62" d="M10.6,5.5L9,6.5V2.4l1.6-1V5.5z"/>
				<path id="Path_11924" class="st62" d="M13,4.1l-1.6,1V1L13,0V4.1z"/>
				<ellipse id="Ellipse_581" class="st62" cx="2.7" cy="8.2" rx="0.6" ry="0.9"/>
				<path id="Path_11925" class="st62" d="M1.2,9.6c0,0.4-0.3,0.9-0.6,0.9S0,10,0,9.6s0.3-0.9,0.6-0.9S1.2,9.1,1.2,9.6z"/>
			</g>
		</g>
		<g id="Group_2181">
			<g id="Group_2179">
				
					<linearGradient id="Path_11926_1_" gradientUnits="userSpaceOnUse" x1="-751.2658" y1="621.0684" x2="-750.2658" y2="621.0684" gradientTransform="matrix(69.382 0 0 -40.5777 52124.3633 25230.043)">
					<stop  offset="1.000000e-03" style="stop-color:#43B19C"/>
					<stop  offset="1" style="stop-color:#3D9988"/>
				</linearGradient>
				<path id="Path_11926" class="st63" d="M69.4,20l-11.3,0.1L39.7,9.2c-2.5-1.3-5.6-1.3-8.1,0L11.7,20.9L0,21v7.8
					c0.1,1,0.7,1.9,1.6,2.4l28.1,16.6c2.5,1.3,5.6,1.3,8.1,0l29.9-17.2c1-0.4,1.6-1.3,1.6-2.4L69.4,20z"/>
				<g id="Group_2177">
					<path id="Path_11927" class="st60" d="M67.8,17.8c2.2,1.3,2.2,3.4,0,4.7L38,39.9c-2.5,1.3-5.6,1.3-8.1,0L1.7,23.1
						c-2.2-1.3-2.2-3.4,0-4.7L31.4,1C34-0.3,37-0.3,39.5,1L67.8,17.8z"/>
				</g>
				<g id="Group_2178" transform="translate(15.136 8.802)">
					<path id="Path_11928" class="st49" d="M0.7,10.9L18.8,0.4c0.9-0.6,2.1-0.6,2.9,0l16.9,9.9c0.6,0.3,0.8,1.1,0.5,1.7
						c-0.1,0.2-0.3,0.4-0.5,0.5l-18,10.3c-1.2,0.7-2.7,0.7-3.8,0L0.7,13.4C0,12.9-0.2,12,0.3,11.3C0.4,11.1,0.5,11,0.7,10.9z"/>
				</g>
			</g>
			<g id="Group_2180" transform="translate(53.215 23.385)">
				<path id="Path_11929" class="st62" d="M5.9,8.2L4.3,9.1v-4l1.6-1V8.2z"/>
				<path id="Path_11930" class="st62" d="M8.2,6.8l-1.6,1V3.7l1.6-0.9V6.8z"/>
				<path id="Path_11931" class="st62" d="M10.6,5.5L9,6.5V2.4l1.6-1V5.5z"/>
				<path id="Path_11932" class="st62" d="M13,4.1L11.3,5V1L13,0V4.1z"/>
				<ellipse id="Ellipse_582" class="st62" cx="2.7" cy="8.2" rx="0.6" ry="0.9"/>
				<path id="Path_11933" class="st62" d="M1.2,9.6c0,0.4-0.3,0.9-0.6,0.9S0,10,0,9.6s0.3-0.9,0.6-0.9S1.2,9,1.2,9.6z"/>
			</g>
		</g>
	</g>
	<text transform="matrix(1 0 0 1 1257.9419 7860.3882)" class="st64 st65 st66">Blockchain</text>
	<text transform="matrix(1 0 0 1 1099.8569 7775.3882)" class="st64 st65 st66">ProvenDB</text>
	<text transform="matrix(1 0 0 1 939.5083 7766.3882)" class="st64 st65 st66">MongoDB</text>
	<text transform="matrix(1 0 0 1 1074.887 7968.3882)" class="st64 st65 st66">Database User</text>
</g>
</svg>
