<svg xmlns="http://www.w3.org/2000/svg" viewBox="0 0 71.257 51.596">
    <defs>
        <style>
            .cls-1{fill:#ebd2af}.cls-2{fill:#e1c3a0}.cls-3{fill:#f0dcbe}.cls-4{fill:#b99678}
        </style>
    </defs>
    <g id="box-icon" transform="translate(-602.056 -8069.76)">
        <path id="Path_12163" d="M75.131 119.947H11.263a2.459 2.459 0 0 1-2.463-2.463V79.4h68.78v38.084a2.438 2.438 0 0 1-2.449 2.463z" class="cls-1" data-name="Path 12163" transform="translate(594.48 8001.408)"/>
        <path id="Rectangle_2705" d="M0 0h68.78v3.687H0z" class="cls-2" data-name="Rectangle 2705" transform="translate(603.28 8080.808)"/>
        <path id="Path_12164" d="M70.018 12.287H1.224A1.226 1.226 0 0 1 0 11.062v-8.6A2.459 2.459 0 0 1 2.463 0h66.331a2.459 2.459 0 0 1 2.463 2.463v8.6a1.257 1.257 0 0 1-1.239 1.224z" class="cls-3" data-name="Path 12164" transform="translate(602.056 8069.76)"/>
        <path id="Path_12165" d="M196.161 123.6h-17.2a2.459 2.459 0 0 0-2.463 2.463 2.459 2.459 0 0 0 2.463 2.463h17.2a2.459 2.459 0 0 0 2.463-2.463 2.476 2.476 0 0 0-2.463-2.463z" class="cls-4" data-name="Path 12165" transform="translate(450.115 7963.358)"/>
    </g>
</svg>
