<svg xmlns="http://www.w3.org/2000/svg" viewBox="0 0 49.089 59.7">
    <defs>
        <style>
            .cls-1{fill:#aeb8d2}.cls-2{fill:#c6cfe1}.cls-3{fill:#8f95ac}.cls-4{fill:#9fa7be}.cls-5{fill:#6f7486}
        </style>
    </defs>
    <g id="building-icon" transform="translate(-807.598 -5692.191)">
        <path id="Path_2283_1_" d="M269.623 202.8a1.1 1.1 0 0 0-1.023 1.023V215.2h2.045v-11.377a1.008 1.008 0 0 0-1.023-1.023" class="cls-1" transform="translate(573.769 5494.504)"/>
        <path id="Path_2284_1_" d="M272.823 206.1a1.1 1.1 0 0 0-1.023 1.023V218.5h2.045v-11.377a.941.941 0 0 0-1.023-1.023" class="cls-1" transform="translate(574.66 5495.423)"/>
        <path id="Path_2285_1_" d="M267 210.9h13.3a1.1 1.1 0 0 1 1.023 1.023v42.186H267z" class="cls-2" transform="translate(573.324 5496.759)"/>
        <path id="Path_2286_1_" d="M267 245.591h14.318V241.5H267z" class="cls-1" transform="translate(573.324 5505.277)"/>
        <path id="Path_2287_1_" d="M266.2 240.245h15.341V238.2H266.2z" class="cls-1" transform="translate(573.101 5504.359)"/>
        <path id="Path_2288_1_" d="M275 240.245h2.045V238.2H275z" class="cls-3" transform="translate(575.551 5504.359)"/>
        <path id="Path_2289_1_" d="M268.6 240.245h2.045V238.2H268.6z" class="cls-3" transform="translate(573.769 5504.359)"/>
        <path id="Path_2290_1_" d="M271.8 240.245h2.045V238.2H271.8z" class="cls-3" transform="translate(574.66 5504.359)"/>
        <path id="Path_2291_1_" d="M266.2 237.045h15.341V235H266.2z" class="cls-1" transform="translate(573.101 5503.468)"/>
        <path id="Path_2292_1_" d="M275 237.045h2.045V235H275z" class="cls-3" transform="translate(575.551 5503.468)"/>
        <path id="Path_2293_1_" d="M268.6 237.045h2.045V235H268.6z" class="cls-3" transform="translate(573.769 5503.468)"/>
        <path id="Path_2294_1_" d="M271.8 237.045h2.045V235H271.8z" class="cls-3" transform="translate(574.66 5503.468)"/>
        <path id="Path_2295_1_" d="M266.2 233.845h15.341V231.8H266.2z" class="cls-1" transform="translate(573.101 5502.577)"/>
        <path id="Path_2296_1_" d="M275 233.845h2.045V231.8H275z" class="cls-3" transform="translate(575.551 5502.577)"/>
        <path id="Path_2297_1_" d="M268.6 233.845h2.045V231.8H268.6z" class="cls-3" transform="translate(573.769 5502.577)"/>
        <path id="Path_2298_1_" d="M271.8 233.845h2.045V231.8H271.8z" class="cls-3" transform="translate(574.66 5502.577)"/>
        <path id="Path_2299_1_" d="M266.2 230.645h15.341V228.6H266.2z" class="cls-1" transform="translate(573.101 5501.687)"/>
        <path id="Path_2300_1_" d="M275 230.645h2.045V228.6H275z" class="cls-3" transform="translate(575.551 5501.687)"/>
        <path id="Path_2301_1_" d="M268.6 230.645h2.045V228.6H268.6z" class="cls-3" transform="translate(573.769 5501.687)"/>
        <path id="Path_2302_1_" d="M271.8 230.645h2.045V228.6H271.8z" class="cls-3" transform="translate(574.66 5501.687)"/>
        <path id="Path_2303_1_" d="M266.2 227.445h15.341V225.4H266.2z" class="cls-1" transform="translate(573.101 5500.796)"/>
        <path id="Path_2304_1_" d="M275 227.445h2.045V225.4H275z" class="cls-3" transform="translate(575.551 5500.796)"/>
        <path id="Path_2305_1_" d="M268.6 227.445h2.045V225.4H268.6z" class="cls-3" transform="translate(573.769 5500.796)"/>
        <path id="Path_2306_1_" d="M271.8 227.445h2.045V225.4H271.8z" class="cls-3" transform="translate(574.66 5500.796)"/>
        <path id="Path_2307_1_" d="M266.2 224.245h15.341V222.2H266.2z" class="cls-1" transform="translate(573.101 5499.905)"/>
        <path id="Path_2308_1_" d="M275 224.245h2.045V222.2H275z" class="cls-3" transform="translate(575.551 5499.905)"/>
        <path id="Path_2309_1_" d="M268.6 224.245h2.045V222.2H268.6z" class="cls-3" transform="translate(573.769 5499.905)"/>
        <path id="Path_2310_1_" d="M271.8 224.245h2.045V222.2H271.8z" class="cls-3" transform="translate(574.66 5499.905)"/>
        <path id="Path_2311_1_" d="M266.2 220.945h15.341V218.9H266.2z" class="cls-1" transform="translate(573.101 5498.986)"/>
        <path id="Path_2312_1_" d="M275 220.945h2.045V218.9H275z" class="cls-3" transform="translate(575.551 5498.986)"/>
        <path id="Path_2313_1_" d="M268.6 220.945h2.045V218.9H268.6z" class="cls-3" transform="translate(573.769 5498.986)"/>
        <path id="Path_2314_1_" d="M271.8 220.945h2.045V218.9H271.8z" class="cls-3" transform="translate(574.66 5498.986)"/>
        <path id="Path_2315_1_" d="M266.2 217.745h15.341V215.7H266.2z" class="cls-1" transform="translate(573.101 5498.096)"/>
        <path id="Path_2316_1_" d="M275 217.745h2.045V215.7H275z" class="cls-3" transform="translate(575.551 5498.096)"/>
        <path id="Path_2317_1_" d="M268.6 217.745h2.045V215.7H268.6z" class="cls-3" transform="translate(573.769 5498.096)"/>
        <path id="Path_2318_1_" d="M271.8 217.745h2.045V215.7H271.8z" class="cls-3" transform="translate(574.66 5498.096)"/>
        <path id="Path_2319_1_" d="M266.2 214.545h15.341V212.5H266.2z" class="cls-1" transform="translate(573.101 5497.205)"/>
        <path id="Path_2320_1_" d="M275 214.545h2.045V212.5H275z" class="cls-3" transform="translate(575.551 5497.205)"/>
        <path id="Path_2321_1_" d="M268.6 214.545h2.045V212.5H268.6z" class="cls-3" transform="translate(573.769 5497.205)"/>
        <path id="Path_2322_1_" d="M271.8 214.545h2.045V212.5H271.8z" class="cls-3" transform="translate(574.66 5497.205)"/>
        <path id="Path_2323_1_" d="M273.681 257.477H243v-57.654a1.1 1.1 0 0 1 1.023-1.023h28.636a1.1 1.1 0 0 1 1.023 1.023z" class="cls-1" transform="translate(566.643 5493.391)"/>
        <path id="Path_2324_1_" d="M245.623 246.009a1.1 1.1 0 0 1-1.023-1.023v-41.163a1.1 1.1 0 0 1 1.023-1.023 1.1 1.1 0 0 1 1.023 1.023v41.164a1.008 1.008 0 0 1-1.023 1.023" class="cls-3" transform="translate(567.088 5494.504)"/>
        <path id="Path_2325_1_" d="M243 246.482h30.681V238.3H243z" class="cls-4" transform="translate(566.643 5504.387)"/>
        <path id="Path_2326_1_" d="M246.645 245.014v-4.091a1.1 1.1 0 0 0-1.023-1.023 1.1 1.1 0 0 0-1.023 1.023v4.091z" class="cls-5" transform="translate(567.088 5504.832)"/>
        <path id="Path_2327_1_" d="M248.823 246.009a1.1 1.1 0 0 1-1.023-1.023v-41.163a1.1 1.1 0 0 1 1.023-1.023 1.1 1.1 0 0 1 1.023 1.023v41.164a1.008 1.008 0 0 1-1.023 1.023" class="cls-3" transform="translate(567.979 5494.504)"/>
        <path id="Path_2328_1_" d="M249.845 245.014v-4.091a1.1 1.1 0 0 0-1.023-1.023 1.1 1.1 0 0 0-1.023 1.023v4.091z" class="cls-5" transform="translate(567.979 5504.832)"/>
        <path id="Path_2329_1_" d="M252.023 246.009a1.1 1.1 0 0 1-1.023-1.023v-41.163a1.1 1.1 0 0 1 1.023-1.023 1.1 1.1 0 0 1 1.023 1.023v41.164a.941.941 0 0 1-1.023 1.023" class="cls-3" transform="translate(568.87 5494.504)"/>
        <path id="Path_2330_1_" d="M253.045 245.014v-4.091a1.1 1.1 0 0 0-1.023-1.023 1.1 1.1 0 0 0-1.022 1.023v4.091z" class="cls-5" transform="translate(568.87 5504.832)"/>
        <path id="Path_2331_1_" d="M255.223 246.009a1.1 1.1 0 0 1-1.023-1.023v-41.163a1.1 1.1 0 0 1 1.023-1.023 1.1 1.1 0 0 1 1.023 1.023v41.164a.941.941 0 0 1-1.023 1.023" class="cls-3" transform="translate(569.76 5494.504)"/>
        <path id="Path_2332_1_" d="M256.245 245.014v-4.091a1.1 1.1 0 0 0-1.023-1.023 1.1 1.1 0 0 0-1.023 1.023v4.091z" class="cls-5" transform="translate(569.76 5504.832)"/>
        <path id="Path_2333_1_" d="M258.423 246.009a1.1 1.1 0 0 1-1.023-1.023v-41.163a1.1 1.1 0 0 1 1.023-1.023 1.1 1.1 0 0 1 1.023 1.023v41.164a.941.941 0 0 1-1.023 1.023" class="cls-3" transform="translate(570.651 5494.504)"/>
        <path id="Path_2334_1_" d="M259.445 245.014v-4.091a1.1 1.1 0 0 0-1.023-1.023 1.1 1.1 0 0 0-1.023 1.023v4.091z" class="cls-5" transform="translate(570.651 5504.832)"/>
        <path id="Path_2335_1_" d="M261.623 246.009a1.1 1.1 0 0 1-1.023-1.023v-41.163a1.1 1.1 0 0 1 1.023-1.023 1.1 1.1 0 0 1 1.023 1.023v41.164a.941.941 0 0 1-1.023 1.023" class="cls-3" transform="translate(571.542 5494.504)"/>
        <path id="Path_2336_1_" d="M262.645 245.014v-4.091a1.1 1.1 0 0 0-1.023-1.023 1.1 1.1 0 0 0-1.023 1.023v4.091z" class="cls-5" transform="translate(571.542 5504.832)"/>
        <path id="Path_2337_1_" d="M264.823 246.009a1.1 1.1 0 0 1-1.023-1.023v-41.163a1.1 1.1 0 0 1 1.023-1.023 1.1 1.1 0 0 1 1.023 1.023v41.164a.941.941 0 0 1-1.023 1.023" class="cls-3" transform="translate(572.433 5494.504)"/>
        <path id="Path_2338_1_" d="M265.845 245.014v-4.091a1.1 1.1 0 0 0-1.023-1.023 1.1 1.1 0 0 0-1.023 1.023v4.091z" class="cls-5" transform="translate(572.433 5504.832)"/>
        <path id="Path_2339_1_" d="M244.6 235.445h2.045V233.4H244.6z" class="cls-5" transform="translate(567.088 5503.022)"/>
        <path id="Path_2340_1_" d="M247.8 235.445h2.045V233.4H247.8z" class="cls-5" transform="translate(567.979 5503.022)"/>
        <path id="Path_2341_1_" d="M251 235.445h2.045V233.4H251z" class="cls-5" transform="translate(568.87 5503.022)"/>
        <path id="Path_2342_1_" d="M254.2 235.445h2.045V233.4H254.2z" class="cls-5" transform="translate(569.76 5503.022)"/>
        <path id="Path_2343_1_" d="M257.4 235.445h2.045V233.4H257.4z" class="cls-5" transform="translate(570.651 5503.022)"/>
        <path id="Path_2344_1_" d="M260.6 235.445h2.045V233.4H260.6z" class="cls-5" transform="translate(571.542 5503.022)"/>
        <path id="Path_2345_1_" d="M263.8 235.445h2.045V233.4H263.8z" class="cls-5" transform="translate(572.433 5503.022)"/>
        <path id="Path_2346_1_" d="M244.6 230.645h2.045V228.6H244.6z" class="cls-5" transform="translate(567.088 5501.687)"/>
        <path id="Path_2347_1_" d="M247.8 230.645h2.045V228.6H247.8z" class="cls-5" transform="translate(567.979 5501.687)"/>
        <path id="Path_2348_1_" d="M251 230.645h2.045V228.6H251z" class="cls-5" transform="translate(568.87 5501.687)"/>
        <path id="Path_2349_1_" d="M254.2 230.645h2.045V228.6H254.2z" class="cls-5" transform="translate(569.76 5501.687)"/>
        <path id="Path_2350_1_" d="M257.4 230.645h2.045V228.6H257.4z" class="cls-5" transform="translate(570.651 5501.687)"/>
        <path id="Path_2351_1_" d="M260.6 230.645h2.045V228.6H260.6z" class="cls-5" transform="translate(571.542 5501.687)"/>
        <path id="Path_2352_1_" d="M263.8 230.645h2.045V228.6H263.8z" class="cls-5" transform="translate(572.433 5501.687)"/>
        <path id="Path_2353_1_" d="M244.6 225.845h2.045V223.8H244.6z" class="cls-5" transform="translate(567.088 5500.351)"/>
        <path id="Path_2354_1_" d="M247.8 225.845h2.045V223.8H247.8z" class="cls-5" transform="translate(567.979 5500.351)"/>
        <path id="Path_2355_1_" d="M251 225.845h2.045V223.8H251z" class="cls-5" transform="translate(568.87 5500.351)"/>
        <path id="Path_2356_1_" d="M254.2 225.845h2.045V223.8H254.2z" class="cls-5" transform="translate(569.76 5500.351)"/>
        <path id="Path_2357_1_" d="M257.4 225.845h2.045V223.8H257.4z" class="cls-5" transform="translate(570.651 5500.351)"/>
        <path id="Path_2358_1_" d="M260.6 225.845h2.045V223.8H260.6z" class="cls-5" transform="translate(571.542 5500.351)"/>
        <path id="Path_2359_1_" d="M263.8 225.845h2.045V223.8H263.8z" class="cls-5" transform="translate(572.433 5500.351)"/>
        <path id="Path_2360_1_" d="M244.6 220.945h2.045V218.9H244.6z" class="cls-5" transform="translate(567.088 5498.986)"/>
        <path id="Path_2361_1_" d="M247.8 220.945h2.045V218.9H247.8z" class="cls-5" transform="translate(567.979 5498.986)"/>
        <path id="Path_2362_1_" d="M251 220.945h2.045V218.9H251z" class="cls-5" transform="translate(568.87 5498.986)"/>
        <path id="Path_2363_1_" d="M254.2 220.945h2.045V218.9H254.2z" class="cls-5" transform="translate(569.76 5498.986)"/>
        <path id="Path_2364_1_" d="M257.4 220.945h2.045V218.9H257.4z" class="cls-5" transform="translate(570.651 5498.986)"/>
        <path id="Path_2365_1_" d="M260.6 220.945h2.045V218.9H260.6z" class="cls-5" transform="translate(571.542 5498.986)"/>
        <path id="Path_2366_1_" d="M263.8 220.945h2.045V218.9H263.8z" class="cls-5" transform="translate(572.433 5498.986)"/>
        <path id="Path_2367_1_" d="M244.6 216.145h2.045V214.1H244.6z" class="cls-5" transform="translate(567.088 5497.65)"/>
        <path id="Path_2368_1_" d="M247.8 216.145h2.045V214.1H247.8z" class="cls-5" transform="translate(567.979 5497.65)"/>
        <path id="Path_2369_1_" d="M251 216.145h2.045V214.1H251z" class="cls-5" transform="translate(568.87 5497.65)"/>
        <path id="Path_2370_1_" d="M254.2 216.145h2.045V214.1H254.2z" class="cls-5" transform="translate(569.76 5497.65)"/>
        <path id="Path_2371_1_" d="M257.4 216.145h2.045V214.1H257.4z" class="cls-5" transform="translate(570.651 5497.65)"/>
        <path id="Path_2372_1_" d="M260.6 216.145h2.045V214.1H260.6z" class="cls-5" transform="translate(571.542 5497.65)"/>
        <path id="Path_2373_1_" d="M263.8 216.145h2.045V214.1H263.8z" class="cls-5" transform="translate(572.433 5497.65)"/>
        <path id="Path_2374_1_" d="M244.6 211.345h2.045V209.3H244.6z" class="cls-5" transform="translate(567.088 5496.313)"/>
        <path id="Path_2375_1_" d="M247.8 211.345h2.045V209.3H247.8z" class="cls-5" transform="translate(567.979 5496.313)"/>
        <path id="Path_2376_1_" d="M251 211.345h2.045V209.3H251z" class="cls-5" transform="translate(568.87 5496.313)"/>
        <path id="Path_2377_1_" d="M254.2 211.345h2.045V209.3H254.2z" class="cls-5" transform="translate(569.76 5496.313)"/>
        <path id="Path_2378_1_" d="M257.4 211.345h2.045V209.3H257.4z" class="cls-5" transform="translate(570.651 5496.313)"/>
        <path id="Path_2379_1_" d="M260.6 211.345h2.045V209.3H260.6z" class="cls-5" transform="translate(571.542 5496.313)"/>
        <path id="Path_2380_1_" d="M263.8 211.345h2.045V209.3H263.8z" class="cls-5" transform="translate(572.433 5496.313)"/>
        <path id="Path_2381_1_" d="M244.6 206.445h2.045V204.4H244.6z" class="cls-5" transform="translate(567.088 5494.95)"/>
        <path id="Path_2382_1_" d="M247.8 206.445h2.045V204.4H247.8z" class="cls-5" transform="translate(567.979 5494.95)"/>
        <path id="Path_2383_1_" d="M251 206.445h2.045V204.4H251z" class="cls-5" transform="translate(568.87 5494.95)"/>
        <path id="Path_2384_1_" d="M254.2 206.445h2.045V204.4H254.2z" class="cls-5" transform="translate(569.76 5494.95)"/>
        <path id="Path_2385_1_" d="M257.4 206.445h2.045V204.4H257.4z" class="cls-5" transform="translate(570.651 5494.95)"/>
        <path id="Path_2386_1_" d="M260.6 206.445h2.045V204.4H260.6z" class="cls-5" transform="translate(571.542 5494.95)"/>
        <path id="Path_2387_1_" d="M263.8 206.445h2.045V204.4H263.8z" class="cls-5" transform="translate(572.433 5494.95)"/>
        <path id="Path_2388_1_" d="M273.681 201.868H243v-2.045a1.1 1.1 0 0 1 1.023-1.023h28.636a1.1 1.1 0 0 1 1.023 1.023z" class="cls-3" transform="translate(566.643 5493.391)"/>
        <path id="Path_2389_1_" d="M289.467 245.945h-47.044a1.1 1.1 0 0 1-1.023-1.023 1.1 1.1 0 0 1 1.023-1.023h47.044a1.1 1.1 0 0 1 1.023 1.023 1.008 1.008 0 0 1-1.023 1.023" class="cls-3" transform="translate(566.197 5505.945)"/>
    </g>
</svg>
