<svg xmlns="http://www.w3.org/2000/svg" viewBox="0 0 73.521 64.897">
    <defs>
        <style>
            .cls-1{fill:#5b5d6e}.cls-2{fill:#a0b3c7}.cls-3{fill:#b0c4d9}.cls-4{fill:#ff7883}.cls-5{fill:#db5e6f}.cls-6{fill:#ebe9d9}.cls-7{fill:#cdc7ac}
        </style>
    </defs>
    <g id="bulk-documents-icon" transform="translate(-599.222 -8063.109)">
        <circle id="Ellipse_593" cx="3.174" cy="3.174" r="3.174" class="cls-1" data-name="Ellipse 593" transform="translate(663.869 8121.66)"/>
        <path id="Path_12201" d="M459.283 398.871a1.335 1.335 0 0 1-1.307-1.077l-.876-4.394h4.38l-.876 4.394a1.378 1.378 0 0 1-1.321 1.077z" class="cls-2" data-name="Path 12201" transform="translate(207.761 7726.996)"/>
        <path id="Path_12202" d="M72.3 69.616H7.653a1.256 1.256 0 0 1-1.263-1.264V23.55a3.769 3.769 0 0 0-1.12-2.685L.416 16.011a1.283 1.283 0 0 1 0-1.795 1.283 1.283 0 0 1 1.795 0l4.854 4.854a6.3 6.3 0 0 1 1.852 4.48v43.539H72.3a1.264 1.264 0 1 1 0 2.527z" class="cls-3" data-name="Path 12202" transform="translate(599.179 8052.043)"/>
        <circle id="Ellipse_594" cx="6.333" cy="6.333" r="6.333" class="cls-1" data-name="Ellipse 594" transform="translate(599.222 8115.326)"/>
        <g id="Group_3167" data-name="Group 3167" transform="translate(599.229 8065.893)">
            <circle id="Ellipse_595" cx="3.805" cy="3.805" r="3.805" class="cls-4" data-name="Ellipse 595" transform="translate(2.52 51.961)"/>
            <path id="Path_12203" d="M5.112 20.175a1.25 1.25 0 0 1-.89-.373L.416 16.011a1.283 1.283 0 0 1 0-1.795 1.283 1.283 0 0 1 1.795 0l3.805 3.805a1.257 1.257 0 0 1-.9 2.154z" class="cls-4" data-name="Path 12203" transform="translate(-.05 -13.85)"/>
        </g>
        <circle id="Ellipse_596" cx="1.264" cy="1.264" r="1.264" class="cls-5" data-name="Ellipse 596" transform="translate(604.291 8120.396)"/>
        <g id="Group_3213" data-name="Group 3213" transform="translate(616.31 8087.92)">
            <path id="Path_12327" d="M24.157 9.3v18.468a3.466 3.466 0 0 1-3.465 3.465H3.471A3.472 3.472 0 0 1 0 27.768V3.465A3.472 3.472 0 0 1 3.471 0h11.383z" class="cls-6" data-name="Path 12327"/>
            <path id="Path_12328" d="M9.151 9.3h-5.74A3.44 3.44 0 0 1 0 5.838V0" class="cls-7" data-name="Path 12328" transform="translate(15.006)"/>
            <g id="Group_3209" data-name="Group 3209" transform="translate(4.774 11.21)">
                <path id="Path_11642" d="M147.851 210.255h-14.073a.478.478 0 1 1 0-.955h14.074a.478.478 0 1 1 0 .955z" class="cls-7" data-name="Path 11642" transform="translate(-133.3 -203.727)"/>
                <path id="Path_11644" d="M147.851 119.255h-14.073a.478.478 0 1 1 0-.955h14.074a.478.478 0 1 1 0 .955z" class="cls-7" data-name="Path 11644" transform="translate(-133.3 -118.3)"/>
                <path id="Path_11645" d="M147.851 164.755h-14.073a.478.478 0 1 1 0-.955h14.074a.478.478 0 1 1 0 .955z" class="cls-7" data-name="Path 11645" transform="translate(-133.3 -161.013)"/>
            </g>
        </g>
        <g id="Group_3214" data-name="Group 3214" transform="rotate(-90 4348.553 3739.016)">
            <path id="Path_12327-2" d="M24.157 9.3v18.468a3.466 3.466 0 0 1-3.465 3.465H3.471A3.472 3.472 0 0 1 0 27.768V3.465A3.472 3.472 0 0 1 3.471 0h11.383z" class="cls-6" data-name="Path 12327"/>
            <path id="Path_12328-2" d="M9.151 9.3h-5.74A3.44 3.44 0 0 1 0 5.838V0" class="cls-7" data-name="Path 12328" transform="translate(15.006)"/>
            <g id="Group_3209-2" data-name="Group 3209" transform="translate(4.774 11.21)">
                <path id="Path_11642-2" d="M14.551.955H.478a.478.478 0 1 1 0-.955h14.073a.478.478 0 1 1 0 .955z" class="cls-7" data-name="Path 11642" transform="translate(0 5.573)"/>
                <path id="Path_11644-2" d="M14.551.955H.478a.478.478 0 1 1 0-.955h14.073a.478.478 0 1 1 0 .955z" class="cls-7" data-name="Path 11644"/>
                <path id="Path_11645-2" d="M14.551.955H.478a.478.478 0 1 1 0-.955h14.073a.478.478 0 1 1 0 .955z" class="cls-7" data-name="Path 11645" transform="translate(0 2.787)"/>
            </g>
        </g>
        <g id="Group_3215" data-name="Group 3215" transform="rotate(-90 4379.835 3739.016)">
            <path id="Path_12327-3" d="M24.157 9.3v18.468a3.466 3.466 0 0 1-3.465 3.465H3.471A3.472 3.472 0 0 1 0 27.768V3.465A3.472 3.472 0 0 1 3.471 0h11.383z" class="cls-6" data-name="Path 12327"/>
            <path id="Path_12328-3" d="M9.151 9.3h-5.74A3.44 3.44 0 0 1 0 5.838V0" class="cls-7" data-name="Path 12328" transform="translate(15.006)"/>
            <g id="Group_3209-3" data-name="Group 3209" transform="translate(4.774 11.21)">
                <path id="Path_11642-3" d="M14.551.955H.478a.478.478 0 1 1 0-.955h14.073a.478.478 0 1 1 0 .955z" class="cls-7" data-name="Path 11642" transform="translate(0 5.573)"/>
                <path id="Path_11644-3" d="M14.551.955H.478a.478.478 0 1 1 0-.955h14.073a.478.478 0 1 1 0 .955z" class="cls-7" data-name="Path 11644"/>
                <path id="Path_11645-3" d="M14.551.955H.478a.478.478 0 1 1 0-.955h14.073a.478.478 0 1 1 0 .955z" class="cls-7" data-name="Path 11645" transform="translate(0 2.787)"/>
            </g>
        </g>
        <g id="Group_3216" data-name="Group 3216" transform="translate(641.121 8063.109)">
            <path id="Path_12327-4" d="M24.157 9.3v18.468a3.466 3.466 0 0 1-3.465 3.465H3.471A3.472 3.472 0 0 1 0 27.768V3.465A3.472 3.472 0 0 1 3.471 0h11.383z" class="cls-6" data-name="Path 12327"/>
            <path id="Path_12328-4" d="M9.151 9.3h-5.74A3.44 3.44 0 0 1 0 5.838V0" class="cls-7" data-name="Path 12328" transform="translate(15.006)"/>
            <g id="Group_3209-4" data-name="Group 3209" transform="translate(4.774 11.21)">
                <path id="Path_11642-4" d="M147.851 210.255h-14.073a.478.478 0 1 1 0-.955h14.074a.478.478 0 1 1 0 .955z" class="cls-7" data-name="Path 11642" transform="translate(-133.3 -203.727)"/>
                <path id="Path_11644-4" d="M147.851 119.255h-14.073a.478.478 0 1 1 0-.955h14.074a.478.478 0 1 1 0 .955z" class="cls-7" data-name="Path 11644" transform="translate(-133.3 -118.3)"/>
                <path id="Path_11645-4" d="M147.851 164.755h-14.073a.478.478 0 1 1 0-.955h14.074a.478.478 0 1 1 0 .955z" class="cls-7" data-name="Path 11645" transform="translate(-133.3 -161.013)"/>
            </g>
        </g>
    </g>
</svg>
