<svg xmlns="http://www.w3.org/2000/svg" viewBox="0 0 46.984 59.168">
    <defs>
        <style>
            .cls-1{fill:#c7cfe2}.cls-2{fill:#707487}.cls-3{fill:#5b5d6e}.cls-4{fill:#ff6464}.cls-5{fill:#8f96ac}.cls-6{fill:#d7deed}
        </style>
    </defs>
    <g id="calculator-icon" transform="translate(-1124.828 -5520.723)">
        <path id="Path_1166_1_" d="M1078.052 1732.468h-42.8a2.047 2.047 0 0 1-2.056-2.056v-55.056a2.047 2.047 0 0 1 2.056-2.056h42.872a2.047 2.047 0 0 1 2.056 2.056v55.056a2.165 2.165 0 0 1-2.128 2.056z" class="cls-1" transform="translate(91.628 3847.423)"/>
        <path id="Path_1167_1_" d="M1080.108 1693.708H1033.2v-18.352a2.047 2.047 0 0 1 2.056-2.056h42.872a2.047 2.047 0 0 1 2.056 2.056z" class="cls-2" transform="translate(91.628 3847.423)"/>
        <path id="Path_1168_1_" d="M1043.6 1711.592h-4.112a1.008 1.008 0 0 1-.99-.99v-4.112a1.008 1.008 0 0 1 .99-.99h4.112a1.008 1.008 0 0 1 .99.99v4.112c.076.457-.381.914-.99.99z" class="cls-3" transform="translate(90.364 3839.743)"/>
        <path id="Path_1169_1_" d="M1043.6 1732.992h-4.112a1.008 1.008 0 0 1-.99-.99v-4.112a1.008 1.008 0 0 1 .99-.99h4.112a1.008 1.008 0 0 1 .99.99v4.11a.918.918 0 0 1-.99.99z" class="cls-3" transform="translate(90.364 3834.639)"/>
        <path id="Path_1170_1_" d="M1043.6 1722.292h-4.112a1.008 1.008 0 0 1-.99-.99v-4.112a1.008 1.008 0 0 1 .99-.99h4.112a1.008 1.008 0 0 1 .99.99v4.112a.918.918 0 0 1-.99.99z" class="cls-3" transform="translate(90.364 3837.191)"/>
        <path id="Path_1171_1_" d="M1043.6 1743.692h-4.112a1.008 1.008 0 0 1-.99-.99v-4.112a1.008 1.008 0 0 1 .99-.99h4.112a1.008 1.008 0 0 1 .99.99v4.112a.918.918 0 0 1-.99.99z" class="cls-4" transform="translate(90.364 3832.087)"/>
        <path id="Path_1172_1_" d="M1054.3 1711.592h-4.112a1.008 1.008 0 0 1-.99-.99v-4.112a1.008 1.008 0 0 1 .99-.99h4.112a1.008 1.008 0 0 1 .99.99v4.112a.918.918 0 0 1-.99.99z" class="cls-5" transform="translate(87.812 3839.743)"/>
        <path id="Path_1173_1_" d="M1054.3 1732.992h-4.112a1.008 1.008 0 0 1-.99-.99v-4.112a1.008 1.008 0 0 1 .99-.99h4.112a1.008 1.008 0 0 1 .99.99v4.11a.918.918 0 0 1-.99.992z" class="cls-5" transform="translate(87.812 3834.639)"/>
        <path id="Path_1174_1_" d="M1054.3 1722.292h-4.112a1.008 1.008 0 0 1-.99-.99v-4.112a1.008 1.008 0 0 1 .99-.99h4.112a1.008 1.008 0 0 1 .99.99v4.112a.918.918 0 0 1-.99.99z" class="cls-5" transform="translate(87.812 3837.191)"/>
        <path id="Path_1175_1_" d="M1054.3 1743.692h-4.112a1.008 1.008 0 0 1-.99-.99v-4.112a1.008 1.008 0 0 1 .99-.99h4.112a1.008 1.008 0 0 1 .99.99v4.112a.918.918 0 0 1-.99.99z" class="cls-5" transform="translate(87.812 3832.087)"/>
        <path id="Path_1176_1_" d="M1065.1 1711.592h-4.112a1.008 1.008 0 0 1-.99-.99v-4.112a1.008 1.008 0 0 1 .99-.99h4.112a1.008 1.008 0 0 1 .99.99v4.112a1.008 1.008 0 0 1-.99.99z" class="cls-5" transform="translate(85.236 3839.743)"/>
        <path id="Path_1177_1_" d="M1065.1 1732.992h-4.112a1.008 1.008 0 0 1-.99-.99v-4.112a1.008 1.008 0 0 1 .99-.99h4.112a1.008 1.008 0 0 1 .99.99v4.11a1.008 1.008 0 0 1-.99.992z" class="cls-5" transform="translate(85.236 3834.639)"/>
        <path id="Path_1178_1_" d="M1065.1 1722.292h-4.112a1.008 1.008 0 0 1-.99-.99v-4.112a1.008 1.008 0 0 1 .99-.99h4.112a1.008 1.008 0 0 1 .99.99v4.112a1.008 1.008 0 0 1-.99.99z" class="cls-5" transform="translate(85.236 3837.191)"/>
        <path id="Path_1179_1_" d="M1065.1 1743.692h-4.112a1.008 1.008 0 0 1-.99-.99v-4.112a1.008 1.008 0 0 1 .99-.99h4.112a1.008 1.008 0 0 1 .99.99v4.112a1.008 1.008 0 0 1-.99.99z" class="cls-5" transform="translate(85.236 3832.087)"/>
        <path id="Path_1180_1_" d="M1075.8 1711.592h-4.112a1.008 1.008 0 0 1-.99-.99v-4.112a1.008 1.008 0 0 1 .99-.99h4.112a1.008 1.008 0 0 1 .99.99v4.112a1.008 1.008 0 0 1-.99.99z" class="cls-5" transform="translate(82.684 3839.743)"/>
        <path id="Path_1181_1_" d="M1075.8 1732.992h-4.112a1.008 1.008 0 0 1-.99-.99v-4.112a1.008 1.008 0 0 1 .99-.99h4.112a1.008 1.008 0 0 1 .99.99v4.11a1.008 1.008 0 0 1-.99.992z" class="cls-5" transform="translate(82.684 3834.639)"/>
        <path id="Path_1182_1_" d="M1075.8 1722.292h-4.112a1.008 1.008 0 0 1-.99-.99v-4.112a1.008 1.008 0 0 1 .99-.99h4.112a1.008 1.008 0 0 1 .99.99v4.112a1.008 1.008 0 0 1-.99.99z" class="cls-5" transform="translate(82.684 3837.191)"/>
        <path id="Path_1183_1_" d="M1075.8 1743.692h-4.112a1.008 1.008 0 0 1-.99-.99v-4.112a1.008 1.008 0 0 1 .99-.99h4.112a1.008 1.008 0 0 1 .99.99v4.112a1.008 1.008 0 0 1-.99.99z" class="cls-3" transform="translate(82.684 3832.087)"/>
        <path id="Path_1184_1_" d="M1086.5 1711.592h-4.112a1.008 1.008 0 0 1-.99-.99v-4.112a1.008 1.008 0 0 1 .99-.99h4.112a1.008 1.008 0 0 1 .99.99v4.112a1.13 1.13 0 0 1-.99.99z" class="cls-3" transform="translate(80.132 3839.743)"/>
        <path id="Path_1185_1_" d="M1086.5 1722.292h-4.112a1.008 1.008 0 0 1-.99-.99v-4.112a1.008 1.008 0 0 1 .99-.99h4.112a1.008 1.008 0 0 1 .99.99v4.112a1.008 1.008 0 0 1-.99.99z" class="cls-3" transform="translate(80.132 3837.191)"/>
        <path id="Path_1186_1_" d="M1086.5 1741.14h-4.112a1.008 1.008 0 0 1-.99-.99v-12.26a1.008 1.008 0 0 1 .99-.99h4.112a1.008 1.008 0 0 1 .99.99v12.26a1.008 1.008 0 0 1-.99.99z" class="cls-3" transform="translate(80.132 3834.639)"/>
        <path id="Path_1187_1_" d="M1076.294 1688.828h-36.7a1.008 1.008 0 0 1-.99-.99v-8.148a1.008 1.008 0 0 1 .99-.99h36.7a1.008 1.008 0 0 1 .99.99v8.148a1.008 1.008 0 0 1-.99.99z" class="cls-6" transform="translate(90.34 3846.135)"/>
        <path id="Path_1188_1_" d="M1044.246 1687.392h-2.056a1.008 1.008 0 0 1-.99-.99v-4.112a1.008 1.008 0 0 1 .99-.99h2.056a1.008 1.008 0 0 1 .99.99v4.112a.918.918 0 0 1-.99.99z" class="cls-1" transform="translate(89.72 3845.515)"/>
        <path id="Path_1189_1_" d="M1052.346 1687.392h-2.056a1.008 1.008 0 0 1-.99-.99v-4.112a1.008 1.008 0 0 1 .99-.99h2.056a1.008 1.008 0 0 1 .99.99v4.112a1.008 1.008 0 0 1-.99.99z" class="cls-1" transform="translate(87.788 3845.515)"/>
        <path id="Path_1190_1_" d="M1060.346 1687.392h-2.056a1.008 1.008 0 0 1-.99-.99v-4.112a1.008 1.008 0 0 1 .99-.99h2.056a1.008 1.008 0 0 1 .99.99v4.112a.96.96 0 0 1-.99.99z" class="cls-1" transform="translate(85.88 3845.515)"/>
        <path id="Path_1191_1_" d="M1068.346 1687.392h-2.056a1.008 1.008 0 0 1-.99-.99v-4.112a1.008 1.008 0 0 1 .99-.99h2.056a1.008 1.008 0 0 1 .99.99v4.112a.918.918 0 0 1-.99.99z" class="cls-1" transform="translate(83.972 3845.515)"/>
        <path id="Path_1192_1_" d="M1076.446 1687.392h-2.056a1.008 1.008 0 0 1-.99-.99v-4.112a1.008 1.008 0 0 1 .99-.99h2.056a1.008 1.008 0 0 1 .99.99v4.112a1.008 1.008 0 0 1-.99.99z" class="cls-5" transform="translate(82.04 3845.515)"/>
        <path id="Path_1193_1_" d="M1084.446 1687.392h-2.056a1.008 1.008 0 0 1-.99-.99v-4.112a1.008 1.008 0 0 1 .99-.99h2.056a1.008 1.008 0 0 1 .99.99v4.112a.918.918 0 0 1-.99.99z" class="cls-5" transform="translate(80.132 3845.515)"/>
        <path id="Rectangle_1032_1_" d="M1033.2 1696.1h46.908v3.046H1033.2z" class="cls-3" transform="translate(91.628 3841.985)"/>
    </g>
</svg>
