<svg xmlns="http://www.w3.org/2000/svg" viewBox="0 0 67.568 59.123">
    <defs>
        <style>
            .cls-1{fill:#f3f1f1}.cls-2{fill:#ff7883}.cls-3{fill:#e6e3e2}.cls-4{fill:#c6c6c6}.cls-5{fill:#db5e6f}
        </style>
    </defs>
    <g id="calendar-icon" transform="translate(-1160.382 -3971.293)">
        <g id="Group_1978" data-name="Group 1978" transform="translate(1160.382 3971.293)">
            <path id="Path_11798" d="M0 112v40.119a4.219 4.219 0 0 0 4.223 4.223H54.9l12.669-12.669V112z" class="cls-1" data-name="Path 11798" transform="translate(0 -97.219)"/>
            <path id="Path_11799" d="M67.569 34.112A2.118 2.118 0 0 0 65.457 32H2.112A2.118 2.118 0 0 0 0 34.112v8.446h67.569z" class="cls-2" data-name="Path 11799" transform="translate(0 -27.777)"/>
            <g id="Group_1970" data-name="Group 1970" transform="translate(23.227 23.227)">
                <path id="Path_11800" d="M177.056 176h2.112a1.059 1.059 0 0 1 1.056 1.056v2.112a1.059 1.059 0 0 1-1.056 1.056h-2.112a1.059 1.059 0 0 1-1.056-1.057v-2.112a1.059 1.059 0 0 1 1.056-1.055z" class="cls-3" data-name="Path 11800" transform="translate(-176 -176)"/>
                <path id="Path_11801" d="M241.056 176h2.112a1.059 1.059 0 0 1 1.056 1.056v2.112a1.059 1.059 0 0 1-1.056 1.056h-2.112a1.059 1.059 0 0 1-1.056-1.057v-2.112a1.059 1.059 0 0 1 1.056-1.055z" class="cls-3" data-name="Path 11801" transform="translate(-231.554 -176)"/>
                <path id="Path_11802" d="M305.056 176h2.112a1.059 1.059 0 0 1 1.056 1.056v2.112a1.059 1.059 0 0 1-1.056 1.056h-2.112a1.059 1.059 0 0 1-1.056-1.057v-2.112a1.059 1.059 0 0 1 1.056-1.055z" class="cls-3" data-name="Path 11802" transform="translate(-287.108 -176)"/>
            </g>
            <g id="Group_1971" data-name="Group 1971" transform="translate(48.565 23.227)">
                <path id="Path_11803" d="M369.056 176h2.112a1.059 1.059 0 0 1 1.056 1.056v2.112a1.059 1.059 0 0 1-1.056 1.056h-2.112a1.059 1.059 0 0 1-1.056-1.057v-2.112a1.059 1.059 0 0 1 1.056-1.055z" class="cls-3" data-name="Path 11803" transform="translate(-368 -176)"/>
                <path id="Path_11804" d="M433.056 176h2.112a1.059 1.059 0 0 1 1.056 1.056v2.112a1.059 1.059 0 0 1-1.056 1.056h-2.112a1.059 1.059 0 0 1-1.056-1.057v-2.112a1.059 1.059 0 0 1 1.056-1.055z" class="cls-3" data-name="Path 11804" transform="translate(-423.554 -176)"/>
            </g>
            <g id="Group_1972" data-name="Group 1972" transform="translate(6.335 30.617)">
                <path id="Path_11805" d="M49.056 232h2.112a1.059 1.059 0 0 1 1.056 1.056v2.112a1.059 1.059 0 0 1-1.056 1.056h-2.112A1.059 1.059 0 0 1 48 235.167v-2.112A1.059 1.059 0 0 1 49.056 232z" class="cls-3" data-name="Path 11805" transform="translate(-48 -232)"/>
                <path id="Path_12266" d="M49.056 232h2.112a1.059 1.059 0 0 1 1.056 1.056v2.112a1.059 1.059 0 0 1-1.056 1.056h-2.112A1.059 1.059 0 0 1 48 235.167v-2.112A1.059 1.059 0 0 1 49.056 232z" class="cls-3" data-name="Path 12266" transform="translate(-48 -224.687)"/>
                <path id="Path_12268" d="M49.056 232h2.112a1.059 1.059 0 0 1 1.056 1.056v2.112a1.059 1.059 0 0 1-1.056 1.056h-2.112A1.059 1.059 0 0 1 48 235.167v-2.112A1.059 1.059 0 0 1 49.056 232z" class="cls-3" data-name="Path 12268" transform="translate(-48 -217.375)"/>
                <path id="Path_11806" d="M113.056 232h2.112a1.059 1.059 0 0 1 1.056 1.056v2.112a1.059 1.059 0 0 1-1.056 1.056h-2.112a1.059 1.059 0 0 1-1.056-1.057v-2.112a1.059 1.059 0 0 1 1.056-1.055z" class="cls-3" data-name="Path 11806" transform="translate(-103.554 -232)"/>
                <path id="Path_12265" d="M113.056 232h2.112a1.059 1.059 0 0 1 1.056 1.056v2.112a1.059 1.059 0 0 1-1.056 1.056h-2.112a1.059 1.059 0 0 1-1.056-1.057v-2.112a1.059 1.059 0 0 1 1.056-1.055z" class="cls-3" data-name="Path 12265" transform="translate(-103.554 -224.687)"/>
                <path id="Path_12267" d="M113.056 232h2.112a1.059 1.059 0 0 1 1.056 1.056v2.112a1.059 1.059 0 0 1-1.056 1.056h-2.112a1.059 1.059 0 0 1-1.056-1.057v-2.112a1.059 1.059 0 0 1 1.056-1.055z" class="cls-3" data-name="Path 12267" transform="translate(-103.554 -217.375)"/>
                <path id="Path_11807" d="M177.056 232h2.112a1.059 1.059 0 0 1 1.056 1.056v2.112a1.059 1.059 0 0 1-1.056 1.056h-2.112a1.059 1.059 0 0 1-1.056-1.057v-2.112a1.059 1.059 0 0 1 1.056-1.055z" class="cls-3" data-name="Path 11807" transform="translate(-159.108 -232)"/>
                <path id="Path_11808" d="M241.056 232h2.112a1.059 1.059 0 0 1 1.056 1.056v2.112a1.059 1.059 0 0 1-1.056 1.056h-2.112a1.059 1.059 0 0 1-1.056-1.057v-2.112a1.059 1.059 0 0 1 1.056-1.055z" class="cls-3" data-name="Path 11808" transform="translate(-214.662 -232)"/>
                <path id="Path_11809" d="M305.056 232h2.112a1.059 1.059 0 0 1 1.056 1.056v2.112a1.059 1.059 0 0 1-1.056 1.056h-2.112a1.059 1.059 0 0 1-1.056-1.057v-2.112a1.059 1.059 0 0 1 1.056-1.055z" class="cls-3" data-name="Path 11809" transform="translate(-270.216 -232)"/>
            </g>
            <g id="Group_1973" data-name="Group 1973" transform="translate(48.565 30.617)">
                <path id="Path_11810" d="M369.056 232h2.112a1.059 1.059 0 0 1 1.056 1.056v2.112a1.059 1.059 0 0 1-1.056 1.056h-2.112a1.059 1.059 0 0 1-1.056-1.057v-2.112a1.059 1.059 0 0 1 1.056-1.055z" class="cls-3" data-name="Path 11810" transform="translate(-368 -232)"/>
                <path id="Path_11811" d="M433.056 232h2.112a1.059 1.059 0 0 1 1.056 1.056v2.112a1.059 1.059 0 0 1-1.056 1.056h-2.112a1.059 1.059 0 0 1-1.056-1.057v-2.112a1.059 1.059 0 0 1 1.056-1.055z" class="cls-3" data-name="Path 11811" transform="translate(-423.554 -232)"/>
            </g>
            <g id="Group_1974" data-name="Group 1974" transform="translate(23.227 38.007)">
                <path id="Path_11814" d="M177.056 288h2.112a1.059 1.059 0 0 1 1.056 1.056v2.112a1.059 1.059 0 0 1-1.056 1.056h-2.112a1.059 1.059 0 0 1-1.056-1.057v-2.112a1.059 1.059 0 0 1 1.056-1.055z" class="cls-3" data-name="Path 11814" transform="translate(-176 -288)"/>
                <path id="Path_11815" d="M241.056 288h2.112a1.059 1.059 0 0 1 1.056 1.056v2.112a1.059 1.059 0 0 1-1.056 1.056h-2.112a1.059 1.059 0 0 1-1.056-1.057v-2.112a1.059 1.059 0 0 1 1.056-1.055z" class="cls-3" data-name="Path 11815" transform="translate(-231.554 -288)"/>
                <path id="Path_11816" d="M305.056 288h2.112a1.059 1.059 0 0 1 1.056 1.056v2.112a1.059 1.059 0 0 1-1.056 1.056h-2.112a1.059 1.059 0 0 1-1.056-1.057v-2.112a1.059 1.059 0 0 1 1.056-1.055z" class="cls-3" data-name="Path 11816" transform="translate(-287.108 -288)"/>
            </g>
            <g id="Group_1975" data-name="Group 1975" transform="translate(48.565 38.007)">
                <path id="Path_11817" d="M369.056 288h2.112a1.059 1.059 0 0 1 1.056 1.056v2.112a1.059 1.059 0 0 1-1.056 1.056h-2.112a1.059 1.059 0 0 1-1.056-1.057v-2.112a1.059 1.059 0 0 1 1.056-1.055z" class="cls-3" data-name="Path 11817" transform="translate(-368 -288)"/>
                <path id="Path_11818" d="M433.056 288h2.112a1.059 1.059 0 0 1 1.056 1.056v2.112a1.059 1.059 0 0 1-1.056 1.056h-2.112a1.059 1.059 0 0 1-1.056-1.057v-2.112a1.059 1.059 0 0 1 1.056-1.055z" class="cls-3" data-name="Path 11818" transform="translate(-423.554 -288)"/>
            </g>
            <g id="Group_1976" data-name="Group 1976" transform="translate(23.227 45.398)">
                <path id="Path_11821" d="M177.056 344h2.112a1.059 1.059 0 0 1 1.056 1.056v2.112a1.059 1.059 0 0 1-1.056 1.056h-2.112a1.059 1.059 0 0 1-1.056-1.057v-2.112a1.059 1.059 0 0 1 1.056-1.055z" class="cls-3" data-name="Path 11821" transform="translate(-176 -344)"/>
                <path id="Path_11822" d="M241.056 344h2.112a1.059 1.059 0 0 1 1.056 1.056v2.112a1.059 1.059 0 0 1-1.056 1.056h-2.112a1.059 1.059 0 0 1-1.056-1.057v-2.112a1.059 1.059 0 0 1 1.056-1.055z" class="cls-3" data-name="Path 11822" transform="translate(-231.554 -344)"/>
                <path id="Path_11823" d="M305.056 344h2.112a1.059 1.059 0 0 1 1.056 1.056v2.112a1.059 1.059 0 0 1-1.056 1.056h-2.112a1.059 1.059 0 0 1-1.056-1.057v-2.112a1.059 1.059 0 0 1 1.056-1.055z" class="cls-3" data-name="Path 11823" transform="translate(-287.108 -344)"/>
            </g>
            <path id="Path_11824" d="M416 356.223v8.446L428.669 352h-8.446a4.219 4.219 0 0 0-4.223 4.223z" class="cls-4" data-name="Path 11824" transform="translate(-361.1 -305.546)"/>
            <g id="Group_1977" data-name="Group 1977" transform="translate(0 14.781)">
                <path id="Path_11825" d="M77.583 389.094a4.239 4.239 0 0 1-2.983 1.241H34.112A2.118 2.118 0 0 0 32 392.446h50.677V384z" class="cls-3" data-name="Path 11825" transform="translate(-27.777 -348.104)"/>
                <path id="Path_11826" d="M0 112a2.118 2.118 0 0 0 2.112 2.112H64.4a1.059 1.059 0 0 1 1.056 1.056v28.506h2.112V112z" class="cls-3" data-name="Path 11826" transform="translate(0 -112)"/>
            </g>
            <circle id="Ellipse_54" cx="3.167" cy="3.167" r="3.167" class="cls-5" data-name="Ellipse 54" transform="translate(30.617 5.279)"/>
            <path id="Path_11827" d="M242.112 0a2.118 2.118 0 0 1 2.112 2.112V7.39a2.118 2.118 0 0 1-2.112 2.11A2.118 2.118 0 0 1 240 7.39V2.112A2.118 2.118 0 0 1 242.112 0z" class="cls-1" data-name="Path 11827" transform="translate(-208.327)"/>
            <path id="Path_11828" d="M258.112 14.335V9.056a1.056 1.056 0 1 0-2.112 0v7.39a2.118 2.118 0 0 0 2.112-2.111z" class="cls-4" data-name="Path 11828" transform="translate(-222.216 -6.944)"/>
            <circle id="Ellipse_55" cx="3.167" cy="3.167" r="3.167" class="cls-5" data-name="Ellipse 55" transform="translate(11.613 5.279)"/>
            <path id="Path_11829" d="M98.112 0a2.118 2.118 0 0 1 2.112 2.112V7.39a2.118 2.118 0 0 1-2.112 2.11A2.118 2.118 0 0 1 96 7.39V2.112A2.118 2.118 0 0 1 98.112 0z" class="cls-1" data-name="Path 11829" transform="translate(-83.331)"/>
            <path id="Path_11830" d="M114.112 14.335V9.056a1.056 1.056 0 0 0-2.112 0v7.39a2.118 2.118 0 0 0 2.112-2.111z" class="cls-4" data-name="Path 11830" transform="translate(-97.219 -6.944)"/>
            <circle id="Ellipse_56" cx="3.167" cy="3.167" r="3.167" class="cls-5" data-name="Ellipse 56" transform="translate(49.621 5.279)"/>
            <path id="Path_11831" d="M386.112 0a2.118 2.118 0 0 1 2.112 2.112V7.39a2.118 2.118 0 0 1-2.112 2.11A2.118 2.118 0 0 1 384 7.39V2.112A2.118 2.118 0 0 1 386.112 0z" class="cls-1" data-name="Path 11831" transform="translate(-333.323)"/>
            <path id="Path_11832" d="M402.112 14.335V9.056a1.056 1.056 0 0 0-2.112 0v7.39a2.118 2.118 0 0 0 2.112-2.111z" class="cls-4" data-name="Path 11832" transform="translate(-347.212 -6.944)"/>
        </g>
    </g>
</svg>
