<svg xmlns="http://www.w3.org/2000/svg" viewBox="0 0 71.093 60.475">
    <defs>
        <style>
            .cls-1{fill:#82716f}.cls-2{fill:none}.cls-3{fill:#db5e6f}.cls-4{fill:#ff7883}.cls-5{fill:#3e9a88}.cls-6{fill:#46b19c}.cls-7{fill:#4482c3}.cls-8{fill:#4e96e2}.cls-9{fill:#ffb357}.cls-10{fill:#ffc44f}
        </style>
    </defs>
    <g id="merkle-tree-icon" transform="translate(-1198.8 -3427.906)">
        <path id="Path_2221_1_" d="M583.171 225.076L569.185 198.4l-3.367 1.683 13.468 25.77-24.086 17.482 2.2 2.978 24.347-17.613 29.4 17.741 1.942-3.108z" class="cls-1" transform="translate(650.074 3236.111)"/>
        <path id="Path_2222_1_" d="M550.2 253.775h71.093V193.3H550.2z" class="cls-2" transform="translate(648.599 3234.606)"/>
        <path id="Path_2223_1_" d="M577.942 212.5a9.713 9.713 0 1 1-9.842 9.712 9.728 9.728 0 0 1 9.842-9.712" class="cls-3" transform="translate(653.879 3240.27)"/>
        <path id="Path_2224_1_" d="M577.263 214.8a6.882 6.882 0 0 1 6.863 6.734 6.8 6.8 0 0 1-6.863 6.734 6.882 6.882 0 0 1-6.863-6.734 6.8 6.8 0 0 1 6.863-6.734" class="cls-4" transform="translate(654.557 3240.948)"/>
        <path id="Path_2225_1_" d="M566.44 193.3a7.6 7.6 0 0 1 7.64 7.381 7.436 7.436 0 0 1-7.64 7.381 7.6 7.6 0 0 1-7.64-7.381 7.692 7.692 0 0 1 7.64-7.381" class="cls-5" transform="translate(651.136 3234.606)"/>
        <path id="Path_2226_1_" d="M565.909 195.1a5.4 5.4 0 0 1 5.309 5.18 5.224 5.224 0 0 1-5.309 5.18 5.4 5.4 0 0 1-5.309-5.18 5.3 5.3 0 0 1 5.309-5.18" class="cls-6" transform="translate(651.667 3235.137)"/>
        <path id="Path_2227_1_" d="M600.94 228.5a7.6 7.6 0 0 1 7.64 7.381 7.436 7.436 0 0 1-7.64 7.381 7.386 7.386 0 1 1 0-14.763" class="cls-7" transform="translate(661.312 3244.989)"/>
        <path id="Path_2228_1_" d="M600.409 230.3a5.4 5.4 0 0 1 5.309 5.18 5.224 5.224 0 0 1-5.309 5.18 5.4 5.4 0 0 1-5.309-5.18 5.219 5.219 0 0 1 5.309-5.18" class="cls-8" transform="translate(661.843 3245.519)"/>
        <path id="Path_2229_1_" d="M557.84 228.5a7.6 7.6 0 0 1 7.64 7.381 7.436 7.436 0 0 1-7.64 7.381 7.6 7.6 0 0 1-7.64-7.381 7.519 7.519 0 0 1 7.64-7.381" class="cls-9" transform="translate(648.599 3244.989)"/>
        <path id="Path_2230_1_" d="M557.309 230.3a5.4 5.4 0 0 1 5.309 5.18 5.224 5.224 0 0 1-5.309 5.18 5.4 5.4 0 0 1-5.309-5.18 5.068 5.068 0 0 1 5.309-5.18" class="cls-10" transform="translate(649.13 3245.519)"/>
    </g>
</svg>
