<?xml version="1.0" encoding="iso-8859-1"?>
<!-- Generator: Adobe Illustrator 19.0.0, SVG Export Plug-In . SVG Version: 6.00 Build 0)  -->
<svg version="1.1" id="Layer_1" xmlns="http://www.w3.org/2000/svg" xmlns:xlink="http://www.w3.org/1999/xlink" x="0px" y="0px"
	 viewBox="0 0 512 512" style="enable-background:new 0 0 512 512;" xml:space="preserve">
<g transform="translate(0 -0.957)">
	<path style="fill:#E64C3C;" d="M512,256.957c0,141.383-114.617,256-256,256S0,398.34,0,256.957s114.617-256,256-256
		S512,115.574,512,256.957"/>
	<g>
		<path style="fill:#FFFFFF;" d="M206.324,69.048c-3.937,0-7.53-2.648-8.545-6.638c-1.209-4.732,1.642-9.543,6.365-10.743
			c17.028-4.343,34.472-6.559,51.844-6.568h0.009c4.873,0,8.828,3.946,8.828,8.819c0.009,4.873-3.937,8.828-8.819,8.836
			c-15.907,0.009-31.885,2.039-47.492,6.02C207.78,68.959,207.048,69.048,206.324,69.048"/>
		<path style="fill:#FFFFFF;" d="M75.431,172.841c-1.359,0-2.745-0.318-4.034-0.98c-4.334-2.233-6.038-7.556-3.805-11.891
			c20.798-40.386,55.172-73.684,96.786-93.767c4.387-2.11,9.666-0.274,11.794,4.122c2.11,4.387,0.274,9.666-4.122,11.785
			c-38.179,18.423-69.711,48.94-88.761,85.945C81.716,171.093,78.635,172.841,75.431,172.841"/>
		<path style="fill:#FFFFFF;" d="M52.966,265.785L52.966,265.785c-4.882,0-8.828-3.955-8.828-8.828
			c0.009-19.341,2.622-38.524,7.759-57.009c1.306-4.696,6.162-7.433,10.876-6.135c4.696,1.306,7.442,6.17,6.135,10.867
			c-4.714,16.949-7.106,34.534-7.115,52.277C61.793,261.839,57.838,265.785,52.966,265.785"/>
		<path style="fill:#FFFFFF;" d="M256,468.819c-4.873,0-8.828-3.946-8.828-8.828c0-4.873,3.946-8.828,8.828-8.828
			c16.993-0.009,34.004-2.313,50.556-6.841c4.661-1.298,9.551,1.483,10.84,6.188c1.289,4.696-1.483,9.551-6.188,10.84
			C293.146,466.294,274.573,468.81,256,468.819z"/>
		<path style="fill:#FFFFFF;" d="M349.828,445.518c-3.178,0-6.25-1.721-7.83-4.732c-2.26-4.317-0.6-9.649,3.725-11.917
			c37.959-19.906,68.661-51.88,86.44-90.041c2.066-4.423,7.318-6.347,11.732-4.273c4.414,2.057,6.329,7.3,4.273,11.723
			c-19.403,41.657-52.877,76.535-94.252,98.233C352.608,445.191,351.205,445.518,349.828,445.518"/>
		<path style="fill:#FFFFFF;" d="M453.681,312.34c-0.671,0-1.342-0.071-2.022-0.23c-4.749-1.121-7.698-5.87-6.585-10.62
			c3.399-14.442,5.12-29.431,5.129-44.544c0.009-4.873,3.964-8.819,8.828-8.819h0.009c4.882,0.009,8.828,3.964,8.819,8.836
			c-0.009,16.463-1.889,32.803-5.588,48.569C461.308,309.595,457.689,312.34,453.681,312.34"/>
		<path style="fill:#FFFFFF;" d="M314.138,341.565c-6.78,0-13.559-2.578-18.723-7.742l-39.415-39.415l-39.415,39.415
			c-10.328,10.319-27.118,10.319-37.447,0c-10.328-10.328-10.328-27.127,0-37.455l39.415-39.406l-39.415-39.415
			c-10.328-10.328-10.328-27.127,0-37.455c10.328-10.319,27.118-10.319,37.447,0l39.415,39.415l39.415-39.415
			c10.328-10.319,27.118-10.319,37.447,0c10.328,10.328,10.328,27.127,0,37.455l-39.415,39.415l39.415,39.406
			c10.328,10.328,10.328,27.127,0,37.455C327.697,338.987,320.917,341.565,314.138,341.565"/>
	</g>
	<path style="fill:#EC7063;" d="M256,0.957c4.44,0,8.854,0.115,13.241,0.335C134.012,8.187,26.483,120.015,26.483,256.957
		s107.529,248.77,242.759,255.665c-4.387,0.221-8.801,0.336-13.241,0.336c-141.383,0-256-114.617-256-256S114.617,0.957,256,0.957"
		/>
	<path style="fill:#AD392D;" d="M256,0.957c-4.44,0-8.854,0.115-13.241,0.335c135.23,6.894,242.759,118.722,242.759,255.665
		s-107.529,248.77-242.759,255.665c4.387,0.221,8.801,0.336,13.241,0.336c141.383,0,256-114.617,256-256S397.383,0.957,256,0.957"/>
</g>
<g>
</g>
<g>
</g>
<g>
</g>
<g>
</g>
<g>
</g>
<g>
</g>
<g>
</g>
<g>
</g>
<g>
</g>
<g>
</g>
<g>
</g>
<g>
</g>
<g>
</g>
<g>
</g>
<g>
</g>
</svg>
