<svg xmlns="http://www.w3.org/2000/svg" viewBox="0 0 71.688 70.818">
    <defs>
        <style>
            .cls-1{fill:#e6e3e2}.cls-2{fill:#c6c6c6}.cls-3{fill:#c2c5c7}.cls-4{fill:#b2b5b7}.cls-5{fill:#f3f1f1}.cls-6{fill:#ecf0f9}.cls-7{fill:#595a66}.cls-8{fill:#d5e3ef}.cls-9{fill:#6f707e}.cls-10{fill:#494a52}.cls-11{fill:#35363e}
        </style>
    </defs>
    <g id="database-clock-icon" transform="translate(-1204.646 -1420.105)">
        <g id="Group_1981_1_" transform="translate(1219.303 1420.105)">
            <path id="Subtraction_10_1_" d="M28.454 72.578a60.194 60.194 0 0 1-11.592-1.054 19.1 19.1 0 0 0 1.738-7.81 18.3 18.3 0 0 0-1.488-7.253 18.272 18.272 0 0 0-3.967-5.889A18.967 18.967 0 0 0 7.253 46.6 18.3 18.3 0 0 0 0 45.116V19.7h56.97v40.666a6.839 6.839 0 0 1-2.232 4.773 20.368 20.368 0 0 1-6.075 3.905 41.964 41.964 0 0 1-9.051 2.6 67.764 67.764 0 0 1-11.158.934z" class="cls-1" transform="translate(0 -7.488)"/>
            <path id="Path_11834_1_" d="M77.546 43.391a2.046 2.046 0 1 0-2.046-2.045 1.987 1.987 0 0 0 2.046 2.045zm0 10.229a2.046 2.046 0 1 0 2.046 2.046 2.064 2.064 0 0 0-2.046-2.046zm0 14.2a2.046 2.046 0 1 0 2.046 2.046 2.064 2.064 0 0 0-2.046-2.05z" class="cls-2" transform="translate(-28.697 -14.938)"/>
            <path id="Subtraction_12_1_" d="M28.454 67.778a57.926 57.926 0 0 1-10.352-.93c-.186-.806-.434-1.55-.682-2.294a60.611 60.611 0 0 0 11.1 1.054 49.861 49.861 0 0 0 19.341-3.533c5.269-2.232 8.431-5.269 9.051-8.555a6.831 6.831 0 0 1 .124 1.116 7.668 7.668 0 0 1-2.236 5.145 18.3 18.3 0 0 1-6.075 4.153 39.192 39.192 0 0 1-9.051 2.79 57.746 57.746 0 0 1-11.22 1.054zm0-14.2a55.623 55.623 0 0 1-11.1-1.054 39.358 39.358 0 0 1-9.051-2.852 18.778 18.778 0 0 1-6.075-4.215A7.668 7.668 0 0 1 0 40.316 6.831 6.831 0 0 1 .124 39.2c.558 3.286 3.781 6.323 9.051 8.555a51.032 51.032 0 0 0 19.341 3.533 51.065 51.065 0 0 0 19.341-3.471c5.269-2.232 8.431-5.269 9.051-8.555a6.831 6.831 0 0 1 .124 1.116 7.668 7.668 0 0 1-2.232 5.145 18.3 18.3 0 0 1-6.075 4.153 39.193 39.193 0 0 1-9.051 2.79 57.864 57.864 0 0 1-11.22 1.116z" class="cls-2" transform="translate(0 -14.9)"/>
            <path id="Subtraction_11_1_" d="M6.137 46.07A18.779 18.779 0 0 0 0 45.016V19.6h6.137v26.47z" class="cls-3" transform="translate(0 -7.45)"/>
            <g id="Group_1981-2_1_" transform="translate(.023 24.39)">
                <path id="Path_11837_1_" d="M6.075 9.237V7C2.728 5.021.558 2.666.124 0A6.831 6.831 0 0 0 0 1.116C0 4.215 2.294 7 6.075 9.237z" class="cls-4"/>
            </g>
            <path id="Path_11838_1_" d="M28.454 0C44.2 0 56.908 5.455 56.908 12.212S44.2 24.424 28.454 24.424 0 18.969 0 12.212 12.77 0 28.454 0z" class="cls-5"/>
        </g>
        <g id="Group_3307" data-name="Group 3307" transform="translate(1204.646 1461.661)">
            <ellipse id="Ellipse_597" cx="11.973" cy="11.973" class="cls-6" data-name="Ellipse 597" rx="11.973" ry="11.973" transform="translate(2.658 2.657)"/>
            <path id="Path_12206" d="M14.631 0a14.631 14.631 0 1 0 14.63 14.631A14.586 14.586 0 0 0 14.631 0zm0 26.6A11.973 11.973 0 1 1 26.6 14.631 12.01 12.01 0 0 1 14.631 26.6z" class="cls-7" data-name="Path 12206"/>
            <path id="Path_12207" d="M47.5 59.473A12.01 12.01 0 0 1 59.473 47.5a11.537 11.537 0 0 1 7.915 3.058 11.642 11.642 0 0 0-8.91-4.058A12.011 12.011 0 0 0 46.5 58.473a11.642 11.642 0 0 0 4.058 8.91 11.513 11.513 0 0 1-3.058-7.91z" class="cls-8" data-name="Path 12207" transform="translate(-43.842 -43.843)"/>
            <path id="Path_12214" d="M14.631 0A14.586 14.586 0 0 0 0 14.631a1.376 1.376 0 0 0 1.394-1.263 13.415 13.415 0 0 1 3.927-8.247 13.177 13.177 0 0 1 8.047-3.726A1.376 1.376 0 0 0 14.631 0z" class="cls-9" data-name="Path 12214"/>
            <path id="Path_12215" d="M256 270.631A14.586 14.586 0 0 0 270.631 256a1.376 1.376 0 0 0-1.395 1.263 13.256 13.256 0 0 1-11.973 11.973 1.376 1.376 0 0 0-1.263 1.395z" class="cls-10" data-name="Path 12215" transform="translate(-241.369 -241.369)"/>
            <g id="Group_3184" data-name="Group 3184" transform="translate(13.967 7.321)">
                <path id="Path_12216" d="M245.063 134.747a.627.627 0 0 1-.663-.663v-5.321a.663.663 0 0 1 1.326 0v5.321a.627.627 0 0 1-.663.663z" class="cls-7" data-name="Path 12216" transform="translate(-244.4 -128.1)"/>
                <path id="Path_12217" d="M261.96 262.629a.6.6 0 0 1-.463-.2l-5.321-5.321a.659.659 0 1 1 .932-.932l5.321 5.321a.639.639 0 0 1 0 .932.622.622 0 0 1-.469.2z" class="cls-7" data-name="Path 12217" transform="translate(-255.313 -248.667)"/>
            </g>
            <g id="Group_3186" data-name="Group 3186" transform="translate(14.631 7.978)">
                <path id="Path_12218" d="M256 144.589v-4.658a.312.312 0 0 1 .332-.331.312.312 0 0 1 .331.331v4.658a.312.312 0 0 1-.331.331.312.312 0 0 1-.332-.331z" class="cls-11" data-name="Path 12218" transform="translate(-256 -139.6)"/>
                <path id="Path_12219" d="M274.063 282.726l-4.589-4.589a.321.321 0 0 1 0-.463.321.321 0 0 1 .463 0l4.589 4.589a.321.321 0 0 1 0 .463.321.321 0 0 1-.463 0z" class="cls-11" data-name="Path 12219" transform="translate(-268.611 -269.69)"/>
            </g>
            <ellipse id="Ellipse_606" cx="1.995" cy="1.995" class="cls-7" data-name="Ellipse 606" rx="1.995" ry="1.995" transform="translate(12.636 12.636)"/>
            <path id="Path_12220" d="M228.589 225.7a2.044 2.044 0 0 1-1.726 3.058 2.7 2.7 0 0 1-1.063-.269 2.179 2.179 0 0 0 1.732.932 1.957 1.957 0 0 0 1.995-1.995 2.2 2.2 0 0 0-.938-1.726z" class="cls-10" data-name="Path 12220" transform="translate(-212.895 -212.801)"/>
            <ellipse id="Ellipse_607" cx=".331" cy=".331" class="cls-9" data-name="Ellipse 607" rx=".331" ry=".331" transform="translate(13.299 13.968)"/>
        </g>
    </g>
</svg>
