<svg xmlns="http://www.w3.org/2000/svg" viewBox="0 0 73.052 68.952">
    <defs>
        <style>
            .cls-1{fill:#ffc44f}.cls-2{fill:#6f707e}.cls-3{fill:#576384}.cls-4{fill:#dfe5f0}.cls-5{fill:#d5e3ef}.cls-6{fill:#c6c6c6}.cls-7{fill:#a8a7a7}.cls-8{fill:#b0c4d9}.cls-9{fill:#ebe9d9}.cls-10{fill:#cdc7ac}
        </style>
    </defs>
    <g id="laptop-document-icon" transform="translate(-415.007 -5508.102)">
        <g id="share-documents-icon" transform="translate(415.007 5508.102)">
            <path id="Path_976_1_" d="M57.4 61.328a.9.9 0 0 1-.9-.9V59.7a.9.9 0 0 1 1.794 0v.734a1.035 1.035 0 0 1-.894.894z" class="cls-1" transform="translate(-32.446 -35.591)"/>
            <path id="Path_977_1_" d="M57.4 53.414a.9.9 0 0 1-.9-.9v-1.465a.9.9 0 0 1 1.794 0v1.468a.9.9 0 0 1-.894.897zm0-5.952a.9.9 0 0 1-.9-.9V45.1a.9.9 0 0 1 1.794 0v1.468a.9.9 0 0 1-.9.9z" class="cls-1" transform="translate(-32.446 -32.895)"/>
            <path id="Path_978_1_" d="M57.4 40.328a.9.9 0 0 1-.9-.9V38.7a.9.9 0 0 1 .9-.9h.734a.9.9 0 0 1 .9.9 5.19 5.19 0 0 1-1.634 1.628z" class="cls-1" transform="translate(-32.446 -31.713)"/>
            <path id="Path_979_1_" d="M66.209 39.694H64.5a.9.9 0 0 1 0-1.794h1.712a.9.9 0 1 1 0 1.794z" class="cls-1" transform="translate(-33.757 -31.732)"/>
            <path id="Union_18" d="M2.094 1.794a.876.876 0 0 1-.24-.034.755.755 0 0 1-.222.034H.9A.9.9 0 0 1 0 .9.9.9 0 0 1 .9 0h.734a.887.887 0 0 1 .232.031A.872.872 0 0 1 2.094 0h.734a.9.9 0 0 1 .9.9.964.964 0 0 1-.9.9z" class="cls-1" data-name="Union 18" transform="translate(36.61 6.168)"/>
            <path id="Union_19" d="M2.094 1.794a.876.876 0 0 1-.24-.034.755.755 0 0 1-.222.034H.9A.9.9 0 0 1 0 .9.9.9 0 0 1 .9 0h.734a.887.887 0 0 1 .232.031A.872.872 0 0 1 2.094 0h.734a.9.9 0 0 1 .9.9.964.964 0 0 1-.9.9z" class="cls-1" data-name="Union 19" transform="translate(42.594 6.168)"/>
            <path id="Path_981_1_" d="M94.336 65.476v37.589H30.9V65.476a4.2 4.2 0 0 1 4.321-4.076H90.1a4.123 4.123 0 0 1 4.24 4.077z" class="cls-2" transform="translate(-27.72 -36.07)"/>
            <path id="Rectangle_998_1_" d="M30.9 104.6h63.436v6.36H30.9z" class="cls-3" transform="translate(-27.72 -44.047)"/>
            <path id="Path_982_1_" d="M101.809 65.889v16.342H75.283a3.258 3.258 0 0 1-3.083-3.412V61.4h25.309a4.328 4.328 0 0 1 4.3 4.489z" class="cls-3" transform="translate(-35.193 -36.07)"/>
            <path id="Path_983_1_" d="M91.182 67.178v35.143H35.9V67.178a.991.991 0 0 1 .978-.978h53.489a.918.918 0 0 1 .815.978z" class="cls-4" transform="translate(-28.643 -36.957)"/>
            <path id="Rectangle_999_1_" d="M35.9 104.6h55.364v4.811H35.9z" class="cls-5" transform="translate(-28.643 -44.047)"/>
            <path id="Path_985_1_" d="M96.8 107.978v2.691a2.749 2.749 0 0 1-2.772 2.772H29.772A2.749 2.749 0 0 1 27 110.669v-2.691a.991.991 0 0 1 .978-.978h67.839a.991.991 0 0 1 .978.978z" class="cls-6" transform="translate(-27 -44.49)"/>
            <path id="Path_986_1_" d="M77.514 107l-1.549 2.772a.9.9 0 0 1-.815.489H60.065a.9.9 0 0 1-.815-.489L57.7 107z" class="cls-7" transform="translate(-32.668 -44.49)"/>
            <path id="Path_987_1_" d="M102.523 111.846a1.254 1.254 0 0 1-1.223-1.223 1.239 1.239 0 0 1 1.142-1.223 1.2 1.2 0 0 1 1.223 1.223 1.134 1.134 0 0 1-1.142 1.223z" class="cls-7" transform="translate(-40.718 -44.933)"/>
            <path id="Path_988_1_" d="M98.523 111.846a1.254 1.254 0 0 1-1.223-1.223 1.239 1.239 0 0 1 1.142-1.223 1.254 1.254 0 0 1 1.223 1.223 1.134 1.134 0 0 1-1.142 1.223z" class="cls-7" transform="translate(-39.979 -44.933)"/>
            <path id="Path_996_1_" d="M42.8 74.612h21.6a.838.838 0 0 0 .815-.9.877.877 0 0 0-.815-.812H42.8a.958.958 0 0 0-.9.815.964.964 0 0 0 .9.897z" class="cls-8" transform="translate(-29.751 -38.194)"/>
            <path id="Path_997_1_" d="M42.795 83.012H64.4a.857.857 0 1 0 .082-1.712H42.795a.838.838 0 0 0-.9.815.814.814 0 0 0 .9.9z" class="cls-8" transform="translate(-29.749 -39.745)"/>
            <path id="Path_998_1_" d="M86.438 98.3H64.83a.3.3 0 0 0-.245.082c-.082 0-.163-.082-.245-.082H42.815a.838.838 0 0 0-.815.9.877.877 0 0 0 .815.815h21.608a.3.3 0 0 0 .245-.082c.082 0 .163.082.245.082h21.606a.958.958 0 0 0 .9-.815.973.973 0 0 0-.978-.9z" class="cls-8" transform="translate(-29.769 -42.883)"/>
            <path id="Path_999_1_" d="M64.567 89.782c-.082 0-.163-.082-.245-.082H42.8a.958.958 0 0 0-.9.815.964.964 0 0 0 .9.9h21.6a.3.3 0 0 0 .245-.082c.082 0 .163.082.245.082H86.5a.958.958 0 0 0 .9-.815.964.964 0 0 0-.9-.9H64.812a.3.3 0 0 1-.245.082z" class="cls-8" transform="translate(-29.751 -41.296)"/>
            <path id="Subtraction_12" d="M25.4 17.009H4.254C1.908 17.009 0 14.746 0 11.965V0h25.532v17.006h-.045z" class="cls-5" data-name="Subtraction 12" transform="translate(37.007 29.243)"/>
            <g id="Group_3326" data-name="Group 3326" transform="translate(38.204)">
                <g id="Group_1950" data-name="Group 1950">
                    <path id="Path_11646" d="M0 13.42v26.637a5 5 0 0 0 5 5h24.84a5.008 5.008 0 0 0 5.007-5V5a5.008 5.008 0 0 0-5.007-5H13.42z" class="cls-9" data-name="Path 11646"/>
                    <path id="Path_11649" d="M0 13.42h8.413a5 5 0 0 0 5-5V0" class="cls-10" data-name="Path 11649"/>
                    <g id="Group_1953" data-name="Group 1953" transform="translate(6.887 16.172)">
                        <path id="Path_11642" d="M154.291 210.678h-20.3a.689.689 0 1 1 0-1.378h20.3a.689.689 0 0 1 0 1.378z" class="cls-10" data-name="Path 11642" transform="translate(-133.3 -201.26)"/>
                        <path id="Path_11644" d="M154.291 119.678h-20.3a.689.689 0 1 1 0-1.378h20.3a.689.689 0 0 1 0 1.378z" class="cls-10" data-name="Path 11644" transform="translate(-133.3 -118.3)"/>
                        <path id="Path_11645" d="M154.291 165.178h-20.3a.689.689 0 0 1 0-1.378h20.3a.689.689 0 0 1 0 1.378z" class="cls-10" data-name="Path 11645" transform="translate(-133.3 -159.78)"/>
                    </g>
                </g>
            </g>
        </g>
    </g>
</svg>
