<svg xmlns="http://www.w3.org/2000/svg" viewBox="0 0 63.176 59.7">
    <defs>
        <style>
            .cls-1{fill:#c6c6c6}.cls-2{fill:#e6e3e2}.cls-3{fill:#595a66}.cls-4{fill:#6f707e}
        </style>
    </defs>
    <g id="imac-icon" transform="translate(-419.176 -5692.191)">
        <path id="Path_2520_1_" d="M1140.006 245.988h-23.458a.267.267 0 0 1-.248-.248c0-.124 0-.124.124-.248l1.986-1.365a6.6 6.6 0 0 0 2.482-6.826h14.77a6.6 6.6 0 0 0 2.482 6.826l1.986 1.365c.124.124.124.248-.124.5" class="cls-1" transform="translate(-677.514 5502.676)"/>
        <path id="Path_2521_1_" d="M1159.828 246.585h-55.48a3.867 3.867 0 0 1-3.848-3.848v-40.09a3.867 3.867 0 0 1 3.848-3.848h55.48a3.867 3.867 0 0 1 3.848 3.848v40.09a3.866 3.866 0 0 1-3.848 3.848" class="cls-2" transform="translate(-681.324 5493.391)"/>
        <path id="Path_2522_1_" d="M1163.551 236.88H1100.5v-34.132a3.867 3.867 0 0 1 3.848-3.848h55.48a3.867 3.867 0 0 1 3.848 3.848l-.124 34.132z" class="cls-3" transform="translate(-681.324 5493.415)"/>
        <path id="Path_2523_1_" d="M1104.2 208.06a.885.885 0 0 0 .745-.372l4.344-4.344a1.132 1.132 0 0 0 0-1.489 1.132 1.132 0 0 0-1.489 0l-4.344 4.344a1.132 1.132 0 0 0 0 1.489 1.073 1.073 0 0 0 .745.372" class="cls-4" transform="translate(-680.679 5494.061)"/>
        <path id="Path_2524_1_" d="M1104.2 211.926a.885.885 0 0 0 .745-.372l2.234-2.11a1.132 1.132 0 0 0 0-1.489 1.132 1.132 0 0 0-1.489 0l-2.234 2.11a1.132 1.132 0 0 0 0 1.489 1.073 1.073 0 0 0 .745.372" class="cls-4" transform="translate(-680.679 5495.531)"/>
        <path id="Path_2525_1_" d="M1106.972 206.154a1.073 1.073 0 0 0-.372.745.885.885 0 0 0 .372.745 1.073 1.073 0 0 0 .745.372.884.884 0 0 0 .745-.372 1.073 1.073 0 0 0 .372-.745.884.884 0 0 0-.372-.745 1.129 1.129 0 0 0-1.489 0" class="cls-4" transform="translate(-679.853 5495.098)"/>
        <path id="Path_2526_1_" d="M1108.772 206.571a1.073 1.073 0 0 0 .745.372.884.884 0 0 0 .745-.372l3.227-3.227a1.132 1.132 0 0 0 0-1.489 1.133 1.133 0 0 0-1.489 0l-3.227 3.227a.931.931 0 0 0 0 1.489" class="cls-4" transform="translate(-679.419 5494.061)"/>
        <path id="Path_2527_1_" d="M1113.26 206.272l-9.805 9.805a1.132 1.132 0 0 0 0 1.489 1.073 1.073 0 0 0 .745.372.885.885 0 0 0 .745-.372l9.805-9.805a1.132 1.132 0 0 0 0-1.489.929.929 0 0 0-1.489 0" class="cls-4" transform="translate(-680.679 5495.104)"/>
        <path id="Path_2528_1_" d="M1113.172 204.454a1.073 1.073 0 0 0-.372.745.884.884 0 0 0 .372.745 1.073 1.073 0 0 0 .745.372.884.884 0 0 0 .745-.372 1.073 1.073 0 0 0 .372-.745.885.885 0 0 0-.372-.745 1.132 1.132 0 0 0-1.489 0" class="cls-4" transform="translate(-678.358 5494.688)"/>
        <path id="Path_2529_1_" d="M1117.461 201.854a1.132 1.132 0 0 0-1.489 0l-1.117 1.117a1.133 1.133 0 0 0 0 1.489 1.073 1.073 0 0 0 .745.372.885.885 0 0 0 .745-.372l1.117-1.117a.931.931 0 0 0 0-1.489" class="cls-4" transform="translate(-677.93 5494.061)"/>
        <path id="Path_2530_1_" d="M1141.161 247.527h-24.947a1.614 1.614 0 1 1 0-3.227h24.947a1.643 1.643 0 0 1 1.614 1.614 1.565 1.565 0 0 1-1.614 1.613" class="cls-2" transform="translate(-677.924 5504.364)"/>
    </g>
</svg>
