<?xml version="1.0" encoding="utf-8"?>
<!-- Generator: Adobe Illustrator 22.1.0, SVG Export Plug-In . SVG Version: 6.00 Build 0)  -->
<svg version="1.1" id="Layer_1" xmlns="http://www.w3.org/2000/svg" xmlns:xlink="http://www.w3.org/1999/xlink" x="0px" y="0px"
	 viewBox="0 0 41.2 52.2" style="enable-background:new 0 0 41.2 52.2;" xml:space="preserve">
<style type="text/css">
	.st0{fill:#EBE9D9;}
	.st1{fill:none;}
	.st2{fill:#CDC7AC;}
</style>
<g id="document-icon" transform="translate(-176.898 -51.958)">
	<path id="Path_1854" class="st0" d="M176.9,52v52.2h41.2V64.5L205.3,52H176.9z"/>
	<path id="Path_1855" class="st1" d="M176.9,104.1h41.2V52h-41.2V104.1z"/>
	<path id="Path_1856" class="st2" d="M186,72.6h22.9c0.5,0,0.9-0.4,0.9-0.9c0,0,0,0,0,0c0-0.5-0.4-0.9-0.9-0.9c0,0,0,0,0,0H186
		c-0.5,0-0.9,0.4-0.9,0.9c0,0,0,0,0,0C185.1,72.2,185.5,72.6,186,72.6C186,72.6,186,72.6,186,72.6"/>
	<path id="Path_1857" class="st2" d="M186,65.4h9.1c0.5,0,0.9-0.4,0.9-0.9c0,0,0,0,0,0c0-0.5-0.4-0.9-0.9-0.9c0,0,0,0,0,0H186
		c-0.5,0-0.9,0.4-0.9,0.9c0,0,0,0,0,0C185.1,65,185.5,65.5,186,65.4C186,65.4,186,65.4,186,65.4"/>
	<path id="Path_1858" class="st2" d="M208.9,78H186c-0.5,0-0.9,0.4-0.9,0.9c0,0,0,0,0,0c0,0.5,0.4,0.9,0.9,0.9c0,0,0,0,0,0h22.9
		c0.5,0,0.9-0.4,0.9-0.9c0,0,0,0,0,0C209.8,78.4,209.4,78,208.9,78C208.9,78,208.9,78,208.9,78"/>
	<path id="Path_1859" class="st2" d="M208.9,85.2H186c-0.5,0-0.9,0.4-0.9,0.9c0,0,0,0,0,0c0,0.5,0.4,0.9,0.9,0.9c0,0,0,0,0,0h22.9
		c0.5,0,0.9-0.4,0.9-0.9c0,0,0,0,0,0C209.8,85.6,209.4,85.2,208.9,85.2C208.9,85.2,208.9,85.2,208.9,85.2"/>
	<path id="Path_1860" class="st2" d="M208.9,92.4H186c-0.5,0-0.9,0.4-0.9,0.9c0,0,0,0,0,0c0,0.5,0.4,0.9,0.9,0.9c0,0,0,0,0,0h22.9
		c0.5,0,0.9-0.4,0.9-0.9c0,0,0,0,0,0C209.8,92.8,209.4,92.4,208.9,92.4C208.9,92.4,208.9,92.4,208.9,92.4"/>
	<path id="Path_1861" class="st2" d="M205.3,52v12.6h12.8L205.3,52z"/>
</g>
</svg>
