<?xml version="1.0" encoding="utf-8"?>
<!-- Generator: Adobe Illustrator 22.1.0, SVG Export Plug-In . SVG Version: 6.00 Build 0)  -->
<svg version="1.1" id="Layer_1" xmlns="http://www.w3.org/2000/svg" xmlns:xlink="http://www.w3.org/1999/xlink" x="0px" y="0px"
	 viewBox="0 0 86.7 77.6" style="enable-background:new 0 0 86.7 77.6;" xml:space="preserve">
<style type="text/css">
	.st0{fill:#EFEBDE;}
	.st1{fill:#D5D0BB;}
	.st2{fill:#57D3D0;}
	.st3{fill:#ACB3BA;}
	.st4{fill:#324A5E;}
	.st5{fill:#2B3B4E;}
	.st6{fill:#E6E9EE;}
</style>
<g id="will-icon" transform="translate(-111.349 -1673.564)">
	<path id="Path_944" class="st0" d="M171.4,1692.3l-18.7-18.7h-41.4v77.4h60V1692.3z"/>
	<path id="Path_945" class="st1" d="M124.7,1704.3h33.4c0.7,0,1.3-0.6,1.3-1.3s-0.6-1.3-1.3-1.3h-33.4c-0.7,0-1.3,0.6-1.3,1.3
		S124,1704.3,124.7,1704.3z"/>
	<path id="Path_946" class="st1" d="M124.7,1693.6h13.4c0.7,0,1.3-0.6,1.3-1.3s-0.6-1.3-1.3-1.3h-13.4c-0.7,0-1.3,0.6-1.3,1.3
		S124,1693.6,124.7,1693.6z"/>
	<path id="Path_947" class="st1" d="M158.1,1712.3h-33.4c-0.7,0-1.3,0.6-1.3,1.3s0.6,1.3,1.3,1.3h33.4c0.7,0,1.3-0.6,1.3-1.3
		S158.8,1712.3,158.1,1712.3L158.1,1712.3z"/>
	<path id="Path_948" class="st1" d="M158.1,1722.9h-33.4c-0.7,0-1.3,0.6-1.3,1.3c0,0.7,0.6,1.3,1.3,1.3l0,0h33.4
		c0.7,0,1.3-0.6,1.3-1.3C159.4,1723.5,158.8,1722.9,158.1,1722.9L158.1,1722.9z"/>
	<path id="Path_950" class="st1" d="M152.7,1673.6v18.7h18.7L152.7,1673.6z"/>
	<path id="Path_1001" class="st2" d="M191.8,1680.2h-6.7v-4.6c0-1.1,0.9-2,2-2h2.8c1.1,0,2,0.9,2,2L191.8,1680.2z"/>
	<path id="Path_1002" class="st3" d="M198,1708.2h-1.8v-21.4h-2.4v-2.3h4.1V1708.2z"/>
	<path id="Path_1003" class="st4" d="M193.9,1726.9v-45.3c0.1-0.7-0.4-1.4-1.1-1.4h-8.4c-0.7,0.1-1.2,0.7-1.1,1.4v45.3
		c0,3.7,0.4,7.3,1,10.9h8.6C193.5,1734.2,193.9,1730.6,193.9,1726.9z"/>
	<path id="Path_1004" class="st5" d="M188.5,1751.2c0.4-0.8,0.7-1.7,1.1-2.5h-2.2C187.8,1749.5,188.1,1750.3,188.5,1751.2z"/>
	<path id="Path_1005" class="st6" d="M184.2,1737.9c0.7,3.7,1.8,7.3,3.2,10.8h2.2c1.4-3.5,2.5-7.1,3.2-10.8H184.2z"/>
	<path id="Rectangle_1000" class="st3" d="M185.1,1689.3h2.5v39.5h-2.5V1689.3z"/>
	<path id="Path_1007" class="st2" d="M144.7,1746.1c-0.6,0.1-1.1-0.3-1.3-0.8c-0.4-0.8-0.1-1.8,0.6-2.3c0.1-0.1,0.4-0.3,0.6-0.4
		c0.1,0,0.1-0.1,0.3-0.1c0.7-0.7,1.1-1.5,1.2-2.4c0.6-2.5,1-5.1,1.2-7.7c0-0.3,0.3-0.5,0.6-0.6c0.3,0,0.6,0.2,0.7,0.6
		c0.6,2.3,1,4.6,1.3,6.9c0.3-0.3,0.6-0.5,1-0.7c0.2-0.2,0.6-0.2,0.8,0v0.1l2-1.2c0.2-0.1,0.5-0.1,0.7,0c0.2,0.1,0.3,0.3,0.3,0.6v0.7
		c0.1,0,0.3,0,0.3,0.1c0.3,0.3,0.4,0.7,0.1,1.1c1.1-0.8,2-1.6,3-2.4c2.2-2,4.6-3.8,7.2-5.2c0.3-0.1,0.7,0,0.8,0.3
		c0.1,0.3,0,0.6-0.3,0.8c-2.4,1.5-4.8,3.2-6.9,5c-1.6,1.4-3.4,2.7-5.2,3.9c-0.5,0.4-1,0.8-1.5,1.2c-1.2,0.7-2.5,1.1-3.9,1.2h-0.7
		c-0.4,0-0.7-0.3-0.7-0.6c0,0,0-0.1,0-0.1c0-0.3,0.2-0.6,0.6-0.7h0.7c0.8-0.2,1.6-0.5,2.3-0.8c0.6-0.3,1-0.6,1.5-0.8
		c-0.1-0.1-0.1-0.2-0.1-0.4c0,0,0,0,0.1-0.1c0.1-0.8,0.6-1.5,1.2-2v-0.3l-1.1,0.7c-0.3,0.2-0.6,0.3-1,0.3c-0.1,0-0.1,0-0.3-0.1
		c-0.7,0.6-1.5,1.1-2.3,1.6c-0.3,0.1-0.7,0.1-0.8-0.1c-0.2-0.2-0.2-0.5-0.1-0.7c0-0.3,0.2-0.7,0.6-0.8c0.1,0,0.1-0.1,0.3-0.1
		l0.1-0.1v-0.1c-0.1-1-0.3-2-0.6-3c-0.1,1.3-0.4,2.7-0.8,3.9c-0.2,1.2-0.8,2.4-1.8,3.1c-0.1,0.1-0.3,0.1-0.4,0.3
		c-0.1,0.1-0.3,0.1-0.4,0.3c-0.2,0.2-0.3,0.5-0.3,0.8c0.1,0.1,0.2,0.1,0.3,0.1c0.3-0.3,0.7-0.4,1-0.1c0.2,0.2,0.3,0.5,0.2,0.8
		C145.7,1746,145.3,1746.1,144.7,1746.1L144.7,1746.1z"/>
</g>
</svg>
