<svg xmlns="http://www.w3.org/2000/svg" viewBox="0 0 70.52 60.179">
    <defs>
        <style>
            .cls-1{fill:#ebe9d9}.cls-2{fill:#cdc7ac}.cls-3{fill:#ff9c38}.cls-4{fill:#ffdfa7}.cls-5{fill:#ffd791}.cls-6{fill:#ffc44f}.cls-7{fill:#ffb357}.cls-8{fill:#82716f}.cls-9{fill:#ff7883}.cls-10{fill:#db5e6f}
        </style>
    </defs>
    <g id="document-sign-icon" transform="translate(-807.932 -5516.906)">
        <g id="Group_1950" data-name="Group 1950" transform="translate(807.931 5516.906)">
            <path id="Path_11646" d="M0 17.924V53.5a6.679 6.679 0 0 0 6.676 6.676h33.181a6.689 6.689 0 0 0 6.688-6.676V6.676A6.689 6.689 0 0 0 39.857 0H17.924z" class="cls-1" data-name="Path 11646"/>
            <path id="Path_11649" d="M0 17.924h11.237a6.679 6.679 0 0 0 6.676-6.676V0" class="cls-2" data-name="Path 11649"/>
            <g id="Group_1953" data-name="Group 1953" transform="translate(9.199 21.6)">
                <path id="Path_11642" d="M161.337 211.141H134.22a.92.92 0 0 1 0-1.841h27.117a.92.92 0 0 1 0 1.841z" class="cls-2" data-name="Path 11642" transform="translate(-133.3 -198.562)"/>
                <path id="Path_11644" d="M161.337 120.141H134.22a.92.92 0 0 1 0-1.841h27.117a.92.92 0 0 1 0 1.841z" class="cls-2" data-name="Path 11644" transform="translate(-133.3 -118.3)"/>
                <path id="Path_11645" d="M161.337 165.641H134.22a.92.92 0 0 1 0-1.841h27.117a.92.92 0 0 1 0 1.841z" class="cls-2" data-name="Path 11645" transform="translate(-133.3 -158.431)"/>
            </g>
            <g id="Group_1958" data-name="Group 1958" transform="translate(26.382 2.95)">
                <g id="Group_1960" data-name="Group 1960">
                    <path id="Path_11764" d="M136.817 384.07a.993.993 0 0 1-.669-.27.942.942 0 0 1 0-1.326l1.326-1.326a.938.938 0 1 1 1.326 1.326l-1.326 1.326a.923.923 0 0 1-.657.27z" class="cls-3" data-name="Path 11764" transform="translate(-135.875 -339.936)"/>
                    <path id="Path_11765" d="M151.437 307.237a.933.933 0 0 1 .857.258l5.316 5.316a.965.965 0 0 1 .258.857.928.928 0 0 1-.587.681l-8.625 3.321a.935.935 0 0 1-1.209-1.209l3.321-8.625a.87.87 0 0 1 .669-.599z" class="cls-4" data-name="Path 11765" transform="translate(-146.036 -274.92)"/>
                    <path id="Path_11766" d="M155.855 345.037a.978.978 0 0 0 .587-.681.933.933 0 0 0-.258-.857l1.326 1.326a.965.965 0 0 1 .258.857.928.928 0 0 1-.587.681l-8.625 3.321a.935.935 0 0 1-1.209-1.209l.07-.188z" class="cls-5" data-name="Path 11766" transform="translate(-145.948 -306.947)"/>
                    <path id="Path_11767" d="M215.644 33.373a4.7 4.7 0 0 1 0 6.642l-31.2 31.191-6.644-6.642L209 33.373a4.7 4.7 0 0 1 6.644 0z" class="cls-6" data-name="Path 11767" transform="translate(-172.88 -32)"/>
                    <path id="Path_11768" d="M254.9 38.6a5.06 5.06 0 0 1 .728.6 4.7 4.7 0 0 1 0 6.642l-31.2 31.191L223.1 75.7l31.2-31.191a4.732 4.732 0 0 0 .6-5.909z" class="cls-7" data-name="Path 11768" transform="translate(-212.864 -37.826)"/>
                    <path id="Path_11769" d="M312.274 48.175a.951.951 0 0 1-.669-1.608l10.62-10.62a.942.942 0 0 1 1.326 0L326.2 38.6a.938.938 0 1 1-1.326 1.326l-1.995-1.995-9.963 9.963a.863.863 0 0 1-.642.281z" class="cls-8" data-name="Path 11769" transform="translate(-290.75 -35.244)"/>
                    <path id="Path_11770" d="M350.6 33.464a4.752 4.752 0 0 1-.141 6.618L337.242 53.3l-6.642-6.646 13.272-13.272a4.708 4.708 0 0 1 6.728.082z" class="cls-9" data-name="Path 11770" transform="translate(-307.75 -32.009)"/>
                    <g id="Group_1962" data-name="Group 1962" transform="translate(28.166 .775)">
                        <path id="Path_11771" d="M389.759 38.6a4.024 4.024 0 0 1 .81.681 4.752 4.752 0 0 1-.141 6.618l-13.2 13.213-1.328-1.326 13.213-13.213a4.774 4.774 0 0 0 .646-5.973z" class="cls-10" data-name="Path 11771" transform="translate(-375.9 -38.6)"/>
                        <path id="Path_11772" d="M442.317 83.513a.993.993 0 0 1-.669-.27.942.942 0 0 1 0-1.326l.669-.669a.938.938 0 0 1 1.326 1.326l-.669.669a.943.943 0 0 1-.657.27z" class="cls-10" data-name="Path 11772" transform="translate(-433.692 -76.002)"/>
                        <path id="Path_11773" d="M419.717 106.113a.992.992 0 0 1-.669-.27.942.942 0 0 1 0-1.326l.669-.669a.938.938 0 1 1 1.326 1.326l-.669.669a.9.9 0 0 1-.657.27z" class="cls-10" data-name="Path 11773" transform="translate(-413.744 -95.95)"/>
                        <path id="Path_11774" d="M397.017 128.813a.993.993 0 0 1-.669-.27.942.942 0 0 1 0-1.326l.669-.669a.938.938 0 1 1 1.326 1.326l-.669.669a.923.923 0 0 1-.657.27z" class="cls-10" data-name="Path 11774" transform="translate(-393.708 -115.987)"/>
                    </g>
                </g>
            </g>
        </g>
        <path id="Path_1007_1_" d="M144.354 1742.756a.929.929 0 0 1-1-.613 1.429 1.429 0 0 1 .46-1.762 2.379 2.379 0 0 1 .46-.307c.077 0 .077-.077.23-.077a3.025 3.025 0 0 0 .919-1.839 37.829 37.829 0 0 0 .919-5.9c0-.23.23-.383.46-.46a.56.56 0 0 1 .536.46 42.748 42.748 0 0 1 1 5.287 2.751 2.751 0 0 1 .766-.536.466.466 0 0 1 .613 0v.077l1.532-.919a.654.654 0 0 1 .536 0 .463.463 0 0 1 .23.46v.536c.077 0 .23 0 .23.077a.6.6 0 0 1 .077.843c.843-.613 1.532-1.226 2.3-1.839a28.054 28.054 0 0 1 5.516-3.984.483.483 0 0 1 .613.23.514.514 0 0 1-.23.613 44.305 44.305 0 0 0-5.287 3.831 38.6 38.6 0 0 1-3.984 2.988l-1.149.919a6.816 6.816 0 0 1-2.988.919h-.536a.512.512 0 0 1-.536-.46v-.077a.56.56 0 0 1 .46-.536h.536a11.905 11.905 0 0 0 1.762-.613c.46-.23.766-.46 1.149-.613-.077-.077-.077-.153-.077-.307l.077-.077a2.466 2.466 0 0 1 .919-1.532v-.23l-.843.536a1.3 1.3 0 0 1-.766.23c-.077 0-.077 0-.23-.077a14.43 14.43 0 0 1-1.762 1.226c-.23.077-.536.077-.613-.077a.472.472 0 0 1-.077-.536.642.642 0 0 1 .46-.613c.077 0 .077-.077.23-.077l.077-.077v-.077a12.216 12.216 0 0 0-.46-2.3 12.937 12.937 0 0 1-.613 2.988 3.616 3.616 0 0 1-1.379 2.375c-.077.077-.23.077-.306.23-.077.077-.23.077-.306.23a.87.87 0 0 0-.23.613.281.281 0 0 0 .23.077.517.517 0 0 1 .766-.077.6.6 0 0 1 .153.613c-.077.153-.383.23-.843.23z" class="cls-6" transform="translate(674.16 3825.227)"/>
    </g>
</svg>
