<svg xmlns="http://www.w3.org/2000/svg" viewBox="0 0 71.942 70.94">
    <defs>
        <style>
            .cls-1{fill:#e6e3e2}.cls-2{fill:#c6c6c6}.cls-3{fill:#c2c5c7}.cls-4{fill:#b2b5b7}.cls-5{fill:#f3f1f1}.cls-6{fill:#db5e6f}.cls-7{fill:#fff}
        </style>
    </defs>
    <g id="fail-database" transform="translate(-1204.392 -1419.983)">
        <g id="Group_1981_1_" transform="translate(1219.12 1419.983)">
            <path id="Subtraction_10_1_" d="M28.545 72.747a60.386 60.386 0 0 1-11.63-1.057 19.165 19.165 0 0 0 1.741-7.836 18.358 18.358 0 0 0-1.493-7.276 18.331 18.331 0 0 0-3.98-5.908 19.028 19.028 0 0 0-5.908-3.98A18.357 18.357 0 0 0 0 45.2V19.7h57.151v40.8a6.861 6.861 0 0 1-2.239 4.789 20.433 20.433 0 0 1-6.094 3.911 42.1 42.1 0 0 1-9.08 2.612 67.98 67.98 0 0 1-11.193.935z" class="cls-1" transform="translate(0 -7.449)"/>
            <path id="Path_11834_1_" d="M77.552 43.4a2.052 2.052 0 1 0-2.052-2.048 1.994 1.994 0 0 0 2.052 2.048zm0 10.261a2.052 2.052 0 1 0 2.048 2.057 2.07 2.07 0 0 0-2.052-2.052zm0 14.241a2.052 2.052 0 1 0 2.048 2.057 2.07 2.07 0 0 0-2.048-2.052z" class="cls-2" transform="translate(-28.547 -14.86)"/>
            <path id="Subtraction_12_1_" d="M28.545 67.869a58.11 58.11 0 0 1-10.386-.933c-.187-.808-.435-1.555-.684-2.3a60.8 60.8 0 0 0 11.132 1.057 50.02 50.02 0 0 0 19.4-3.545c5.286-2.239 8.458-5.286 9.08-8.582a6.853 6.853 0 0 1 .124 1.119 7.693 7.693 0 0 1-2.239 5.162 18.363 18.363 0 0 1-6.095 4.167 39.316 39.316 0 0 1-9.08 2.8 57.929 57.929 0 0 1-11.252 1.055zm0-14.241a55.8 55.8 0 0 1-11.132-1.057 39.484 39.484 0 0 1-9.08-2.861 18.838 18.838 0 0 1-6.094-4.229A7.693 7.693 0 0 1 0 40.319 6.853 6.853 0 0 1 .124 39.2c.56 3.3 3.794 6.343 9.08 8.582a51.2 51.2 0 0 0 19.4 3.545 51.227 51.227 0 0 0 19.4-3.483c5.286-2.239 8.458-5.286 9.08-8.582a6.853 6.853 0 0 1 .124 1.119 7.693 7.693 0 0 1-2.239 5.162 18.363 18.363 0 0 1-6.089 4.167 39.318 39.318 0 0 1-9.08 2.8 58.048 58.048 0 0 1-11.255 1.118z" class="cls-2" transform="translate(0 -14.822)"/>
            <path id="Subtraction_11_1_" d="M6.157 46.155A18.839 18.839 0 0 0 0 45.1V19.6h6.157v26.555z" class="cls-3" transform="translate(0 -7.411)"/>
            <g id="Group_1981-2_1_" transform="translate(.023 24.468)">
                <path id="Path_11837_1_" d="M6.094 9.266V7.027C2.736 5.037.56 2.674.124 0A6.853 6.853 0 0 0 0 1.119c0 3.11 2.3 5.908 6.094 8.147z" class="cls-4"/>
            </g>
            <path id="Path_11838_1_" d="M28.545 0c15.8 0 28.545 5.473 28.545 12.251S44.341 24.5 28.545 24.5 0 19.03 0 12.251 12.811 0 28.545 0z" class="cls-5"/>
        </g>
        <circle id="Ellipse_622" cx="14.677" cy="14.677" r="14.677" class="cls-6" data-name="Ellipse 622" transform="translate(1204.392 1461.57)"/>
        <path id="Path_12384" d="M40.265 51.65A1.2 1.2 0 0 1 39 50.385v-10.12a1.265 1.265 0 0 1 2.53 0v10.12a1.2 1.2 0 0 1-1.265 1.265z" class="cls-7" data-name="Path 12384" transform="translate(1178.834 1428.3)"/>
        <path id="Path_12385" d="M40.265 53.53a1.252 1.252 0 0 1-.886-2.151 1.223 1.223 0 0 1 1.771 0 1.223 1.223 0 0 1 0 1.771 1.148 1.148 0 0 1-.885.38z" class="cls-7" data-name="Path 12385" transform="translate(1178.834 1431.48)"/>
    </g>
</svg>
