<svg xmlns="http://www.w3.org/2000/svg" viewBox="0 0 53.621 59.498">
    <defs>
        <style>
            .cls-1{fill:#4e96e2}.cls-2{fill:#ff7883}
        </style>
    </defs>
    <g id="tamper-icon" transform="translate(-621.917 -3428.293)">
        <g id="Group_3187" data-name="Group 3187" transform="translate(625.999 3428.293)">
            <path id="Path_12221" d="M347.028 291.169a.988.988 0 0 1-.652-.245c-.128-.1-.279-.221-.489-.4a11.692 11.692 0 0 1-4.215-7.8 1 1 0 0 1 1.979-.21 9.7 9.7 0 0 0 3.517 6.486c.21.175.349.291.431.349a1.745 1.745 0 0 1 .163.14.988.988 0 0 1-.734 1.677z" class="cls-1" data-name="Path 12221" transform="translate(-305.966 -248.858)"/>
            <path id="Path_12222" d="M166.271 140.84a.992.992 0 0 1-.431-1.886 14.791 14.791 0 0 1 4.495-1.316.991.991 0 1 1 .245 1.968 12.9 12.9 0 0 0-3.889 1.141 1.046 1.046 0 0 1-.42.093z" class="cls-1" data-name="Path 12222" transform="translate(-150.115 -121.607)"/>
            <path id="Path_12223" d="M95.349 374a.99.99 0 0 1-.943-.675 11.636 11.636 0 0 1-.605-3.738v-2.6a.99.99 0 0 1 1.98 0v2.527a9.675 9.675 0 0 0 .5 3.156.987.987 0 0 1-.617 1.258.693.693 0 0 1-.315.072z" class="cls-1" data-name="Path 12223" transform="translate(-86.96 -323.386)"/>
            <path id="Path_12224" d="M95.56 176.35h-.1a.973.973 0 0 1-.664-.361 1.039 1.039 0 0 1-.221-.734 14.413 14.413 0 0 1 .734-3.284 15.477 15.477 0 0 1 4.762-6.893.99.99 0 0 1 1.607.605.981.981 0 0 1-.349.932 13.03 13.03 0 0 0-1.712 1.688 13.326 13.326 0 0 0-2.434 4.3 12.647 12.647 0 0 0-.64 2.853.969.969 0 0 1-.983.894z" class="cls-1" data-name="Path 12224" transform="translate(-87.637 -145.66)"/>
            <path id="Path_12225" d="M94.89 288.641a.989.989 0 0 1-.99-.99v-5.961a.99.99 0 0 1 1.98 0v5.962a.989.989 0 0 1-.99.989z" class="cls-1" data-name="Path 12225" transform="translate(-87.048 -248.018)"/>
            <path id="Path_12226" d="M248.373 152.319a.99.99 0 0 1-.978-.85 13.65 13.65 0 0 0-11.341-11.6.989.989 0 1 1 .291-1.956 15.638 15.638 0 0 1 13.03 13.274.99.99 0 0 1-.838 1.129z" class="cls-1" data-name="Path 12226" transform="translate(-211.898 -121.85)"/>
            <path id="Path_12227" d="M175.065 306.51a1 1 0 0 1-.547-.163c-.082-.058-.1-.058-7.138-5.834l-1.071-.873a11.71 11.71 0 0 1-4.3-9.094c-.012-2.375-.012-4.623-.012-6.474v-2.282a.99.99 0 0 1 1.98 0v2.282c0 1.851 0 4.1.012 6.416a9.765 9.765 0 0 0 3.563 7.615l1.071.873c3.517 2.876 6.835 5.6 7.021 5.752a1.007 1.007 0 0 1 .349 1.118.95.95 0 0 1-.932.664z" class="cls-1" data-name="Path 12227" transform="translate(-147.218 -248.107)"/>
            <path id="Path_12228" d="M164.75 211.47a.887.887 0 0 1-.245-.035.99.99 0 0 1-.722-1.2 7.238 7.238 0 0 1 1.5-2.946 7.443 7.443 0 0 1 4.425-2.573 6.72 6.72 0 0 1 1.281-.116 7.4 7.4 0 0 1 7.208 5.636.99.99 0 1 1-1.921.477 5.432 5.432 0 0 0-5.286-4.122 4.827 4.827 0 0 0-.92.082 5.486 5.486 0 0 0-3.272 1.9 5.355 5.355 0 0 0-1.106 2.154.951.951 0 0 1-.942.743z" class="cls-1" data-name="Path 12228" transform="translate(-148.769 -180.779)"/>
            <path id="Path_12229" d="M281.214 296.478a.977.977 0 0 1-.7-.291c-.082-.058-1.4-1.164-3.319-2.736a11.747 11.747 0 0 1-4.3-9.094v-2.667a.99.99 0 0 1 1.98 0v2.6a9.779 9.779 0 0 0 3.575 7.627c.035.023 3.319 2.725 3.458 2.864a.982.982 0 0 1 .21 1.083.931.931 0 0 1-.908.617z" class="cls-1" data-name="Path 12229" transform="translate(-245.205 -248.018)"/>
            <path id="Path_12230" d="M248.469 299.575a.977.977 0 0 1-.7-.291l-3.039-2.5-1.758-1.456a11.807 11.807 0 0 1-4.272-9.028v-.116c.012-1.747.012-3.3.012-4.495a.99.99 0 0 1 1.98 0c0 1.188 0 2.748-.012 4.483v.116a9.8 9.8 0 0 0 3.551 7.5l1.758 1.456c3.109 2.573 3.109 2.573 3.167 2.632a1.007 1.007 0 0 1 .221 1.083.985.985 0 0 1-.908.616z" class="cls-1" data-name="Path 12230" transform="translate(-214.987 -248.018)"/>
            <path id="Path_12231" d="M207.606 241.74a1.009 1.009 0 0 1-.769-.361 1.408 1.408 0 0 0-1.164-.536 1.48 1.48 0 0 0-.955.431c-.035.035-.058.07-.093.1l-1.525-1.264a2 2 0 0 1 .21-.233 3.435 3.435 0 0 1 2.247-1.013 3.37 3.37 0 0 1 2.818 1.269.985.985 0 0 1 .128 1.048 1 1 0 0 1-.897.559z" class="cls-1" data-name="Path 12231" transform="translate(-183.533 -211.049)"/>
            <path id="Path_12232" d="M207.821 303.336a.942.942 0 0 1-.314-.058c-.186-.058-.186-.058-1.036-.757l-.978-.792c-.035-.023-.058-.058-.093-.082-1.223-.99-2.958-2.41-4.879-3.982a11.782 11.782 0 0 1-4.308-9.106v-1.3c-.012-1.968-.012-3.773-.012-5.17v-.4a.99.99 0 0 1 1.98 0v.4c0 1.386 0 3.191.012 5.17v1.316a9.773 9.773 0 0 0 3.575 7.569c1.968 1.607 3.738 3.062 4.96 4.052.035.023.058.058.093.081l.885.722c.338.279.559.454.652.524a1.024 1.024 0 0 1 .408 1.118.989.989 0 0 1-.943.7z" class="cls-1" data-name="Path 12232" transform="translate(-177.436 -248.018)"/>
            <path id="Path_12233" d="M98.163 5.312a.992.992 0 0 1-.454-1.875 31.27 31.27 0 0 1 20.867-2.69 1 1 0 1 1-.431 1.945 29.332 29.332 0 0 0-19.539 2.515.953.953 0 0 1-.443.105z" class="cls-1" data-name="Path 12233" transform="translate(-89.937 -.029)"/>
            <path id="Path_12234" d="M308.123 19.045a.923.923 0 0 1-.466-.116 30.341 30.341 0 0 0-3.621-1.607.969.969 0 0 1-.64-.757.993.993 0 0 1 1.316-1.106 29.485 29.485 0 0 1 3.877 1.712.994.994 0 0 1 .5 1.118 1.007 1.007 0 0 1-.966.756z" class="cls-1" data-name="Path 12234" transform="translate(-272.137 -13.61)"/>
            <path id="Path_12235" d="M55.415 44.245a.991.991 0 0 1-.71-1.677A27.225 27.225 0 0 1 81.5 35.07a1 1 0 0 1-.524 1.921 25.222 25.222 0 0 0-24.837 6.952.994.994 0 0 1-.724.302z" class="cls-1" data-name="Path 12235" transform="translate(-52.173 -30.159)"/>
            <path id="Path_12236" d="M319.32 63.074a.982.982 0 0 1-.78-.384 25.866 25.866 0 0 0-9.863-7.708.991.991 0 1 1 .792-1.816 27.8 27.8 0 0 1 10.631 8.3.981.981 0 0 1 .1 1.048.993.993 0 0 1-.885.559z" class="cls-1" data-name="Path 12236" transform="translate(-276.289 -46.903)"/>
            <path id="Path_12237" d="M105.851 81.724a.989.989 0 0 1-.943-.687.972.972 0 0 1 .361-1.106 23.041 23.041 0 0 1 6.928-3.47 1.008 1.008 0 0 1 .978.221.989.989 0 0 1-.4 1.677 21 21 0 0 0-6.334 3.167.984.984 0 0 1-.59.198z" class="cls-1" data-name="Path 12237" transform="translate(-96.729 -67.521)"/>
            <path id="Path_12238" d="M36.05 139.41a1 1 0 0 1-.8-.408.986.986 0 0 1-.14-.9 23.086 23.086 0 0 1 5.158-8.71 1.006 1.006 0 0 1 .955-.291.963.963 0 0 1 .722.687.986.986 0 0 1-.233.966 21.044 21.044 0 0 0-4.716 7.965.989.989 0 0 1-.946.691z" class="cls-1" data-name="Path 12238" transform="translate(-35.056 -114.052)"/>
            <path id="Path_12239" d="M221.813 91.041a.992.992 0 0 1-.99-.92 21.4 21.4 0 0 0-21.3-19.842 23.19 23.19 0 0 0-2.375.128.99.99 0 1 1-.221-1.968 24.087 24.087 0 0 1 2.6-.14A23.389 23.389 0 0 1 222.8 89.993a.962.962 0 0 1-.245.722.974.974 0 0 1-.675.338h-.07z" class="cls-1" data-name="Path 12239" transform="translate(-177.292 -60.35)"/>
            <path id="Path_12240" d="M381.566 287.492a1 1 0 0 1-.687-.268 10.686 10.686 0 0 1-2.434-3.482 9.349 9.349 0 0 1-.524-1.584.994.994 0 0 1 1.933-.466 7.971 7.971 0 0 0 .419 1.258 8.575 8.575 0 0 0 1.98 2.83.987.987 0 0 1-.687 1.712z" class="cls-1" data-name="Path 12240" transform="translate(-337.977 -248.243)"/>
            <path id="Path_12241" d="M340.49 166.864a.99.99 0 0 1-.99-.908 17.584 17.584 0 0 0-4.39-10.189.994.994 0 0 1 1.479-1.327 19.687 19.687 0 0 1 4.891 11.341 1 1 0 0 1-.9 1.083z" class="cls-1" data-name="Path 12241" transform="translate(-299.951 -136.174)"/>
            <path id="Path_12242" d="M61.26 121.111h-.082a1.011 1.011 0 0 1-.675-.349.969.969 0 0 1-.233-.722 19.035 19.035 0 0 1 1.665-6.334 19.312 19.312 0 0 1 18.153-11.365 1 1 0 0 1 .7.314.938.938 0 0 1 .268.71 1.015 1.015 0 0 1-1.025.966 17.328 17.328 0 0 0-16.29 10.2 16.628 16.628 0 0 0-1.49 5.671.982.982 0 0 1-.991.909z" class="cls-1" data-name="Path 12242" transform="translate(-57.331 -90.42)"/>
            <path id="Path_12243" d="M60.621 283.809a1.013 1.013 0 0 1-.99-.873 8.87 8.87 0 0 1-.023-1.246.99.99 0 0 1 1.98 0v.99a.931.931 0 0 1-.175.722.9.9 0 0 1-.64.373.322.322 0 0 1-.152.034z" class="cls-1" data-name="Path 12243" transform="translate(-56.738 -248.018)"/>
            <path id="Path_12244" d="M263.919 111.892a1.026 1.026 0 0 1-.571-.175 16.848 16.848 0 0 0-5.286-2.457l-.349-.082a1 1 0 0 1-.734-.687.979.979 0 0 1 .245-.978 1 1 0 0 1 .966-.268l.361.093a18.6 18.6 0 0 1 5.927 2.748.988.988 0 0 1-.559 1.8z" class="cls-1" data-name="Path 12244" transform="translate(-231.101 -94.732)"/>
            <path id="Path_12245" d="M313.97 293.492a.977.977 0 0 1-.7-.291c-.035-.035-.757-.629-1.886-1.537a11.754 11.754 0 0 1-4.285-9.094v-.78a.99.99 0 1 1 1.98 0v.734a9.778 9.778 0 0 0 3.563 7.6c.873.722 1.945 1.584 2.026 1.677a1.006 1.006 0 0 1 .221 1.083 1.022 1.022 0 0 1-.92.605z" class="cls-1" data-name="Path 12245" transform="translate(-275.422 -248.107)"/>
            <path id="Path_12246" d="M150.7 181.375a.989.989 0 0 1-.978-.827 9.411 9.411 0 0 0-17.408-3.377 8.834 8.834 0 0 0-1.188 3.354.994.994 0 0 1-1.968-.279 10.816 10.816 0 0 1 1.456-4.1 11.39 11.39 0 0 1 21.076 4.064.988.988 0 0 1-.815 1.141.305.305 0 0 1-.175.024z" class="cls-1" data-name="Path 12246" transform="translate(-118.192 -150.684)"/>
            <path id="Path_12247" d="M140.075 307.516a1.008 1.008 0 0 1-.629-.221c-1.374-1.118-3.2-2.632-5.158-4.238l-1.991-1.642a11.747 11.747 0 0 1-4.3-9.094V281.69a.99.99 0 0 1 1.98 0v10.585a9.752 9.752 0 0 0 3.575 7.6l1.991 1.642c1.956 1.607 3.784 3.109 5.158 4.227a.98.98 0 0 1 .3 1.106.991.991 0 0 1-.926.666z" class="cls-1" data-name="Path 12247" transform="translate(-117.177 -248.018)"/>
            <path id="Path_12248" d="M309.1 54.991a1 1 0 1 1 .978-1 .994.994 0 0 1-.978 1z" class="cls-1" data-name="Path 12248" transform="translate(-276.306 -46.832)"/>
        </g>
        <path id="Path_12249" d="M52.643 248.58H.99a.99.99 0 0 1 0-1.98h51.642a.989.989 0 0 1 .99.99.972.972 0 0 1-.979.99z" class="cls-2" data-name="Path 12249" transform="translate(621.917 3210.404)"/>
    </g>
</svg>
