<svg xmlns="http://www.w3.org/2000/svg" viewBox="0 0 90.724 60.085">
    <defs>
        <style>
            .cls-1{fill:#ecf0f9}.cls-2{fill:#ffb357}.cls-3{fill:#ad9390}.cls-4{fill:#82716f}.cls-5{fill:#ffc44f}.cls-6{fill:#b0c4d9}
        </style>
    </defs>
    <g id="incognito-icon" transform="translate(-999 -7379)">
        <circle id="Ellipse_612" cx="7.101" cy="7.101" r="7.101" class="cls-1" data-name="Ellipse 612" transform="translate(1024.565 7421.964)"/>
        <circle id="Ellipse_613" cx="7.101" cy="7.101" r="7.101" class="cls-1" data-name="Ellipse 613" transform="translate(1049.953 7421.964)"/>
        <g id="Group_3211" data-name="Group 3211" transform="translate(999 7379)">
            <path id="Path_12329" d="M233.442 257.684a1.424 1.424 0 0 1-1.42-1.42 2.841 2.841 0 0 0-5.681 0 1.42 1.42 0 0 1-2.841 0 5.663 5.663 0 0 1 11.327 0 1.383 1.383 0 0 1-1.385 1.42z" class="cls-2" data-name="Path 12329" transform="translate(-183.819 -206.103)"/>
            <path id="Path_12330" d="M153.077 3.839a5.665 5.665 0 0 0-6.5-3.764l-7.314 1.456a10.23 10.23 0 0 1-3.888 0L128.062.075a5.665 5.665 0 0 0-6.5 3.764L111.8 33.114l25.512 1.42 25.512-1.42z" class="cls-3" data-name="Path 12330" transform="translate(-91.95 .039)"/>
            <path id="Path_12331" d="M137.23 34.622l25.512-1.42-1.332-4.012c-7.581.763-15.783 1.189-24.18 1.189-2.343 0-4.669-.036-6.977-.089a8.516 8.516 0 0 1-8.007-10.79L127.66.127a5.67 5.67 0 0 0-6.2 3.8L111.7 33.2z" class="cls-4" data-name="Path 12331" transform="translate(-91.868 -.049)"/>
            <path id="Path_12332" d="M162.824 148.949l-2.716-8.149c-7.172.692-14.9 1.065-22.8 1.065s-15.623-.373-22.8-1.065l-2.716 8.149 25.512 1.42z" class="cls-5" data-name="Path 12332" transform="translate(-91.95 -115.796)"/>
            <path id="Path_12333" d="M162.824 149.031l-1.332-4.012c-7.581.763-15.783 1.189-24.18 1.189-2.343 0-4.669-.036-6.977-.089a8.521 8.521 0 0 1-7.35-4.563c-2.894-.16-5.717-.391-8.468-.657l-2.716 8.149 25.512 1.42z" class="cls-2" data-name="Path 12333" transform="translate(-91.95 -115.878)"/>
            <path id="Path_12334" d="M45.354 169.795c-16.4 0-32.116-1.527-44.26-4.3a1.421 1.421 0 0 1 .639-2.77c11.93 2.716 27.429 4.225 43.621 4.225 16.209 0 31.69-1.491 43.621-4.225a1.421 1.421 0 0 1 .639 2.77c-12.144 2.773-27.856 4.3-44.26 4.3z" class="cls-4" data-name="Path 12334" transform="translate(.008 -133.801)"/>
            <path id="Path_12335" d="M137.624 246.449a9.924 9.924 0 1 1 9.924-9.924 9.941 9.941 0 0 1-9.924 9.924zm0-17.008a7.084 7.084 0 1 0 7.084 7.084 7.092 7.092 0 0 0-7.084-7.084z" class="cls-5" data-name="Path 12335" transform="translate(-105.027 -186.364)"/>
            <path id="Path_12336" d="M281.424 246.449a9.924 9.924 0 1 1 9.924-9.924 9.941 9.941 0 0 1-9.924 9.924zm0-17.008a7.084 7.084 0 1 0 7.084 7.084 7.092 7.092 0 0 0-7.084-7.084z" class="cls-5" data-name="Path 12336" transform="translate(-223.298 -186.364)"/>
            <path id="Path_12343" d="M160.07 270.625a4.2 4.2 0 0 0-.2 3.071 4.147 4.147 0 0 0 2.752 2.752 4.3 4.3 0 0 0 3.071-.2.7.7 0 0 0-.071-1.314 6.387 6.387 0 0 1-4.243-4.243.711.711 0 0 0-1.309-.066z" class="cls-6" data-name="Path 12343" transform="translate(-131.326 -222.239)"/>
            <path id="Path_12344" d="M303.77 270.625a4.2 4.2 0 0 0-.2 3.071 4.147 4.147 0 0 0 2.752 2.752 4.3 4.3 0 0 0 3.071-.2.7.7 0 0 0-.071-1.314 6.387 6.387 0 0 1-4.243-4.243.711.711 0 0 0-1.309-.066z" class="cls-6" data-name="Path 12344" transform="translate(-249.514 -222.239)"/>
        </g>
    </g>
</svg>
