<svg xmlns="http://www.w3.org/2000/svg" viewBox="0 0 113 111">
    <defs>
        <style>
            .cls-1{fill:#fff}.cls-2{clip-path:url(#clip-path)}.cls-3{fill:#f3e4b2}.cls-4{fill:#ecc19c}.cls-10,.cls-5{fill:#24282d}.cls-6{fill:#434a54}.cls-7{fill:#a85d5d}.cls-8{fill:#656d78}.cls-9{opacity:.1}.cls-10{opacity:.3}.cls-11{fill:#3a88d6}.cls-12{fill:#3682c1}
        </style>
        <clipPath id="clip-path">
            <ellipse id="Ellipse_592" cx="56.5" cy="55.5" class="cls-1" data-name="Ellipse 592" rx="56.5" ry="55.5" transform="translate(1052 5026)"/>
        </clipPath>
    </defs>
    <g id="jimmy-song-illustration" transform="translate(-899 -5435)">
        <g id="Mask_Group_2" class="cls-2" data-name="Mask Group 2" transform="translate(-153 409)">
            <g id="Group_3076" data-name="Group 3076" transform="translate(1052.4 5025.713)">
                <g id="Group_3070" data-name="Group 3070">
                    <circle id="SVGID_1_" cx="56.243" cy="56.243" r="56.243" class="cls-3"/>
                </g>
                <path id="Path_12143" d="M164.9 102.5v16.292a3.5 3.5 0 0 1-.029.549c0 .173-.029.318-.029.491 0 .116-.029.231-.029.347a.428.428 0 0 1-.029.2c0 .116-.029.26-.029.4-.029.26-.058.491-.087.722 0 .058-.029.116-.029.173-.029.116-.029.26-.058.376v.029l-.087.52c-.058.26-.087.491-.144.722v.029a.218.218 0 0 1-.029.116v.029c-.029.144-.058.26-.087.4 0 .058-.029.116-.029.173-.029.087-.029.173-.058.289-.029.058-.029.116-.058.144 0 .058-.029.087-.029.144-.116.433-.231.838-.347 1.242a4.583 4.583 0 0 1-.2.578c0 .029-.029.029-.029.058l-.173.52c-.029.058-.029.116-.058.144a3.524 3.524 0 0 1-.2.491c-.087.2-.173.4-.231.578a4.094 4.094 0 0 1-.231.52c0 .029-.029.058-.029.087-.087.173-.173.376-.26.549a5.387 5.387 0 0 1-.289.578c-.173.376-.376.751-.578 1.127l-.289.491a29.7 29.7 0 0 1-2.629 3.813 3.327 3.327 0 0 1-.4.491c-.2.231-.376.462-.578.664-.173.2-.347.4-.52.578-.491.52-.982 1.04-1.5 1.5a2.877 2.877 0 0 1-.318.289c-.173.144-.347.318-.52.462l-.433.347c-.376.289-.751.607-1.127.867-.144.116-.318.231-.462.347l-.78.52c-.144.087-.289.2-.433.289a12.16 12.16 0 0 1-1.589.867 2.388 2.388 0 0 0-.376.2c-.116.058-.26.116-.4.173a3.862 3.862 0 0 1-.52.2c-.058.029-.144.058-.2.087-.2.087-.4.144-.607.231-.26.087-.52.173-.751.231-.173.058-.347.087-.52.144h-.029c-.173.029-.347.087-.52.116-.058 0-.087.029-.144.029a2.23 2.23 0 0 1-.433.058 4.31 4.31 0 0 1-.607.058c-.058 0-.144.029-.2.029-.173 0-.318.029-.491.029h-.029a2.971 2.971 0 0 1-.491-.029.366.366 0 0 1-.173-.029c-.144 0-.289-.029-.433-.029h-.087c-.2-.029-.376-.058-.578-.087a3.022 3.022 0 0 1-.491-.116 14.658 14.658 0 0 1-2.686-.9 20.837 20.837 0 0 1-2.369-1.242 13.9 13.9 0 0 1-1.184-.78c-.2-.144-.4-.289-.578-.433a26.403 26.403 0 0 1-1.82-1.444 7.174 7.174 0 0 1-.491-.462 7.174 7.174 0 0 1-.491-.462c-.4-.376-.78-.78-1.184-1.213-.144-.173-.289-.318-.433-.491-.4-.462-.809-.953-1.184-1.444-.144-.173-.289-.376-.433-.549a34.696 34.696 0 0 1-1.473-2.138c-.116-.2-.26-.4-.376-.607-.144-.231-.289-.491-.433-.722a24.181 24.181 0 0 1-1.387-2.889l-.173-.433c-.087-.173-.144-.376-.231-.549-.116-.26-.2-.549-.289-.809s-.173-.549-.26-.838c-.087-.26-.144-.52-.231-.809s-.173-.578-.231-.867c0-.029-.029-.058-.029-.087-.087-.4-.173-.838-.26-1.242-.116-.549-.173-1.127-.26-1.675-.029-.173-.029-.347-.058-.549s-.029-.376-.058-.578c-.029-.347-.029-.693-.058-1.04v-16.271A20.94 20.94 0 0 1 143.985 81.5h.029a20.24 20.24 0 0 1 4.622.52 22.069 22.069 0 0 1 3.9 1.3 20.6 20.6 0 0 1 7.886 6.182 20.755 20.755 0 0 1 4.449 12.71 1.2 1.2 0 0 1 .029.288z" class="cls-4" data-name="Path 12143" transform="translate(-87.54 -57.957)"/>
                <g id="Group_3071" data-name="Group 3071" transform="translate(23.658 73.229)">
                    <path id="Path_12144" d="M147.127 300.3H81.9a32.8 32.8 0 0 1 1.733-10.544c.2-.607.433-1.184.664-1.762.231-.578.491-1.155.751-1.733a32.349 32.349 0 0 1 3.958-6.326c.4-.491.78-.953 1.213-1.415.2-.231.4-.462.636-.693.2-.231.433-.433.664-.664a31.989 31.989 0 0 1 3.524-3.033 22.123 22.123 0 0 1 1.907-1.3c.664-.4 1.329-.809 1.993-1.184h.029c.26-.144.52-.289.78-.462a19.813 19.813 0 0 0 2.2-1.531 20.876 20.876 0 0 0 6.586-9.186 20.5 20.5 0 0 0 1.213-6.962l4.766.029 4.882.029a19.989 19.989 0 0 0 1.184 6.875 20.678 20.678 0 0 0 6.557 9.215 15.036 15.036 0 0 0 1.358 1.011c.058.029.087.058.144.087.231.144.433.289.664.433.26.144.52.318.78.462a.219.219 0 0 1 .116.058 17.772 17.772 0 0 1 1.589.953c.26.144.491.318.751.491.52.318 1.011.693 1.5 1.04.636.462 1.213.953 1.82 1.444a27.82 27.82 0 0 1 1.7 1.589 32.626 32.626 0 0 1 9.565 23.079z" class="cls-4" data-name="Path 12144" transform="translate(-81.9 -253.5)"/>
                </g>
                <g id="Group_3072" data-name="Group 3072" transform="translate(35.531 23.63)">
                    <path id="Path_12145" d="M143.914 81.8A20.909 20.909 0 0 0 123 102.714v9.215s.867-5.489 3.206-8.175c2.542-2.889 1.907-7.308 7.6-7.308 3.669 0 3.871 1.358 10.082 1.358h.029c6.211 0 6.413-1.358 10.082-1.358 5.691 0 5.055 4.42 7.6 7.308 2.34 2.658 3.206 8.175 3.206 8.175v-9.215A20.884 20.884 0 0 0 143.914 81.8z" class="cls-5" data-name="Path 12145" transform="translate(-123 -81.8)"/>
                </g>
                <g id="Group_3075" data-name="Group 3075" transform="translate(17.274 7.288)">
                    <path id="Path_12146" d="M139.875 106.984v-1.762h-.838v.173c-3.871-1.993-25.825 1.387-39.2 1.387-13.057 0-34.376-3.264-38.911-1.531H59.8v1.82c0 4.593 9.186 16.379 40.037 16.379 31.054 0 40.153-11.93 40.038-16.466z" class="cls-6" data-name="Path 12146" transform="translate(-59.8 -81.775)"/>
                    <path id="SVGCleanerId_0_3_" d="M139.4 99.934c-2.513-2.513-25.681 1.155-39.546 1.155S62.816 97.42 60.3 99.934c-2.6 2.571 4.477 17.794 39.546 17.794S142 102.5 139.4 99.934z" class="cls-7" transform="translate(-59.812 -77.728)"/>
                    <g id="Group_3073" data-name="Group 3073" transform="translate(.005 21.325)">
                        <path id="SVGCleanerId_0_2_" d="M139.4 99.934c-2.513-2.513-25.681 1.155-39.546 1.155S62.816 97.42 60.3 99.934c-2.6 2.571 4.477 17.794 39.546 17.794S142 102.5 139.4 99.934z" class="cls-8" transform="translate(-59.817 -99.054)"/>
                    </g>
                    <path id="Path_12147" d="M152.794 25.25c-3.755.722-6.788 5.806-7.8 5.806s-4.044-5.084-7.8-5.806c-4.737-.9-13.895 28.309-13.895 28.309a75.351 75.351 0 0 0 21.694 3.351 75.351 75.351 0 0 0 21.694-3.351s-9.156-29.204-13.893-28.309z" class="cls-8" data-name="Path 12147" transform="translate(-104.957 -25.23)"/>
                    <path id="Path_12148" d="M144.994 115.833a76.466 76.466 0 0 1-20.712-3.033c-.636 1.849-.982 3.033-.982 3.033a71.9 71.9 0 0 0 43.388 0s-.376-1.155-.982-3.033a76.466 76.466 0 0 1-20.712 3.033z" class="cls-6" data-name="Path 12148" transform="translate(-104.957 -87.504)"/>
                    <g id="Group_3074" class="cls-9" data-name="Group 3074" transform="translate(18.343)">
                        <path id="Path_12149" d="M137.195 28.6c3.755.722 6.788 5.806 7.8 5.806s4.044-5.084 7.8-5.806c3.784-.722 10.4 17.823 12.912 25.276.636-.2.982-.318.982-.318s-9.157-29.2-13.895-28.309c-3.755.722-6.788 5.806-7.8 5.806s-4.044-5.084-7.8-5.806c-4.737-.9-13.895 28.309-13.895 28.309s.347.116.982.318c2.519-7.452 9.129-25.997 12.914-25.276z" class="cls-1" data-name="Path 12149" transform="translate(-123.3 -25.23)"/>
                    </g>
                </g>
                <path id="Path_12150" d="M167.488 227.9a14.317 14.317 0 0 0-11.815 6.673s-.173 1.907-.173 2.918a11.806 11.806 0 0 0 2.6 7.4c.173.116.318.26.491.376a3.677 3.677 0 0 0 .549.376 11.51 11.51 0 0 0 1.1.693 19.723 19.723 0 0 0 2.167 1.155 12.59 12.59 0 0 0 2.484.838c.144.029.318.058.462.087l.52.087h.087a2.048 2.048 0 0 0 .4.029h1.271a3.913 3.913 0 0 0 .578-.058 1.95 1.95 0 0 0 .4-.058.174.174 0 0 0 .116-.029 3.021 3.021 0 0 0 .491-.116h.029c.173-.029.318-.087.491-.116a6.5 6.5 0 0 0 .693-.231c.173-.058.376-.144.549-.2.058-.029.116-.029.173-.058a3.208 3.208 0 0 0 .462-.2c.116-.058.26-.116.376-.173l.347-.173c.491-.231.953-.52 1.444-.809.144-.087.26-.173.4-.26a10.6 10.6 0 0 0 .722-.491 4.13 4.13 0 0 0 .433-.318c.347-.26.693-.52 1.011-.809a3.886 3.886 0 0 1 .4-.318c.173-.144.318-.289.491-.433l.144-.144a11.794 11.794 0 0 0 .9-10.4 14.276 14.276 0 0 0-10.793-5.238zm-.52 13.4c-4.131 0-7.511-2.369-7.511-5.286s3.351-5.286 7.511-5.286c4.131 0 7.511 2.369 7.511 5.286 0 2.95-3.351 5.286-7.511 5.286z" class="cls-10" data-name="Path 12150" transform="translate(-110.581 -162.066)"/>
                <g id="user-sign-up-icon_1_" transform="translate(19.163 87.044)">
                    <path id="Path_1083_1_" d="M331.951 1350.344l-18.343-6.644-13.259 7.857-13.028-7.857-18.343 6.644a8.762 8.762 0 0 0-5.777 8.233v13.577a2.194 2.194 0 0 0 2.2 2.2H335.5a2.194 2.194 0 0 0 2.2-2.2v-13.577a8.724 8.724 0 0 0-5.749-8.233z" class="cls-11" transform="translate(-263.2 -1340.039)"/>
                    <path id="Path_1084_1_" d="M486.475 1374.6a8.682 8.682 0 0 1 2.369 5.98v13.577a2.194 2.194 0 0 1-2.2 2.2H475.7v-7.337a8.765 8.765 0 0 1 2.571-6.211z" class="cls-12" transform="translate(-414.315 -1362.013)"/>
                    <path id="Path_1085_1_" d="M265.669 1374.6a8.682 8.682 0 0 0-2.369 5.98v13.577a2.194 2.194 0 0 0 2.2 2.2h10.948v-7.337a8.765 8.765 0 0 0-2.571-6.211z" class="cls-12" transform="translate(-263.271 -1362.013)"/>
                    <path id="Path_1086_1_" d="M375.936 1358.6l1.444 4.68-4.593.26s-1.849-2.426-1.791-2.484z" class="cls-11" transform="translate(-339.857 -1350.635)"/>
                    <path id="Path_1087_1_" d="M392.518 1358.6l-1.618 4.68 5.171.26s2.08-2.426 2.022-2.484c-.087-.03-5.575-2.456-5.575-2.456z" class="cls-11" transform="translate(-354.011 -1350.635)"/>
                    <path id="Path_913_1_" d="M349.728 1339.05l-6.211 6.991a1.828 1.828 0 0 1-2.571.231 1.47 1.47 0 0 1-.376-.462l-6.471-9.562 1.675-3.986a1.836 1.836 0 0 1 2.34-1.127 2.3 2.3 0 0 1 .462.231z" class="cls-12" transform="translate(-313.619 -1331.027)"/>
                    <path id="Path_914_1_" d="M396.4 1339.05l6.211 6.991a1.828 1.828 0 0 0 2.571.231 1.47 1.47 0 0 0 .376-.462l6.471-9.562-1.675-3.986a1.836 1.836 0 0 0-2.34-1.127 2.3 2.3 0 0 0-.462.231z" class="cls-12" transform="translate(-357.922 -1331.027)"/>
                    <g id="Ellipse_470_3_" transform="translate(35.849 10.911)">
                        <circle id="Ellipse_590" cx="1.184" cy="1.184" r="1.184" class="cls-12" data-name="Ellipse 590"/>
                    </g>
                    <g id="Ellipse_470_2_" transform="translate(35.849 16.516)">
                        <circle id="Ellipse_591" cx="1.184" cy="1.184" r="1.184" class="cls-12" data-name="Ellipse 591"/>
                    </g>
                </g>
            </g>
        </g>
    </g>
</svg>
