<svg xmlns="http://www.w3.org/2000/svg" viewBox="0 0 46.608 60.179">
    <defs>
        <style>
            .cls-1{fill:#ebe9d9}.cls-2{fill:#cdc7ac}.cls-3{fill:#fff}
        </style>
    </defs>
    <g id="json-document-icon" transform="translate(-538.932 -7088.906)">
        <path id="Path_11646" d="M0 17.924V53.5a6.679 6.679 0 0 0 6.676 6.676h33.181a6.689 6.689 0 0 0 6.688-6.676V6.676A6.689 6.689 0 0 0 39.857 0H17.924z" class="cls-1" data-name="Path 11646" transform="translate(538.932 7088.906)"/>
        <path id="Path_11649" d="M0 17.924h11.237a6.679 6.679 0 0 0 6.676-6.676V0" class="cls-2" data-name="Path 11649" transform="translate(538.932 7088.906)"/>
        <g id="Group_3199" data-name="Group 3199" transform="translate(548.585 7101.784)">
            <path id="Path_12299" d="M13.366 19.512v-4.293a1.014 1.014 0 0 1 1.073-1.073 1.073 1.073 0 1 0 0-2.146 3.162 3.162 0 0 0-3.219 3.219v4.292a2.153 2.153 0 0 1-2.146 2.146 1.073 1.073 0 0 0 0 2.146 2.153 2.153 0 0 1 2.146 2.146v4.292a3.162 3.162 0 0 0 3.219 3.219 1.073 1.073 0 1 0 0-2.146 1.014 1.014 0 0 1-1.073-1.073V25.95a4.023 4.023 0 0 0-1.5-3.219 4.023 4.023 0 0 0 1.5-3.219z" class="cls-2" data-name="Path 12299" transform="translate(-8 -12)"/>
            <circle id="Ellipse_611" cx="1.61" cy="1.61" r="1.61" class="cls-2" data-name="Ellipse 611" transform="translate(12.341 5.366)"/>
            <path id="Path_12300" d="M33.439 21.658a2.153 2.153 0 0 1-2.146-2.146v-4.293A3.162 3.162 0 0 0 28.073 12a1.073 1.073 0 0 0 0 2.146 1.014 1.014 0 0 1 1.073 1.073v4.292a4.023 4.023 0 0 0 1.5 3.219 4.373 4.373 0 0 0-1.5 3.219v4.292a1.014 1.014 0 0 1-1.073 1.073 1.073 1.073 0 0 0 0 2.146 3.162 3.162 0 0 0 3.219-3.219V25.95a2.153 2.153 0 0 1 2.147-2.15 1.073 1.073 0 1 0 0-2.146z" class="cls-2" data-name="Path 12300" transform="translate(-6.611 -12)"/>
            <path id="Path_12301" d="M21.073 24A1.014 1.014 0 0 0 20 25.073v3.219a1.073 1.073 0 1 0 2.146 0v-3.219A1.014 1.014 0 0 0 21.073 24z" class="cls-2" data-name="Path 12301" transform="translate(-7.123 -11.123)"/>
        </g>
        <path id="Rectangle_2715" d="M0 0h46.54v12a6 6 0 0 1-6 6H6a6 6 0 0 1-6-6V0z" class="cls-2" data-name="Rectangle 2715" transform="translate(539 7131)"/>
        <g id="Group_3200" data-name="Group 3200" transform="translate(543.614 7134.728)">
            <path id="Path_12295" d="M10.953 42.7v8.37a2.288 2.288 0 0 1-.322 1.288 2.893 2.893 0 0 1-.751.858 3.214 3.214 0 0 1-1.073.429 5.225 5.225 0 0 1-1.288.107 2.1 2.1 0 0 1-.751-.107c-.322-.107-.537-.107-.858-.215s-.537-.107-.858-.215a1.73 1.73 0 0 1-.751-.429l.858-1.18c.107.107.215.107.429.215s.429.107.644.215.429.107.644.215a1.361 1.361 0 0 0 .644.107 2.289 2.289 0 0 0 1.288-.322c.322-.215.429-.537.537-1.073V42.7z" class="cls-3" data-name="Path 12295" transform="translate(-4.3 -42.7)"/>
            <path id="Path_12296" d="M19.131 50.748a4.564 4.564 0 0 1-.215 1.18c-.107.429-.429.644-.644.966a1.825 1.825 0 0 1-1.073.644 6.333 6.333 0 0 1-1.5.215h-.751c-.322 0-.537-.107-.751-.107-.215-.107-.537-.107-.751-.215l-.644-.322.322-1.288c.107.107.322.107.537.215s.429.107.644.215a1.361 1.361 0 0 0 .644.107c.215 0 .429.107.644.107a1.821 1.821 0 0 0 1.4-.429 1.567 1.567 0 0 0 .429-1.288 1.219 1.219 0 0 0-.322-.858 5.952 5.952 0 0 0-.858-.644 5.012 5.012 0 0 0-1.073-.537 5.684 5.684 0 0 1-1.073-.644 2.746 2.746 0 0 1-1.18-2.254 5.386 5.386 0 0 1 .215-1.288c.107-.429.429-.644.751-.966a3.572 3.572 0 0 1 1.073-.644 2.722 2.722 0 0 1 1.288-.215 6.6 6.6 0 0 1 1.4.107 2.017 2.017 0 0 1 1.073.429c-.107.107-.107.215-.215.429s-.107.322-.215.429-.107.215-.215.322l-.107.107c-.107 0-.107-.107-.215-.107s-.215-.107-.322-.107a4.648 4.648 0 0 0-.537-.107h-.858a.82.82 0 0 0-.537.215c-.107.107-.322.215-.429.322s-.215.322-.322.429a.8.8 0 0 0-.107.537 1.312 1.312 0 0 0 .322.966 5.952 5.952 0 0 0 .858.644 9.972 9.972 0 0 0 1.073.537 9.438 9.438 0 0 1 1.073.644 2.746 2.746 0 0 1 1.18 2.254z" class="cls-3" data-name="Path 12296" transform="translate(-3.679 -42.7)"/>
            <path id="Path_12297" d="M29.214 48.273a7.851 7.851 0 0 1-.322 2.361 4.476 4.476 0 0 1-.966 1.717 4.426 4.426 0 0 1-1.4 1.073 5.33 5.33 0 0 1-3.649 0 3.274 3.274 0 0 1-1.4-1.073 5.442 5.442 0 0 1-.966-1.717 8.817 8.817 0 0 1 0-4.722 4.476 4.476 0 0 1 .966-1.717 4.426 4.426 0 0 1 1.4-1.073 5.33 5.33 0 0 1 3.649 0 3.274 3.274 0 0 1 1.4 1.073 5.442 5.442 0 0 1 .966 1.717 7.851 7.851 0 0 1 .322 2.361zM24.6 52.351a3.813 3.813 0 0 0 1.073-.215 1.669 1.669 0 0 0 .858-.644 7.145 7.145 0 0 0 .644-1.288 5.329 5.329 0 0 0 .215-1.932 7.705 7.705 0 0 0-.215-1.824 4.645 4.645 0 0 0-.537-1.288 2.893 2.893 0 0 0-.858-.751 1.6 1.6 0 0 0-.966-.215 3.813 3.813 0 0 0-1.073.215 1.669 1.669 0 0 0-.858.644 7.145 7.145 0 0 0-.644 1.288 8.8 8.8 0 0 0 0 3.863 3.581 3.581 0 0 0 .537 1.288 2.893 2.893 0 0 0 .858.751c.322.215.644.108.966.108z" class="cls-3" data-name="Path 12297" transform="translate(-3.138 -42.693)"/>
            <path id="Path_12298" d="M38.741 42.9v10.838h-1.824l-4.292-7.4v7.4H30.8V42.9h1.824l4.292 7.4v-7.4z" class="cls-3" data-name="Path 12298" transform="translate(-2.363 -42.685)"/>
        </g>
    </g>
</svg>
