<svg xmlns="http://www.w3.org/2000/svg" viewBox="0 0 43.928 63.895">
    <defs>
        <style>
            .cls-1{fill:#ffc44f}.cls-2{fill:#ffb357}.cls-3{fill:#e6e3e2}.cls-4{fill:#c6c6c6}.cls-5{fill:#ffd88b}.cls-6{fill:#e29f4e}
        </style>
    </defs>
    <g id="lock-print-icon" transform="translate(11735 619.895)">
        <path id="Path_12302" d="M2 208h39.931a2 2 0 0 1 2 2v33.944a2 2 0 0 1-2 2H2a2 2 0 0 1-2-2V210a2 2 0 0 1 2-2z" class="cls-1" data-name="Path 12302" transform="translate(-11735 -801.938)"/>
        <path id="Path_12304" d="M55.934 226v31.947H18a2 2 0 0 0-2 2h39.934a2 2 0 0 0 2-2V224a2 2 0 0 0-2 2z" class="cls-2" data-name="Path 12304" transform="translate(-11749.003 -815.94)"/>
        <path id="Path_12306" d="M63.974 0A15.972 15.972 0 0 0 48 15.974v9.984h5.99v-9.984a9.984 9.984 0 0 1 19.967 0v9.984h5.99v-9.984A15.972 15.972 0 0 0 63.974 0z" class="cls-3" data-name="Path 12306" transform="translate(-11777.01 -619.895)"/>
        <g id="Group_3202" data-name="Group 3202" transform="translate(-11729.01 -619.895)">
            <path id="Path_12307" d="M57.122 58.007a10.864 10.864 0 0 0-5.129 9.36V72.6a2 2 0 0 1-2 2 2 2 0 0 0-2 2h5.99v-9.995a9.948 9.948 0 0 1 3.794-7.825.505.505 0 0 0-.549-.849z" class="cls-4" data-name="Path 12307" transform="translate(-48 -50.631)"/>
            <path id="Path_12308" d="M175.3 0c-.075 0-.1.087-.1.225a1.993 1.993 0 0 0 1.8 1.934c7.4 1.061 12.28 5.928 12.28 13.815v5.99a2 2 0 0 1-2 2 2 2 0 0 0-2 2h5.99v-9.99A15.972 15.972 0 0 0 175.3 0z" class="cls-4" data-name="Path 12308" transform="translate(-159.326)"/>
        </g>
        <path id="Path_12307-2" d="M16 208h39.934a2 2 0 0 1-2 2H18a2 2 0 0 1-2-2z" class="cls-5" data-name="Path 12307" transform="translate(-11749.003 -801.938)"/>
        <g id="Group_3206" data-name="Group 3206" transform="translate(-11726.341 -590.439)">
            <path id="Path_12278" d="M107.344 408.941a.933.933 0 0 1-.844-.527.9.9 0 0 1 .116-.981c.274-.338.527-.686.77-1.044a8.109 8.109 0 0 0 .538-.865.929.929 0 0 1 1.266-.348.914.914 0 0 1 .359 1.255 10.69 10.69 0 0 1-.58.939c-.306.464-.6.854-.9 1.224a.915.915 0 0 1-.725.347z" class="cls-6" data-name="Path 12278" transform="translate(-102.628 -383.592)"/>
            <path id="Path_12279" d="M135.837 284.41a.767.767 0 0 1-.264-.042 1.013 1.013 0 0 1-.559-.443.873.873 0 0 1-.074-.707l.095-.359c.116-.432.211-.865.285-1.308s.137-.9.179-1.35.063-.918.063-1.382a6.618 6.618 0 0 1 .517-2.532 6.529 6.529 0 0 1 4.694-3.85 6.907 6.907 0 0 1 1.319-.137.928.928 0 1 1 0 1.857A4.655 4.655 0 0 0 137.8 277a4.964 4.964 0 0 0-.274.876 4.647 4.647 0 0 0-.095.939q0 .775-.063 1.551c-.042.506-.116 1.023-.2 1.508s-.19.981-.316 1.466l-.116.4a.94.94 0 0 1-.899.67z" class="cls-6" data-name="Path 12279" transform="translate(-128.115 -264.842)"/>
            <path id="Path_12280" d="M231.7 298.465a1.572 1.572 0 0 1-.221-.021.937.937 0 0 1-.686-1.129q.127-.506.222-1.013c.116-.57.211-1.15.3-1.741s.137-1.181.179-1.772.063-1.2.063-1.8a4.647 4.647 0 0 0-.095-.939 4.829 4.829 0 0 0-.7-1.667 5.039 5.039 0 0 0-.57-.686 2.942 2.942 0 0 0-.179-.169.933.933 0 0 1 1.255-1.382c.084.074.158.148.243.232a6.515 6.515 0 0 1 1.909 4.61c0 .644-.021 1.3-.063 1.93s-.105 1.276-.19 1.9-.19 1.245-.306 1.867c-.074.359-.148.717-.243 1.076a.95.95 0 0 1-.918.704z" class="cls-6" data-name="Path 12280" transform="translate(-212.918 -277.008)"/>
            <path id="Path_12281" d="M213.339 428.24a.943.943 0 0 1-.812-.464.914.914 0 0 1 0-.928c.285-.5.549-1 .8-1.508s.485-1.023.707-1.561l.148-.359a.931.931 0 0 1 1.73.686l-.158.38c-.232.57-.485 1.118-.749 1.667s-.549 1.087-.854 1.614a.931.931 0 0 1-.812.473z" class="cls-6" data-name="Path 12281" transform="translate(-197.441 -399.515)"/>
            <path id="Path_12282" d="M163.471 326.434a.932.932 0 0 1-.823-.506.946.946 0 0 1 .074-.97l.939-1.308c.316-.454.622-.939.918-1.435s.57-1 .812-1.509.5-1.044.707-1.582.411-1.087.591-1.635.338-1.129.464-1.688.253-1.16.338-1.741.158-1.192.211-1.783.063-1.2.063-1.814a1.161 1.161 0 0 0-.021-.19.791.791 0 0 0-.053-.169.917.917 0 0 0-.2-.3.727.727 0 0 0-.137-.116 1.151 1.151 0 0 0-.158-.084 1.034 1.034 0 0 0-.169-.053.926.926 0 0 0-.854.253 1.125 1.125 0 0 0-.2.3.892.892 0 0 0-.053.179 1.161 1.161 0 0 0-.021.19.928.928 0 0 1-1.857 0 3.241 3.241 0 0 1 .053-.559 2.771 2.771 0 0 1 .76-1.414 2.766 2.766 0 0 1 2.532-.77 2.9 2.9 0 0 1 1 .422 2.81 2.81 0 0 1 .749.749 2.054 2.054 0 0 1 .253.475 3.072 3.072 0 0 1 .169.527 2.511 2.511 0 0 1 .053.559c0 .654-.021 1.319-.074 1.973s-.127 1.3-.222 1.931-.222 1.266-.369 1.878-.316 1.224-.506 1.825-.4 1.192-.633 1.772-.485 1.15-.76 1.709-.57 1.1-.886 1.635-.654 1.055-.992 1.561l-.949 1.319a.96.96 0 0 1-.749.369z" class="cls-6" data-name="Path 12282" transform="translate(-152.848 -296.485)"/>
            <path id="Path_12283" d="M136.922 371.4a.926.926 0 0 1-.833-.517.943.943 0 0 1 .095-.981c.316-.411.622-.833.907-1.276s.559-.9.812-1.35.485-.939.7-1.414.411-.981.58-1.477.327-1.023.464-1.54c.116-.432.222-.876.3-1.319a.926.926 0 0 1 1.509-.559.951.951 0 0 1 .327.876c-.105.6-.19.918-.327 1.466-.148.57-.316 1.129-.506 1.688s-.4 1.087-.644 1.625-.485 1.044-.77 1.551-.57 1-.886 1.477-.654.949-1 1.392a.889.889 0 0 1-.728.358z" class="cls-6" data-name="Path 12283" transform="translate(-129.094 -343.966)"/>
            <path id="Path_12284" d="M83.942 334.71a.931.931 0 0 1-.749-1.477q.269-.38.506-.76a11.809 11.809 0 0 0 .823-1.633c.116-.284.222-.57.327-.865a8.692 8.692 0 0 0 .253-.9c.074-.306.137-.612.19-.928s.095-.633.116-.949.032-.643.032-.971a.928.928 0 0 1 1.857 0c0 .38-.011.749-.042 1.118s-.074.738-.137 1.1a9.1 9.1 0 0 1-.222 1.065c-.084.348-.19.7-.3 1.034s-.232.675-.369 1-.285.654-.443.96-.338.622-.517.928-.369.591-.58.876a.889.889 0 0 1-.745.402z" class="cls-6" data-name="Path 12284" transform="translate(-81.706 -312.251)"/>
            <path id="Path_12285" d="M114.18 244.414a.939.939 0 0 1-.781-.422.957.957 0 0 1-.084-.876 9.376 9.376 0 0 1 .907-1.656 10.2 10.2 0 0 1 6.424-4.3 10.442 10.442 0 0 1 4.125 0 10.288 10.288 0 0 1 6.435 4.3l.127.179a5.49 5.49 0 0 1 .633 1.139.929.929 0 0 1-1.709.728 3.216 3.216 0 0 0-.454-.812l-.127-.19a8.289 8.289 0 0 0-2.268-2.268 8.372 8.372 0 0 0-3-1.266 8.656 8.656 0 0 0-3.376 0 8.352 8.352 0 0 0-3 1.255 8.921 8.921 0 0 0-1.245 1.023 7.742 7.742 0 0 0-1.023 1.245 7.2 7.2 0 0 0-.738 1.34.939.939 0 0 1-.846.581z" class="cls-6" data-name="Path 12285" transform="translate(-108.747 -233.221)"/>
            <path id="Path_12286" d="M260.49 339.288a.841.841 0 0 1-.359-.074.936.936 0 0 1-.506-1.213c.19-.454.359-.907.538-1.371s.327-.928.464-1.4.274-.949.4-1.435.232-.97.338-1.466.19-.992.264-1.487.137-1 .19-1.519.095-1.023.116-1.54.042-1.034.042-1.551a.928.928 0 0 1 1.857 0c0 .549-.011 1.108-.042 1.646s-.063 1.087-.127 1.625-.127 1.076-.2 1.6-.169 1.055-.274 1.582-.222 1.044-.359 1.551-.274 1.023-.422 1.519-.317 1-.5 1.487-.369.981-.57 1.456a.9.9 0 0 1-.85.59z" class="cls-6" data-name="Path 12286" transform="translate(-239.624 -312.251)"/>
            <path id="Path_12287" d="M71.528 249.7a.923.923 0 0 1-.928-.928 14.821 14.821 0 0 1 .274-2.817 14.315 14.315 0 0 1 .823-2.627A13.994 13.994 0 0 1 74.588 239a.928.928 0 0 1 1.561.4.954.954 0 0 1-.232.907 12.054 12.054 0 0 0-3.217 6.024 11.86 11.86 0 0 0-.243 2.437.925.925 0 0 1-.929.932z" class="cls-6" data-name="Path 12287" transform="translate(-70.6 -234.798)"/>
            <path id="Path_12288" d="M131.589 205.324a.934.934 0 0 1-.485-1.73 13.868 13.868 0 0 1 4.378-1.709 14.068 14.068 0 0 1 5.633 0c.4.084.8.179 1.192.3a.93.93 0 1 1-.527 1.783c-.338-.105-.686-.19-1.034-.264a12.281 12.281 0 0 0-4.884 0 11.951 11.951 0 0 0-3.787 1.477.9.9 0 0 1-.486.143z" class="cls-6" data-name="Path 12288" transform="translate(-124.321 -201.6)"/>
            <path id="Path_12289" d="M270.769 242.629a.8.8 0 0 1-.158-.011.922.922 0 0 1-.6-.38.957.957 0 0 1-.158-.7l.127-.749c.043-.249.074-.5.105-.749l.095-.76c.032-.253.053-.506.074-.76l.063-.76c.021-.253.032-.506.042-.77l.032-.77c.011-.253.011-.517.011-.781a12.557 12.557 0 0 0-.243-2.437 12.069 12.069 0 0 0-3.3-6.118 12.826 12.826 0 0 0-1.646-1.382.932.932 0 0 1 1.065-1.53 14.043 14.043 0 0 1 4.895 6.034 13.777 13.777 0 0 1 1.087 5.443c0 .274 0 .549-.011.823l-.032.823c-.011.274-.032.538-.042.812s-.042.538-.063.8-.053.538-.084.8l-.095.791c-.032.264-.074.527-.116.791s-.084.527-.127.781a.94.94 0 0 1-.921.759z" class="cls-6" data-name="Path 12289" transform="translate(-244.323 -221.467)"/>
        </g>
    </g>
</svg>
