<svg xmlns="http://www.w3.org/2000/svg" viewBox="0 0 43.928 63.895">
  <defs>
    <style>
      .cls-1 {
        fill: #ffc44f;
      }

      .cls-2 {
        fill: #e29f4e;
      }

      .cls-3 {
        fill: #ffb357;
      }

      .cls-4 {
        fill: #ce9046;
      }

      .cls-5 {
        fill: #e6e3e2;
      }

      .cls-6 {
        fill: #c6c6c6;
      }

      .cls-7 {
        fill: #ffd88b;
      }
    </style>
  </defs>
  <g id="lock-icon" transform="translate(11824 619.895)">
    <path id="Path_12311" data-name="Path 12311" class="cls-1" d="M2,208H41.931a2,2,0,0,1,2,2v33.944a2,2,0,0,1-2,2H2a2,2,0,0,1-2-2V210A2,2,0,0,1,2,208Z" transform="translate(-11824 -801.938)"/>
    <path id="Path_12315" data-name="Path 12315" class="cls-2" d="M151.987,299.993a3.993,3.993,0,1,0-6.252,3.295l-1.535,7.687a.793.793,0,0,0,.549.973.57.57,0,0,0,.25.025h5.99a.784.784,0,0,0,.824-.749.849.849,0,0,0-.025-.25l-1.535-7.687A3.993,3.993,0,0,0,151.987,299.993Z" transform="translate(-11950.029 -878.956)"/>
    <path id="Path_12312" data-name="Path 12312" class="cls-3" d="M55.934,226v31.947H18a2,2,0,0,0-2,2H55.934a2,2,0,0,0,2-2V224h0A2,2,0,0,0,55.934,226Z" transform="translate(-11838.003 -815.94)"/>
    <path id="Path_12316" data-name="Path 12316" class="cls-4" d="M148.192,304.572a4,4,0,0,1,3-7.226,3.995,3.995,0,1,0-5.329,5.953c.112.1.225.187.337.275l-1.535,7.687a.793.793,0,0,0,.549.973.57.57,0,0,0,.25.025h1.2Z" transform="translate(-11950.49 -879.241)"/>
    <path id="Path_12313" data-name="Path 12313" class="cls-5" d="M63.974,0A15.972,15.972,0,0,0,48,15.974v9.984h5.99V15.974a9.984,9.984,0,0,1,19.967,0v9.984h5.99V15.974A15.972,15.972,0,0,0,63.974,0Z" transform="translate(-11866.01 -619.895)"/>
    <g id="Group_3204" data-name="Group 3204" transform="translate(-11818.01 -619.895)">
      <path id="Path_12307" data-name="Path 12307" class="cls-6" d="M57.122,58.007a10.864,10.864,0,0,0-5.129,9.36V72.6a2,2,0,0,1-2,2h0a2,2,0,0,0-2,2h5.99V66.605a9.948,9.948,0,0,1,3.794-7.825.505.505,0,0,0-.549-.849Z" transform="translate(-48 -50.631)"/>
      <path id="Path_12308" data-name="Path 12308" class="cls-6" d="M175.3,0c-.075,0-.1.087-.1.225A1.993,1.993,0,0,0,177,2.159c7.4,1.061,12.28,5.928,12.28,13.815v5.99a2,2,0,0,1-2,2h0a2,2,0,0,0-2,2h5.99V15.974A15.972,15.972,0,0,0,175.3,0Z" transform="translate(-159.326)"/>
    </g>
    <path id="Path_12314" data-name="Path 12314" class="cls-7" d="M16,208H55.934a2,2,0,0,1-2,2H18a2,2,0,0,1-2-2Z" transform="translate(-11838.003 -801.938)"/>
  </g>
</svg>
