<svg xmlns="http://www.w3.org/2000/svg" viewBox="0 0 62.862 56.359">
    <defs>
        <style>
            .cls-1{fill:#e4af18}.cls-2{fill:#f4bf1a}.cls-3{fill:#ffc44f}.cls-4{fill:#ffb357}.cls-5{fill:#ce9046}.cls-6{fill:#ffd88b}
        </style>
    </defs>
    <g id="money-icon" transform="translate(-768.828 -2060.312)">
        <path id="XMLID_46_" d="M31.18 45.5C15.572 45.5 3 42.251 3 39v7.587c0 3.251 12.572 6.5 28.18 6.5s28.18-3.251 28.18-6.5V39c0 3.252-12.572 6.5-28.18 6.5" class="cls-1" transform="translate(769.08 2063.582)"/>
        <path id="XMLID_45_" d="M28.18 34.5C12.572 34.5 0 31.252 0 28v7.587c0 3.251 12.572 6.5 28.18 6.5s28.18-3.251 28.18-6.5V28c0 3.251-12.572 6.5-28.18 6.5" class="cls-2" transform="translate(768.828 2062.659)"/>
        <path id="XMLID_44_" d="M34.18 23.5C18.572 23.5 6 20.252 6 17v7.587c0 3.251 12.572 6.5 28.18 6.5s28.18-3.251 28.18-6.5V17c0 3.252-12.572 6.5-28.18 6.5" class="cls-1" transform="translate(769.331 2061.737)"/>
        <path id="XMLID_43_" d="M56.359 5.528c0 3.252-12.572 6.395-28.18 6.395S0 8.887 0 5.528C0 2.276 12.572 0 28.18 0s28.18 2.276 28.18 5.528" class="cls-3" transform="translate(768.828 2060.312)"/>
        <path id="XMLID_42_" d="M28.18 11.5C12.572 11.5 0 8.252 0 5v7.587c0 3.251 12.572 6.5 28.18 6.5s28.18-3.252 28.18-6.5V5c0 3.252-12.572 6.5-28.18 6.5" class="cls-4" transform="translate(768.828 2060.731)"/>
        <path id="XMLID_41_" d="M4 8.1v7.587c.65.217 1.409.434 2.168.65V8.75A52.873 52.873 0 0 1 4 8.1" class="cls-5" transform="translate(769.163 2060.991)"/>
        <path id="XMLID_40_" d="M46 8.75v7.587a56.747 56.747 0 0 0 2.168-.65V8.1c-.65.217-1.409.434-2.168.65" class="cls-5" transform="translate(772.684 2060.991)"/>
        <path id="XMLID_39_" d="M9 9.4v7.587c.65.108 1.409.325 2.168.434V9.834A12.786 12.786 0 0 1 9 9.4" class="cls-5" transform="translate(769.583 2061.1)"/>
        <path id="XMLID_38_" d="M41 9.834v7.586a12.786 12.786 0 0 0 2.168-.434V9.4A12.786 12.786 0 0 1 41 9.834" class="cls-5" transform="translate(772.265 2061.1)"/>
        <path id="XMLID_37_" d="M14 10.3v7.587a14.688 14.688 0 0 0 2.168.217v-7.587c-.759-.108-1.409-.108-2.168-.217" class="cls-5" transform="translate(770.002 2061.176)"/>
        <path id="XMLID_36_" d="M36 10.517V18.1c.759-.108 1.409-.108 2.168-.217V10.3c-.759.108-1.409.108-2.168.217" class="cls-5" transform="translate(771.846 2061.176)"/>
        <path id="XMLID_35_" d="M19 10.8v7.587c.759 0 1.409.108 2.168.108v-7.587A14.526 14.526 0 0 0 19 10.8" class="cls-5" transform="translate(770.421 2061.218)"/>
        <path id="XMLID_34_" d="M31 10.908V18.5c.759 0 1.409-.108 2.168-.108V10.8a14.526 14.526 0 0 0-2.168.108" class="cls-5" transform="translate(771.427 2061.218)"/>
        <path id="XMLID_33_" d="M26.084 11H25v7.587h2.168V11h-1.084" class="cls-5" transform="translate(770.924 2061.234)"/>
        <path id="XMLID_32_" d="M10 20.1v7.587c.65.217 1.409.434 2.168.65V20.75A56.747 56.747 0 0 1 10 20.1" class="cls-5" transform="translate(769.666 2061.997)"/>
        <path id="XMLID_31_" d="M52 20.75v7.587a56.747 56.747 0 0 0 2.168-.65V20.1c-.65.217-1.409.434-2.168.65" class="cls-5" transform="translate(773.187 2061.997)"/>
        <path id="XMLID_30_" d="M15 21.4v7.587c.65.108 1.409.325 2.168.434v-7.587A12.785 12.785 0 0 1 15 21.4" class="cls-5" transform="translate(770.086 2062.106)"/>
        <path id="XMLID_29_" d="M47 21.834v7.586a12.786 12.786 0 0 0 2.168-.434V21.4a12.785 12.785 0 0 1-2.168.434" class="cls-5" transform="translate(772.768 2062.106)"/>
        <path id="XMLID_28_" d="M20 22.3v7.587a14.688 14.688 0 0 0 2.168.217v-7.587c-.759-.108-1.409-.108-2.168-.217" class="cls-5" transform="translate(770.505 2062.181)"/>
        <path id="XMLID_27_" d="M42 22.517V30.1c.759-.108 1.409-.108 2.168-.217V22.3c-.759.108-1.409.108-2.168.217" class="cls-5" transform="translate(772.349 2062.181)"/>
        <path id="XMLID_26_" d="M25 22.8v7.587c.759 0 1.409.108 2.168.108v-7.587A14.525 14.525 0 0 0 25 22.8" class="cls-5" transform="translate(770.924 2062.223)"/>
        <path id="XMLID_25_" d="M37 22.908V30.5c.759 0 1.409-.108 2.168-.108V22.8a14.525 14.525 0 0 0-2.168.108" class="cls-5" transform="translate(771.93 2062.223)"/>
        <path id="XMLID_24_" d="M32.084 23H31v7.587h2.168V23h-1.084" class="cls-5" transform="translate(771.427 2062.24)"/>
        <path id="XMLID_23_" d="M4 31.1v7.587c.65.217 1.409.434 2.168.65V31.75A52.873 52.873 0 0 1 4 31.1" class="cls-5" transform="translate(769.163 2062.919)"/>
        <path id="XMLID_22_" d="M46 31.75v7.587a56.747 56.747 0 0 0 2.168-.65V31.1c-.65.217-1.409.434-2.168.65" class="cls-5" transform="translate(772.684 2062.919)"/>
        <path id="XMLID_20_" d="M9 32.4v7.587c.65.108 1.409.325 2.168.434v-7.587A12.786 12.786 0 0 1 9 32.4" class="cls-5" transform="translate(769.583 2063.028)"/>
        <path id="XMLID_19_" d="M41 32.834v7.586a12.785 12.785 0 0 0 2.168-.434V32.4a12.786 12.786 0 0 1-2.168.434" class="cls-5" transform="translate(772.265 2063.028)"/>
        <path id="XMLID_18_" d="M14 33.3v7.587a14.688 14.688 0 0 0 2.168.217v-7.587c-.759-.108-1.409-.108-2.168-.217" class="cls-5" transform="translate(770.002 2063.104)"/>
        <path id="XMLID_17_" d="M36 33.517V41.1c.759-.108 1.409-.108 2.168-.217V33.3c-.759.108-1.409.108-2.168.217" class="cls-5" transform="translate(771.846 2063.104)"/>
        <path id="XMLID_16_" d="M19 33.8v7.587c.759 0 1.409.108 2.168.108v-7.587A14.525 14.525 0 0 0 19 33.8" class="cls-5" transform="translate(770.421 2063.146)"/>
        <path id="XMLID_15_" d="M31 33.908V41.5c.759 0 1.409-.108 2.168-.108V33.8a14.525 14.525 0 0 0-2.168.108" class="cls-5" transform="translate(771.427 2063.146)"/>
        <path id="XMLID_14_" d="M26.084 34H25v7.587h2.168V34h-1.084" class="cls-5" transform="translate(770.924 2063.162)"/>
        <path id="XMLID_13_" d="M7 42.1v7.587c.65.217 1.409.434 2.168.65V42.75A52.873 52.873 0 0 1 7 42.1" class="cls-5" transform="translate(769.415 2063.841)"/>
        <path id="XMLID_12_" d="M49 42.75v7.587a56.747 56.747 0 0 0 2.168-.65V42.1c-.65.217-1.409.434-2.168.65" class="cls-5" transform="translate(772.936 2063.841)"/>
        <path id="XMLID_11_" d="M12 43.4v7.587c.65.108 1.409.325 2.168.434v-7.587A12.786 12.786 0 0 1 12 43.4" class="cls-5" transform="translate(769.834 2063.95)"/>
        <path id="XMLID_10_" d="M44 43.834v7.586a12.785 12.785 0 0 0 2.168-.434V43.4a12.786 12.786 0 0 1-2.168.434" class="cls-5" transform="translate(772.517 2063.95)"/>
        <path id="XMLID_9_" d="M17 44.3v7.587a14.689 14.689 0 0 0 2.168.217v-7.587c-.759-.108-1.409-.108-2.168-.217" class="cls-5" transform="translate(770.253 2064.026)"/>
        <path id="XMLID_8_" d="M39 44.517V52.1c.759-.108 1.409-.108 2.168-.217V44.3c-.759.108-1.409.108-2.168.217" class="cls-5" transform="translate(772.098 2064.026)"/>
        <path id="XMLID_7_" d="M22 44.8v7.587c.759 0 1.409.108 2.168.108v-7.587A14.525 14.525 0 0 0 22 44.8" class="cls-5" transform="translate(770.672 2064.068)"/>
        <path id="XMLID_6_" d="M34 44.908V52.5c.759 0 1.409-.108 2.168-.108V44.8a14.524 14.524 0 0 0-2.168.108" class="cls-5" transform="translate(771.678 2064.068)"/>
        <path id="XMLID_5_" d="M29.084 45H28v7.587h2.168V45h-1.084" class="cls-5" transform="translate(771.175 2064.084)"/>
        <path id="XMLID_4_" d="M55.241 36.4c-3.035 2.71-14.09 4.986-27.313 4.986-10.3 0-19.292-1.409-24.278-3.36a1.874 1.874 0 0 0-.65 1.3c0 3.251 12.572 6.395 28.18 6.395s28.18-3.035 28.18-6.395c0-1.084-1.517-2.168-4.119-2.926" class="cls-3" transform="translate(769.08 2063.364)"/>
        <path id="XMLID_3_" d="M34.683 30.444c-14.307 0-26.12-2.71-27.963-5.744C2.493 25.675 0 26.976 0 28.385c0 3.252 12.572 6.395 28.18 6.395s28.18-3.035 28.18-6.395a.652.652 0 0 0-.108-.434c-5.094 1.517-12.9 2.493-21.568 2.493" class="cls-6" transform="translate(768.828 2062.383)"/>
        <path id="XMLID_2_" d="M54.773 13.5c-3.36 2.71-14.2 4.877-27.1 4.877-8.346 0-15.824-.867-20.918-2.276A1.675 1.675 0 0 0 6 17.4c0 3.253 12.572 6.4 28.18 6.4s28.18-3.035 28.18-6.395c0-1.517-2.926-2.926-7.587-3.9" class="cls-3" transform="translate(769.331 2061.444)"/>
    </g>
</svg>
