<svg xmlns="http://www.w3.org/2000/svg" viewBox="0 0 65.248 65.25">
    <defs>
        <style>
            .cls-1{fill:#595a66}.cls-2{fill:#ecf0f9}.cls-3{fill:#b0c4d9}.cls-4{fill:#d5e3ef}.cls-5{fill:#ff7883}.cls-6{fill:#6f707e}.cls-7{fill:#494a52}.cls-8{fill:#db5e6f}
        </style>
    </defs>
    <g id="performance-icon" transform="translate(-418 -1868.109)">
        <g id="flat_1_" transform="translate(418 1868.115)">
            <circle id="Ellipse_618" cx="32.597" cy="32.597" r="32.597" class="cls-1" data-name="Ellipse 618"/>
            <path id="Path_12379" d="M26.977 0A26.977 26.977 0 1 1 0 26.977 26.977 26.977 0 0 1 26.977 0z" class="cls-2" data-name="Path 12379" transform="translate(5.62 5.62)"/>
            <path id="Rectangle_2725" d="M0 0h2.248v6.744H0z" class="cls-3" data-name="Rectangle 2725" transform="rotate(-30 33.642 -30.626)"/>
            <path id="Rectangle_2726" d="M0 0h2.248v6.744H0z" class="cls-3" data-name="Rectangle 2726" transform="rotate(-60 24.647 .845)"/>
            <path id="Rectangle_2727" d="M0 0h2.248v6.744H0z" class="cls-3" data-name="Rectangle 2727" transform="rotate(-60 59.695 -19.385)"/>
            <path id="Rectangle_2728" d="M0 0h6.744v2.248H0z" class="cls-3" data-name="Rectangle 2728" transform="translate(8.992 31.473)"/>
            <path id="Rectangle_2729" d="M0 0h6.744v2.248H0z" class="cls-3" data-name="Rectangle 2729" transform="translate(49.457 31.473)"/>
            <path id="Rectangle_2730" d="M0 0h6.744v2.248H0z" class="cls-3" data-name="Rectangle 2730" transform="rotate(-29.993 86.852 .075)"/>
            <path id="Rectangle_2731" d="M0 0h6.744v2.248H0z" class="cls-3" data-name="Rectangle 2731" transform="rotate(-30 66.597 -75.42)"/>
            <path id="Rectangle_2732" d="M0 0h6.744v2.248H0z" class="cls-3" data-name="Rectangle 2732" transform="rotate(-60.007 35.121 -25.967)"/>
            <path id="Path_12375" d="M224 67.372v3.372h2.248V64H224z" class="cls-3" data-name="Path 12375" transform="translate(-192.527 -55.008)"/>
            <path id="Rectangle_2733" d="M0 0h2.248v3.372H0z" class="cls-3" data-name="Rectangle 2733" transform="rotate(-14.98 50.937 -91.371)"/>
            <path id="Rectangle_2734" d="M0 0h2.248v3.372H0z" class="cls-3" data-name="Rectangle 2734" transform="rotate(-45 27.716 -9.893)"/>
            <path id="Rectangle_2735" d="M0 0h2.248v3.372H0z" class="cls-3" data-name="Rectangle 2735" transform="rotate(-74.99 22.72 7.592)"/>
            <path id="Rectangle_2736" d="M0 0h2.248v3.372H0z" class="cls-3" data-name="Rectangle 2736" transform="rotate(-74.99 51.286 -14.336)"/>
            <path id="Rectangle_2737" d="M0 0h3.372v2.248H0z" class="cls-3" data-name="Rectangle 2737" transform="rotate(-14.98 147.54 -17.323)"/>
            <path id="Rectangle_2738" d="M0 0h3.372v2.248H0z" class="cls-3" data-name="Rectangle 2738" transform="rotate(-14.98 125.549 -183.708)"/>
            <path id="Rectangle_2739" d="M0 0h3.372v2.248H0z" class="cls-3" data-name="Rectangle 2739" transform="rotate(-45 44.176 -46.908)"/>
            <path id="Rectangle_2740" d="M0 0h3.372v2.248H0z" class="cls-3" data-name="Rectangle 2740" transform="rotate(-74.99 26.686 -17.57)"/>
            <path id="Rectangle_2741" d="M0 0h24.729v6.744H0z" class="cls-3" data-name="Rectangle 2741" transform="translate(20.233 44.961)"/>
            <path id="Rectangle_2742" d="M0 0h24.729v2.248H0z" class="cls-4" data-name="Rectangle 2742" transform="translate(20.233 44.961)"/>
            <path id="Path_12378" d="M20.148 1.588L18.561 0l-9.3 9.3a4.478 4.478 0 0 0-6.14 6.14L0 18.561l1.588 1.588 3.119-3.119a4.478 4.478 0 0 0 6.14-6.14z" class="cls-5" data-name="Path 12378" transform="rotate(180 19.93 22.747)"/>
            <path id="Path_12380" d="M48.75 75.684A27.017 27.017 0 0 1 75.684 48.75a25.954 25.954 0 0 1 17.806 6.878A26.19 26.19 0 0 0 73.447 46.5 27.02 27.02 0 0 0 46.5 73.434a26.19 26.19 0 0 0 9.128 20.043 25.9 25.9 0 0 1-6.878-17.793z" class="cls-4" data-name="Path 12380" transform="translate(-40.822 -41.049)"/>
        </g>
        <path id="Path_12381" d="M32.625 0A32.525 32.525 0 0 0 0 32.625a3.069 3.069 0 0 0 3.11-2.816 29.913 29.913 0 0 1 8.755-18.39A29.383 29.383 0 0 1 29.808 3.11 3.069 3.069 0 0 0 32.625 0z" class="cls-6" data-name="Path 12381" transform="translate(418 1868.109)"/>
        <path id="Path_12382" d="M256 288.625A32.525 32.525 0 0 0 288.625 256a3.069 3.069 0 0 0-3.109 2.816 29.559 29.559 0 0 1-26.7 26.7 3.069 3.069 0 0 0-2.816 3.109z" class="cls-7" data-name="Path 12382" transform="translate(194.624 1644.734)"/>
        <path id="Path_12383" d="M232.019 225.7a4.558 4.558 0 0 1-3.849 6.818 6.025 6.025 0 0 1-2.37-.6 4.858 4.858 0 0 0 3.861 2.082 4.365 4.365 0 0 0 4.448-4.448 4.9 4.9 0 0 0-2.09-3.852z" class="cls-8" data-name="Path 12383" transform="translate(221.257 1670.891)"/>
        <ellipse id="Ellipse_620" cx=".739" cy=".739" class="cls-8" data-name="Ellipse 620" rx=".739" ry=".739" transform="translate(447.937 1898.975)"/>
    </g>
</svg>
