<?xml version="1.0" encoding="utf-8"?>
<!-- Generator: Adobe Illustrator 22.1.0, SVG Export Plug-In . SVG Version: 6.00 Build 0)  -->
<svg version="1.1" id="Layer_1" xmlns="http://www.w3.org/2000/svg" xmlns:xlink="http://www.w3.org/1999/xlink" x="0px" y="0px"
	 viewBox="0 0 363 100" style="enable-background:new 0 0 363 100;" xml:space="preserve">
<style type="text/css">
	.st0{fill:#FFFFFF;}
	.st1{fill:#35B3D4;}
</style>
<g>
	<path class="st0" d="M3.6,4h31.2c16,0,26.9,9,26.9,23.3c0,16.4-12.4,23.9-27.3,23.9H20v28.1H3.6V4z M20,38.2h12.4
		c7.5,0,12.9-2.9,12.9-10.6c0-7.8-5.6-10.7-12.5-10.7H20V38.2z"/>
	<path class="st0" d="M66.5,37.1c0-5.8,0-10.9-0.1-15.7h15.8c0.2,1.3,0.4,7.1,0.4,10.2c2.6-6.6,8.7-11.5,18.6-11.5v15.3
		C89.5,35,82.6,38.1,82.6,54v25.3H66.5V37.1z"/>
	<path class="st0" d="M267.8,56.2c0.4-1.9,0.6-3.8,0.6-5.8c0-16.5-13.4-29.8-30-29.8s-30,13.4-30,29.8s13.4,29.8,30,29.8
		c12,0,22.3-6.9,27.1-17h-19.3c-2.3,1.4-5,2.2-7.8,2.2c-6.3,0-11.7-3.8-13.9-9.2H267.8z M224.3,45c2.2-5.6,7.7-9.6,14.1-9.6
		c6.4,0,11.9,4,14.1,9.6H224.3z"/>
	<path class="st0" d="M273.2,36.7c0-4.9,0-10.3-0.1-14.6h15.5c0.3,1.5,0.5,5.5,0.6,7.4c2-3.6,6.7-8.7,16.8-8.7
		c11.6,0,19.2,7.9,19.2,22.4V80h-16V45c0-6.5-2.2-11.2-9.2-11.2c-6.8,0-10.7,3.8-10.7,14V80h-16V36.7z"/>
	<polygon class="st1" points="193.8,20.5 177.4,62.8 163.2,42 150.3,51.5 170.7,80 187.6,80 210.7,20.5 	"/>
	<path class="st0" d="M345.9,22.4h7.5c3.6,0,5.2,1.8,5.2,3.9c0,1.6-0.8,2.7-2,3.2c1.1,0.4,2.5,1.5,2.5,3.4c0,2.5-1.8,4.5-5.6,4.5
		h-7.5V22.4z M352.6,28.2c1.2,0,1.7-0.6,1.7-1.4c0-0.9-0.7-1.4-1.7-1.4h-2.4v2.8H352.6z M350.2,34.4h2.2c1.4,0,2.1-0.6,2.1-1.7
		c0-0.9-0.6-1.6-2-1.6h-2.3V34.4z"/>
	<path class="st0" d="M330,22.4h6.4c4.8,0,7.5,3,7.5,7.3c0,4.3-2.7,7.7-7.6,7.7H330V22.4z M334.4,34.2h1.7c2.4,0,3.4-1.7,3.4-4.5
		c0-2.5-0.9-4.1-3.3-4.1h-1.7V34.2z"/>
	<g>
		<path class="st1" d="M141,16.9c0.5-4.7,4.4-8.3,9.2-8.3h60.5c5.1,0,9.2,4.1,9.2,9.2v3.5c1.9-1.2,3.9-2.2,6-3v-1.5
			C226,9.2,219.8,3,212.2,3h-63.5c-7.4,0-13.4,5.8-13.7,13.1C137.1,16.2,139.1,16.4,141,16.9z"/>
		<path class="st1" d="M220,79.1v4.1c0,5.1-4.1,9.2-9.2,9.2h-60.5c-5,0-9.1-4-9.2-9c-1.9,0.4-4,0.7-6,0.8c0,7.6,6.2,13.7,13.8,13.7
			h63.5c7.6,0,13.8-6.2,13.8-13.8v-2.2C223.9,81.3,221.9,80.3,220,79.1z"/>
	</g>
	<path class="st0" d="M147.7,54.5l-0.1-0.2c-1.8,6.2-7.6,10.8-14.5,10.8c-8.3,0-15.1-6.7-15.1-15s6.8-15,15.1-15
		c7.9,0,14.3,6,15,13.6l12.9-9.5c-4.4-11.1-15.2-18.9-27.9-18.9c-16.6,0-30,13.4-30,29.8s13.4,29.8,30,29.8
		c9.9,0,18.7-4.8,24.1-12.1L147.7,54.5z"/>
</g>
</svg>
