<?xml version="1.0" encoding="utf-8"?>
<!-- Generator: Adobe Illustrator 22.1.0, SVG Export Plug-In . SVG Version: 6.00 Build 0)  -->
<svg version="1.1" id="Layer_1" xmlns="http://www.w3.org/2000/svg" xmlns:xlink="http://www.w3.org/1999/xlink" x="0px" y="0px"
	 viewBox="0 0 410 218" style="enable-background:new 0 0 410 218;" xml:space="preserve">
<style type="text/css">
	.st0{fill:#FFFFFF;}
	.st1{fill:#35B3D4;}
</style>
<g>
	<path class="st0" d="M148.7,22.1h35.8c18.4,0,30.8,10.3,30.8,26.8c0,18.8-14.2,27.4-31.3,27.4h-16.6v32.3h-18.7V22.1z M167.4,61.3
		h14.3c8.7,0,14.8-3.3,14.8-12.2c0-8.9-6.5-12.3-14.4-12.3h-14.7V61.3z"/>
	<path class="st0" d="M220.7,61.2c0-6.5,0-12.2-0.1-17.6h17.6c0.2,1.5,0.5,7.9,0.5,11.4c2.9-7.4,9.8-12.8,20.8-12.9v17.2
		c-13-0.3-20.8,3.2-20.8,21v28.3h-18V61.2z"/>
	<path class="st0" d="M298.3,40.6c-18.9,0-34.1,15.3-34.1,34.1s15.3,34.1,34.1,34.1s34.1-15.3,34.1-34.1S317.2,40.6,298.3,40.6z
		 M298.3,91.8c-9.4,0-17.1-7.6-17.1-17.1s7.6-17.1,17.1-17.1s17.1,7.6,17.1,17.1S307.8,91.8,298.3,91.8z"/>
	<path class="st0" d="M290.1,148.6c0-18.9-15.3-34.1-34.1-34.1s-34.1,15.3-34.1,34.1s15.3,34.1,34.1,34.1c14.4,0,26.7-8.9,31.7-21.6
		h-19.8c-3.1,3-7.3,4.8-12,4.8c-8.6,0-15.7-6.2-17.1-14.4c0,0,27.9,0.1,42.5,0.1l0,0h8.6C290,151.7,290.1,149.6,290.1,148.6z
		 M240.5,140.8c2.9-5.7,8.7-9.6,15.5-9.6c6.8,0,12.7,3.9,15.5,9.6H240.5z"/>
	<path class="st0" d="M296.2,133.8c0-5.5,0-11.6-0.1-16.4h17.4c0.4,1.7,0.6,6.2,0.7,8.3c2.2-4.1,7.5-9.8,18.8-9.8
		c13,0,21.5,8.8,21.5,25.1v41.3h-18v-39.3c0-7.3-2.4-12.6-10.4-12.6c-7.6,0-12,4.2-12,15.7v36.2h-18V133.8z"/>
	<polygon class="st0" points="197.2,182.8 225.3,117.4 206.8,117.5 187.2,163 167.1,117.7 148.6,117.8 177.4,182.9 	"/>
	<g>
		<path class="st0" d="M384,129.6c0,7.2-5.3,12.1-13.1,12.1h-10.2v-24.2h10.4C378.8,117.5,384,122.4,384,129.6z M377.6,129.7
			c0-4.2-2.7-7-6.6-7h-4v13.9h4.3C375,136.6,377.6,133.8,377.6,129.7z"/>
		<path class="st0" d="M406.8,123.6c0,2.5-1.6,4.6-4.2,5.2c3.1,0.6,5,3,5,6.1c0,4.1-3.6,6.7-9.3,6.7h-11.9v-24.2h11.5
			C403.3,117.5,406.8,119.9,406.8,123.6z M400.3,124.7c0-1.4-1.1-2.3-2.8-2.3h-4.8v4.7h4.8C399.3,127.1,400.3,126.2,400.3,124.7z
			 M401.1,134.2c0-1.5-1.4-2.5-3.6-2.4h-4.8v5.1h4.8C399.7,136.8,401.1,135.8,401.1,134.2z"/>
	</g>
	<polygon class="st1" points="137.5,13.1 167.1,13.1 171.6,0.1 136.5,0 85.4,145.5 44.9,93.5 17.1,115.1 69.5,183.2 107.8,183.2 
		137.5,97.8 137.5,22.7 137.5,21.3 	"/>
	<path class="st1" d="M163.6,178.4v5.5c0,11.7-9.5,21.2-21.2,21.2H34.9c-11.7,0-21.2-9.5-21.2-21.2v-19.6c0,0,0,0,0,0V53.9
		c0-11.7,9.5-21.2,21.2-21.2h21.3h55.2l4.1-11.8H51.4H33c-17.2,0-31.2,14-31.2,31.2v124.8v8.9c0,3.2,0.5,6.3,1.4,9.3
		C7.2,207.8,19.1,217,33,217h0h111.2h0c11.8,0,22.1-6.6,27.4-16.3c0.5-0.9,0.9-1.8,1.3-2.7C170.6,193.1,166.9,185.5,163.6,178.4z"/>
</g>
</svg>
