<svg xmlns="http://www.w3.org/2000/svg" viewBox="0 0 45.855 42.99">
    <defs>
        <style>
            .cls-1{fill:#cae8f9}.cls-2{fill:#b7e0f6}.cls-3{fill:#4e96e2}.cls-4{fill:#56a5f8}
        </style>
    </defs>
    <g id="quote-icon" transform="translate(-338.996 -3439.376)">
        <path id="Path_12159" d="M41.824 0H4.03A4.025 4.025 0 0 0 0 4.03V30.9a4.025 4.025 0 0 0 4.03 4.03h4.12v6.717a1.34 1.34 0 0 0 .833 1.236 1.283 1.283 0 0 0 1.451-.3l7.684-7.657h23.706a4.025 4.025 0 0 0 4.03-4.03V4.03A4.025 4.025 0 0 0 41.824 0z" class="cls-1" data-name="Path 12159" transform="translate(338.996 3439.376)"/>
        <path id="Path_12160" d="M278.927 4.03V30.9a4.025 4.025 0 0 1-4.03 4.03H256V0h18.9a4.025 4.025 0 0 1 4.027 4.03z" class="cls-2" data-name="Path 12160" transform="translate(105.923 3439.376)"/>
        <path id="Path_12161" d="M277.717 90h-2.687a4.036 4.036 0 0 0-4.03 4.03v2.687a4.036 4.036 0 0 0 4.03 4.03h2.687a3.914 3.914 0 0 0 1.128-.179 8.31 8.31 0 0 1-4.415 5.7 1.342 1.342 0 0 0 1.2 2.4 11 11 0 0 0 6.117-9.9V94.03a4.036 4.036 0 0 0-4.03-4.03z" class="cls-3" data-name="Path 12161" transform="translate(92.267 3357.436)"/>
        <path id="Path_12162" d="M127.717 90h-2.687a4.036 4.036 0 0 0-4.03 4.03v2.687a4.036 4.036 0 0 0 4.03 4.03h2.687a3.914 3.914 0 0 0 1.128-.179 8.31 8.31 0 0 1-4.415 5.7 1.342 1.342 0 0 0 1.2 2.4 11 11 0 0 0 6.117-9.9V94.03a4.036 4.036 0 0 0-4.03-4.03z" class="cls-4" data-name="Path 12162" transform="translate(228.833 3357.436)"/>
    </g>
</svg>
