<svg xmlns="http://www.w3.org/2000/svg" viewBox="0 0 65.551 68.689">
    <defs>
        <style>
            .cls-1{fill:#ffb357}.cls-2{fill:#ad9390}.cls-3{fill:#ffc44f}.cls-4{fill:#82716f}.cls-5{fill:#e29f4e}
        </style>
    </defs>
    <g id="scales-icon" transform="translate(-624 -3961.102)">
        <g id="Group_3191" data-name="Group 3191" transform="translate(631.746 3978.358)">
            <path id="Path_12250" d="M427.093 151.968a.857.857 0 0 1-.778-.469l-7.807-21.85a.742.742 0 1 1 1.408-.469l7.954 21.233s-.161 1.408-.469 1.556z" class="cls-1" data-name="Path 12250" transform="translate(-370.067 -128.648)"/>
            <path id="Path_12251" d="M66.394 151.968a.857.857 0 0 1-.778-.469l-7.807-21.85a.742.742 0 1 1 1.408-.469l7.954 21.233s-.161 1.408-.469 1.556z" class="cls-1" data-name="Path 12251" transform="translate(-57.748 -128.648)"/>
        </g>
        <path id="Path_12252" d="M81.044 18.725h-2.495a19.045 19.045 0 0 1-9.215-2.495 15.284 15.284 0 0 0-14.2-.63l-.621-14.044a1.556 1.556 0 0 0-3.112 0l-.63 13.9a15.708 15.708 0 0 0-14.2.63 17.953 17.953 0 0 1-9.215 2.656h-2.5a1.556 1.556 0 1 0 0 3.112h2.495a21.86 21.86 0 0 0 10.771-2.964 12.025 12.025 0 0 1 12.327.161l-2.187 41.832c-.778 0-7.954 4.064-7.954 4.064a2.652 2.652 0 0 0-1.408 2.187 1.673 1.673 0 0 0 1.556 1.556h24.975a1.673 1.673 0 0 0 1.556-1.556 2.652 2.652 0 0 0-1.408-2.186s-7.029-4.064-7.954-4.064L55.6 19.047a12.025 12.025 0 0 1 12.327-.161A20.414 20.414 0 0 0 78.7 21.85h2.347a1.563 1.563 0 0 0 0-3.125z" class="cls-2" data-name="Path 12252" transform="translate(603.825 3961.102)"/>
        <path id="Path_12253" d="M6.868 290.9h10.3v1.878a8.875 8.875 0 0 1-8.585 9.054A8.875 8.875 0 0 1 0 292.778V290.9z" class="cls-3" data-name="Path 12253" transform="translate(624 3709.221)"/>
        <g id="Group_3192" data-name="Group 3192" transform="translate(627.125 3961.708)">
            <path id="Path_12254" d="M166.292 68.849s-7.029-4.064-7.954-4.064l-3.125-59.314c0-.939-1.556-1.556-1.556 0v59.313l2.025 4.064a1.539 1.539 0 0 1-1.408 2.186H139.6a1.673 1.673 0 0 0 1.556 1.556h24.976a1.673 1.673 0 0 0 1.556-1.556 2.639 2.639 0 0 0-1.396-2.185z" class="cls-4" data-name="Path 12254" transform="translate(-124 -4.521)"/>
            <path id="Path_12255" d="M263.845 121.081a18.636 18.636 0 0 1-9.993-2.8 13.358 13.358 0 0 0-6.868-1.878 13.984 13.984 0 0 0-7.5 2.186l-1.247.939-.939 1.247a1.708 1.708 0 0 0 1.717 0l1.247-.939a12.181 12.181 0 0 1 12.8-.309 20.414 20.414 0 0 0 10.771 2.964h2.495a1.565 1.565 0 0 0 1.556-1.556h-4.064l.027.148z" class="cls-4" data-name="Path 12255" transform="translate(-208.596 -101.393)"/>
            <path id="Path_12256" d="M27.351 121.081a18.636 18.636 0 0 0 9.993-2.8 13.358 13.358 0 0 1 6.868-1.878 13.984 13.984 0 0 1 7.5 2.186l1.247.939.939 1.247a1.708 1.708 0 0 1-1.717 0l-1.247-.939a12.181 12.181 0 0 0-12.8-.309 20.584 20.584 0 0 1-10.771 3.125h-2.507a1.565 1.565 0 0 1-1.556-1.556l4.051-.013z" class="cls-4" data-name="Path 12256" transform="translate(-23.3 -101.393)"/>
        </g>
        <path id="Path_12291" d="M4.681 0A4.681 4.681 0 1 1 0 4.681 4.681 4.681 0 0 1 4.681 0z" class="cls-3" data-name="Path 12291" transform="translate(652.101 3975.145)"/>
        <path id="Path_12257" d="M220.746 109.4a4.8 4.8 0 0 1-4.051 7.176 6.342 6.342 0 0 1-2.495-.63 5.113 5.113 0 0 0 4.064 2.186 4.594 4.594 0 0 0 4.681-4.681 5.137 5.137 0 0 0-2.199-4.051z" class="cls-1" data-name="Path 12257" transform="translate(438.531 3866.376)"/>
        <ellipse id="Ellipse_609" cx=".778" cy=".778" class="cls-5" data-name="Ellipse 609" rx=".778" ry=".778" transform="translate(653.657 3978.271)"/>
        <g id="Group_3193" data-name="Group 3193" transform="translate(624 3978.21)">
            <path id="Path_12258" d="M.778 151.015H.469c-.308-.147-.469-1.556-.469-1.556l7.807-21.381a.7.7 0 0 1 .939-.469.7.7 0 0 1 .469.939L1.408 150.4a.571.571 0 0 1-.63.615z" class="cls-3" data-name="Path 12258" transform="translate(0 -127.548)"/>
            <path id="Path_12259" d="M367.568 290.9h10.3v1.878a8.875 8.875 0 0 1-8.585 9.054 8.875 8.875 0 0 1-8.585-9.054V290.9z" class="cls-3" data-name="Path 12259" transform="translate(-312.318 -268.989)"/>
        </g>
        <path id="Path_12260" d="M397.345 290.813v.309a8.875 8.875 0 0 1-8.585 9.054h-.16a8.5 8.5 0 0 0 4.842 1.556 8.875 8.875 0 0 0 8.584-9.054V290.8l-4.681.013z" class="cls-1" data-name="Path 12260" transform="translate(287.524 3709.307)"/>
        <path id="Path_12261" d="M361.478 151.015h-.308c-.469-.161-.469-1.556-.469-1.556l7.807-21.381a.742.742 0 0 1 1.408.469l-7.807 21.85a.566.566 0 0 1-.631.618z" class="cls-3" data-name="Path 12261" transform="translate(311.682 3850.662)"/>
        <path id="Path_12262" d="M377.859 304.156h-4.681a.732.732 0 0 1-.778-.778.732.732 0 0 1 .778-.778h4.681a.732.732 0 0 1 .778.778.732.732 0 0 1-.778.778z" class="cls-5" data-name="Path 12262" transform="translate(301.551 3699.09)"/>
        <path id="Path_12263" d="M36.645 290.813v.309a8.875 8.875 0 0 1-8.584 9.054H27.9a8.5 8.5 0 0 0 4.842 1.556 8.875 8.875 0 0 0 8.585-9.054V290.8l-4.681.013z" class="cls-1" data-name="Path 12263" transform="translate(599.842 3709.307)"/>
        <path id="Path_12264" d="M17.159 304.156h-4.681a.732.732 0 0 1-.778-.778.732.732 0 0 1 .778-.778h4.681a.732.732 0 0 1 .778.778.732.732 0 0 1-.778.778z" class="cls-5" data-name="Path 12264" transform="translate(613.869 3699.09)"/>
    </g>
</svg>
