<?xml version="1.0" encoding="iso-8859-1"?>
<!-- Generator: Adobe Illustrator 19.0.0, SVG Export Plug-In . SVG Version: 6.00 Build 0)  -->
<svg version="1.1" id="Layer_1" xmlns="http://www.w3.org/2000/svg" xmlns:xlink="http://www.w3.org/1999/xlink" x="0px" y="0px"
	 viewBox="0 0 512 512" style="enable-background:new 0 0 512 512;" xml:space="preserve">
<g>
	<path style="fill:#26B99A;" d="M512,256c0,141.383-114.617,256-256,256S0,397.383,0,256S114.617,0,256,0S512,114.617,512,256"/>
	<path style="fill:#7DD5C3;" d="M256,0c4.44,0,8.854,0.115,13.241,0.335C134.012,7.23,26.483,119.058,26.483,256
		s107.529,248.77,242.759,255.665C264.854,511.885,260.44,512,256,512C114.617,512,0,397.383,0,256S114.617,0,256,0"/>
	<g>
		<path style="fill:#FFFFFF;" d="M229.513,344.75h-0.106c-7.327-0.026-14.301-3.213-19.129-8.73l-50.856-58.121
			c-4.661-5.323-6.965-12.147-6.497-19.209c0.468-7.053,3.663-13.506,8.986-18.158c10.99-9.622,27.754-8.501,37.367,2.489
			l30.314,34.913L339.24,154.498c9.693-10.929,26.465-11.9,37.385-2.198c5.288,4.696,8.43,11.176,8.845,18.238
			c0.415,7.053-1.951,13.859-6.647,19.147L248.616,336.169C243.769,341.625,236.804,344.75,229.513,344.75"/>
		<path style="fill:#FFFFFF;" d="M206.324,68.091c-3.937,0-7.53-2.648-8.545-6.638c-1.209-4.732,1.642-9.543,6.365-10.743
			c17.028-4.343,34.472-6.559,51.844-6.568h0.009c4.873,0,8.828,3.946,8.828,8.819c0.009,4.873-3.937,8.828-8.819,8.836
			c-15.907,0.009-31.885,2.039-47.492,6.02C207.78,68.002,207.048,68.091,206.324,68.091"/>
		<path style="fill:#FFFFFF;" d="M75.431,171.884c-1.359,0-2.745-0.318-4.034-0.98c-4.334-2.233-6.038-7.556-3.805-11.891
			c20.798-40.386,55.172-73.684,96.786-93.767c4.387-2.11,9.675-0.274,11.794,4.122c2.11,4.387,0.274,9.666-4.122,11.785
			c-38.179,18.423-69.711,48.94-88.761,85.945C81.716,170.136,78.635,171.884,75.431,171.884"/>
		<path style="fill:#FFFFFF;" d="M52.966,264.828L52.966,264.828c-4.882,0-8.828-3.955-8.828-8.828
			c0.009-19.341,2.622-38.524,7.759-57.009c1.306-4.696,6.179-7.433,10.876-6.135c4.696,1.306,7.442,6.17,6.135,10.867
			c-4.714,16.949-7.106,34.534-7.115,52.277C61.793,260.882,57.838,264.828,52.966,264.828"/>
		<path style="fill:#FFFFFF;" d="M256,467.862c-4.873,0-8.828-3.946-8.828-8.828c0-4.873,3.946-8.828,8.828-8.828
			c16.993-0.009,34.004-2.313,50.556-6.841c4.661-1.298,9.551,1.483,10.84,6.188c1.289,4.696-1.483,9.551-6.188,10.84
			C293.146,465.337,274.573,467.853,256,467.862z"/>
		<path style="fill:#FFFFFF;" d="M349.828,444.561c-3.178,0-6.25-1.721-7.83-4.732c-2.26-4.317-0.6-9.649,3.725-11.917
			c37.959-19.906,68.661-51.88,86.44-90.041c2.057-4.423,7.318-6.347,11.732-4.273c4.414,2.057,6.329,7.3,4.273,11.723
			c-19.403,41.657-52.877,76.535-94.252,98.233C352.608,444.234,351.205,444.561,349.828,444.561"/>
		<path style="fill:#FFFFFF;" d="M453.681,311.383c-0.671,0-1.342-0.071-2.022-0.23c-4.749-1.121-7.698-5.87-6.585-10.62
			c3.399-14.442,5.12-29.431,5.129-44.544c0.009-4.873,3.964-8.819,8.828-8.819h0.009c4.882,0.009,8.828,3.964,8.819,8.836
			c-0.009,16.463-1.889,32.803-5.588,48.569C461.308,308.638,457.689,311.383,453.681,311.383"/>
	</g>
	<path style="fill:#1D8B74;" d="M256,0c-4.44,0-8.854,0.115-13.241,0.335C377.988,7.23,485.517,119.058,485.517,256
		S377.988,504.77,242.759,511.665C247.146,511.885,251.56,512,256,512c141.383,0,256-114.617,256-256S397.383,0,256,0"/>
</g>
<g>
</g>
<g>
</g>
<g>
</g>
<g>
</g>
<g>
</g>
<g>
</g>
<g>
</g>
<g>
</g>
<g>
</g>
<g>
</g>
<g>
</g>
<g>
</g>
<g>
</g>
<g>
</g>
<g>
</g>
</svg>
