<svg xmlns="http://www.w3.org/2000/svg" viewBox="0 0 62.938 63.895">
    <defs>
        <style>
            .cls-1{fill:#ffc44f}.cls-2{fill:#e29f4e}.cls-3{fill:#ffb357}.cls-4{fill:#ce9046}.cls-5{fill:#e6e3e2}.cls-6{fill:#c6c6c6}.cls-7{fill:#ffd88b}
        </style>
    </defs>
    <g id="unlocked-lock-icon" transform="translate(-1128 -1869.105)">
        <path id="Path_12311" d="M2 208h39.931a2 2 0 0 1 2 2v33.944a2 2 0 0 1-2 2H2a2 2 0 0 1-2-2V210a2 2 0 0 1 2-2z" class="cls-1" data-name="Path 12311" transform="translate(1128 1687.063)"/>
        <path id="Path_12315" d="M151.987 299.993a3.993 3.993 0 1 0-6.252 3.295l-1.535 7.687a.793.793 0 0 0 .549.973.57.57 0 0 0 .25.025h5.99a.784.784 0 0 0 .824-.749.849.849 0 0 0-.025-.25l-1.535-7.687a3.993 3.993 0 0 0 1.734-3.294z" class="cls-2" data-name="Path 12315" transform="translate(1001.971 1610.044)"/>
        <path id="Path_12312" d="M55.934 226v31.947H18a2 2 0 0 0-2 2h39.934a2 2 0 0 0 2-2V224a2 2 0 0 0-2 2z" class="cls-3" data-name="Path 12312" transform="translate(1113.997 1673.06)"/>
        <path id="Path_12316" d="M148.192 304.572a4 4 0 0 1 3-7.226 3.995 3.995 0 1 0-5.329 5.953c.112.1.225.187.337.275l-1.535 7.687a.793.793 0 0 0 .549.973.57.57 0 0 0 .25.025h1.2z" class="cls-4" data-name="Path 12316" transform="translate(1001.51 1609.759)"/>
        <path id="Path_12313" d="M63.974 0A15.972 15.972 0 0 0 48 15.974v9.984h5.99v-9.984a9.984 9.984 0 0 1 19.967 0v9.984h5.99v-9.984A15.972 15.972 0 0 0 63.974 0z" class="cls-5" data-name="Path 12313" transform="translate(1110.99 1869.105)"/>
        <g id="Group_3204" data-name="Group 3204" transform="translate(1158.99 1869.105)">
            <path id="Path_12307" d="M57.122 58.007a10.864 10.864 0 0 0-5.129 9.36V72.6a2 2 0 0 1-2 2 2 2 0 0 0-2 2h5.99v-9.995a9.948 9.948 0 0 1 3.794-7.825.505.505 0 0 0-.549-.849z" class="cls-6" data-name="Path 12307" transform="translate(-48 -50.631)"/>
            <path id="Path_12308" d="M175.3 0c-.075 0-.1.087-.1.225a1.993 1.993 0 0 0 1.8 1.934c7.4 1.061 12.28 5.928 12.28 13.815v5.99a2 2 0 0 1-2 2 2 2 0 0 0-2 2h5.99v-9.99A15.972 15.972 0 0 0 175.3 0z" class="cls-6" data-name="Path 12308" transform="translate(-159.326)"/>
        </g>
        <path id="Path_12314" d="M16 208h39.934a2 2 0 0 1-2 2H18a2 2 0 0 1-2-2z" class="cls-7" data-name="Path 12314" transform="translate(1113.997 1687.063)"/>
    </g>
</svg>
