<svg xmlns="http://www.w3.org/2000/svg" viewBox="0 0 50.936 70.937">
    <defs>
        <style>
            .cls-1{fill:#716361}.cls-2{fill:#82716f}.cls-3{fill:#e2c8aa}.cls-4{fill:#d2b89d}.cls-5{fill:#d9ba9c}.cls-6{fill:#ff7883}.cls-7{fill:#db5e6f}.cls-8{fill:#ad9390}.cls-9{fill:#e6e3e2}.cls-10{fill:#fff}
        </style>
    </defs>
    <g id="user-icon" transform="translate(-1121.18 -2045.983)">
        <path id="Path_1949_1_" d="M455.555 133.064v-10.077a2.377 2.377 0 0 0-2.387-2.387h-14.054a9.593 9.593 0 0 0-9.414 9.679v2.921a13.018 13.018 0 0 0 .663 3.845l.4 1.193a3.671 3.671 0 0 1 .133 1.193v.663h23.469v-.663a3.671 3.671 0 0 1 .133-1.193l.4-1.193a10.458 10.458 0 0 0 .663-3.978" class="cls-1" transform="translate(704.606 1925.383)"/>
        <path id="Path_1950_1_" d="M434.2 125.506a4.868 4.868 0 0 0 4.773 4.906h.663l.265 9.547H452.9v-.659a3.673 3.673 0 0 1 .133-1.193l.4-1.193a12.321 12.321 0 0 0 .663-3.845v-10.082a2.377 2.377 0 0 0-2.396-2.387h-12.858a4.757 4.757 0 0 0-4.641 4.906" class="cls-2" transform="translate(706.072 1925.383)"/>
        <path id="Path_1951_1_" d="M434.2 155.261h14.055V142.4H434.2z" class="cls-3" transform="translate(706.073 1932.488)"/>
        <path id="Path_1952_1_" d="M434.2 146.51a13.409 13.409 0 0 0 14.055 0v-4.11H434.2z" class="cls-4" transform="translate(706.073 1932.488)"/>
        <path id="Path_1953_1_" d="M442.369 150.848a11.855 11.855 0 0 1-11.669-12.066v-1.458a2.793 2.793 0 0 1 .663-1.724l.928-1.061a2.521 2.521 0 0 0 .663-1.724V129.9a1.274 1.274 0 0 1 .928-1.193c2.784-.663 11.4-2.254 17.237 2.121a1.582 1.582 0 0 1 .663 1.193v.663a2.793 2.793 0 0 0 .663 1.724l.928 1.061a2.521 2.521 0 0 1 .663 1.724v1.459a11.973 11.973 0 0 1-11.668 12.2z" class="cls-3" transform="translate(704.932 1927.753)"/>
        <path id="Path_1954_1_" d="M451.152 131.043c-4.11-3.182-9.679-3.315-13.524-2.784a38.867 38.867 0 0 0-3.845.663 1.274 1.274 0 0 0-.928 1.193v2.917a2.793 2.793 0 0 1-.663 1.724l-.928 1.061a2.521 2.521 0 0 0-.663 1.724V139a11.9 11.9 0 0 0 10.342 11.933 12.309 12.309 0 0 1-3.315-8.353v-8.884a2.428 2.428 0 0 1 2.122-2.387c2.784-.4 7.956-.53 12.066 1.724v-.663a1.463 1.463 0 0 0-.663-1.326" class="cls-5" transform="translate(704.899 1927.802)"/>
        <path id="Path_1955_1_" d="M467.976 157.184a5.513 5.513 0 0 0-2.387-3.978 7.517 7.517 0 0 0-1.724-1.061l-9.944-3.58-.8-.265-4.641 2.784-2.254-.928-.663 2.784-.133.133-.8-3.05-2.917 1.326-4.773-2.917-.53.265h-.4l-10.077 3.58a6.8 6.8 0 0 0-4.243 6.63l.928 22.408h44.816l.8-19.889c-.265.133-.133-3.713-.265-4.243" class="cls-6" transform="translate(701.997 1934.411)"/>
        <path id="Path_1956_1_" d="M440.988 150.751l-3.182 3.713a1 1 0 0 1-1.326.133l-.265-.265-3.315-5.038.928-2.121a.949.949 0 0 1 1.193-.663c.133 0 .133.133.265.133z" class="cls-7" transform="translate(705.649 1933.816)"/>
        <path id="Path_1957_1_" d="M440.1 150.984l3.182 3.713a1 1 0 0 0 1.326.133l.265-.265 3.315-5.171-.928-2.121a.949.949 0 0 0-1.193-.663c-.133 0-.133.133-.265.133z" class="cls-7" transform="translate(707.996 1933.849)"/>
        <path id="Path_1958_1_" d="M439.763 152.1a.626.626 0 0 1 .663.663.626.626 0 0 1-.663.663.626.626 0 0 1-.663-.663.626.626 0 0 1 .663-.663" class="cls-7" transform="translate(707.67 1935.65)"/>
        <path id="Path_1960_1_" d="M439.763 154.5a.626.626 0 0 1 .663.663.626.626 0 0 1-.663.663.626.626 0 0 1-.663-.663.626.626 0 0 1 .663-.663" class="cls-7" transform="translate(707.67 1936.432)"/>
        <path id="Path_1962_1_" d="M458.912 155.417a6.321 6.321 0 0 0-1.591-2.917l-6.232 6.364a6.554 6.554 0 0 0-1.856 3.978l-.133.133v17.1h9.149l.8-21.347v-1.193a3.866 3.866 0 0 0-.133-2.121" class="cls-7" transform="translate(710.929 1935.78)"/>
        <path id="Path_1963_1_" d="M421.746 155.417a6.321 6.321 0 0 1 1.591-2.917l6.232 6.364a6.553 6.553 0 0 1 1.856 3.978l.133.133v17.1h-9.149l-.8-21.347v-1.193a5.738 5.738 0 0 1 .133-2.121" class="cls-7" transform="translate(701.953 1935.78)"/>
        <path id="Path_1964_1_" d="M469.654 174.687h-48.793a1.083 1.083 0 0 1-1.061-1.193 1.169 1.169 0 0 1 1.061-1.193h48.794a1.083 1.083 0 0 1 1.061 1.193 1.015 1.015 0 0 1-1.061 1.193" class="cls-8" transform="translate(701.38 1942.233)"/>
        <path id="Path_1965_1_" d="M455.115 177.158h-24.662a2.3 2.3 0 0 1-2.254-2.121l-.8-14.85a2.228 2.228 0 0 1 2.121-2.387h26.518a2.324 2.324 0 0 1 2.254 2.254v.133l-.8 14.85a2.535 2.535 0 0 1-2.387 2.121" class="cls-9" transform="translate(703.854 1937.507)"/>
        <path id="Path_1966_1_" d="M439.684 163.4a2.8 2.8 0 0 1 2.784 2.784 2.916 2.916 0 0 1-2.784 2.917 2.831 2.831 0 0 1-2.784-2.917 2.8 2.8 0 0 1 2.784-2.784" class="cls-10" transform="translate(706.953 1939.333)"/>
    </g>
</svg>
