<svg xmlns="http://www.w3.org/2000/svg" viewBox="0 0 65.085 65.085">
    <defs>
        <style>
            .cls-1{fill:#4e96e2}.cls-2{fill:#4482c3}.cls-3{fill:#4bbca6}.cls-4{fill:#3e9a88}
        </style>
    </defs>
    <g id="world-icon" transform="translate(-326.915 -1419)">
        <g id="Group_3295" data-name="Group 3295" transform="translate(326.915 1419)">
            <circle id="Ellipse_614" cx="32.542" cy="32.542" r="32.542" class="cls-1" data-name="Ellipse 614"/>
            <path id="Path_12345" d="M43.22 87.489A32.548 32.548 0 0 1 15.5 37.9a32.545 32.545 0 1 0 44.767 44.771 32.448 32.448 0 0 1-17.047 4.818z" class="cls-2" data-name="Path 12345" transform="translate(0 -33.082)"/>
            <g id="Group_3293" data-name="Group 3293" transform="translate(29.356 14.695)">
                <path id="Path_12346" d="M238.236 310.692h-.076l-1.767-.127a3.182 3.182 0 0 1-1.805-.725l-3.28-2.758a1.047 1.047 0 0 1 1.347-1.6l3.28 2.758a1.037 1.037 0 0 0 .6.242l1.78.127a1.044 1.044 0 0 1-.076 2.085z" class="cls-3" data-name="Path 12346" transform="translate(-230.93 -281.125)"/>
                <path id="Path_12347" d="M364.924 121.766a1.066 1.066 0 0 1-.636-.216 1.053 1.053 0 0 1-.191-1.475l1.589-2.085.534-1.665a1.049 1.049 0 1 1 2 .648l-.585 1.843a1.085 1.085 0 0 1-.165.318l-1.7 2.225a1.053 1.053 0 0 1-.846.407z" class="cls-3" data-name="Path 12347" transform="translate(-346.979 -115.6)"/>
                <path id="Path_12348" d="M313.811 227.629a1.044 1.044 0 0 1-1-.737l-1.055-3.318a1.053 1.053 0 0 1 2.009-.636l1.055 3.318a1.052 1.052 0 0 1-.686 1.322.974.974 0 0 1-.323.051z" class="cls-3" data-name="Path 12348" transform="translate(-301.434 -208.65)"/>
                <path id="Path_12349" d="M271.405 282.542l2.339.877a1.056 1.056 0 0 0 1.208-.356l1.462-1.932a1.048 1.048 0 0 0-.661-1.665l-2.733-.458a1.058 1.058 0 0 0-1.131.61l-.864 2a.669.669 0 0 0 .38.924z" class="cls-3" data-name="Path 12349" transform="translate(-265.867 -258.224)"/>
                <path id="Path_12350" d="M350.039 285.713l3.42 1.551a2.1 2.1 0 0 0 1.907-.089l.725-.407a.692.692 0 0 0 .14-1.093l-1.805-1.767a2.121 2.121 0 0 0-2.352-.407l-2.047.941a.708.708 0 0 0 .012 1.271z" class="cls-3" data-name="Path 12350" transform="translate(-334.547 -261.993)"/>
                <path id="Path_12351" d="M290.626 344.316l-1.182-4.347-2.542.61-3.394-1.513a1.032 1.032 0 0 0-1.03.1l-4.843 3.419-2.085.394a2.106 2.106 0 0 0-1.7 1.907l-.178 2.415a1.745 1.745 0 0 0 1.869 1.856l7.691-.623 1.831 2.174a1.044 1.044 0 0 0 1.665-.076l3.75-5.453a1.048 1.048 0 0 0 .148-.863z" class="cls-3" data-name="Path 12351" transform="translate(-268.232 -310.578)"/>
            </g>
            <path id="Path_12352" d="M4.386 227.767a1.422 1.422 0 0 0-.788-1.792c-.229-.089-.394-.165-.407-.165a2.061 2.061 0 0 1-1.4-.826L.305 223a31.841 31.841 0 0 0 5.733 23.059l-.165-8.186a2.041 2.041 0 0 0-.127-.674l-2.021-5.517a3.248 3.248 0 0 1-.127-1.742z" class="cls-4" data-name="Path 12352" transform="translate(0 -194.652)"/>
            <path id="Path_12353" d="M51.467 9.8a1.075 1.075 0 0 1 .369-1.208l4.246-3.076a32.537 32.537 0 0 0-44.187 7.538l2.39 3.547a1.07 1.07 0 0 1-.28 1.462.989.989 0 0 1-.585.178 1.068 1.068 0 0 1-.877-.458l-1.932-2.873A32.531 32.531 0 0 0 6.2 25.449l2.263 3.064a.681.681 0 0 0 .979.127l1.449-1.131a1.171 1.171 0 0 0 .445-.89l.025-1.411a1.229 1.229 0 0 0-.216-.7l-1.055-1.461a1.048 1.048 0 1 1 1.7-1.22l1.487 1.983a2.078 2.078 0 0 0 1.551.839l1.017.064a1.059 1.059 0 0 1 .928.7l2 5.695a1.518 1.518 0 0 0 .661.8 1.481 1.481 0 0 0 2.059-.623l1.157-2.314a2.05 2.05 0 0 1 .686-.788l2.11-1.449a2.1 2.1 0 0 1 2.847.445l2.441 3.165a1.041 1.041 0 0 0 .763.407L33.34 36.2a1.046 1.046 0 0 0 1.017.775 1.056 1.056 0 0 0 1.017-1.335l-.788-2.9 1.792-.559a2.1 2.1 0 0 0 1.36-2.136l-.14-1.792A2.1 2.1 0 0 1 39 26.11l5.326-1.869a1.063 1.063 0 0 0 .7-.89l.5-4.92a1.677 1.677 0 0 1 .826-1.284 1.029 1.029 0 0 1 1.538.992l-.089.9a1.054 1.054 0 0 0 .941 1.157h.1a1.048 1.048 0 0 0 1.042-.941l.508-5.034a1.023 1.023 0 0 1 .559-.814l.636-.331a1.04 1.04 0 0 0 .61-1.335z" class="cls-3" data-name="Path 12353" transform="translate(-5.412)"/>
            <g id="Group_3294" data-name="Group 3294" transform="translate(.788 4.843)">
                <path id="Path_12354" d="M13.42 51.5a1.068 1.068 0 0 1-.877-.458l-1.932-2.873A32.531 32.531 0 0 0 6.2 58.706l2.263 3.064a.681.681 0 0 0 .979.127l1.449-1.131a1.171 1.171 0 0 0 .445-.89l.025-1.411a1.229 1.229 0 0 0-.216-.7L10.09 56.3a1.048 1.048 0 1 1 1.7-1.22l1.487 1.983a2.078 2.078 0 0 0 1.551.839l1.017.064a1.014 1.014 0 0 1 .394.114 32.554 32.554 0 0 1-.14-2.962A32.432 32.432 0 0 1 20.908 38.1a32.715 32.715 0 0 0-9.013 8.212l2.39 3.547a1.07 1.07 0 0 1-.28 1.462 1.088 1.088 0 0 1-.585.179z" class="cls-4" data-name="Path 12354" transform="translate(-6.2 -38.1)"/>
                <path id="Path_12355" d="M359.8 425.018l.445.534a1.044 1.044 0 0 0 1.665-.076l.534-.775a31.11 31.11 0 0 1-2.644.317z" class="cls-4" data-name="Path 12355" transform="translate(-314.851 -375.556)"/>
            </g>
        </g>
    </g>
</svg>
