<svg xmlns="http://www.w3.org/2000/svg" viewBox="0 0 34.582 32.204">
    <defs>
        <style>
            .cls-1{fill:#1e557b}
        </style>
    </defs>
    <g id="chain-icon" transform="translate(-664.109 -447.285)">
        <path id="Path_195" d="M18.279 172.949a.964.964 0 0 0 0 1.368 4.025 4.025 0 0 1 0 5.687l-8.237 8.237a4.025 4.025 0 0 1-5.687 0L3.116 187a4.025 4.025 0 0 1 0-5.687l8.237-8.237a.967.967 0 0 0-1.368-1.368l-8.237 8.237a5.949 5.949 0 0 0 0 8.423l1.239 1.239a5.966 5.966 0 0 0 8.423 0l8.237-8.237a5.966 5.966 0 0 0 0-8.423.964.964 0 0 0-1.368.002z" class="cls-1" data-name="Path 195" transform="translate(664.109 288.139)"/>
        <path id="Path_196" d="M203.94 2.98l-1.24-1.239a5.966 5.966 0 0 0-8.423 0l-8.237 8.237a5.966 5.966 0 0 0 0 8.423.967.967 0 0 0 1.368-1.368 4.025 4.025 0 0 1 0-5.687l8.237-8.237a4.025 4.025 0 0 1 5.687 0l1.239 1.239a4.025 4.025 0 0 1 0 5.687l-8.237 8.237a.971.971 0 0 0 .68 1.655.943.943 0 0 0 .68-.287l8.237-8.237a5.957 5.957 0 0 0 .007-8.423z" class="cls-1" data-name="Path 196" transform="translate(493.01 447.286)"/>
    </g>
</svg>
