<svg xmlns="http://www.w3.org/2000/svg" viewBox="0 0 34.67 34.724">
    <defs>
        <style>
            .cls-1{fill:#1e557b}
        </style>
    </defs>
    <g id="hash-collection-icon" transform="translate(-264.021 -444.896)">
        <path id="Path_153" d="M33.277 15.626h-2.025V11.98a1.556 1.556 0 0 0-1.563-1.563h-.752V0H5.787v1.157H4.051v1.158H2.315v4.051h-.752A1.556 1.556 0 0 0 0 7.929v25.29a1.749 1.749 0 0 0 .289.926 1.511 1.511 0 0 0 1.157.579h25.928a1.39 1.39 0 0 0 1.389-1.042l5.9-16.2v-.116a1.483 1.483 0 0 0-1.386-1.74zm-3.588-4.051a.4.4 0 0 1 .405.405v3.646h-1.157v-4.051zm-1.91-10.418v14.469H7.35a.985.985 0 0 0-.405.058h-.058V1.157zM5.787 2.315V17.13l-.058.116-.521 1.447V2.315zM3.472 3.472h.579v18.4l-.579 1.563V3.472zM1.157 7.929a.4.4 0 0 1 .405-.405h.752v19.04l-1.157 3.183zm26.564 25.406a.385.385 0 0 1-.289.231H1.5c-.116 0-.231-.058-.231-.116a.439.439 0 0 1-.116-.231l1.157-3.183 1.736-4.746 1.736-4.746 1.1-3.067.058-.116.116-.231v-.058a.385.385 0 0 1 .289-.231h25.932c.231 0 .289.289.289.463z" class="cls-1" data-name="Path 153" transform="translate(264.021 444.897)"/>
        <path id="Path_154" d="M17.579 16.157h13.89a.579.579 0 0 0 0-1.157h-13.89a.579.579 0 0 0 0 1.157z" class="cls-1" data-name="Path 154" transform="translate(256.859 438.578)"/>
        <path id="Path_155" d="M17.579 9.157h5.787a.579.579 0 1 0 0-1.157h-5.787a.579.579 0 0 0 0 1.157z" class="cls-1" data-name="Path 155" transform="translate(256.859 441.527)"/>
        <path id="Path_156" d="M17.579 23.157h13.89a.579.579 0 1 0 0-1.157h-13.89a.579.579 0 1 0 0 1.157z" class="cls-1" data-name="Path 156" transform="translate(256.859 435.629)"/>
        <path id="Path_157" d="M23.02 41.023l.926-3.125H21.92c-.463 0-.694-.231-.694-.752 0-.405.347-.579 1.1-.579h1.968c.116-.579.347-1.389.579-2.373a.905.905 0 0 1 .868-.694.525.525 0 0 1 .405.174.657.657 0 0 1 .174.463 4.962 4.962 0 0 1-.174.984c-.231.81-.347 1.273-.405 1.447h3.646q.26-.868.694-2.431a.745.745 0 0 1 .752-.637c.405 0 .637.174.637.579a13.43 13.43 0 0 1-.637 2.489h1.447c.521 0 .752.174.752.579 0 .521-.289.81-.868.81H30.37l-.81 3.125h1.563a2.4 2.4 0 0 1 .752.058.629.629 0 0 1 .405.579c0 .463-.231.694-.637.694h-2.431l-.694 2.431a.87.87 0 0 1-.868.752c-.405 0-.637-.174-.637-.579a4.242 4.242 0 0 1 .231-1.273c.231-.81.347-1.215.347-1.273H23.83c-.174.579-.405 1.447-.81 2.6a.8.8 0 0 1-.752.521c-.405 0-.579-.174-.579-.579a3.679 3.679 0 0 1 .174-.868c.174-.579.347-1.1.521-1.678h-1.447c-.405 0-.637-.231-.637-.752a.526.526 0 0 1 .231-.463.933.933 0 0 1 .521-.174h1.968zm1.389 0h3.762l.868-3.125h-3.7z" class="cls-1" data-name="Path 157" transform="translate(255.469 430.784)"/>
    </g>
</svg>
