<svg xmlns="http://www.w3.org/2000/svg" viewBox="0 0 12.218 12.218">
    <defs>
        <style>
            .cls-1{opacity:.5}.cls-2{fill:#81858a}
        </style>
    </defs>
    <g id="info-icon" transform="translate(-409.382 -589.382)">
        <g id="info-icon-2" class="cls-1" data-name="info-icon">
            <path id="Path_192" d="M6.109 0a6.109 6.109 0 1 0 6.109 6.109A6.12 6.12 0 0 0 6.109 0zM7.4 9.474c-.311.1-.569.207-.777.259a1.214 1.214 0 0 1-.621.1 1.481 1.481 0 0 1-.88-.259.869.869 0 0 1-.311-.725v-.358c0-.1.052-.259.052-.414l.414-1.4a3.3 3.3 0 0 1 .1-.362c0-.1.052-.207.052-.311a.6.6 0 0 0-.1-.362.669.669 0 0 0-.414-.1.657.657 0 0 0-.311.052 2.036 2.036 0 0 1-.311.1l.1-.414a4.058 4.058 0 0 1 .725-.259 3.563 3.563 0 0 1 .673-.1 1.481 1.481 0 0 1 .88.259.94.94 0 0 1 .311.725v.311a.975.975 0 0 1-.1.414l-.414 1.4c-.052.1-.052.259-.1.362a1.831 1.831 0 0 1-.052.311.5.5 0 0 0 .1.362.8.8 0 0 0 .414.1.657.657 0 0 0 .311-.052c.1-.052.207-.052.259-.1zm-.1-5.643a1 1 0 0 1-1.346 0 .875.875 0 0 1 0-1.243 1 1 0 0 1 1.346 0 .7.7 0 0 1 .259.621.594.594 0 0 1-.259.622z" class="cls-2" data-name="Path 192" transform="translate(409.382 589.382)"/>
        </g>
    </g>
</svg>
