<svg xmlns="http://www.w3.org/2000/svg" viewBox="0 0 31.881 32.477">
    <defs>
        <style>
            .cls-1{fill:#1e557b}
        </style>
    </defs>
    <g id="key-icon" transform="translate(-464.809 -444.739)">
        <path id="Path_169" d="M0 26.416v5.442a.571.571 0 0 0 .6.6h4.842a2.1 2.1 0 0 0 1.33-.6 1.548 1.548 0 0 0 .484-1.391v-1.089h1.209a.571.571 0 0 0 .6-.6v-2.423h2.418a.571.571 0 0 0 .6-.6v-1.818h1.814a.571.571 0 0 0 .6-.6v-1.819h2.418a.549.549 0 0 0 .423-.181l1.462-1.451a9.849 9.849 0 0 0 10.04-2.358 10.322 10.322 0 0 0 .665-13.906 10.26 10.26 0 0 0-15.115-.6c-2.9 2.9-3.446 6.953-1.572 11L.181 25.993a.653.653 0 0 0-.181.423zm1.209 4.837v-4.6L13.967 14.5a.643.643 0 0 0 .121-.726C12.213 10.031 12.636 6.4 15.236 3.8a9.015 9.015 0 0 1 6.772-2.66 9.319 9.319 0 0 1 6.59 3.2 9.111 9.111 0 0 1-.544 12.274 8.776 8.776 0 0 1-9.19 1.935.661.661 0 0 0-.6.121l-1.512 1.572h-2.846a.571.571 0 0 0-.6.6v1.814h-1.818a.571.571 0 0 0-.6.6v1.814H8.465a.571.571 0 0 0-.6.6v2.418H6.651a.571.571 0 0 0-.6.6v1.693c0 .363 0 .363-.181.484a.746.746 0 0 1-.484.242l-4.172.121z" class="cls-1" data-name="Path 169" transform="translate(464.809 444.754)"/>
        <path id="Path_170" d="M35.088 7.818A3.62 3.62 0 0 0 34 10.357a3.385 3.385 0 0 0 1.088 2.543 3.62 3.62 0 0 0 2.539 1.088 3.385 3.385 0 0 0 2.54-1.088 3.62 3.62 0 0 0 1.088-2.539 3.385 3.385 0 0 0-1.088-2.539 3.613 3.613 0 0 0-5.079-.004zm.121 2.6a2.2 2.2 0 0 1 .726-1.693 2.419 2.419 0 0 1 4.111 1.693 2.288 2.288 0 0 1-.726 1.693 2.522 2.522 0 0 1-3.446 0 2.959 2.959 0 0 1-.665-1.693z" class="cls-1" data-name="Path 170" transform="translate(451.366 442.069)"/>
    </g>
</svg>
