<svg xmlns="http://www.w3.org/2000/svg" viewBox="0 0 32.527 27.528">
    <defs>
        <style>
            .cls-1{fill:#fff}
        </style>
    </defs>
    <g id="github-icon-2" transform="translate(-125.162 -408.1)">
        <g id="Group_1298" data-name="Group 1298" transform="translate(125.163 408.1)">
            <path id="Path_2889" d="M29.87 7.546a10.39 10.39 0 0 0 .53-3.287A9.391 9.391 0 0 0 29.4 0a8.556 8.556 0 0 0-3.7.76 20.371 20.371 0 0 0-3.657 2.362 23.135 23.135 0 0 0-5.472-.622 25.875 25.875 0 0 0-6.04.685A21.41 21.41 0 0 0 6.834.767 8.352 8.352 0 0 0 3.129 0a9.411 9.411 0 0 0-1 4.259 10.6 10.6 0 0 0 .528 3.321A11.5 11.5 0 0 0 0 15.325 14.5 14.5 0 0 0 1.212 21.8 8.089 8.089 0 0 0 2.9 24.042a8.708 8.708 0 0 0 2.362 1.582 20.528 20.528 0 0 0 2.677 1.007 17.247 17.247 0 0 0 2.979.589c1.089.123 2.047.205 2.883.247s1.76.062 2.773.062c1.2 0 2.287-.027 3.266-.089a29.884 29.884 0 0 0 3.355-.431 16.55 16.55 0 0 0 3.321-.931 10.566 10.566 0 0 0 2.76-1.685 7.892 7.892 0 0 0 2.061-2.6 14.794 14.794 0 0 0 1.192-6.471 11.551 11.551 0 0 0-2.659-7.776zm-2.342 14.223a5.516 5.516 0 0 1-1.582 2.013 7.591 7.591 0 0 1-2.383 1.171 14.092 14.092 0 0 1-2.739.575 28.842 28.842 0 0 1-2.91.137h-3.287a28.743 28.743 0 0 1-2.91-.137 14.092 14.092 0 0 1-2.739-.575 7.591 7.591 0 0 1-2.383-1.171 5.517 5.517 0 0 1-1.582-2.013 6.671 6.671 0 0 1-.63-3 6.077 6.077 0 0 1 1.349-3.985 4.475 4.475 0 0 1 3.657-1.643 37.708 37.708 0 0 1 3.814.411 20.106 20.106 0 0 0 3.068.212 20.043 20.043 0 0 0 3.068-.212q3.01-.411 3.814-.411a4.475 4.475 0 0 1 3.657 1.643 6.09 6.09 0 0 1 1.349 3.985 6.838 6.838 0 0 1-.631 3z" class="cls-1" data-name="Path 2889"/>
            <path id="Path_2890" d="M113.524 219.964a1.845 1.845 0 0 0-2.835 0 3.888 3.888 0 0 0-.842 1.486 5.332 5.332 0 0 0 0 3.2 3.888 3.888 0 0 0 .842 1.486 1.845 1.845 0 0 0 2.835 0 3.889 3.889 0 0 0 .842-1.486 5.332 5.332 0 0 0 0-3.2 3.889 3.889 0 0 0-.842-1.486z" class="cls-1" data-name="Path 2890" transform="translate(-102.095 -204.283)"/>
            <path id="Path_2891" d="M296.224 219.964a1.845 1.845 0 0 0-2.835 0 3.889 3.889 0 0 0-.842 1.486 5.331 5.331 0 0 0 0 3.2 3.889 3.889 0 0 0 .842 1.486 1.845 1.845 0 0 0 2.835 0 3.888 3.888 0 0 0 .842-1.486 5.334 5.334 0 0 0 0-3.2 3.888 3.888 0 0 0-.842-1.486z" class="cls-1" data-name="Path 2891" transform="translate(-272.284 -204.283)"/>
        </g>
    </g>
</svg>
