<svg xmlns="http://www.w3.org/2000/svg" viewBox="0 0 12.849 12.849"><defs><style>.a{fill:#fff;fill-rule:evenodd;}</style></defs><g transform="translate(-1287.575 -845.576)"><path class="a" d="M6.424,1.142a19.7,19.7,0,0,1,2.57.071,3.311,3.311,0,0,1,1.214.214,2.507,2.507,0,0,1,1.214,1.214,3.311,3.311,0,0,1,.214,1.214c0,.642.071.857.071,2.57a19.7,19.7,0,0,1-.071,2.57,3.311,3.311,0,0,1-.214,1.214,2.507,2.507,0,0,1-1.214,1.214,3.311,3.311,0,0,1-1.214.214c-.642,0-.857.071-2.57.071a19.7,19.7,0,0,1-2.57-.071,3.311,3.311,0,0,1-1.214-.214,2.507,2.507,0,0,1-1.214-1.214,3.311,3.311,0,0,1-.214-1.214c0-.642-.071-.857-.071-2.57a19.7,19.7,0,0,1,.071-2.57,3.311,3.311,0,0,1,.214-1.214,2.564,2.564,0,0,1,.5-.714,1.207,1.207,0,0,1,.714-.5,3.311,3.311,0,0,1,1.214-.214,19.7,19.7,0,0,1,2.57-.071M6.424,0A21.092,21.092,0,0,0,3.783.071a4.407,4.407,0,0,0-1.57.286,2.794,2.794,0,0,0-1.142.714A2.794,2.794,0,0,0,.357,2.213a3.252,3.252,0,0,0-.286,1.57A21.092,21.092,0,0,0,0,6.424,21.092,21.092,0,0,0,.071,9.066a4.407,4.407,0,0,0,.286,1.57,2.794,2.794,0,0,0,.714,1.142,2.794,2.794,0,0,0,1.142.714,4.407,4.407,0,0,0,1.57.286,21.092,21.092,0,0,0,2.641.071,21.092,21.092,0,0,0,2.641-.071,4.407,4.407,0,0,0,1.57-.286,2.995,2.995,0,0,0,1.856-1.856,4.407,4.407,0,0,0,.286-1.57c0-.714.071-.928.071-2.641a21.092,21.092,0,0,0-.071-2.641,4.407,4.407,0,0,0-.286-1.57,2.794,2.794,0,0,0-.714-1.142A2.794,2.794,0,0,0,10.636.357,4.407,4.407,0,0,0,9.066.071,21.092,21.092,0,0,0,6.424,0m0,3.141A3.231,3.231,0,0,0,3.141,6.424,3.284,3.284,0,1,0,6.424,3.141m0,5.425A2.1,2.1,0,0,1,4.283,6.424,2.1,2.1,0,0,1,6.424,4.283,2.1,2.1,0,0,1,8.566,6.424,2.1,2.1,0,0,1,6.424,8.566M9.851,2.213A.785.785,0,1,0,10.636,3a.792.792,0,0,0-.785-.785" transform="translate(1287.575 845.576)"/></g></svg>