<svg xmlns="http://www.w3.org/2000/svg" viewBox="0 0 29.92 28.592">
    <defs>
        <style>
            .cls-1{fill:#fff}
        </style>
    </defs>
    <g id="linkedin-icon" transform="translate(-126.105 -193.12)">
        <path id="LinkedIn_1_" d="M29.921 17.531v11.061h-6.414V18.268c0-2.595-.925-4.362-3.249-4.362a3.506 3.506 0 0 0-3.291 2.344 4.438 4.438 0 0 0-.216 1.565v10.777h-6.413s.083-17.482 0-19.291h6.414v2.734l-.042.063h.042v-.063a6.366 6.366 0 0 1 5.781-3.186c4.222 0 7.388 2.751 7.388 8.682zM3.631 0a3.342 3.342 0 1 0-.083 6.665h.042A3.343 3.343 0 1 0 3.631 0zM.383 28.592H6.8V9.3H.383z" class="cls-1" transform="translate(126.106 193.12)"/>
    </g>
</svg>
