<svg xmlns="http://www.w3.org/2000/svg" viewBox="0 0 14.033 11.382"><defs><style>.a{fill:#fff;fill-rule:evenodd;}</style></defs><g transform="translate(-1313.984 -846.798)"><path class="a" d="M42.444,13.382A8.113,8.113,0,0,0,50.629,5.2v-.39a6.337,6.337,0,0,0,1.4-1.481,6.472,6.472,0,0,1-1.637.468,3.033,3.033,0,0,0,1.247-1.559,7.151,7.151,0,0,1-1.793.7A2.784,2.784,0,0,0,47.745,2,2.929,2.929,0,0,0,44.86,4.884a1.52,1.52,0,0,0,.078.624,8.06,8.06,0,0,1-5.925-3.04,2.986,2.986,0,0,0-.39,1.481,3.1,3.1,0,0,0,1.247,2.417,2.628,2.628,0,0,1-1.325-.39h0a2.849,2.849,0,0,0,2.339,2.807,2.4,2.4,0,0,1-.78.078,1.327,1.327,0,0,1-.546-.078,2.953,2.953,0,0,0,2.729,2.027A5.886,5.886,0,0,1,38.7,12.057a2.158,2.158,0,0,1-.7-.078,7.358,7.358,0,0,0,4.444,1.4" transform="translate(1275.984 844.798)"/></g></svg>