<svg xmlns="http://www.w3.org/2000/svg" viewBox="0 0 13.576 13.576"><defs><style>.a{fill:#fff;}</style></defs><g transform="translate(-1362.212 -845.212)"><path class="a" d="M2.036,2.036A6.162,6.162,0,0,1,6.788,0a6.162,6.162,0,0,1,4.751,2.036,6.162,6.162,0,0,1,2.036,4.751,6.162,6.162,0,0,1-2.036,4.751,6.162,6.162,0,0,1-4.751,2.036,6.162,6.162,0,0,1-4.751-2.036A6.774,6.774,0,0,1,0,6.788,6.162,6.162,0,0,1,2.036,2.036ZM7.693,12.218A2.78,2.78,0,0,0,9.39,11.2a4.941,4.941,0,0,0,.792-2.376,1.873,1.873,0,0,0-.566-1.358,1.991,1.991,0,0,0-1.471-.679H7.014A3.3,3.3,0,0,1,6,6.562a1.027,1.027,0,0,1-.339-.792.588.588,0,0,1,.226-.453.858.858,0,0,1,.453-.226A.772.772,0,0,1,6.9,5.43c.226.113.339.226.453.226a.68.68,0,0,0,.453-.113.68.68,0,0,0,.113-.453A1.8,1.8,0,0,0,7.353,3.96,4.679,4.679,0,0,0,7.919,1.81a.243.243,0,0,0-.226-.226,3.5,3.5,0,0,0-.905-.226,5.659,5.659,0,0,0-2.941.905A2.848,2.848,0,0,0,2.828,4.525a2.9,2.9,0,0,0,.905,2.149,3.091,3.091,0,0,0,2.149.905h0v.453a1.452,1.452,0,0,0,.453,1.131,1.647,1.647,0,0,0,1.018.679v2.036c0,.113,0,.113.113.226S7.58,12.218,7.693,12.218Z" transform="translate(1362.212 845.212)"/></g></svg>