<svg xmlns="http://www.w3.org/2000/svg" viewBox="0 0 34.906 23.998">
    <defs>
        <style>
            .cls-1{fill:#fff}
        </style>
    </defs>
    <g id="youtube-icon" transform="translate(-123.867 -629.771)">
        <g id="Group_1296" data-name="Group 1296" transform="translate(123.867 629.771)">
            <path id="Path_2888" d="M33.42 2.311C32.473.627 31.443.32 29.357.2S22.007 0 17.46 0 7.636.061 5.55.2 2.434.63 1.48 2.313C.5 4 0 6.893 0 11.992v.02c0 5.079.5 8 1.479 9.661.954 1.684 1.984 1.991 4.07 2.134C7.643 23.93 12.9 24 17.46 24s9.811-.075 11.9-.191c2.093-.143 3.122-.45 4.063-2.134.982-1.664 1.479-4.581 1.479-9.661v-.02c.004-5.101-.493-7.994-1.482-9.683zM13.09 18.544V5.454L24 12z" class="cls-1" data-name="Path 2888"/>
        </g>
    </g>
</svg>
