<svg
    xmlns="http://www.w3.org/2000/svg" viewBox="0 0 16.019 15.968">
    <defs>
        <style>.a{opacity:0.5;}.b{;}</style>
    </defs>
    <g class="a" transform="translate(-1079.975 -18.116)">
        <path class="b" d="M1716.679,34.358c-1.466-1.222-2.77-3.014-2.77-7.414a4.644,4.644,0,0,0-9.288,0c0,4.4-1.3,6.192-2.77,7.414a1.74,1.74,0,0,0-.652,1.385.47.47,0,0,0,.489.489h4.97a2.584,2.584,0,0,0,5.051,0h4.97a.47.47,0,0,0,.489-.489A1.277,1.277,0,0,0,1716.679,34.358Zm-7.414,2.933a1.609,1.609,0,0,1-1.467-.978h2.851A1.53,1.53,0,0,1,1709.266,37.291Zm-6.762-2.118h0c2.281-1.955,3.177-4.4,3.177-8.31a3.585,3.585,0,0,1,7.169,0c0,3.829.978,6.273,3.177,8.229a.08.08,0,0,1,.081.081Z" transform="translate(-621.225 -4.184)"/>
    </g>
</svg>