<svg
    xmlns="http://www.w3.org/2000/svg" viewBox="0 0 17.906 15.948">
    <defs>
        <style>.a{opacity:0.5;}.b{}</style>
    </defs>
    <g class="a" transform="translate(-1035.867 -17.892)">
        <path class="b" d="M1664.772,28.278l-8.473-6.192a.7.7,0,0,0-.57,0l-8.473,6.192a.464.464,0,0,0,.57.733l8.228-6.029,8.229,6.029a.3.3,0,0,0,.245.081c.163,0,.245-.081.407-.163A.677.677,0,0,0,1664.772,28.278Z" transform="translate(-611.193 -4.133)"/>
        <path class="b" d="M1662.887,30.8a.526.526,0,0,0-.489.489V38.7h-3.748V34.629a2.363,2.363,0,0,0-4.725,0V38.7h-3.748V31.289a.489.489,0,1,0-.978,0V39.11a.526.526,0,0,0,.489.489h4.644a.516.516,0,0,0,.489-.407h0V34.711a1.385,1.385,0,0,1,2.77,0v4.4h0a.456.456,0,0,0,.489.407h4.644a.526.526,0,0,0,.489-.489v-7.9C1663.376,31.044,1663.131,30.8,1662.887,30.8Z" transform="translate(-611.59 -5.759)"/>
    </g>
</svg>