<svg xmlns="http://www.w3.org/2000/svg" viewBox="0 0 38.096 34.014">
    <defs>
        <style>
            .cls-1{fill:#fff}
        </style>
    </defs>
    <g id="house-icon" transform="translate(-1010.484 -180.255)">
        <path id="Path_1730" d="M703.405-57.565l18.058-13.243a.988.988 0 0 1 1.169 0l18.058 13.243a.992.992 0 0 1 .214 1.386.989.989 0 0 1-1.383.214L722.048-68.78l-17.473 12.815a.984.984 0 0 1-.584.192.987.987 0 0 1-.8-.406.992.992 0 0 1 .214-1.386" class="cls-1" data-name="Path 1730" transform="translate(307.485 251.255)"/>
        <path id="Path_1731" d="M707.077-59.785a.991.991 0 0 1 .99.991v15.781h7.918v-8.614a4.959 4.959 0 0 1 4.949-4.958 4.959 4.959 0 0 1 4.95 4.958v8.614h7.916v-15.78a.991.991 0 0 1 .99-.991.991.991 0 0 1 .99.991v16.772a.991.991 0 0 1-.99.991h-9.9a.99.99 0 0 1-.986-.914.731.731 0 0 1 0-.077v-9.606a2.976 2.976 0 0 0-2.97-2.975 2.976 2.976 0 0 0-2.97 2.975v9.606a.7.7 0 0 1 0 .076.99.99 0 0 1-.986.915h-9.9a.991.991 0 0 1-.99-.991v-16.772a.991.991 0 0 1 .99-.992" class="cls-1" data-name="Path 1731" transform="translate(308.598 255.299)"/>
    </g>
</svg>
