<svg xmlns="http://www.w3.org/2000/svg" viewBox="0 0 40.701 52.234">
    <defs>
        <style>
            .cls-1{fill:#fff}
        </style>
    </defs>
    <g id="log-out-icon" transform="translate(-912.516 -445.599)">
        <path id="Path_2" d="M1790.684 168.215l-13-13a1.872 1.872 0 0 0-2.648 2.648l9.869 9.869h-21.183a1.926 1.926 0 0 0 0 3.851h20.942l-9.869 9.869a1.872 1.872 0 0 0 2.648 2.648l13-13a1.768 1.768 0 0 0 .482-1.444c.481-.478.241-.956-.241-1.441z" class="cls-1" data-name="Path 2" transform="translate(-837.97 302.177)"/>
        <path id="Path_1" d="M1760.71 194.772v-37.31a3.8 3.8 0 0 1 3.852-3.851h18.775V150h-18.775a7.5 7.5 0 0 0-7.462 7.462v37.31a7.5 7.5 0 0 0 7.462 7.462h18.775v-3.851h-18.775a3.477 3.477 0 0 1-3.852-3.611z" class="cls-1" data-name="Path 1" transform="translate(-844.583 295.599)"/>
    </g>
</svg>
