<svg
    xmlns="http://www.w3.org/2000/svg" viewBox="0 0 99.109 43.263">
    <defs>
        <style>
            .cls-1,.cls-3{fill:#fff}.cls-2{fill:#35b3d4}.cls-3{font-size:5px;font-family:Roboto-Regular,Roboto;letter-spacing:.01em;opacity:.35}
        </style>
    </defs>
    <g id="proven-docs-logo" transform="translate(-160.086 -130.737)">
        <path id="Path_2894" d="M0 5h9.659C14.611 5 18 7.8 18 12.229c0 5.076-3.845 7.413-8.459 7.413H5.045v8.736H0zm5.045 10.612h3.876c2.338 0 4-.892 4-3.291S11.166 9 9.044 9h-4z" class="cls-1" data-name="Path 2894" transform="translate(160.086 127.275)"/>
        <path id="Path_2895" d="M63.231 27.768c0-1.753 0-3.291-.031-4.768h4.768c.062.4.123 2.122.123 3.076.769-2 2.645-3.476 5.629-3.476v4.645c-3.537-.092-5.629.861-5.629 5.66v7.659h-4.86z" class="cls-1" data-name="Path 2895" transform="translate(116.327 115.088)"/>
        <path id="Path_2896" d="M270.831 27.429c0-1.477 0-3.138-.031-4.43h4.706c.092.461.154 1.661.185 2.246.584-1.107 2.03-2.645 5.076-2.645 3.537 0 5.814 2.369 5.814 6.8v11.164h-4.86V29.921c0-1.969-.646-3.414-2.8-3.414-2.061 0-3.261 1.138-3.261 4.245v9.813h-4.86V27.429z" class="cls-1" data-name="Path 2896" transform="translate(-27.414 115.088)"/>
        <path id="Path_2897" d="M223.956 30.528a9.2 9.2 0 1 0-.646 3.414h-5.352a4.637 4.637 0 0 1-3.23 1.292 4.694 4.694 0 0 1-4.614-3.876s7.536.031 11.474.031h2.338c0-.03.03-.584.03-.861zm-13.412-2.092a4.679 4.679 0 0 1 8.367 0z" class="cls-1" data-name="Path 2897" transform="translate(17.799 115.989)"/>
        <path id="Path_2898" d="M169.3.031L164.5 0l-6.952 19.871-5.537-7.106-3.811 2.954 7.167 9.29h5.233z" class="cls-1" data-name="Path 2898" transform="translate(57.473 130.737)"/>
        <path id="Path_2899" d="M114.3 32.35a4.526 4.526 0 0 1-3.568 1.692 4.614 4.614 0 0 1 0-9.228 4.522 4.522 0 0 1 3.753 1.969A11.612 11.612 0 0 1 115.5 28.6l3.691-2.83a9.241 9.241 0 1 0-.923 8.951l-2.83-3.907a7.051 7.051 0 0 1-1.138 1.536z" class="cls-1" data-name="Path 2899" transform="translate(89.808 116.75)"/>
        <path id="Path_2900" d="M243.814 91.23a3.2 3.2 0 0 1-3.507 3.23H237.6V88h2.8a3.168 3.168 0 0 1 3.414 3.23zm-1.723.031a1.747 1.747 0 0 0-1.753-1.876h-1.077v3.722h1.139a1.692 1.692 0 0 0 1.691-1.846z" class="cls-1" data-name="Path 2900" transform="translate(-4.427 69.806)"/>
        <path id="Path_2901" d="M286.676 89.315a1.748 1.748 0 0 0-1.753 1.815 1.775 1.775 0 0 0 1.753 1.846 2.384 2.384 0 0 0 1.6-.769l.984 1.077a3.791 3.791 0 0 1-2.676 1.2 3.294 3.294 0 1 1 .062-6.583 3.756 3.756 0 0 1 2.615 1.107l-.984 1.169a2.212 2.212 0 0 0-1.601-.862z" class="cls-1" data-name="Path 2901" transform="translate(-36 69.875)"/>
        <path id="Path_2902" d="M306.861 89.153c-.4 0-.677.154-.677.431 0 1.077 3.414.461 3.414 2.8 0 1.323-1.169 2-2.615 2A4.816 4.816 0 0 1 304 93.337l.646-1.323a4.066 4.066 0 0 0 2.338.984c.492 0 .8-.185.8-.523 0-1.107-3.414-.431-3.414-2.707 0-1.2 1.015-1.969 2.584-1.969a5 5 0 0 1 2.584.738l-.646 1.323a4.6 4.6 0 0 0-2.031-.707z" class="cls-1" data-name="Path 2902" transform="translate(-50.402 69.944)"/>
        <path id="Path_2903" d="M262.884 87.3a3.384 3.384 0 1 0 3.384 3.384 3.374 3.374 0 0 0-3.384-3.384zm0 5.076a1.692 1.692 0 1 1 1.692-1.692 1.707 1.707 0 0 1-1.692 1.692z" class="cls-1" data-name="Path 2903" transform="translate(-19.59 70.291)"/>
        <path id="Path_2904" d="M162.4 37.3c.338.461.708.984 1.107 1.538h5.106l.554-1.538z" class="cls-2" data-name="Path 2904" transform="translate(47.641 104.91)"/>
        <path id="Path_2905" d="M143.969 12.753A2.864 2.864 0 0 1 146.614 11h10.8L158 9.4h-11.6a4.273 4.273 0 0 0-4 2.8 5.97 5.97 0 0 1 1.569.553z" class="cls-2" data-name="Path 2905" transform="translate(61.489 124.228)"/>
        <path id="Path_2906" d="M163.555 77.3v1.323a2.888 2.888 0 0 1-2.891 2.892h-14.673a2.888 2.888 0 0 1-2.891-2.892v-.308a10.389 10.389 0 0 1-1.6.677 4.249 4.249 0 0 0 4.245 4.122h15.165a4.253 4.253 0 0 0 4.245-4.245v-.492a10.412 10.412 0 0 1-1.6-1.077z" class="cls-2" data-name="Path 2906" transform="translate(62.112 77.215)"/>
        <path id="Path_2907" d="M176.109 84.1V87.053a2.888 2.888 0 0 1-2.891 2.891h-14.673a2.854 2.854 0 0 1-2.307-1.169H154.3a4.289 4.289 0 0 0 4 2.768h15.165a4.309 4.309 0 0 0 3.753-2.215 4.155 4.155 0 0 0 .523-2.03v-2.86a9.584 9.584 0 0 1-1.632-.338z" class="cls-2" data-name="Path 2907" transform="translate(53.25 72.506)"/>
        <path id="Path_2908" d="M154.868 76.2H151.3v1.538h4.737z" class="cls-2" data-name="Path 2908" transform="translate(55.327 77.976)"/>
        <path id="Path_2909" d="M192.923 76.2l-.523 1.538h5.168V76.2z" class="cls-2" data-name="Path 2909" transform="translate(26.87 77.976)"/>
        <path id="Path_2910" d="M163.09 24.3h-9.69a11.729 11.729 0 0 1 1.507 1.538h8.89l.554-1.538z" class="cls-2" data-name="Path 2910" transform="translate(53.873 113.911)"/>
        <path id="Path_2911" d="M199.1 63.3h-1.876l-.523 1.538h3.076a11.62 11.62 0 0 1-.677-1.538z" class="cls-2" data-name="Path 2911" transform="translate(23.892 86.908)"/>
        <text id="Powered_by_ProvenDB" class="cls-3" data-name="Powered by ProvenDB" transform="translate(209 167)">
            <tspan x="-19" y="5">Powered by ProvenDB</tspan>
        </text>
    </g>
</svg>
