<svg xmlns="http://www.w3.org/2000/svg" viewBox="0 0 143.861 14.126">
    <defs>
        <style>
            .cls-1{opacity:.5}.cls-2{fill:#fff}
        </style>
    </defs>
    <g id="powered-by-provendb" transform="translate(-213.938 -35)">
        <g id="Group_2186" class="cls-1" data-name="Group 2186" transform="translate(213.938 35)">
            <path id="Path_6234" d="M.728 12.1v3.529H0V7h2.913a3.13 3.13 0 0 1 2.129.672 2.4 2.4 0 0 1 .784 1.9 2.253 2.253 0 0 1-.726 1.854 3.187 3.187 0 0 1-2.185.672zm0-.616h2.185a2.351 2.351 0 0 0 1.625-.5 1.7 1.7 0 0 0 .56-1.4 1.7 1.7 0 0 0-.56-1.4 2.319 2.319 0 0 0-1.569-.56H.728v3.865z" class="cls-2" data-name="Path 6234" transform="translate(0 -4.079)"/>
            <path id="Path_6235" d="M11.8 13.949a4.093 4.093 0 0 1 .336-1.681 2.592 2.592 0 0 1 1.008-1.176A2.714 2.714 0 0 1 14.6 10.7a2.562 2.562 0 0 1 2.073.9 3.609 3.609 0 0 1 .784 2.353v.168a4.093 4.093 0 0 1-.336 1.681 2.2 2.2 0 0 1-1.008 1.12 2.714 2.714 0 0 1-1.457.392 2.639 2.639 0 0 1-2.073-.9 3.329 3.329 0 0 1-.784-2.353v-.112zm.672.168a2.986 2.986 0 0 0 .616 1.9 1.84 1.84 0 0 0 1.569.728 1.911 1.911 0 0 0 1.569-.728 3.039 3.039 0 0 0 .616-1.961v-.112a3.385 3.385 0 0 0-.28-1.344 2.189 2.189 0 0 0-.784-.952 2.02 2.02 0 0 0-1.12-.336 1.986 1.986 0 0 0-1.569.728 2.753 2.753 0 0 0-.616 1.961z" class="cls-2" data-name="Path 6235" transform="translate(-5.19 -5.706)"/>
            <path id="Path_6236" d="M25.273 15.83l.112.56.168-.56 1.513-4.874h.616l1.513 4.874.168.672.112-.616 1.288-4.93h.728l-1.849 6.386h-.616l-1.625-5.1-.056-.336-.056.336-1.625 5.042h-.616L23.2 10.9h.728z" class="cls-2" data-name="Path 6236" transform="translate(-10.203 -5.794)"/>
            <path id="Path_6237" d="M42.157 17.323a2.587 2.587 0 0 1-1.457-.393 2.452 2.452 0 0 1-1.008-1.12 3.315 3.315 0 0 1-.392-1.625v-.28a4.093 4.093 0 0 1 .336-1.681 2.768 2.768 0 0 1 2.409-1.624 2.366 2.366 0 0 1 1.849.784 3.187 3.187 0 0 1 .672 2.185v.392h-4.594v.224a2.673 2.673 0 0 0 .616 1.793 2.084 2.084 0 0 0 1.569.728 1.918 1.918 0 0 0 1.008-.224 2.194 2.194 0 0 0 .784-.672l.448.336a2.472 2.472 0 0 1-2.24 1.177zm-.112-6.05a1.661 1.661 0 0 0-1.345.56 3.112 3.112 0 0 0-.672 1.569h3.865v-.056a2.242 2.242 0 0 0-.5-1.513 2.067 2.067 0 0 0-1.348-.561z" class="cls-2" data-name="Path 6237" transform="translate(-17.284 -5.662)"/>
            <path id="Path_6238" d="M53.625 11.428c-.168 0-.336-.056-.5-.056a1.526 1.526 0 0 0-1.12.392 2.892 2.892 0 0 0-.672 1.064V17.2H50.6v-6.388h.784v1.008a1.819 1.819 0 0 1 1.793-1.12.963.963 0 0 1 .448.056z" class="cls-2" data-name="Path 6238" transform="translate(-22.253 -5.706)"/>
            <path id="Path_6239" d="M59.557 17.323a2.587 2.587 0 0 1-1.457-.393 2.452 2.452 0 0 1-1.008-1.12 3.315 3.315 0 0 1-.392-1.625v-.28a4.093 4.093 0 0 1 .336-1.681 2.768 2.768 0 0 1 2.409-1.624 2.366 2.366 0 0 1 1.849.784 3.187 3.187 0 0 1 .672 2.185v.392h-4.594v.224a2.673 2.673 0 0 0 .616 1.793 2.084 2.084 0 0 0 1.569.728 1.918 1.918 0 0 0 1.008-.224 2.194 2.194 0 0 0 .784-.672l.448.336a2.472 2.472 0 0 1-2.24 1.177zm-.112-6.05a1.661 1.661 0 0 0-1.344.56 3.112 3.112 0 0 0-.672 1.569h3.865v-.056a2.242 2.242 0 0 0-.5-1.513 1.738 1.738 0 0 0-1.349-.561z" class="cls-2" data-name="Path 6239" transform="translate(-24.936 -5.662)"/>
            <path id="Path_6240" d="M67.556 11.926a3.676 3.676 0 0 1 .672-2.353 2.106 2.106 0 0 1 1.793-.9 2.23 2.23 0 0 1 1.961 1.008V6.1h.728v9.075h-.672l-.056-.84a2.222 2.222 0 0 1-2.017.952 2.106 2.106 0 0 1-1.793-.9 3.961 3.961 0 0 1-.672-2.409v-.056zm.728.168a3.087 3.087 0 0 0 .5 1.9 1.675 1.675 0 0 0 1.4.728 1.843 1.843 0 0 0 1.849-1.176v-3.02a1.912 1.912 0 0 0-1.849-1.232 1.549 1.549 0 0 0-1.4.728 3.419 3.419 0 0 0-.5 2.072z" class="cls-2" data-name="Path 6240" transform="translate(-29.686 -3.683)"/>
            <path id="Path_6241" d="M89.61 12.094a3.676 3.676 0 0 1-.672 2.353 2.177 2.177 0 0 1-1.793.9 2.262 2.262 0 0 1-2.017-1.008l-.056.9H84.4V6.1h.728v3.641a2.306 2.306 0 0 1 2.017-1.064 2.131 2.131 0 0 1 1.793.84 3.849 3.849 0 0 1 .672 2.409v.168zm-.728-.168a3.271 3.271 0 0 0-.5-1.961 1.629 1.629 0 0 0-1.4-.672 1.926 1.926 0 0 0-1.9 1.288v2.913a1.962 1.962 0 0 0 1.9 1.232 1.53 1.53 0 0 0 1.344-.672 3.327 3.327 0 0 0 .556-2.128z" class="cls-2" data-name="Path 6241" transform="translate(-37.118 -3.683)"/>
            <path id="Path_6242" d="M97.445 16.278l1.849-5.378h.784l-2.745 7.507-.168.336a1.709 1.709 0 0 1-1.625 1.176 2.1 2.1 0 0 1-.56-.056V19.3l.392.056a1.376 1.376 0 0 0 .84-.28 1.9 1.9 0 0 0 .56-.9l.336-.84-2.408-6.324h.728z" class="cls-2" data-name="Path 6242" transform="translate(-41.648 -5.794)"/>
            <path id="Path_6243" d="M111.5 0h5.266c2.689 0 4.538 1.513 4.538 3.921 0 2.745-2.073 4.033-4.594 4.033h-2.465v4.762H111.5zm2.745 5.77h2.073c1.288 0 2.185-.5 2.185-1.793s-.952-1.793-2.129-1.793h-2.129z" class="cls-2" data-name="Path 6243" transform="translate(-49.037)"/>
            <path id="Path_6244" d="M131 8.1V5.524h2.577a14.222 14.222 0 0 1 .056 1.681 3.136 3.136 0 0 1 3.081-1.9v2.516c-1.9-.056-3.081.448-3.081 3.081v4.146H131z" class="cls-2" data-name="Path 6244" transform="translate(-57.613 -2.331)"/>
            <path id="Path_6245" d="M196.8 7.833V5.424h2.577a7.724 7.724 0 0 1 .112 1.232 2.918 2.918 0 0 1 2.745-1.456c1.9 0 3.137 1.288 3.137 3.7v6.05h-2.633V9.233c0-1.064-.336-1.849-1.513-1.849-1.12 0-1.793.616-1.793 2.3V15H196.8V7.833z" class="cls-2" data-name="Path 6245" transform="translate(-86.551 -2.287)"/>
            <path id="Path_6246" d="M215.6 0h5.042c3.7 0 6.106 2.465 6.106 6.218 0 3.7-2.353 6.5-6.218 6.5h-4.93zm2.745 10.476h2.073c2.409 0 3.529-1.793 3.529-4.314 0-2.073-1.008-3.977-3.473-3.977H218.4v8.291z" class="cls-2" data-name="Path 6246" transform="translate(-94.819)"/>
            <path id="Path_6247" d="M238.7 0h5.546c3.081 0 4.258 1.625 4.258 3.249a2.888 2.888 0 0 1-1.625 2.745 3.066 3.066 0 0 1 1.961 2.913c0 2.185-1.681 3.809-4.426 3.809H238.7zm5.21 4.986c1.288 0 1.849-.56 1.849-1.457 0-.952-.728-1.4-1.793-1.4h-2.633v2.913h2.577zm-2.521 5.6h2.465c1.513 0 2.185-.616 2.185-1.793 0-1.008-.672-1.681-2.185-1.681h-2.465z" class="cls-2" data-name="Path 6247" transform="translate(-104.978)"/>
            <path id="Path_6248" d="M186.208 9.854a5.154 5.154 0 1 0-5.154 5.154 5.207 5.207 0 0 0 4.818-3.249H182.9a2.591 2.591 0 0 1-1.793.728 2.642 2.642 0 0 1-2.577-2.185h7.675c-.053.056.003-.28.003-.448zM178.7 8.677a2.629 2.629 0 0 1 4.706 0z" class="cls-2" data-name="Path 6248" transform="translate(-77.359 -2.067)"/>
            <path id="Path_6249" d="M150.908 10.386a5.82 5.82 0 0 1-.392 1.961 4.475 4.475 0 0 1-1.12 1.569 4.55 4.55 0 0 1-1.625 1.064 4.8 4.8 0 0 1-2.017.392 5.167 5.167 0 0 1-2.017-.392 5.446 5.446 0 0 1-1.625-1.064 6.173 6.173 0 0 1-1.12-1.569 4.719 4.719 0 0 1-.392-1.961 4.719 4.719 0 0 1 .392-1.961 4.475 4.475 0 0 1 1.12-1.569 4.55 4.55 0 0 1 1.625-1.064 4.8 4.8 0 0 1 2.017-.392 5.167 5.167 0 0 1 2.017.392 4.55 4.55 0 0 1 1.629 1.065 6.173 6.173 0 0 1 1.12 1.569 8.118 8.118 0 0 1 .388 1.96zm-2.577 0a2.578 2.578 0 1 0-2.577 2.521 2.559 2.559 0 0 0 2.577-2.521z" class="cls-2" data-name="Path 6249" transform="translate(-61.835 -2.375)"/>
            <path id="Path_6250" d="M165.587 6.2l-.728 1.737-1.793 4.65-2.073-5.547-.336-.84H157.8l3.7 9.355h3.193l3.751-9.355z" class="cls-2" data-name="Path 6250" transform="translate(-69.399 -2.727)"/>
        </g>
    </g>
</svg>
