<svg xmlns="http://www.w3.org/2000/svg" viewBox="0 0 25.181 25.175"><defs><style>.a{fill:#fff;opacity:0.5;}.b{fill:#2f79a3;}</style></defs><g transform="translate(-1132.247 -12.983)"><path class="a" d="M1767.918,36.65l-3.748,2.037a1.463,1.463,0,0,0-.57.407,12.478,12.478,0,0,0,8.147,2.933,12.7,12.7,0,0,0,8.065-2.933,1.774,1.774,0,0,0-.652-.407l-4.073-2.037a1.577,1.577,0,0,1-.815-1.385V33.717a2.157,2.157,0,0,1,.407-.489A8.038,8.038,0,0,0,1775.9,30.7a1.324,1.324,0,0,0,.9-1.222V27.769a1.051,1.051,0,0,0-.407-.9V24.429s.489-3.829-4.644-3.829-4.644,3.829-4.644,3.829v2.444a1.308,1.308,0,0,0-.407.9V29.48a1.393,1.393,0,0,0,.57,1.059,7.845,7.845,0,0,0,1.548,3.177v1.548A1.845,1.845,0,0,1,1767.918,36.65Z" transform="translate(-626.787 -3.869)"/><path class="b" d="M1770.872,16A12.7,12.7,0,0,0,1758,28.383a12.561,12.561,0,0,0,4.481,9.858,2.476,2.476,0,0,1,.57-.407L1766.8,35.8a1.577,1.577,0,0,0,.815-1.385V32.864a7.845,7.845,0,0,1-1.548-3.177,1.393,1.393,0,0,1-.57-1.059V26.917a1.051,1.051,0,0,1,.407-.9V23.577s-.489-3.829,4.644-3.829,4.644,3.829,4.644,3.829v2.444a1.309,1.309,0,0,1,.407.9v1.711a1.324,1.324,0,0,1-.9,1.222,14.447,14.447,0,0,1-1.222,2.526c-.163.163-.244.326-.407.489v1.548a1.577,1.577,0,0,0,.815,1.385l4.073,2.037a1.771,1.771,0,0,1,.652.407,12.715,12.715,0,0,0,4.563-9.451A12.5,12.5,0,0,0,1770.872,16Z" transform="translate(-625.749 -3.016)"/></g></svg>