<svg xmlns="http://www.w3.org/2000/svg" viewBox="0 0 87.365 55.148">
    <defs>
        <style>
            .cls-1{fill:#4398d1}.cls-2{fill:#dadddf}.cls-3{fill:#3e8cc7}.cls-4{fill:#fdb62f}.cls-5{fill:#126099}.cls-6{fill:#c7cacc}.cls-7{fill:#1e557b}.cls-8{fill:#e6646e}.cls-9{fill:#dc4655}.cls-10{fill:#fbc4ac}.cls-11{fill:#ff8087}.cls-12{fill:#5c5766}.cls-13{fill:#4f4a58}.cls-14{fill:#e3b098}
        </style>
    </defs>
    <g id="user-sad-404-icon" transform="translate(-559.789 -536.589)">
        <g id="Group_2416" data-name="Group 2416" transform="translate(597.033 546.626)">
            <g id="Group_2415" data-name="Group 2415">
                <g id="Group_2414" data-name="Group 2414">
                    <g id="filled_outline_1_">
                        <path id="Path_12031" d="M58.351 13.241a3.337 3.337 0 0 0-3.34-3.341h-41.77A3.337 3.337 0 0 0 9.9 13.241v25.065h48.452V13.241z" class="cls-1" data-name="Path 12031" transform="translate(-9.061 -9.061)"/>
                        <path id="Path_12032" d="M9.9 344.8v2.51a3.337 3.337 0 0 0 3.341 3.341h41.77a3.337 3.337 0 0 0 3.341-3.341v-2.51z" class="cls-2" data-name="Path 12032" transform="translate(-9.061 -315.563)"/>
                        <path id="Path_12033" d="M190.186 9.9h-4.18L157.6 38.306h35.927V13.241a3.342 3.342 0 0 0-3.341-3.341z" class="cls-3" data-name="Path 12033" transform="translate(-144.236 -9.061)"/>
                        <path id="Path_12034" d="M211.05 422.152l-1.518-8.352h-8.352l-1.518 8.352H197v1.67h16.713v-1.67z" class="cls-2" data-name="Path 12034" transform="translate(-180.296 -378.712)"/>
                        <path id="Path_12035" d="M168.07 83.813l9.819-14.729a1.006 1.006 0 0 1 1.391-.28 1.1 1.1 0 0 1 .28.28l9.819 14.729a1.006 1.006 0 0 1-.839 1.56H168.9a1 1 0 0 1-1-1 1.031 1.031 0 0 1 .17-.56z" class="cls-4" data-name="Path 12035" transform="translate(-153.663 -62.818)"/>
                        <path id="Rectangle_2388" d="M0 0h1.67v5.851H0z" class="cls-5" data-name="Rectangle 2388" transform="translate(24.226 10.862)"/>
                        <path id="Rectangle_2389" d="M0 0h1.67v1.67H0z" class="cls-5" data-name="Rectangle 2389" transform="translate(24.226 18.383)"/>
                        <path id="Path_12036" d="M250.168 416.31l-.458-2.51h-8.352l-.458 2.51z" class="cls-6" data-name="Path 12036" transform="translate(-220.473 -378.712)"/>
                        <path id="Path_12037" d="M45.95 0H4.18A4.183 4.183 0 0 0 0 4.18v27.567a4.189 4.189 0 0 0 4.18 4.18h15.7l-1.365 7.521H16.7v1.662h16.7v-1.67h-1.8l-1.365-7.521h15.7a4.189 4.189 0 0 0 4.18-4.18V4.18A4.176 4.176 0 0 0 45.95 0zM1.67 4.18a2.51 2.51 0 0 1 2.51-2.51h41.77a2.51 2.51 0 0 1 2.51 2.51v24.226H1.67zm28.237 39.26h-9.692l1.365-7.521h6.962zm18.545-11.693a2.51 2.51 0 0 1-2.51 2.51H4.18a2.51 2.51 0 0 1-2.51-2.51v-1.67h46.782v1.67z" class="cls-7" data-name="Path 12037"/>
                        <path id="Path_12038" d="M171.274 59.538a1.84 1.84 0 0 0-3.061 0l-9.819 14.737a1.85 1.85 0 0 0 .509 2.552 1.814 1.814 0 0 0 1.018.305h19.647a1.838 1.838 0 0 0 1.84-1.84 1.862 1.862 0 0 0-.305-1.018zm8.446 15.84a.137.137 0 0 1-.144.085H159.92a.173.173 0 0 1-.144-.263l9.824-14.738a.166.166 0 0 1 .229-.051.144.144 0 0 1 .051.051L179.7 75.2a.169.169 0 0 1 .019.178z" class="cls-7" data-name="Path 12038" transform="translate(-144.682 -53.738)"/>
                        <path id="Rectangle_2390" d="M0 0h1.67v5.851H0z" class="cls-7" data-name="Rectangle 2390" transform="translate(24.226 10.862)"/>
                        <path id="Rectangle_2391" d="M0 0h1.67v1.67H0z" class="cls-7" data-name="Rectangle 2391" transform="translate(24.226 18.383)"/>
                    </g>
                </g>
            </g>
        </g>
        <path id="Path_12039" d="M78.9 391.092a16.292 16.292 0 1 1 32.584 0z" class="cls-8" data-name="Path 12039" transform="translate(488.852 199.622)"/>
        <path id="Path_12040" d="M97.716 374.992a15.968 15.968 0 0 0-2.524-.192A16.3 16.3 0 0 0 78.9 391.092h5.047a16.3 16.3 0 0 1 13.769-16.1z" class="cls-9" data-name="Path 12040" transform="translate(488.852 199.622)"/>
        <path id="Path_12041" d="M220.918 449.9h-3.483a.633.633 0 0 1-.636-.636v-5.33a.633.633 0 0 1 .636-.636h3.483a.633.633 0 0 1 .636.636v5.33a.646.646 0 0 1-.636.636z" class="cls-9" data-name="Path 12041" transform="translate(364.872 138.037)"/>
        <path id="Path_12042" d="M188.245 334H182.4v5.2l5.845 5.845 5.845-5.845V334z" class="cls-10" data-name="Path 12042" transform="translate(395.8 236.304)"/>
        <path id="Path_12043" d="M242.218 385.79l-1.918-1.918 6.672-6.672 1.918 1.918a1.158 1.158 0 0 1 0 1.625l-5.047 5.047a1.139 1.139 0 0 1-1.625 0z" class="cls-11" data-name="Path 12043" transform="translate(343.745 197.464)"/>
        <path id="Path_12044" d="M270.27 379.522a1.264 1.264 0 0 0-.262-.4l-1.918-1.922-4.29 4.29a19.161 19.161 0 0 0 6.47-1.968z" class="cls-8" data-name="Path 12044" transform="translate(322.617 197.464)"/>
        <path id="Path_12045" d="M158.905 385.79l1.918-1.918-6.672-6.672-1.918 1.918a1.158 1.158 0 0 0 0 1.625l5.047 5.047a1.139 1.139 0 0 0 1.625 0z" class="cls-11" data-name="Path 12045" transform="translate(423.221 197.464)"/>
        <path id="Path_12046" d="M159.17 381.59l-4.29-4.29-1.918 1.918a1.161 1.161 0 0 0-.262.4 19.772 19.772 0 0 0 6.47 1.972z" class="cls-8" data-name="Path 12046" transform="translate(422.502 197.375)"/>
        <path id="Path_12047" d="M63.915 13.345a2.071 2.071 0 0 0-2.059-1.7c-5.168.05-8.489-4.149-19.3-4.149C30.452 7.5 20.6 16.979 20.6 28.627l2.937 2.625L42.555 34.2l18.907-2.332 2.029-3.23a37.58 37.58 0 0 0 .424-15.293z" class="cls-12" data-name="Path 12047" transform="translate(541.267 529.846)"/>
        <path id="Path_12048" d="M24.689 30.555A23.243 23.243 0 0 1 45.645 7.631a38.872 38.872 0 0 0-3.19-.131C30.352 7.5 20.5 16.979 20.5 28.627l2.937 2.625 2.433.373z" class="cls-13" data-name="Path 12048" transform="translate(541.357 529.846)"/>
        <path id="Path_12049" d="M80.694 153.459l-.182-.05A8.391 8.391 0 0 1 74.567 145a58.016 58.016 0 0 1-13.052 1.413A58.016 58.016 0 0 1 48.463 145a8.391 8.391 0 0 1-5.946 8.409l-.182.071-.636 2.079 1.433 2.079a19.481 19.481 0 0 0 36.743 0l1.948-1.655z" class="cls-10" data-name="Path 12049" transform="translate(522.297 406.226)"/>
        <g id="Group_2417" data-name="Group 2417" transform="translate(560.545 555.374)">
            <path id="Path_11918" d="M420.8 190.481a17.323 17.323 0 0 1-.8 4.108 4.252 4.252 0 0 0 4.906-4.23 4.288 4.288 0 0 0-3.826-4.26c-.02 2.15-.273 4.31-.273 4.31z" class="cls-14" data-name="Path 11918" transform="translate(-378.361 -186.1)"/>
            <path id="Path_11919" d="M11.6 190.41s-.252-2.16-.273-4.31a4.282 4.282 0 0 0 .454 8.54 4.11 4.11 0 0 0 .616-.05 19.032 19.032 0 0 0 16.634 12.92 26.46 26.46 0 0 1-14.182-15.818 26.436 26.436 0 0 1-.666-2.524 8 8 0 0 1-2.4 1.181l-.182.071z" class="cls-14" data-name="Path 11919" transform="translate(-7.5 -186.1)"/>
        </g>
        <path id="Path_12050" d="M109.645 268h-2.988a.757.757 0 0 0 0 1.514h2.988a.757.757 0 0 0 0-1.514z" class="cls-11" data-name="Path 12050" transform="translate(464.578 295.642)"/>
        <path id="Path_12051" d="M329.245 268h-2.988a.757.757 0 0 0 0 1.514h2.988a.757.757 0 0 0 0-1.514z" class="cls-11" data-name="Path 12051" transform="translate(267.145 295.642)"/>
        <path id="Path_12052" d="M4.928.151a.75.75 0 0 0-1.06.161 1.554 1.554 0 0 1-1.251.636A1.554 1.554 0 0 1 1.365.313.768.768 0 0 0 .305.151a.768.768 0 0 0-.162 1.06 3.093 3.093 0 0 0 2.474 1.241A3.108 3.108 0 0 0 5.09 1.211a.766.766 0 0 0-.162-1.06z" class="cls-7" data-name="Path 12052" transform="rotate(180 293.22 282.578)"/>
        <path id="Path_12053" d="M121.557 215.6a.763.763 0 0 0-.757.757v2.221a.757.757 0 0 0 1.514 0v-2.221a.763.763 0 0 0-.757-.757z" class="cls-7" data-name="Path 12053" transform="translate(451.182 342.752)"/>
        <path id="Path_12054" d="M341.157 215.6a.763.763 0 0 0-.757.757v2.221a.757.757 0 1 0 1.514 0v-2.221a.763.763 0 0 0-.757-.757z" class="cls-7" data-name="Path 12054" transform="translate(253.749 342.752)"/>
        <path id="Path_12055" d="M46.646 15.929a38.352 38.352 0 0 0-.515-9.458 2.828 2.828 0 0 0-2.806-2.322A15.685 15.685 0 0 1 37.5 2.7 33.495 33.495 0 0 0 24.034 0a23 23 0 0 0-13.465 4.28.76.76 0 1 0 .878 1.242 21.471 21.471 0 0 1 12.587-4.008A32.333 32.333 0 0 1 36.965 4.1a16.679 16.679 0 0 0 6.38 1.555 1.3 1.3 0 0 1 1.3 1.08 37.4 37.4 0 0 1 .232 11.619c.02-.131-1.2-.313-1.322-.323a.767.767 0 0 0-.838.747c-.01.464-.02.929-.04 1.383-.04.727-.091 1.4-.131 1.908a7.719 7.719 0 0 1-1.443-.8h-.01a6.884 6.884 0 0 1-.8-.636 8.019 8.019 0 0 1-2.453-6 .789.789 0 0 0-1.04-.707 54.86 54.86 0 0 1-12.769 1.363A57.174 57.174 0 0 1 11.174 13.9a.765.765 0 0 0-.949.737 9.11 9.11 0 0 1-.081 1.282 7.455 7.455 0 0 1-3.17 5.35 7.543 7.543 0 0 1-1.454.808c-.05-.515-.1-1.191-.131-1.928-.02-.454-.04-.908-.04-1.373a.762.762 0 0 0-.454-.686 1.874 1.874 0 0 0-1.171.091 4.147 4.147 0 0 0-.565.192A20.142 20.142 0 0 1 9.176 7.379a.757.757 0 1 0-1.04-1.1 21.548 21.548 0 0 0-6.682 13.213 5.046 5.046 0 0 0 3.583 8.59h.091a19.035 19.035 0 0 0 5.118 7.662s.626.565 1.151.979a20.381 20.381 0 0 0 4.103 2.493l.151.061a2.855 2.855 0 0 0-.878.676A17.018 17.018 0 0 0 7.2 54.125a.763.763 0 0 0 .757.757h32.582a.763.763 0 0 0 .757-.757 16.955 16.955 0 0 0-.8-5.158c.032 0-.545-1.514-.545-1.514a19.023 19.023 0 0 0-1.08-2.12V34.694a18.969 18.969 0 0 0 4.068-6.622h.091a5.041 5.041 0 0 0 3.26-8.883c.091-.6.172-1.181.232-1.756zM1.514 23.045a3.582 3.582 0 0 1 2.15-3.25c.01-.01.182-.061.182-.071a39.657 39.657 0 0 0 .454 5.128v.02c.091.565.212 1.12.353 1.676a3.538 3.538 0 0 1-3.139-3.503zm38.257 30.323H8.742a15.515 15.515 0 0 1 6.1-11.6 2.214 2.214 0 0 0 .293.394l5.047 5.047a1.908 1.908 0 0 0 .949.515v3a1.4 1.4 0 0 0 1.393 1.393H26a1.4 1.4 0 0 0 1.4-1.393v-3a1.951 1.951 0 0 0 .949-.515l5.047-5.047a1.813 1.813 0 0 0 .293-.394 15.488 15.488 0 0 1 6.082 11.6zm-14.444-8.62l4.341-4.341a18.808 18.808 0 0 0 1.827-.676l.808.808a.4.4 0 0 1 0 .555l-5.047 5.047a.4.4 0 0 1-.555 0zm.545 2.655v3.19h-3.23V47.4a1.448 1.448 0 0 0 .232-.2l1.383-1.383 1.382 1.383a2.22 2.22 0 0 0 .233.2zm-1.615-3.725l-2.645-2.645a18.331 18.331 0 0 0 5.289 0zm-1.07 1.07L21.8 46.131a.4.4 0 0 1-.555 0L16.2 41.084a.4.4 0 0 1 0-.555l.757-.757.545.212c.111.03.212.071.323.1.172.05.353.111.535.162.162.05.313.111.474.151zm9.751-5.723c.01-.01.02-.01.03-.02a19.871 19.871 0 0 0 3.684-2.291c.182-.151.454-.384.7-.585V43.2a16.952 16.952 0 0 0-3.624-3.26 1.981 1.981 0 0 0-.353-.485zm9.438-15.252a16.41 16.41 0 0 1-.7 3.271c0 .01 0 .01-.01.02a17.393 17.393 0 0 1-5.017 7.672 18.862 18.862 0 0 1-10.084 4.613 18.939 18.939 0 0 1-5.088 0 19.06 19.06 0 0 1-2.7-.555c-.121-.04-.252-.091-.373-.131-.01 0-.03.01-.04.01a18.652 18.652 0 0 1-7.005-3.957 17.5 17.5 0 0 1-4.979-7.653c0-.01 0-.02-.01-.02a6 6 0 0 1 1.443-4.533.01.01 0 0 0 .01-.01 9.188 9.188 0 0 0 3.856-6.925A60.71 60.71 0 0 0 24 16.807a60.71 60.71 0 0 0 12.325-1.232 8.969 8.969 0 0 0 2.816 6.087 9.36 9.36 0 0 0 3.22 1.968.232.232 0 0 1 .015.142zm4.169-.727a3.531 3.531 0 0 1-3.149 3.5c.1-.4.2-.818.273-1.232a.037.037 0 0 1 .01-.03 38.125 38.125 0 0 0 .525-5.562 3.149 3.149 0 0 1 .818.424c.01 0 .01.01.02.01a3.5 3.5 0 0 1 1.503 2.889z" class="cls-7" data-name="Path 12055" transform="translate(559.788 536.589)"/>
    </g>
</svg>
