<svg xmlns="http://www.w3.org/2000/svg" viewBox="0 0 33.08 33.487"><defs><style>.a{fill:#1e557b;}</style></defs><g transform="translate(-864.898 -445.209)"><path class="a" d="M18.207,0c-.579,0-1.159.058-1.738.116C15.89.058,15.31,0,14.731,0A14.042,14.042,0,0,0,3.9,5.388l-.058.058a15.754,15.754,0,0,0-2.2,3.534.057.057,0,0,1-.058.058A23.7,23.7,0,0,0,.537,11.876c0,.058-.058.116-.058.174A17.961,17.961,0,0,0-.1,16.743a19.045,19.045,0,0,0,1.39,7.126v.058a16.857,16.857,0,0,0,2.028,3.592l.058.058A15.88,15.88,0,0,0,6.1,30.415c0,.058.058.058.116.058a13.31,13.31,0,0,0,8.4,3.013c.579,0,1.159-.058,1.738-.116.579.058,1.159.116,1.738.116C26.376,33.6,32.98,26.07,32.98,16.8S26.376,0,18.207,0ZM12.066,1.506a2.348,2.348,0,0,1-.521.29L11.2,1.97c-.174.116-.29.174-.463.29h-1.1A14.521,14.521,0,0,1,12.3,1.332C12.182,1.448,12.124,1.506,12.066,1.506ZM6.273,26.649H4.187a11.467,11.467,0,0,1-1.332-2.317h2.2c.116.232.174.406.29.637.058.058.058.174.116.232l.348.7a.439.439,0,0,1,.116.232ZM2.565,9.849h2.2c-.116.232-.174.521-.29.753,0,.058-.058.116-.058.232-.058.232-.174.521-.232.753H1.928A10.518,10.518,0,0,1,2.565,9.849ZM1.117,16.8a7.764,7.764,0,0,1,.058-1.159H3.492A7.764,7.764,0,0,0,3.434,16.8v.579H1.117Zm2.375,1.738c0,.232.058.463.058.753v.058c.058.348.116.637.174.985H1.464c-.116-.579-.174-1.159-.232-1.738H3.492ZM3.9,12.745a.438.438,0,0,1-.058.232c0,.058-.058.174-.058.232-.058.348-.116.753-.174,1.1v.232H1.29c.058-.579.174-1.159.29-1.738H3.9Zm.116,8.69c0,.058.058.116.058.232v.058c.116.348.174.7.29,1.043,0,.058.058.116.058.232,0,.058.058.116.058.174H2.333c-.232-.579-.406-1.159-.579-1.738ZM5.925,7.473a.439.439,0,0,0-.116.232l-.348.7c-.058.058-.058.174-.116.232V8.69H3.086A15.914,15.914,0,0,1,4.593,6.373H6.62a1.017,1.017,0,0,1-.232.29A5.789,5.789,0,0,1,5.925,7.473Zm1.68-4H9.227a2.676,2.676,0,0,0-.406.406l-.348.348-.348.348-.348.348c-.116.116-.174.232-.29.348H5.635A11.507,11.507,0,0,1,7.605,3.476ZM5.056,27.808h1.97c.058.058.116.174.174.232.174.232.348.406.521.637l.348.348.348.348.116.116H6.794A15.589,15.589,0,0,1,5.056,27.808Zm7.242,4.4A12.514,12.514,0,0,1,8.532,30.7h1.39c.058.058.174.116.232.174.116.116.232.174.348.29.232.174.463.29.7.463l.348.174a2.348,2.348,0,0,0,.521.29C12.124,32.1,12.182,32.153,12.3,32.211Zm5.909.232a11.163,11.163,0,0,1-1.39-.058l-.232-.058h-.058a2.058,2.058,0,0,1-.579-.116H15.89c-.174-.058-.406-.058-.579-.116h-.058l-.521-.174a.2.2,0,0,1-.116-.058c-.174-.058-.29-.116-.463-.174-.116-.058-.232-.058-.29-.116-.116-.058-.174-.058-.29-.116a14.234,14.234,0,0,1-7.242-7.242c0-.058,0-.058-.058-.116-.058-.174-.174-.348-.232-.521-.058-.058-.058-.174-.116-.232a3.992,3.992,0,0,1-.174-.463c-.058-.116-.058-.174-.116-.29a.837.837,0,0,1-.116-.406c-.058-.116-.058-.232-.116-.348s-.058-.232-.116-.348c-.058,0-.116-.116-.116-.232-.058-.116-.058-.232-.116-.348,0-.116-.058-.232-.058-.348s-.058-.232-.058-.348-.058-.232-.058-.348-.058-.232-.058-.406c0-.116-.058-.232-.058-.348s-.058-.29-.058-.406a.735.735,0,0,0-.058-.348,1.129,1.129,0,0,0-.058-.463V15.816a1.129,1.129,0,0,1,.058-.463A.735.735,0,0,1,4.708,15c0-.116.058-.29.058-.406s.058-.232.058-.348.058-.232.058-.406c0-.116.058-.232.058-.348S5,13.267,5,13.151s.058-.232.058-.348c.058-.116.058-.232.116-.348s.058-.232.116-.348.058-.232.116-.348.058-.232.116-.29a1.074,1.074,0,0,0,.116-.406c.058-.116.058-.174.116-.29.058-.174.116-.29.174-.463.058-.058.058-.174.116-.232.058-.174.174-.348.232-.521,0-.058,0-.058.058-.116a13.634,13.634,0,0,1,7.184-7.3c.116-.058.174-.058.29-.116s.232-.058.29-.116c.174-.058.29-.116.463-.174a.2.2,0,0,0,.116-.058l.521-.174h.058a2.058,2.058,0,0,1,.579-.116h.058c.174-.058.406-.058.579-.116h.058l.232-.058a12.6,12.6,0,0,1,1.448-.058c7.531,0,13.614,7.01,13.614,15.642S25.738,32.443,18.207,32.443Z" transform="translate(864.998 445.209)"/><path class="a" d="M31.037,7.659a6.3,6.3,0,0,1,1.043.058h.058a.616.616,0,0,0,.579-.521.575.575,0,0,0-.521-.637A8.556,8.556,0,0,0,30.979,6.5h0v0a.547.547,0,0,0-.579.579A.681.681,0,0,0,31.037,7.659Z" transform="translate(852.168 442.475)"/><path class="a" d="M38.363,9.4c.348.174.637.348.927.521a.979.979,0,0,0,.29.116.591.591,0,0,0,.463-.29.57.57,0,0,0-.174-.811,9.373,9.373,0,0,0-1.043-.579.553.553,0,0,0-.753.232A.744.744,0,0,0,38.363,9.4Z" transform="translate(848.955 441.716)"/><path class="a" d="M48.321,22.012a.564.564,0,0,0,.579.463h.116a.55.55,0,0,0,.406-.7c-.116-.406-.232-.753-.348-1.159a.587.587,0,1,0-1.1.406A2.852,2.852,0,0,1,48.321,22.012Z" transform="translate(844.79 436.696)"/><path class="a" d="M43.827,42.868a5,5,0,0,1-.753.811.56.56,0,0,0,0,.811.56.56,0,0,0,.811,0c.29-.29.521-.579.811-.869a.575.575,0,0,0-.869-.753Z" transform="translate(846.909 427.253)"/><path class="a" d="M45.957,14.436c-.232-.348-.463-.637-.7-.985a.575.575,0,0,0-.869.753,8.289,8.289,0,0,1,.637.869.527.527,0,0,0,.463.232.823.823,0,0,0,.348-.116A.54.54,0,0,0,45.957,14.436Z" transform="translate(846.343 439.638)"/><path class="a" d="M37.806,47.756c-.348.174-.637.29-.985.463a.6.6,0,0,0-.348.753A.557.557,0,0,0,37,49.32a.438.438,0,0,0,.232-.058,8.914,8.914,0,0,0,1.1-.463.534.534,0,0,0,.232-.753C38.385,47.814,38.038,47.582,37.806,47.756Z" transform="translate(849.628 425.146)"/><path class="a" d="M30.232,49.451a7.387,7.387,0,0,1-1.1-.058.547.547,0,0,0-.637.521.575.575,0,0,0,.521.637,8.556,8.556,0,0,0,1.217.058h.058a.547.547,0,0,0,.579-.579A.6.6,0,0,0,30.232,49.451Z" transform="translate(852.973 424.435)"/><path class="a" d="M48.526,35.774a.6.6,0,0,0-.753.348,7.736,7.736,0,0,1-.406,1.043.575.575,0,0,0,.29.753.348.348,0,0,0,.232.058.507.507,0,0,0,.521-.348,8.447,8.447,0,0,0,.406-1.1A.517.517,0,0,0,48.526,35.774Z" transform="translate(845.049 430.176)"/><path class="a" d="M49.837,28a.581.581,0,0,0-.579.579,6.3,6.3,0,0,1-.058,1.043.63.63,0,0,0,.521.637h.058a.572.572,0,0,0,.579-.521,7.764,7.764,0,0,0,.058-1.159v-.058A.535.535,0,0,0,49.837,28Z" transform="translate(844.259 433.431)"/><path class="a" d="M12.859,27.738a7.011,7.011,0,0,1,.058-1.1A.63.63,0,0,0,12.4,26a.679.679,0,0,0-.637.521A8.159,8.159,0,0,0,11.7,27.68h0a.547.547,0,0,0,.579.579C12.627,28.259,12.859,28.086,12.859,27.738Z" transform="translate(860.034 434.272)"/><path class="a" d="M13.579,34.383a.569.569,0,1,0-1.1.29c.116.406.232.753.348,1.159a.556.556,0,0,0,.521.406.213.213,0,0,0,.174-.058.58.58,0,0,0,.348-.753A7,7,0,0,1,13.579,34.383Z" transform="translate(859.72 430.929)"/><path class="a" d="M23.4,9.1a.522.522,0,0,0,.29-.058c.348-.174.637-.29.985-.463a.587.587,0,0,0-.406-1.1,8.913,8.913,0,0,0-1.1.463.523.523,0,0,0-.232.753A.479.479,0,0,0,23.4,9.1Z" transform="translate(855.34 442.081)"/><path class="a" d="M14.232,18.468a.575.575,0,0,0-.753.29,8.447,8.447,0,0,0-.406,1.1.6.6,0,0,0,.348.753c.058,0,.116.058.174.058a.556.556,0,0,0,.521-.406,7.737,7.737,0,0,1,.406-1.043A.575.575,0,0,0,14.232,18.468Z" transform="translate(859.472 437.459)"/><path class="a" d="M22.967,47.35c-.348-.174-.637-.348-.927-.521a.587.587,0,1,0-.637.985,9.371,9.371,0,0,0,1.043.579.434.434,0,0,0,.29.058.608.608,0,0,0,.521-.29A.622.622,0,0,0,22.967,47.35Z" transform="translate(856.067 425.551)"/><path class="a" d="M16.614,41.4a.587.587,0,1,0-.985.637c.232.348.463.637.7.985a.715.715,0,0,0,.463.232.823.823,0,0,0,.348-.116.563.563,0,0,0,.058-.811A5,5,0,0,0,16.614,41.4Z" transform="translate(858.422 427.907)"/><path class="a" d="M17.6,11.968a11.122,11.122,0,0,0-.811.869.56.56,0,0,0,.058.811.426.426,0,0,0,.348.116.527.527,0,0,0,.463-.232,5,5,0,0,1,.753-.811.56.56,0,0,0,0-.811A.623.623,0,0,0,17.6,11.968Z" transform="translate(857.954 440.251)"/><path class="a" d="M31.711,22.431A3.163,3.163,0,0,0,33.1,19.65a3.537,3.537,0,0,0-1.043-2.607A3.713,3.713,0,0,0,29.336,16H23.485a.579.579,0,0,0,0,1.159h1.332v8.4H23.079a.579.579,0,1,0,0,1.159h1.738v2.144H23.485a.579.579,0,1,0,0,1.159h6.6a3.945,3.945,0,0,0,2.9-1.043,3.713,3.713,0,0,0,1.043-2.723C34.029,24.227,33.276,22.952,31.711,22.431Zm-5.735-5.272h3.36a2.583,2.583,0,0,1,1.912.7,2.358,2.358,0,0,1,.7,1.738,2.492,2.492,0,0,1-.7,1.8,2.442,2.442,0,0,1-1.8.753H25.976V17.159Zm6.2,10.949a2.8,2.8,0,0,1-2.028.753H26.034V26.718h2.317a.579.579,0,1,0,0-1.159H26.034V23.3h4.113a2.583,2.583,0,0,1,2.028.753,2.9,2.9,0,0,1,.753,2.028A3.194,3.194,0,0,1,32.175,28.108Z" transform="translate(855.491 438.479)"/></g></svg>