<svg xmlns="http://www.w3.org/2000/svg" viewBox="0 0 28.844 37.762">
    <defs>
        <style>
            .cls-1{fill:#52cbb4}.cls-2{fill:#4cbea8}.cls-3{fill:#46b19c}.cls-4{fill:#3e9a88}.cls-5{fill:#efc319}.cls-6{fill:#dcad19}.cls-7{fill:#54d5e2}.cls-8{fill:#4ec5d8}.cls-9{fill:#49b4cd}.cls-10{fill:#34a3b6}.cls-11{fill:#fff}
        </style>
    </defs>
    <g id="blockchain-icon" transform="translate(-1092.555 -447.331)">
        <path id="Path_2307" d="M10.872 75h2.8a1.337 1.337 0 0 1 1.342 1.342v2.476H9.5v-2.476A1.382 1.382 0 0 1 10.872 75z" class="cls-1" data-name="Path 2307" transform="translate(1085.888 394.702)"/>
        <path id="Path_2308" d="M40.572 75.1h2.8a1.337 1.337 0 0 1 1.342 1.342v2.476l-5.518.03v-2.476a1.388 1.388 0 0 1 1.376-1.372z" class="cls-1" data-name="Path 2308" transform="translate(1065.047 394.632)"/>
        <path id="Path_2309" d="M70.342 75.3h2.8a1.337 1.337 0 0 1 1.342 1.342v2.476L69 79.088v-2.476a1.331 1.331 0 0 1 1.342-1.312z" class="cls-1" data-name="Path 2309" transform="translate(1044.136 394.491)"/>
        <path id="Path_2310" d="M12.2 76.442a1.337 1.337 0 0 1 1.337-1.342h-2.6A1.337 1.337 0 0 0 9.6 76.442v2.476h2.6z" class="cls-2" data-name="Path 2310" transform="translate(1085.818 394.632)"/>
        <path id="Path_2311" d="M41.9 76.472a1.337 1.337 0 0 1 1.342-1.342h.358c-.119 0 .089 0-2.953-.03a1.337 1.337 0 0 0-1.347 1.342v2.476h2.6z" class="cls-2" data-name="Path 2311" transform="translate(1064.977 394.632)"/>
        <path id="Path_2312" d="M71.6 76.742a1.337 1.337 0 0 1 1.337-1.342h-2.6A1.337 1.337 0 0 0 69 76.742v2.476h2.6z" class="cls-2" data-name="Path 2312" transform="translate(1044.136 394.421)"/>
        <path id="Path_2313" d="M1.283 87.8l26.338.119a1.228 1.228 0 0 1 1.223 1.223l-.03 9.008a1.235 1.235 0 0 1-1.253 1.223l-26.338-.119A1.235 1.235 0 0 1 0 98l.06-9.008A1.2 1.2 0 0 1 1.283 87.8z" class="cls-3" data-name="Path 2313" transform="translate(1092.555 385.72)"/>
        <path id="Path_2314" d="M2.655 98.18l.03-9.455A1.223 1.223 0 0 1 3.1 87.8H1.283A1.254 1.254 0 0 0 .03 89.023L0 98.031a1.254 1.254 0 0 0 1.223 1.253h2.058a1.3 1.3 0 0 1-.626-1.104z" class="cls-4" data-name="Path 2314" transform="translate(1092.555 385.72)"/>
        <path id="Path_2315" d="M10.872 38h2.8a1.337 1.337 0 0 1 1.342 1.342v2.476H9.5v-2.476A1.382 1.382 0 0 1 10.872 38z" class="cls-1" data-name="Path 2315" transform="translate(1085.888 420.665)"/>
        <path id="Path_2316" d="M40.572 38.1h2.8a1.337 1.337 0 0 1 1.342 1.342v2.476l-5.518.03v-2.476a1.388 1.388 0 0 1 1.376-1.372z" class="cls-1" data-name="Path 2316" transform="translate(1065.047 420.595)"/>
        <path id="Path_2317" d="M70.342 38.3h2.8a1.337 1.337 0 0 1 1.342 1.342v2.476L69 42.088v-2.476a1.331 1.331 0 0 1 1.342-1.312z" class="cls-1" data-name="Path 2317" transform="translate(1044.136 420.455)"/>
        <path id="Path_2318" d="M12.2 39.442a1.337 1.337 0 0 1 1.337-1.342h-2.6A1.337 1.337 0 0 0 9.6 39.442v2.476h2.6z" class="cls-2" data-name="Path 2318" transform="translate(1085.818 420.595)"/>
        <path id="Path_2319" d="M41.9 39.472a1.337 1.337 0 0 1 1.342-1.342h.358c-.119 0 .089 0-2.953-.03a1.337 1.337 0 0 0-1.347 1.342v2.476h2.6z" class="cls-2" data-name="Path 2319" transform="translate(1064.977 420.595)"/>
        <path id="Path_2320" d="M71.6 39.742a1.337 1.337 0 0 1 1.337-1.342h-2.6A1.337 1.337 0 0 0 69 39.742v2.476h2.6z" class="cls-2" data-name="Path 2320" transform="translate(1044.136 420.385)"/>
        <path id="Path_2321" d="M1.283 50.8l26.338.119a1.228 1.228 0 0 1 1.223 1.223l-.03 9.008a1.235 1.235 0 0 1-1.253 1.223l-26.338-.119A1.235 1.235 0 0 1 0 61l.06-9.008A1.2 1.2 0 0 1 1.283 50.8z" class="cls-5" data-name="Path 2321" transform="translate(1092.555 411.683)"/>
        <path id="Path_2322" d="M2.655 61.18l.03-9.455A1.223 1.223 0 0 1 3.1 50.8H1.283A1.254 1.254 0 0 0 .03 52.023L0 61.031a1.254 1.254 0 0 0 1.223 1.253h2.058a1.3 1.3 0 0 1-.626-1.104z" class="cls-6" data-name="Path 2322" transform="translate(1092.555 411.683)"/>
        <path id="Path_2323" d="M10.872 0h2.8a1.337 1.337 0 0 1 1.342 1.342v2.476H9.5V1.342A1.382 1.382 0 0 1 10.872 0z" class="cls-7" data-name="Path 2323" transform="translate(1085.888 447.331)"/>
        <path id="Path_2324" d="M40.572.1h2.8a1.337 1.337 0 0 1 1.342 1.342v2.476l-5.518.03V1.472A1.388 1.388 0 0 1 40.572.1z" class="cls-7" data-name="Path 2324" transform="translate(1065.047 447.261)"/>
        <path id="Path_2325" d="M70.342.3h2.8a1.337 1.337 0 0 1 1.342 1.342v2.476L69 4.088V1.612A1.331 1.331 0 0 1 70.342.3z" class="cls-7" data-name="Path 2325" transform="translate(1044.136 447.12)"/>
        <path id="Path_2326" d="M12.2 1.442A1.337 1.337 0 0 1 13.537.1h-2.6A1.337 1.337 0 0 0 9.6 1.442v2.476h2.6z" class="cls-8" data-name="Path 2326" transform="translate(1085.818 447.261)"/>
        <path id="Path_2327" d="M41.9 1.472A1.337 1.337 0 0 1 43.237.13h.363c-.119 0 .089 0-2.953-.03A1.337 1.337 0 0 0 39.3 1.442v2.476h2.6z" class="cls-8" data-name="Path 2327" transform="translate(1064.977 447.261)"/>
        <path id="Path_2328" d="M71.6 1.742A1.337 1.337 0 0 1 72.937.4h-2.6A1.337 1.337 0 0 0 69 1.742v2.476h2.6z" class="cls-8" data-name="Path 2328" transform="translate(1044.136 447.05)"/>
        <path id="Path_2329" d="M1.283 12.8l26.338.119a1.228 1.228 0 0 1 1.223 1.223l-.03 9.008a1.235 1.235 0 0 1-1.253 1.223l-26.338-.119A1.235 1.235 0 0 1 0 23l.06-9.008A1.2 1.2 0 0 1 1.283 12.8z" class="cls-9" data-name="Path 2329" transform="translate(1092.555 438.349)"/>
        <path id="Path_2330" d="M2.655 23.18l.03-9.455A1.223 1.223 0 0 1 3.1 12.8H1.283A1.254 1.254 0 0 0 .03 14.023L0 23.031a1.254 1.254 0 0 0 1.223 1.253h2.058a1.3 1.3 0 0 1-.626-1.104z" class="cls-10" data-name="Path 2330" transform="translate(1092.555 438.349)"/>
        <path id="Path_2331" d="M11.9 30.362V27.2H13a1.371 1.371 0 0 1 .865.209.81.81 0 0 1 .3.656.685.685 0 0 1-.119.418.729.729 0 0 1-.328.268.663.663 0 0 1 .388.239.733.733 0 0 1 .149.447.789.789 0 0 1-.3.686 1.388 1.388 0 0 1-.835.239zm.656-1.819h.477c.328 0 .507-.149.507-.388a.314.314 0 0 0-.119-.3.677.677 0 0 0-.388-.089h-.447v.776zm0 .447v.865h.567a.475.475 0 0 0 .358-.119.346.346 0 0 0 .119-.3.4.4 0 0 0-.447-.447z" class="cls-11" data-name="Path 2331" transform="translate(1084.204 428.244)"/>
        <path id="Path_2332" d="M22.026 30.011H21.4V26.7h.626z" class="cls-11" data-name="Path 2332" transform="translate(1077.538 428.595)"/>
        <path id="Path_2333" d="M24.9 30.993a1.387 1.387 0 0 1 .149-.626.88.88 0 0 1 .388-.418 1.261 1.261 0 0 1 .6-.149 1.012 1.012 0 0 1 .776.3 1.157 1.157 0 0 1 .328.776v.149a1.177 1.177 0 0 1-.3.865 1.152 1.152 0 0 1-1.611 0 1.035 1.035 0 0 1-.328-.895zm.626.06a.853.853 0 0 0 .119.507.447.447 0 0 0 .716 0 .943.943 0 0 0 .119-.567.853.853 0 0 0-.119-.507.447.447 0 0 0-.716 0 .943.943 0 0 0-.119.567z" class="cls-11" data-name="Path 2333" transform="translate(1075.082 426.42)"/>
        <path id="Path_2334" d="M34.374 31.739a.365.365 0 0 0 .268-.089.378.378 0 0 0 .119-.268h.6a1.25 1.25 0 0 1-.119.447.877.877 0 0 1-.358.3 1.251 1.251 0 0 1-.477.119 1.1 1.1 0 0 1-.805-.328 1.2 1.2 0 0 1-.3-.895v-.03a1.177 1.177 0 0 1 .3-.865 1.01 1.01 0 0 1 .798-.33 1.088 1.088 0 0 1 .716.239.877.877 0 0 1 .268.656h-.6a.383.383 0 0 0-.119-.3.346.346 0 0 0-.3-.119.385.385 0 0 0-.328.149 1.053 1.053 0 0 0-.119.507v.119a.9.9 0 0 0 .119.537.427.427 0 0 0 .337.151z" class="cls-11" data-name="Path 2334" transform="translate(1069.187 426.42)"/>
        <path id="Path_2335" d="M42.265 29.086l-.239.239v.716H41.4V26.7h.626v1.849l.119-.149.6-.716h.746l-.835.984.925 1.372h-.716z" class="cls-11" data-name="Path 2335" transform="translate(1063.503 428.595)"/>
        <path id="Path_2336" d="M49.974 31.739a.365.365 0 0 0 .268-.089.378.378 0 0 0 .119-.268h.6a1.25 1.25 0 0 1-.119.447.877.877 0 0 1-.358.3 1.251 1.251 0 0 1-.477.119 1.1 1.1 0 0 1-.805-.328 1.2 1.2 0 0 1-.3-.895v-.03a1.177 1.177 0 0 1 .3-.865A1.01 1.01 0 0 1 50 29.8a1.088 1.088 0 0 1 .716.239.877.877 0 0 1 .268.656h-.6a.383.383 0 0 0-.119-.3.346.346 0 0 0-.3-.119.385.385 0 0 0-.328.149 1.066 1.066 0 0 0-.119.567v.06a.9.9 0 0 0 .119.537.385.385 0 0 0 .337.15z" class="cls-11" data-name="Path 2336" transform="translate(1058.24 426.42)"/>
        <path id="Path_2337" d="M57.626 27.923a.788.788 0 0 1 .626-.3c.507 0 .776.3.776.895v1.491H58.4v-1.49a.328.328 0 0 0-.388-.388.378.378 0 0 0-.388.209v1.67H57V26.7h.626z" class="cls-11" data-name="Path 2337" transform="translate(1052.556 428.595)"/>
        <path id="Path_2338" d="M66.462 32.186a.431.431 0 0 1-.06-.209.751.751 0 0 1-.6.268.743.743 0 0 1-.567-.209.637.637 0 0 1-.235-.506.655.655 0 0 1 .268-.567 1.445 1.445 0 0 1 .805-.209h.3v-.149a.316.316 0 0 0-.358-.358.294.294 0 0 0-.239.089.271.271 0 0 0-.089.209h-.627a.6.6 0 0 1 .119-.388.814.814 0 0 1 .358-.268 1.393 1.393 0 0 1 .507-.089.994.994 0 0 1 .686.209.77.77 0 0 1 .268.626v1.014a1.189 1.189 0 0 0 .089.507v.03zm-.507-.418a.871.871 0 0 0 .268-.06.269.269 0 0 0 .179-.179v-.418h-.239c-.328 0-.477.119-.507.328v.03a.18.18 0 0 0 .089.179c.06.031.12.121.209.121z" class="cls-11" data-name="Path 2338" transform="translate(1046.943 426.42)"/>
        <path id="Path_2339" d="M73.3 27.128a.339.339 0 0 1 .089-.239.365.365 0 0 1 .268-.089.416.416 0 0 1 .268.089.363.363 0 0 1 0 .477.365.365 0 0 1-.268.089.416.416 0 0 1-.268-.089.247.247 0 0 1-.089-.238zm.686 2.953h-.626v-2.327h.626z" class="cls-11" data-name="Path 2339" transform="translate(1041.118 428.525)"/>
        <path id="Path_2340" d="M77.867 29.86l.03.268a.849.849 0 0 1 .686-.328.7.7 0 0 1 .567.209 1.014 1.014 0 0 1 .179.656v1.521H78.7v-1.491a.445.445 0 0 0-.089-.3.4.4 0 0 0-.3-.089.43.43 0 0 0-.388.239v1.67H77.3V29.86z" class="cls-11" data-name="Path 2340" transform="translate(1038.311 426.42)"/>
    </g>
</svg>
