<svg xmlns="http://www.w3.org/2000/svg" viewBox="0 0 129.605 90.69">
    <defs>
        <style>
            .cls-1{fill:#fda75f}.cls-2{fill:#eef0f1}.cls-3{opacity:.1}.cls-4{fill:#fbe096}.cls-5{fill:#e6646e}.cls-6{fill:#dc4655}.cls-7{fill:#fbc4ac}.cls-8{fill:#ff8087}.cls-9{fill:#5c5766}.cls-10{fill:#4f4a58}.cls-11{fill:#e3b098}.cls-12{fill:#1e557b}
        </style>
    </defs>
    <g id="boy-folder-icon" transform="translate(-574.788 -415.535)">
        <path id="Path_11902" d="M466.049 184.052a2.755 2.755 0 0 0-2.749-2.752h-55.248a2.755 2.755 0 0 0-2.752 2.752v28.29h60.766v-28.29z" class="cls-1" data-name="Path 11902" transform="translate(237.093 264.476)"/>
        <path id="Path_11903" d="M565.962 73.34H530.9V47.986a2.791 2.791 0 0 1 2.786-2.786h29.491a2.791 2.791 0 0 1 2.786 2.786V73.34z" class="cls-2" data-name="Path 11903" transform="translate(132.443 377.875)"/>
        <path id="Path_11904" d="M542.51 45.2h-8.924a2.791 2.791 0 0 0-2.786 2.786V73.34h20.283c-6.171-5.305-8.323-21.735-8.573-28.14z" class="cls-3" data-name="Path 11904" transform="translate(132.527 377.875)"/>
        <path id="Path_11905" d="M399.167 171.922l-2.235-4.721a3.5 3.5 0 0 0-3.153-2h-10.024a3.481 3.481 0 0 0-3.153 2l-1.635 3.453a13.049 13.049 0 0 0-1.268 5.6v38.286a2.755 2.755 0 0 0 2.752 2.752h59.882a2.755 2.755 0 0 0 2.752-2.752v-38.464a2.755 2.755 0 0 0-2.752-2.752h-38.947a2.427 2.427 0 0 1-2.219-1.402z" class="cls-4" data-name="Path 11905" transform="translate(260.089 277.891)"/>
        <path id="Path_11906" d="M391.578 165.3h-7.923a3.481 3.481 0 0 0-3.153 2l-1.635 3.453a13.048 13.048 0 0 0-1.268 5.6v38.264a2.755 2.755 0 0 0 2.752 2.752h33.779c-15.68-9.851-23.036-37.007-22.552-52.069z" class="cls-3" data-name="Path 11906" transform="translate(260.173 277.808)"/>
        <path id="Rectangle_2387" d="M0 0h65.387v2.502H0z" class="cls-3" data-name="Rectangle 2387" transform="translate(637.756 486.843)"/>
        <path id="Path_11907" d="M78.9 401.722a26.922 26.922 0 0 1 53.844 0z" class="cls-5" data-name="Path 11907" transform="translate(509.049 103.253)"/>
        <path id="Path_11908" d="M109.992 375.117a26.385 26.385 0 0 0-4.17-.317A26.93 26.93 0 0 0 78.9 401.722h8.34a26.933 26.933 0 0 1 22.752-26.605z" class="cls-6" data-name="Path 11908" transform="translate(509.049 103.253)"/>
        <path id="Path_11909" d="M223.606 454.209h-5.755a1.046 1.046 0 0 1-1.051-1.051v-8.807a1.046 1.046 0 0 1 1.051-1.051h5.755a1.046 1.046 0 0 1 1.051 1.051v8.807a1.068 1.068 0 0 1-1.051 1.051z" class="cls-6" data-name="Path 11909" transform="translate(394.151 46.179)"/>
        <path id="Path_11910" d="M192.058 334H182.4v8.59l9.658 9.658 9.658-9.658V334z" class="cls-7" data-name="Path 11910" transform="translate(422.813 137.247)"/>
        <path id="Path_11911" d="M243.469 391.395l-3.169-3.169 11.026-11.026 3.169 3.169a1.913 1.913 0 0 1 0 2.686l-8.34 8.34a1.883 1.883 0 0 1-2.686 0z" class="cls-8" data-name="Path 11911" transform="translate(374.571 101.253)"/>
        <path id="Path_11912" d="M274.492 381.037a2.086 2.086 0 0 0-.434-.667l-3.169-3.169-7.089 7.089a31.663 31.663 0 0 0 10.692-3.253z" class="cls-5" data-name="Path 11912" transform="translate(354.991 101.253)"/>
        <path id="Path_11913" d="M163.476 391.395l3.169-3.169L155.62 377.2l-3.169 3.169a1.913 1.913 0 0 0 0 2.686l8.34 8.34a1.883 1.883 0 0 0 2.685 0z" class="cls-8" data-name="Path 11913" transform="translate(448.225 101.253)"/>
        <path id="Path_11914" d="M163.392 384.389L156.3 377.3l-3.169 3.169a1.919 1.919 0 0 0-.434.667 32.673 32.673 0 0 0 10.695 3.253z" class="cls-5" data-name="Path 11914" transform="translate(447.559 101.17)"/>
        <path id="Path_11915" d="M92.175 17.158a3.423 3.423 0 0 0-3.4-2.8C80.232 14.439 74.744 7.5 56.88 7.5c-20 0-36.28 15.663-36.28 34.912l4.854 4.337 31.426 4.87 31.242-3.853 3.353-5.338a62.1 62.1 0 0 0 .7-25.27z" class="cls-9" data-name="Path 11915" transform="translate(557.624 409.286)"/>
        <path id="Path_11916" d="M27.422 45.6c0-19.633 15.2-35.846 34.628-37.881a63.355 63.355 0 0 0-5.27-.219c-20 0-36.28 15.663-36.28 34.912l4.854 4.337 4.02.617z" class="cls-10" data-name="Path 11916" transform="translate(557.708 409.286)"/>
        <path id="Path_11917" d="M106.136 158.978l-.3-.083s-9.825-2.486-9.825-13.895a95.867 95.867 0 0 1-21.568 2.335A95.867 95.867 0 0 1 52.876 145c0 11.409-9.825 13.895-9.825 13.895l-.3.117-1.051 3.436 2.369 3.436c3.97 12.443 16.063 21.484 30.358 21.484s26.388-9.041 30.358-21.484l3.215-2.736z" class="cls-7" data-name="Path 11917" transform="translate(540.044 294.721)"/>
        <g id="Group_2293" data-name="Group 2293" transform="translate(576.039 446.577)">
            <path id="Path_11918" d="M421.318 193.339a28.624 28.624 0 0 1-1.318 6.789 7.026 7.026 0 0 0 8.107-6.989 7.085 7.085 0 0 0-6.322-7.039c-.033 3.553-.45 7.122-.45 7.122z" class="cls-11" data-name="Path 11918" transform="translate(-351.194 -186.1)"/>
            <path id="Path_11919" d="M14.272 193.222s-.417-3.57-.45-7.122a7.076 7.076 0 0 0 .751 14.111 6.791 6.791 0 0 0 1.017-.083 31.45 31.45 0 0 0 27.489 21.351 43.724 43.724 0 0 1-23.436-26.138 43.587 43.587 0 0 1-1.1-4.17 13.226 13.226 0 0 1-3.97 1.952l-.3.117z" class="cls-11" data-name="Path 11919" transform="translate(-7.5 -186.1)"/>
        </g>
        <path id="Path_11920" d="M112.088 268h-4.937a1.251 1.251 0 1 0 0 2.5h4.937a1.251 1.251 0 0 0 0-2.5z" class="cls-8" data-name="Path 11920" transform="translate(486.552 192.238)"/>
        <path id="Path_11921" d="M331.688 268h-4.937a1.251 1.251 0 0 0 0 2.5h4.937a1.251 1.251 0 1 0 0-2.5z" class="cls-8" data-name="Path 11921" transform="translate(303.582 192.238)"/>
        <g id="Group_2294" data-name="Group 2294" transform="translate(574.788 415.535)">
            <path id="Path_11922" d="M589.5 97.2h-20.15a1.251 1.251 0 1 0 0 2.5h20.15a1.251 1.251 0 0 0 0-2.5z" class="cls-12" data-name="Path 11922" transform="translate(-473.34 -80.987)"/>
            <path id="Path_11923" d="M589.5 133.9h-20.15a1.251 1.251 0 1 0 0 2.5h20.15a1.251 1.251 0 0 0 0-2.5z" class="cls-12" data-name="Path 11923" transform="translate(-473.34 -111.565)"/>
            <path id="Path_11924" d="M589.5 170.7h-20.15a1.251 1.251 0 1 0 0 2.5h20.15a1.251 1.251 0 0 0 0-2.5z" class="cls-12" data-name="Path 11924" transform="translate(-473.34 -142.227)"/>
            <path id="Path_11925" d="M220.32 258.953a1.24 1.24 0 0 0-1.751.267 2.561 2.561 0 0 1-4.137 0 1.253 1.253 0 0 0-2.018 1.485 5.1 5.1 0 0 0 8.173 0 1.265 1.265 0 0 0-.267-1.752z" class="cls-12" data-name="Path 11925" transform="translate(-176.785 -215.552)"/>
            <path id="Path_11926" d="M122.051 215.6a1.26 1.26 0 0 0-1.251 1.251v3.67a1.251 1.251 0 0 0 2.5 0v-3.67a1.26 1.26 0 0 0-1.249-1.251z" class="cls-12" data-name="Path 11926" transform="translate(-100.65 -179.637)"/>
            <path id="Path_11927" d="M341.651 215.6a1.26 1.26 0 0 0-1.251 1.251v3.67a1.251 1.251 0 0 0 2.5 0v-3.67a1.26 1.26 0 0 0-1.249-1.251z" class="cls-12" data-name="Path 11927" transform="translate(-283.621 -179.637)"/>
            <path id="Path_11928" d="M125.6 28.99h-.734V10.325a4.04 4.04 0 0 0-4.037-4.037H91.341a4.051 4.051 0 0 0-4.041 4.037V28.99h-3.97a4.762 4.762 0 0 0-4.27-2.669h-1.981a63.375 63.375 0 0 0-.851-15.629 4.672 4.672 0 0 0-4.637-3.836c-3.269.033-6.072-1.051-9.625-2.4A55.348 55.348 0 0 0 39.716 0a38.009 38.009 0 0 0-22.252 7.072 1.257 1.257 0 1 0 1.451 2.052A35.48 35.48 0 0 1 39.716 2.5a53.429 53.429 0 0 1 21.367 4.27c3.636 1.4 6.789 2.619 10.542 2.569a2.139 2.139 0 0 1 2.152 1.785 61.8 61.8 0 0 1 .384 19.2c.033-.217-1.985-.517-2.185-.534a1.267 1.267 0 0 0-1.384 1.234c-.017.767-.033 1.535-.067 2.285-.067 1.2-.15 2.319-.217 3.153a12.754 12.754 0 0 1-2.385-1.318h-.017a11.374 11.374 0 0 1-1.318-1.051 13.25 13.25 0 0 1-4.053-9.908 1.3 1.3 0 0 0-1.718-1.168 90.653 90.653 0 0 1-21.1 2.252 94.477 94.477 0 0 1-21.251-2.3 1.264 1.264 0 0 0-1.566 1.217 15.054 15.054 0 0 1-.133 2.118 12.32 12.32 0 0 1-5.238 8.841 12.465 12.465 0 0 1-2.4 1.334 58.329 58.329 0 0 1-.217-3.186c-.033-.751-.067-1.5-.067-2.269a1.259 1.259 0 0 0-.751-1.134 3.1 3.1 0 0 0-1.935.15 6.852 6.852 0 0 0-.934.317 33.283 33.283 0 0 1 9.941-18.165 1.251 1.251 0 1 0-1.718-1.818A35.607 35.607 0 0 0 2.4 32.21 8.339 8.339 0 0 0 8.323 46.4h.15a31.454 31.454 0 0 0 8.457 12.66s1.034.934 1.9 1.618a33.679 33.679 0 0 0 6.789 4.12l.25.1a4.717 4.717 0 0 0-1.449 1.122 28.122 28.122 0 0 0-12.527 23.419 1.26 1.26 0 0 0 1.251 1.251h53.844a1.26 1.26 0 0 0 1.251-1.251 28.017 28.017 0 0 0-1.318-8.524h46.671a1.251 1.251 0 1 0 0-2.5H66.02a31.434 31.434 0 0 0-1.785-3.5V57.33a31.345 31.345 0 0 0 6.722-10.942h.15A8.331 8.331 0 0 0 76.5 31.709c.15-.984.284-1.952.384-2.9h2.185a2.268 2.268 0 0 1 2.031 1.282l2.252 4.721a3.708 3.708 0 0 0 3.336 2.1H125.6a1.5 1.5 0 0 1 1.5 1.5V76.9a1.5 1.5 0 0 1-1.5 1.5h-6.1a1.251 1.251 0 0 0 0 2.5h6.1a4.015 4.015 0 0 0 4-4V33a3.994 3.994 0 0 0-4-4.01zM2.5 38.081a5.919 5.919 0 0 1 3.555-5.371c.017-.017.3-.1.3-.117a65.532 65.532 0 0 0 .751 8.474v.033c.15.934.35 1.852.584 2.769a5.847 5.847 0 0 1-5.19-5.788zm63.22 50.107H14.445A25.638 25.638 0 0 1 24.52 69.023a3.658 3.658 0 0 0 .484.651l8.34 8.34a3.153 3.153 0 0 0 1.568.851v4.954a2.306 2.306 0 0 0 2.3 2.3h5.755a2.306 2.306 0 0 0 2.3-2.3v-4.955a3.225 3.225 0 0 0 1.568-.851l8.34-8.34a3 3 0 0 0 .484-.651A25.592 25.592 0 0 1 65.72 88.188zM41.851 73.944l7.173-7.173a31.079 31.079 0 0 0 3.019-1.118l1.334 1.334a.654.654 0 0 1 0 .917l-8.34 8.34a.654.654 0 0 1-.917 0zm.9 4.387V83.6h-5.337v-5.27A2.392 2.392 0 0 0 37.8 78l2.285-2.285L42.368 78a3.668 3.668 0 0 0 .383.33zm-2.669-6.155l-4.37-4.37a30.291 30.291 0 0 0 8.74 0zm-1.768 1.768l-2.285 2.285a.654.654 0 0 1-.917 0l-8.34-8.34a.654.654 0 0 1 0-.917l1.251-1.251.9.35c.183.05.35.117.534.167.284.083.584.183.884.267.267.083.517.183.784.25zm16.113-9.458c.017-.017.033-.017.05-.033a32.837 32.837 0 0 0 6.088-3.786c.3-.25.751-.634 1.151-.967v11.691A28.012 28.012 0 0 0 55.729 66a3.273 3.273 0 0 0-.584-.8zm15.6-25.2a27.117 27.117 0 0 1-1.151 5.4c0 .017 0 .017-.017.033A28.742 28.742 0 0 1 60.566 57.4 31.169 31.169 0 0 1 43.9 65.02a31.3 31.3 0 0 1-8.407 0 31.5 31.5 0 0 1-4.454-.917c-.2-.067-.417-.15-.617-.217-.017 0-.05.017-.067.017a30.821 30.821 0 0 1-11.576-6.539 28.915 28.915 0 0 1-8.24-12.644c0-.017 0-.033-.017-.033a28.009 28.009 0 0 1-1.184-5.638 15.6 15.6 0 0 0 3.57-1.852.016.016 0 0 0 .017-.017A15.183 15.183 0 0 0 19.3 25.738a100.321 100.321 0 0 0 20.367 2.035 100.321 100.321 0 0 0 20.367-2.035A14.821 14.821 0 0 0 64.686 35.8a15.467 15.467 0 0 0 5.321 3.253.383.383 0 0 1 .017.229zm6.889-1.2a5.835 5.835 0 0 1-5.2 5.788 27.09 27.09 0 0 0 .45-2.035.061.061 0 0 1 .017-.05 63 63 0 0 0 .867-9.191 5.2 5.2 0 0 1 1.351.7c.017 0 .017.017.033.017a5.78 5.78 0 0 1 2.479 4.766zM87.3 34.428h-.617a1.218 1.218 0 0 1-1.084-.684l-1.068-2.269h2.786v2.952zm35.062 0H89.806v-24.1a1.531 1.531 0 0 1 1.535-1.538h29.491a1.531 1.531 0 0 1 1.535 1.535zm4.737.3a4.083 4.083 0 0 0-1.5-.3h-.734v-2.936h.734a1.5 1.5 0 0 1 1.5 1.5z" class="cls-12" data-name="Path 11928"/>
        </g>
    </g>
</svg>
