<svg xmlns="http://www.w3.org/2000/svg" viewBox="0 0 15.399 15.477">
    <defs>
        <style>
            .cls-1{fill:#fff;opacity:.5}
        </style>
    </defs>
    <g id="seal-icon" transform="translate(-877 -258.523)">
        <path id="Path_12159" d="M15.074 6.571l-.29-.29a.647.647 0 0 1-.29-.773A1.961 1.961 0 0 0 13.431 3c-.1 0-.29-.1-.386-.1a.456.456 0 0 1-.483-.483A2.028 2.028 0 0 0 10.34.774c-.193 0-.29.1-.386.1a.729.729 0 0 1-.773-.1 1.876 1.876 0 0 0-2.706-.29q-.145 0-.29.29c-.1.193-.386.193-.676.1A1.929 1.929 0 0 0 3 2.03c0 .1-.1.29-.1.386a.456.456 0 0 1-.483.483 2 2 0 0 0-1.353.966 1.989 1.989 0 0 0-.193 1.644c.1.29.1.58-.1.676A1.876 1.876 0 0 0 .484 8.89l.29.29a.6.6 0 0 1 .1.676 1.961 1.961 0 0 0 1.063 2.512.581.581 0 0 0 .386.1q.58.145.58.58a2.028 2.028 0 0 0 2.222 1.643c.193 0 .29-.1.386-.1a.64.64 0 0 1 .676.193 1.876 1.876 0 0 0 2.705.29l.29-.29a.565.565 0 0 1 .676-.29 1.961 1.961 0 0 0 2.512-1.063.581.581 0 0 0 .1-.386.456.456 0 0 1 .483-.483 2.028 2.028 0 0 0 1.643-2.222c0-.193-.1-.29-.1-.386a.64.64 0 0 1 .193-.676 1.989 1.989 0 0 0 .385-2.707zm-3.188-.483l-4.348 4.348-.87.87a.721.721 0 0 1-.87 0L3.576 9.277l-.193-.29a.721.721 0 0 1 0-.87l.87-.87a.721.721 0 0 1 .87 0l.1.1.966.966 3.961-3.961a.721.721 0 0 1 .87 0l.87.87a.542.542 0 0 1-.005.866z" class="cls-1" data-name="Path 12159" transform="translate(876.959 258.482)"/>
    </g>
</svg>
