<svg xmlns="http://www.w3.org/2000/svg" viewBox="0 0 47.385 47.42">
    <defs>
        <style>
            .cls-1{fill:#fff}
        </style>
    </defs>
    <g id="close-icon" transform="translate(-763.471 -336.361)">
        <path id="Path_2182" d="M40.5 6.935a23.735 23.735 0 1 0 0 33.567 23.839 23.839 0 0 0 0-33.567zm-7.48 26.087a1.763 1.763 0 0 1-2.554 0l-6.75-6.75-7.116 7.115a1.806 1.806 0 0 1-2.554-2.554l7.115-7.115-6.75-6.75a1.806 1.806 0 1 1 2.554-2.554l6.75 6.75 6.476-6.476a1.806 1.806 0 0 1 2.554 2.554l-6.476 6.476 6.75 6.75a1.763 1.763 0 0 1 .003 2.554z" class="cls-1" data-name="Path 2182" transform="translate(763.445 336.336)"/>
    </g>
</svg>
