<svg xmlns="http://www.w3.org/2000/svg" viewBox="0 0 50.123 46.781">
    <defs>
        <style>
            .cls-1{fill:#fff}
        </style>
    </defs>
    <g id="comment-icon" transform="translate(-693.633 -252)">
        <path id="Path_2180" d="M5.012 0h40.1a5.027 5.027 0 0 1 5.012 5.012v27.567a5.027 5.027 0 0 1-5.012 5.012H21.218l-8.1 8.938a.758.758 0 0 1-.585.251.631.631 0 0 1-.333-.08.846.846 0 0 1-.5-.752v-8.356H5.012A5.027 5.027 0 0 1 0 32.579V5.012A5.027 5.027 0 0 1 5.012 0z" class="cls-1" data-name="Path 2180" transform="translate(693.633 252)"/>
    </g>
</svg>
