<svg xmlns="http://www.w3.org/2000/svg" viewBox="0 0 29.534 36.918"><defs><style>.a{fill:#1e557b;}</style></defs><g transform="translate(-265.051 -497.88)"><path class="a" d="M29,25H13.615a.615.615,0,0,0,0,1.231H29A.615.615,0,0,0,29,25Z" transform="translate(260.05 488.262)"/><path class="a" d="M13.615,18.231h6.153a.615.615,0,1,0,0-1.231H13.615a.615.615,0,0,0,0,1.231Z" transform="translate(260.05 491.34)"/><path class="a" d="M29,33H13.615a.615.615,0,1,0,0,1.231H29A.615.615,0,1,0,29,33Z" transform="translate(260.05 485.185)"/><path class="a" d="M29,41H13.615a.615.615,0,1,0,0,1.231H29A.615.615,0,1,0,29,41Z" transform="translate(260.05 482.107)"/><path class="a" d="M29,49H13.615a.615.615,0,0,0,0,1.231H29A.615.615,0,0,0,29,49Z" transform="translate(260.05 479.029)"/><path class="a" d="M26.458,8.983V0H0V33.841H3.076v3.076H29.534V12.06ZM20.92,5.168l5.538,5.538.984.984H20.92ZM1.231,32.611V1.231h24V7.753L20.551,3.076H3.076V32.611Zm3.076,3.076V4.307H19.69v8.614H28.3V35.687Z" transform="translate(265.051 497.88)"/></g></svg>