<svg xmlns="http://www.w3.org/2000/svg" viewBox="0 0 32.797 27.75">
    <defs>
        <style>
            .cls-1{fill:#fff}
        </style>
    </defs>
    <g id="download-archive-icon" transform="translate(-977.975 -207.736)">
        <path id="Path_12263" d="M31.491 6.344a4.239 4.239 0 0 0-3.113-1.3h-13.24v-.626A4.266 4.266 0 0 0 13.84 1.3 4.261 4.261 0 0 0 10.72 0h-6.3A4.27 4.27 0 0 0 1.3 1.3 4.27 4.27 0 0 0 0 4.418v18.914a4.266 4.266 0 0 0 1.3 3.113 4.25 4.25 0 0 0 3.12 1.3h23.965a4.431 4.431 0 0 0 4.415-4.406V9.457a4.246 4.246 0 0 0-1.309-3.113zm-7.51 10.644l-6.82 6.82a.818.818 0 0 1-.6.249.394.394 0 0 1-.09-.007l-.007.007-.007-.007a.818.818 0 0 1-.5-.249l-6.82-6.82a.818.818 0 0 1-.249-.6.857.857 0 0 1 .849-.849h3.155V8.6h7.138v6.944h3.35a.814.814 0 0 1 .587.249.83.83 0 0 1 .014 1.195z" class="cls-1" data-name="Path 12263" transform="translate(977.975 207.736)"/>
    </g>
</svg>
