<svg xmlns="http://www.w3.org/2000/svg" viewBox="0 0 19.301 14.688">
    <defs>
        <style>
            .cls-1{opacity:.5}.cls-2{fill:#fff}
        </style>
    </defs>
    <g id="email-icon" class="cls-1" transform="translate(-1109.702 -210.261)">
        <path id="Path_488" d="M16.944 0H2.36A2.362 2.362 0 0 0 0 2.36v9.968a2.362 2.362 0 0 0 2.36 2.36h14.58a2.362 2.362 0 0 0 2.36-2.36V2.364A2.36 2.36 0 0 0 16.944 0zm1.282 12.328a1.283 1.283 0 0 1-1.282 1.282H2.36a1.283 1.283 0 0 1-1.282-1.282V2.364A1.283 1.283 0 0 1 2.36 1.082h14.58a1.283 1.283 0 0 1 1.282 1.282v9.964z" class="cls-2" data-name="Path 488" transform="translate(1109.702 210.261)"/>
        <path id="Path_489" d="M65.7 56.33l4.72-4.233a.54.54 0 0 0-.723-.8l-6.509 5.843L61.916 56s-.008-.008-.008-.012a.8.8 0 0 0-.088-.076l-5.167-4.622a.54.54 0 1 0-.719.807l4.776 4.269-4.756 4.453a.541.541 0 0 0-.024.763.552.552 0 0 0 .4.172.54.54 0 0 0 .367-.144l4.828-4.517 1.31 1.17a.538.538 0 0 0 .719 0l1.346-1.21 4.8 4.561a.541.541 0 0 0 .763-.02.541.541 0 0 0-.02-.763z" class="cls-2" data-name="Path 489" transform="translate(1056.176 161.151)"/>
    </g>
</svg>
