<svg xmlns="http://www.w3.org/2000/svg" viewBox="0 0 30.244 23.76">
    <defs>
        <style>
            .cls-1{fill:#fff}
        </style>
    </defs>
    <g id="email-proof-icon" transform="translate(-865.559 -235.734)">
        <g id="Group_3031" data-name="Group 3031" transform="translate(865.559 235.734)">
            <path id="Path_12261" d="M2.9 7.323c.384.272 1.537 1.07 3.458 2.406s3.4 2.358 4.421 3.079c.112.077.349.248.715.514s.668.479.91.644.532.349.875.55a5.207 5.207 0 0 0 .969.455 2.7 2.7 0 0 0 .845.154h.035a2.73 2.73 0 0 0 .845-.154 5.207 5.207 0 0 0 .969-.455c.343-.2.638-.384.875-.55s.544-.378.91-.644.6-.437.715-.514q1.552-1.082 7.9-5.485A7.98 7.98 0 0 0 29.4 5.249a4.475 4.475 0 0 0 .826-2.549 2.582 2.582 0 0 0-.8-1.909A2.563 2.563 0 0 0 27.537 0H2.7a2.412 2.412 0 0 0-2 .875 3.412 3.412 0 0 0-.7 2.2 3.933 3.933 0 0 0 .928 2.304A8.5 8.5 0 0 0 2.9 7.323z" class="cls-1" data-name="Path 12261"/>
            <path id="Path_12262" d="M28.554 131.072q-5.532 3.75-8.4 5.822c-.638.473-1.158.839-1.56 1.105a9.642 9.642 0 0 1-1.6.81 4.817 4.817 0 0 1-1.856.414H15.1a4.817 4.817 0 0 1-1.856-.414 9.886 9.886 0 0 1-1.6-.81c-.4-.266-.922-.632-1.56-1.105q-2.279-1.667-8.387-5.822A9.3 9.3 0 0 1 0 129.6V143a2.616 2.616 0 0 0 .792 1.909 2.606 2.606 0 0 0 1.908.791h24.843a2.7 2.7 0 0 0 2.7-2.7v-13.4a9.976 9.976 0 0 1-1.689 1.472z" class="cls-1" data-name="Path 12262" transform="translate(0 -121.94)"/>
        </g>
    </g>
</svg>
