<svg xmlns="http://www.w3.org/2000/svg" viewBox="0 0 35.121 32.927">
    <defs>
        <style>
            .cls-1{fill:#eceff1}.cls-2{fill:#14a085}.cls-3{fill:#fafafa}
        </style>
    </defs>
    <g id="excel-thumbnail-icon" transform="translate(-9995.93 -659.78)">
        <g id="Group_2079" data-name="Group 2079" transform="translate(9995.931 659.78)">
            <path id="Path_6103" d="M272.463 88.145H257.1a1.1 1.1 0 0 1-1.1-1.1V65.1a1.1 1.1 0 0 1 1.1-1.1h15.365a1.1 1.1 0 0 1 1.1 1.1v21.95a1.1 1.1 0 0 1-1.102 1.095z" class="cls-1" data-name="Path 6103" transform="translate(-238.44 -59.609)"/>
            <g id="Group_2078" data-name="Group 2078" transform="translate(17.56 8.781)">
                <path id="Path_6104" d="M261.488 130.2H257.1a1.1 1.1 0 0 1 0-2.2h4.39a1.1 1.1 0 0 1 0 2.2z" class="cls-2" data-name="Path 6104" transform="translate(-256 -128)"/>
                <path id="Path_6105" d="M261.488 194.2H257.1a1.1 1.1 0 0 1 0-2.2h4.39a1.1 1.1 0 0 1 0 2.2z" class="cls-2" data-name="Path 6105" transform="translate(-256 -187.61)"/>
                <path id="Path_6106" d="M261.488 258.2H257.1a1.1 1.1 0 1 1 0-2.2h4.39a1.1 1.1 0 0 1 0 2.2z" class="cls-2" data-name="Path 6106" transform="translate(-256 -247.22)"/>
                <path id="Path_6107" d="M261.488 322.2H257.1a1.1 1.1 0 0 1 0-2.2h4.39a1.1 1.1 0 0 1 0 2.2z" class="cls-2" data-name="Path 6107" transform="translate(-256 -306.83)"/>
                <path id="Path_6108" d="M387.293 130.2h-2.2a1.1 1.1 0 0 1 0-2.2h2.2a1.1 1.1 0 0 1 0 2.2z" class="cls-2" data-name="Path 6108" transform="translate(-375.22 -128)"/>
                <path id="Path_6109" d="M387.293 194.2h-2.2a1.1 1.1 0 0 1 0-2.2h2.2a1.1 1.1 0 0 1 0 2.2z" class="cls-2" data-name="Path 6109" transform="translate(-375.22 -187.61)"/>
                <path id="Path_6110" d="M387.293 258.2h-2.2a1.1 1.1 0 1 1 0-2.2h2.2a1.1 1.1 0 1 1 0 2.2z" class="cls-2" data-name="Path 6110" transform="translate(-375.22 -247.22)"/>
                <path id="Path_6111" d="M387.293 322.2h-2.2a1.1 1.1 0 0 1 0-2.2h2.2a1.1 1.1 0 0 1 0 2.2z" class="cls-2" data-name="Path 6111" transform="translate(-375.22 -306.83)"/>
            </g>
            <path id="Path_6112" d="M19.357.235A1.078 1.078 0 0 0 18.452 0L.892 3.294A1.1 1.1 0 0 0 0 4.371v24.146a1.1 1.1 0 0 0 .9 1.077l17.56 3.293a1.031 1.031 0 0 0 .2.021 1.1 1.1 0 0 0 1.1-1.1V1.079a1.091 1.091 0 0 0-.403-.844z" class="cls-2" data-name="Path 6112" transform="translate(0 .02)"/>
            <path id="Path_6113" d="M89.538 154.243l-3.471-3.965 3.512-4.514a1.1 1.1 0 0 0-1.735-1.351l-3.244 4.178-2.744-3.128a1.1 1.1 0 0 0-1.656 1.447l3.018 3.45-3.059 3.93a1.1 1.1 0 0 0 .192 1.543 1.087 1.087 0 0 0 .679.233 1.075 1.075 0 0 0 .864-.425l2.8-3.6 3.19 3.649a1.1 1.1 0 0 0 .823.377 1.1 1.1 0 0 0 .83-1.825z" class="cls-3" data-name="Path 6113" transform="translate(-74.447 -134.109)"/>
        </g>
    </g>
</svg>
