<svg xmlns="http://www.w3.org/2000/svg" viewBox="0 0 99.727 76.912">
    <defs>
        <style>
            .cls-1{fill:#fda75f}.cls-2{fill:#fff}.cls-3{opacity:.1}.cls-4{fill:#fbe096}.cls-5{fill:#1e557b}
        </style>
    </defs>
    <g id="folder-icon" transform="translate(-295.027 -378.688)">
        <path id="Path_11893" d="M111.885 17.686H70.166a3.447 3.447 0 0 1-3.428-2.98l-.506-3.467A4.384 4.384 0 0 0 61.889 7.5H44.107a4.384 4.384 0 0 0-4.343 3.759l-.506 3.467a3.476 3.476 0 0 1-3.428 2.98h-2.9A4.921 4.921 0 0 0 28 22.633V76.6a4.921 4.921 0 0 0 4.928 4.928h78.938a4.921 4.921 0 0 0 4.928-4.928V22.614a4.9 4.9 0 0 0-4.909-4.928z" class="cls-1" data-name="Path 11893" transform="translate(272.485 372.648)"/>
        <path id="Path_11894" d="M142.338 131.273H78.65a3.35 3.35 0 0 1-3.35-3.35V103.85a3.35 3.35 0 0 1 3.35-3.35h63.707a3.35 3.35 0 0 1 3.35 3.35v24.092a3.375 3.375 0 0 1-3.369 3.331z" class="cls-2" data-name="Path 11894" transform="translate(234.397 297.762)"/>
        <path id="Rectangle_2386" d="M0 0h88.793v16.672H0z" class="cls-3" data-name="Rectangle 2386" transform="translate(300.485 405.565)"/>
        <path id="Path_11895" d="M96.082 204.792h-80.36a4.651 4.651 0 0 1-4.635-4.187l-3.564-36.07a3.577 3.577 0 0 1 3.564-3.934h89.65a3.588 3.588 0 0 1 3.564 3.934l-3.564 36.051a4.686 4.686 0 0 1-4.655 4.206z" class="cls-4" data-name="Path 11895" transform="translate(288.989 249.367)"/>
        <path id="Path_11896" d="M23.6 342.3l.448 4.6a4.651 4.651 0 0 0 4.635 4.187h80.36a4.651 4.651 0 0 0 4.635-4.187l.448-4.6z" class="cls-3" data-name="Path 11896" transform="translate(276.028 103.056)"/>
        <path id="Path_11897" d="M98.4 31.474a5.024 5.024 0 0 0-2.688-1.539V16.574a6.392 6.392 0 0 0-6.388-6.388H65.328a1.461 1.461 0 1 0 0 2.921H89.3a3.474 3.474 0 0 1 3.467 3.467v13.244H86.5v-6.894a4.821 4.821 0 0 0-4.811-4.811H18a4.821 4.821 0 0 0-4.811 4.811v6.895H6.9V16.574a3.474 3.474 0 0 1 3.467-3.467h2.883a4.962 4.962 0 0 0 4.889-4.226l.506-3.467a2.967 2.967 0 0 1 2.9-2.512h17.782a2.95 2.95 0 0 1 2.9 2.512l.506 3.467a4.962 4.962 0 0 0 4.889 4.226h7.948a1.461 1.461 0 1 0 0-2.921h-7.946a2.012 2.012 0 0 1-1.987-1.714l-.506-3.467A5.917 5.917 0 0 0 39.327 0H21.545a5.882 5.882 0 0 0-5.785 5.005l-.506 3.467a2.012 2.012 0 0 1-1.987 1.714h-2.9a6.392 6.392 0 0 0-6.388 6.388v13.361a5.006 5.006 0 0 0-2.688 1.539A5.067 5.067 0 0 0 0 35.35L3.568 71.4a6.094 6.094 0 0 0 6.077 5.512H90a6.094 6.094 0 0 0 6.081-5.512l2.142-21.56a1.458 1.458 0 1 0-2.9-.292l-1.539 15.64H25.771a1.461 1.461 0 0 0 0 2.921H93.51l-.292 3a3.178 3.178 0 0 1-3.175 2.883H9.664a3.178 3.178 0 0 1-3.175-2.883l-.292-3h10.225a1.461 1.461 0 1 0 0-2.921H5.905l-2.98-30.111a2.138 2.138 0 0 1 2.1-2.337h89.65a2.053 2.053 0 0 1 1.558.7 2.1 2.1 0 0 1 .545 1.636l-.565 5.784a1.458 1.458 0 0 0 2.9.292l.565-5.784a5.086 5.086 0 0 0-1.278-3.894zm-14.823-1.656H16.111v-6.894A1.891 1.891 0 0 1 18 21.035h63.707a1.891 1.891 0 0 1 1.893 1.889l-.019 6.895z" class="cls-5" data-name="Path 11897" transform="translate(295.047 378.688)"/>
    </g>
</svg>
