<svg xmlns="http://www.w3.org/2000/svg" viewBox="0 0 34.67 34.724"><defs><style>.a{fill:#1e557b;}</style></defs><g transform="translate(-264.021 -444.897)"><path class="a" d="M33.277,15.626H31.252V11.98a1.556,1.556,0,0,0-1.563-1.563h-.752V0H5.787V1.157H4.051V2.315H2.315V6.366H1.563A1.556,1.556,0,0,0,0,7.929V33.219H0a1.749,1.749,0,0,0,.289.926,1.511,1.511,0,0,0,1.157.579H27.374a1.39,1.39,0,0,0,1.389-1.042l5.9-16.2v-.116A1.483,1.483,0,0,0,33.277,15.626Zm-3.588-4.051a.4.4,0,0,1,.405.405v3.646H28.937V11.575ZM27.779,1.157V15.626H7.35a.985.985,0,0,0-.405.058H6.887V1.157ZM5.787,2.315V17.13l-.058.116-.521,1.447V2.315ZM3.472,3.472h.579v18.4l-.579,1.563V3.472ZM1.157,7.929a.4.4,0,0,1,.405-.405h.752v19.04L1.157,29.747ZM27.721,33.335a.385.385,0,0,1-.289.231H1.5c-.116,0-.231-.058-.231-.116a.439.439,0,0,1-.116-.231l1.157-3.183h0l1.736-4.746h0l1.736-4.746h0l1.1-3.067.058-.116h0l.116-.231v-.058a.385.385,0,0,1,.289-.231H33.277c.231,0,.289.289.289.463Z" transform="translate(264.021 444.897)"/><path class="a" d="M17.579,16.157h13.89a.579.579,0,0,0,0-1.157H17.579a.579.579,0,0,0,0,1.157Z" transform="translate(256.859 438.578)"/><path class="a" d="M17.579,9.157h5.787a.579.579,0,1,0,0-1.157H17.579a.579.579,0,0,0,0,1.157Z" transform="translate(256.859 441.527)"/><path class="a" d="M17.579,23.157h13.89a.579.579,0,1,0,0-1.157H17.579a.579.579,0,1,0,0,1.157Z" transform="translate(256.859 435.629)"/><path class="a" d="M23.02,41.023l.926-3.125H21.92c-.463,0-.694-.231-.694-.752,0-.405.347-.579,1.1-.579h1.968c.116-.579.347-1.389.579-2.373a.905.905,0,0,1,.868-.694.525.525,0,0,1,.405.174.657.657,0,0,1,.174.463,4.962,4.962,0,0,1-.174.984c-.231.81-.347,1.273-.405,1.447h3.646q.26-.868.694-2.431a.745.745,0,0,1,.752-.637c.405,0,.637.174.637.579a13.43,13.43,0,0,1-.637,2.489H32.28c.521,0,.752.174.752.579,0,.521-.289.81-.868.81H30.37l-.81,3.125h1.563a2.4,2.4,0,0,1,.752.058.629.629,0,0,1,.405.579c0,.463-.231.694-.637.694H29.212l-.694,2.431a.87.87,0,0,1-.868.752c-.405,0-.637-.174-.637-.579a4.242,4.242,0,0,1,.231-1.273c.231-.81.347-1.215.347-1.273H23.83c-.174.579-.405,1.447-.81,2.6a.8.8,0,0,1-.752.521c-.405,0-.579-.174-.579-.579a3.679,3.679,0,0,1,.174-.868c.174-.579.347-1.1.521-1.678H20.937c-.405,0-.637-.231-.637-.752a.526.526,0,0,1,.231-.463.933.933,0,0,1,.521-.174H23.02Zm1.389,0h3.762l.868-3.125h-3.7Z" transform="translate(255.469 430.784)"/></g></svg>