<svg xmlns="http://www.w3.org/2000/svg" viewBox="0 0 37.465 37.465">
    <defs>
        <style>
            .cls-1{fill:#35b1d2}.cls-2{fill:#fff}
        </style>
    </defs>
    <g id="hash-icon" transform="translate(-915.22 -447.728)">
        <path id="Path_1838" d="M159.376-129a10.941 10.941 0 0 0-4.209-2.417c0-.013 0-.027-.008-.04-7.305-2.581-19.78-1.93-24.508 1.948l-.059.046c-.177.148-.345.3-.5.457l-.007.006a.139.139 0 0 1-.017.019q-.222.23-.432.494c-.043.054-.084.114-.127.17-.1.139-.209.28-.309.432a3.323 3.323 0 0 0-.1.161c-.108.17-.215.346-.318.531l-.061.113c-.117.216-.232.44-.342.673l-.015.031a25.1 25.1 0 0 0-1.9 6.792l-.015.1q-.063.427-.118.86c-.028.222-.052.445-.078.67l-.026.248c-.768 7.391.387 15.825 3.859 18.655 5.624 4.68 23.55 4.68 29.291 0s5.155-24.687 0-29.952" class="cls-1" data-name="Path 1838" transform="translate(789.219 580.728)"/>
        <path id="Path_1839" d="M145.936-118.287l-.936 5.031h-4.335l.938-5.031zm7.382 0l.819-3.861h-3.749l1.055-5.5h-3.984l-.937 5.5h-4.335l.937-5.5h-3.984l-.937 5.5h-3.632l-.7 3.861h3.629l-.82 5.031h-3.28l-.82 3.861h3.281l-.821 5.148h3.984l.938-5.148h4.338l-.82 5.148h3.984l.938-5.148h3.866l.82-3.861H149.1l.821-5.031z" class="cls-2" data-name="Path 1839" transform="translate(790.592 581.844)"/>
    </g>
</svg>
