<svg xmlns="http://www.w3.org/2000/svg" viewBox="0 0 14.31 15.479">
    <defs>
        <style>
            .cls-1{fill:#fff;opacity:.5}
        </style>
    </defs>
    <g id="history-view-icon" transform="translate(-1065 -209.599)">
        <path id="Path_804" d="M14.31 7.885a3.144 3.144 0 0 0-2.336-2.92V2.336H6.133A3.144 3.144 0 0 0 3.213 0 3.241 3.241 0 0 0 0 3.213a3.241 3.241 0 0 0 3.213 3.212A3.422 3.422 0 0 0 6.425 3.8h4.381v1.165a2.927 2.927 0 0 0-2.92 2.92 3.422 3.422 0 0 0 2.628 3.215v.876H6.133A3.432 3.432 0 0 0 2.92 9.053 3.2 3.2 0 0 0 0 12.266a3.241 3.241 0 0 0 3.213 3.213 2.844 2.844 0 0 0 2.92-2.336h5.549v-2.337a3.106 3.106 0 0 0 2.628-2.921zM3.213 5.257a2 2 0 0 1-2.045-2.044 2 2 0 0 1 2.045-2.045 2 2 0 0 1 2.044 2.045 2 2 0 0 1-2.044 2.044zm0 9.053a2.044 2.044 0 1 1 0-4.089 2.044 2.044 0 1 1 0 4.089zM11.1 9.93a2 2 0 0 1-2.047-2.045 2.044 2.044 0 1 1 4.089 0A2 2 0 0 1 11.1 9.93z" class="cls-1" data-name="Path 804" transform="translate(1065 209.599)"/>
    </g>
</svg>
