<svg xmlns="http://www.w3.org/2000/svg" viewBox="0 0 31.957 36.52">
    <defs>
        <style>
            .cls-1{fill:#eceff1}.cls-2{fill:#cacbcc}.cls-3{fill:#dedfe0}.cls-4{fill:#dbb35e}.cls-5{fill:#fff}
        </style>
    </defs>
    <g id="img-icon" transform="translate(-742.18 -221.428)">
        <path id="Path_6138" d="M66.283 0A2.289 2.289 0 0 0 64 2.282v31.955a2.289 2.289 0 0 0 2.283 2.282h22.825a2.289 2.289 0 0 0 2.283-2.282V9.13L82.261 0z" class="cls-1" data-name="Path 6138" transform="translate(682.745 221.428)"/>
        <path id="Path_6139" d="M322.283 9.13h6.848L320 0v6.847a2.289 2.289 0 0 0 2.283 2.283z" class="cls-2" data-name="Path 6139" transform="translate(445.006 221.428)"/>
        <path id="Path_6140" d="M358.848 134.847L352 128h6.848z" class="cls-3" data-name="Path 6140" transform="translate(415.288 102.558)"/>
        <path id="Path_6141" d="M27.391 252.554a1.145 1.145 0 0 1-1.141 1.141H1.141A1.145 1.145 0 0 1 0 252.554v-11.413A1.145 1.145 0 0 1 1.141 240H26.25a1.145 1.145 0 0 1 1.141 1.141z" class="cls-4" data-name="Path 6141" transform="translate(742.18 -1.453)"/>
        <path id="Path_6145" d="M85.684 417.141H64v1.141h21.684a1.145 1.145 0 0 0 1.141-1.141V416a1.145 1.145 0 0 1-1.141 1.141z" class="cls-3" data-name="Path 6145" transform="translate(682.745 -164.9)"/>
        <path id="Path_11990" d="M110.512 56.7v3.4a.633.633 0 0 1-.66.631.571.571 0 0 1-.552-.631v-5.169a.6.6 0 0 1 .552-.631.746.746 0 0 1 .574.33l2.023 2.726 2.095-2.827a.6.6 0 0 1 1.047.4V60.1a.571.571 0 0 1-.552.631.577.577 0 0 1-.588-.631v-3.4l-1.521 1.93a.606.606 0 0 1-1.047 0z" class="cls-5" data-name="Path 11990" transform="translate(640.706 188.046)"/>
        <path id="Path_11991" d="M73.8 54.75a.607.607 0 0 1 1.212 0v5.237a.607.607 0 0 1-1.212 0z" class="cls-5" data-name="Path 11991" transform="translate(673.659 188.163)"/>
        <path id="Path_11992" d="M216.753 58.1a3.5 3.5 0 0 1-2.26.775 3.025 3.025 0 0 1-3.293-3.286 3.273 3.273 0 0 1 3.379-3.293 3.026 3.026 0 0 1 2.095.811.6.6 0 0 1-.8.882 1.94 1.94 0 0 0-1.291-.581 2.183 2.183 0 0 0-2.181 2.181 2.029 2.029 0 0 0 2.1 2.181 2.327 2.327 0 0 0 1.377-.416v-1.123h-1.377a.56.56 0 1 1 0-1.119h1.837a.633.633 0 0 1 .653.545v1.951a.844.844 0 0 1-.239.492z" class="cls-5" data-name="Path 11992" transform="translate(546.117 189.903)"/>
    </g>
</svg>
