<svg xmlns="http://www.w3.org/2000/svg" viewBox="0 0 9.17 9.17">
    <defs>
        <style>
            .cls-1{fill:#fff;opacity:.5}
        </style>
    </defs>
    <g id="info-icon" transform="translate(-999 -290)">
        <path id="Path_2212" d="M4.585 0A4.585 4.585 0 1 0 9.17 4.585 4.6 4.6 0 0 0 4.585 0zm.353 7.23a.353.353 0 1 1-.705 0v-.352a.353.353 0 1 1 .705 0zm.511-2.892a1.158 1.158 0 0 0-.511.988v.494a.353.353 0 0 1-.705 0v-.494a1.892 1.892 0 0 1 .829-1.587.858.858 0 0 0 .406-.758.889.889 0 0 0-.868-.865.85.85 0 0 0-.635.247A.838.838 0 0 0 3.7 3 .353.353 0 1 1 3 3a1.6 1.6 0 0 1 .476-1.129 1.546 1.546 0 0 1 1.111-.459H4.6a1.593 1.593 0 0 1 .846 2.927z" class="cls-1" data-name="Path 2212" transform="translate(999 290)"/>
    </g>
</svg>
