<svg
  xmlns="http://www.w3.org/2000/svg" viewBox="0 0 38.185 23.89">
  <defs>
    <style>
            .cls-1{fill:none}.cls-2{clip-path:url(#clip-path)}.cls-3{fill:#eceff1}.cls-4{fill:#dedfe0}.cls-5{fill:#882b52}.cls-6{fill:#fff}
        </style>
    <clipPath id="clip-path">
      <path d="M0 0h38.185v23.89H0z" class="cls-1"/>
    </clipPath>
  </defs>
  <g id="key-icon" class="cls-2">
    <g id="Group_3037" data-name="Group 3037" transform="rotate(-90 84.547 40.059)">
      <path id="Path_12282" d="M213.729 235.275l-1.978 22.057-2.7-2.715v-18.79z" class="cls-3" data-name="Path 12282" transform="translate(-95.704 -263.635)"/>
      <path id="Path_12283" d="M116.047-44.488a8.558 8.558 0 0 0-8.559 8.559 8.562 8.562 0 0 0 5.855 8.122 8.531 8.531 0 0 0 2.7.437V-6.3l5.259-5.247-2.555-2.555 2.555-2.555-2.555-2.555 2.555-2.555-2.555-2.555v-3.481a8.561 8.561 0 0 0 5.855-8.122 8.558 8.558 0 0 0-8.555-8.563zm2.588 5.887a2.588 2.588 0 0 1-2.588 2.588 2.588 2.588 0 0 1-2.588-2.588 2.588 2.588 0 0 1 2.588-2.588 2.588 2.588 0 0 1 2.588 2.589z" class="cls-4" data-name="Path 12283"/>
    </g>
    <path id="Path_12284" d="M24.609 251.279a1.028 1.028 0 0 1-1.025 1.025H1.025A1.028 1.028 0 0 1 0 251.279v-10.254A1.028 1.028 0 0 1 1.025 240h22.559a1.028 1.028 0 0 1 1.025 1.025z" class="cls-5" data-name="Path 12284" transform="translate(6.982 -228.415)"/>
    <g id="Group_3038" data-name="Group 3038" transform="translate(834.863 9.108)">
      <path id="Path_12279" d="M-821.349 6.342v1.815l1.78-.613.325.9-1.778.578 1.1 1.538-.807.579-1.064-1.6-1.081 1.6-.832-.579 1.117-1.538-1.795-.578.327-.905 1.761.636V6.342z" class="cls-6" data-name="Path 12279"/>
      <path id="Path_12280" d="M-743.517 6.342v1.815l1.78-.613.325.9-1.778.578 1.1 1.538-.807.579-1.064-1.6-1.081 1.6-.832-.579 1.118-1.538-1.795-.578.327-.905 1.761.636V6.342z" class="cls-6" data-name="Path 12280" transform="translate(-71.602)"/>
      <path id="Path_12281" d="M-665.685 6.342v1.815l1.78-.613.325.9-1.778.578 1.1 1.538-.807.579-1.064-1.6-1.081 1.6-.832-.579 1.118-1.538-1.795-.578.327-.905 1.761.636V6.342z" class="cls-6" data-name="Path 12281" transform="translate(-143.203)"/>
    </g>
  </g>
</svg>
