<svg xmlns="http://www.w3.org/2000/svg" viewBox="0 0 31.881 32.477"><defs><style>.a{fill:#1e557b;}</style></defs><g transform="translate(-464.809 -444.739)"><path class="a" d="M0,26.416v5.442a.571.571,0,0,0,.6.6H5.442a2.1,2.1,0,0,0,1.33-.6,1.548,1.548,0,0,0,.484-1.391V29.378H8.465a.571.571,0,0,0,.6-.6V26.355h2.418a.571.571,0,0,0,.6-.6V23.937h1.814a.571.571,0,0,0,.6-.6V21.518h2.418a.549.549,0,0,0,.423-.181L18.8,19.886A9.849,9.849,0,0,0,28.84,17.528a10.322,10.322,0,0,0,.665-13.906,10.26,10.26,0,0,0-15.115-.6c-2.9,2.9-3.446,6.953-1.572,11L.181,25.993A.653.653,0,0,0,0,26.416Zm1.209,4.837v-4.6L13.967,14.5a.643.643,0,0,0,.121-.726C12.213,10.031,12.636,6.4,15.236,3.8a9.015,9.015,0,0,1,6.772-2.66,9.319,9.319,0,0,1,6.59,3.2,9.111,9.111,0,0,1-.544,12.274,8.776,8.776,0,0,1-9.19,1.935.661.661,0,0,0-.6.121l-1.512,1.572H13.906a.571.571,0,0,0-.6.6v1.814H11.488a.571.571,0,0,0-.6.6v1.814H8.465a.571.571,0,0,0-.6.6v2.418H6.651a.571.571,0,0,0-.6.6v1.693c0,.363,0,.363-.181.484a.746.746,0,0,1-.484.242l-4.172.121Z" transform="translate(464.809 444.754)"/><path class="a" d="M35.088,7.818A3.62,3.62,0,0,0,34,10.357,3.385,3.385,0,0,0,35.088,12.9a3.62,3.62,0,0,0,2.539,1.088A3.385,3.385,0,0,0,40.167,12.9a3.62,3.62,0,0,0,1.088-2.539,3.385,3.385,0,0,0-1.088-2.539A3.613,3.613,0,0,0,35.088,7.818Zm.121,2.6a2.2,2.2,0,0,1,.726-1.693,2.419,2.419,0,0,1,4.111,1.693,2.288,2.288,0,0,1-.726,1.693,2.522,2.522,0,0,1-3.446,0A2.959,2.959,0,0,1,35.209,10.418Z" transform="translate(451.366 442.069)"/></g></svg>