<svg xmlns="http://www.w3.org/2000/svg" viewBox="0 0 52.152 49.407">
    <defs>
        <style>
            .cls-1{fill:#ec6193}.cls-2{fill:#697491}.cls-3{fill:#566284}.cls-4{fill:#56d2d0}.cls-5{fill:#00bcc5}.cls-6{fill:#b8bac1}.cls-7{fill:#8a8895}.cls-8{fill:#eeebde}.cls-9{fill:#d4d0ba}
        </style>
    </defs>
    <g id="laptop-document-upload-icon" transform="translate(-477.463 -121.953)">
        <path id="Path_1972" d="M321.081-124.348a.643.643 0 0 1-.654-.631v-.512a.647.647 0 0 1 .654-.639.647.647 0 0 1 .655.639v.5a.658.658 0 0 1-.655.639" class="cls-1" data-name="Path 1972" transform="translate(174.091 265.746)"/>
        <path id="Path_1973" d="M321.081-129.817a.643.643 0 0 1-.654-.631v-1.04a.647.647 0 0 1 .654-.638.647.647 0 0 1 .655.638v1.032a.659.659 0 0 1-.655.639zm0 4.115a.643.643 0 0 1-.654-.631v-1.025a.647.647 0 0 1 .654-.639.647.647 0 0 1 .655.639v1.032a.657.657 0 0 1-.655.624" class="cls-1" data-name="Path 1973" transform="translate(174.091 263.513)"/>
        <path id="Path_1974" d="M321.081-132.959a.643.643 0 0 1-.654-.631v-.511a.642.642 0 0 1 .646-.639h.524a.643.643 0 0 1 .654.631v.008a4.266 4.266 0 0 1-1.171 1.143z" class="cls-1" data-name="Path 1974" transform="translate(174.091 262.54)"/>
        <path id="Path_1975" d="M325.279-133.462h-1.2a.647.647 0 0 1-.655-.639.647.647 0 0 1 .655-.639h1.2a.647.647 0 0 1 .654.639.647.647 0 0 1-.654.639" class="cls-1" data-name="Path 1975" transform="translate(175.207 262.539)"/>
        <path id="Path_1976" d="M328.1-133.462h-.516a.647.647 0 0 1-.654-.639.647.647 0 0 1 .654-.639h.516a.643.643 0 0 1 .654.631v.008a.65.65 0 0 1-.654.639" class="cls-1" data-name="Path 1976" transform="translate(176.512 262.539)"/>
        <path id="Path_1977" d="M354.7-122.188v26.028h-45.058v-26.029a2.963 2.963 0 0 1 3.06-2.842h38.942a2.952 2.952 0 0 1 3.06 2.835z" class="cls-2" data-name="Path 1977" transform="translate(170.074 266.155)"/>
        <path id="Path_1978" d="M309.642-102.8H354.7v-4.415h-45.058z" class="cls-3" data-name="Path 1978" transform="translate(170.074 272.792)"/>
        <path id="Path_1979" d="M348.212-122.188v10.277h-18.934a2.179 2.179 0 0 1-2.2-2.151v-10.968h18.081a2.952 2.952 0 0 1 3.058 2.837z" class="cls-3" data-name="Path 1979" transform="translate(176.566 266.155)"/>
        <path id="Path_1980" d="M351.044-122.372v24.357h-39.3v-24.357a.669.669 0 0 1 .674-.658h37.952a.659.659 0 0 1 .674.644z" class="cls-4" data-name="Path 1980" transform="translate(170.855 266.901)"/>
        <path id="Path_1981" d="M311.74-103.9h39.3v-3.308h-39.3z" class="cls-5" data-name="Path 1981" transform="translate(170.855 272.792)"/>
        <path id="Path_1982" d="M345.338-123.03v10.389h-16.074a2.179 2.179 0 0 1-2.2-2.151v-8.221h18.278z" class="cls-5" data-name="Path 1982" transform="translate(176.561 266.901)"/>
        <path id="Path_1983" d="M357.553-105.582v1.847a1.963 1.963 0 0 1-1.984 1.942h-45.575a1.964 1.964 0 0 1-1.994-1.933v-1.856a.67.67 0 0 1 .675-.658h48.188a.665.665 0 0 1 .69.636v.023" class="cls-6" data-name="Path 1983" transform="translate(169.462 273.153)"/>
        <path id="Path_1984" d="M335.018-106.241l-1.086 1.927a.674.674 0 0 1-.592.34h-10.726a.673.673 0 0 1-.592-.34l-1.087-1.927z" class="cls-7" data-name="Path 1984" transform="translate(174.28 273.153)"/>
        <path id="Path_1985" d="M340.223-103.565a.846.846 0 0 1-.843-.848.846.846 0 0 1 .827-.822h.016a.839.839 0 0 1 .856.823.039.039 0 0 1 0 .011.858.858 0 0 1-.856.836" class="cls-7" data-name="Path 1985" transform="translate(181.149 273.528)"/>
        <path id="Path_1986" d="M338.521-103.565a.846.846 0 0 1-.843-.848.846.846 0 0 1 .827-.822h.016a.846.846 0 0 1 .856.835.846.846 0 0 1-.856.835" class="cls-7" data-name="Path 1986" transform="translate(180.515 273.528)"/>
        <path id="Path_1987" d="M352.684-131.534L345.017-139h-16.962v30.974h24.629z" class="cls-8" data-name="Path 1987" transform="translate(176.932 260.953)"/>
        <path id="Path_1988" d="M332.189-129.762h13.671a.538.538 0 0 0 .56-.513.536.536 0 0 0-.525-.547h-13.706a.536.536 0 0 0-.525.547.537.537 0 0 0 .525.513" class="cls-9" data-name="Path 1988" transform="translate(178.276 263.999)"/>
        <path id="Path_1989" d="M332.189-132.874h5.479a.536.536 0 0 0 .525-.547.537.537 0 0 0-.525-.512h-5.479a.535.535 0 0 0-.525.547.537.537 0 0 0 .525.513" class="cls-9" data-name="Path 1989" transform="translate(178.276 262.84)"/>
        <path id="Path_1990" d="M345.861-127.721H332.19a.536.536 0 0 0-.526.547.538.538 0 0 0 .526.512h13.671a.54.54 0 0 0 .543-.53.52.52 0 0 0-.511-.529h-.031" class="cls-9" data-name="Path 1990" transform="translate(178.276 265.153)"/>
        <path id="Path_1991" d="M345.861-124.609H332.19a.536.536 0 0 0-.526.547.538.538 0 0 0 .526.513h13.671a.54.54 0 0 0 .543-.53.519.519 0 0 0-.511-.53h-.031" class="cls-9" data-name="Path 1991" transform="translate(178.276 266.312)"/>
        <path id="Path_1992" d="M345.861-121.5H332.19a.537.537 0 0 0-.526.547.538.538 0 0 0 .526.513h13.671a.54.54 0 0 0 .543-.53.52.52 0 0 0-.511-.529h-.031" class="cls-9" data-name="Path 1992" transform="translate(178.276 267.471)"/>
        <path id="Path_1993" d="M340.414-139v7.467h7.667z" class="cls-9" data-name="Path 1993" transform="translate(181.534 260.953)"/>
        <path id="Path_1994" d="M314.9-119.117h15.333a.6.6 0 0 0 .581-.619.6.6 0 0 0-.581-.567H314.9a.6.6 0 0 0-.609.592.611.611 0 0 0 .609.593" class="cls-5" data-name="Path 1994" transform="translate(171.806 267.916)"/>
        <path id="Path_1995" d="M314.909-115.63h15.333a.6.6 0 0 0 .635-.567.6.6 0 0 0-.581-.619h-15.387a.6.6 0 0 0-.635.567.6.6 0 0 0 .582.619.422.422 0 0 0 .053 0" class="cls-5" data-name="Path 1995" transform="translate(171.799 269.214)"/>
        <path id="Path_1996" d="M345.9-109.845h-15.331a.494.494 0 0 0-.164.033.59.59 0 0 0-.164-.033h-15.334a.6.6 0 0 0-.582.619.6.6 0 0 0 .582.568h15.333a.515.515 0 0 0 .164-.033.6.6 0 0 0 .164.033H345.9a.6.6 0 0 0 .609-.592.612.612 0 0 0-.608-.593" class="cls-5" data-name="Path 1996" transform="translate(171.818 271.811)"/>
        <path id="Path_1997" d="M330.4-113.3a.6.6 0 0 0-.164-.033H314.9a.6.6 0 0 0-.609.592.612.612 0 0 0 .609.595h15.333a.506.506 0 0 0 .165-.033.583.583 0 0 0 .164.033H345.9a.6.6 0 0 0 .608-.592.611.611 0 0 0-.608-.594h-15.336a.742.742 0 0 0-.164.033" class="cls-5" data-name="Path 1997" transform="translate(171.806 270.513)"/>
    </g>
</svg>
