<svg xmlns="http://www.w3.org/2000/svg" viewBox="0 0 15.68 15.659">
    <defs>
        <style>
            .cls-1{opacity:.5}.cls-2{fill:#fff}
        </style>
    </defs>
    <g id="link-icon" class="cls-1" transform="translate(-1160.42 -210)">
        <path id="Path_445" d="M29.093 1.064a3.693 3.693 0 0 0-5.236 0l-2.618 2.618a.563.563 0 0 0 .8.8l2.615-2.622A2.576 2.576 0 0 1 28.3 5.5l-3.418 3.418a2.559 2.559 0 0 1-3.614 0 .563.563 0 0 0-.8.8 3.71 3.71 0 0 0 5.236 0L29.122 6.3A3.7 3.7 0 0 0 30.2 3.682a3.855 3.855 0 0 0-1.107-2.618z" class="cls-2" data-name="Path 445" transform="translate(1145.897 210.025)"/>
        <path id="Path_446" d="M7.712 24.27l-2.22 2.22a2.556 2.556 0 1 1-3.614-3.614l3.216-3.216a2.612 2.612 0 0 1 3.643 0 .563.563 0 0 0 .8-.8 3.693 3.693 0 0 0-5.236 0l-3.22 3.191A3.588 3.588 0 0 0 0 24.669a3.634 3.634 0 0 0 1.081 2.618A3.7 3.7 0 0 0 3.7 28.368a3.634 3.634 0 0 0 2.618-1.081l2.22-2.22a.55.55 0 0 0 0-.8.584.584 0 0 0-.826.003z" class="cls-2" data-name="Path 446" transform="translate(1160.42 197.291)"/>
    </g>
</svg>
