<svg xmlns="http://www.w3.org/2000/svg" viewBox="0 0 21.881 29.003">
    <defs>
        <style>
            .cls-1{fill:#fff}
        </style>
    </defs>
    <g id="merkle-tree-icon" transform="translate(-805.768 -400.074)">
        <path id="Path_11952" d="M18.019 14.158a3.832 3.832 0 0 0-2.478.921L7.7 11.162c.005-.076.02-.148.02-.219s-.015-.148-.02-.224L15.542 6.8a3.809 3.809 0 0 0 2.478.926 3.861 3.861 0 1 0-3.861-3.861c0 .076.015.148.02.224L6.339 8a3.861 3.861 0 1 0 0 5.881l7.834 3.958c-.005.061-.015.117-.015.178v.041a.209.209 0 0 0 .005.056c0 .056.005.117.01.173L6.344 22.2a3.815 3.815 0 0 0-2.478-.921 3.861 3.861 0 1 0 3.856 3.861c0-.076-.015-.148-.02-.219l7.84-3.917a3.843 3.843 0 0 0 6.339-2.94v-.041a3.864 3.864 0 0 0-3.862-3.865z" class="cls-1" data-name="Path 11952" transform="translate(805.768 400.074)"/>
    </g>
</svg>
