<svg xmlns="http://www.w3.org/2000/svg" viewBox="0 0 19.131 13.041">
    <defs>
        <style>
            .cls-1{opacity:.5}.cls-2{fill:#fff}
        </style>
    </defs>
    <g id="preview-icon" transform="translate(-695.975 -260)">
        <g id="Group_3013" class="cls-1" data-name="Group 3013" transform="translate(695.975 260)">
            <g id="visibility_1_">
                <path id="Path_12150" d="M9.566 0A10.247 10.247 0 0 0 0 6.52a10.277 10.277 0 0 0 19.131 0A10.247 10.247 0 0 0 9.566 0zm0 10.872a4.306 4.306 0 0 1-4.348-4.348 4.348 4.348 0 0 1 8.7 0 4.311 4.311 0 0 1-4.352 4.348zm0-6.957a2.56 2.56 0 0 0-2.609 2.609 2.56 2.56 0 0 0 2.609 2.608 2.56 2.56 0 0 0 2.609-2.609 2.56 2.56 0 0 0-2.609-2.608z" class="cls-2" data-name="Path 12150"/>
            </g>
        </g>
    </g>
</svg>
