<svg xmlns="http://www.w3.org/2000/svg" viewBox="0 0 15.518 15.518">
    <defs>
        <style>
            .cls-1{opacity:.5}.cls-2{fill:#fff}
        </style>
    </defs>
    <g id="upload-icon" transform="translate(-215.523 -258.523)">
        <g id="Group_3012" class="cls-1" data-name="Group 3012" transform="translate(215.523 258.523)">
            <path id="Path_12149" d="M14.474 3.863a7.718 7.718 0 0 0-2.823-2.823A7.581 7.581 0 0 0 7.759 0a7.594 7.594 0 0 0-3.9 1.04A7.718 7.718 0 0 0 1.04 3.863 7.594 7.594 0 0 0 0 7.759a7.594 7.594 0 0 0 1.04 3.9 7.718 7.718 0 0 0 2.823 2.823 7.594 7.594 0 0 0 3.9 1.04 7.594 7.594 0 0 0 3.9-1.04 7.718 7.718 0 0 0 2.823-2.823 7.594 7.594 0 0 0 1.04-3.9 7.631 7.631 0 0 0-1.052-3.896zM12.284 8.4a.652.652 0 0 1-.644.644H9.054v2.586a.634.634 0 0 1-.191.456.621.621 0 0 1-.453.191h-1.3a.652.652 0 0 1-.644-.647V9.047H3.881a.652.652 0 0 1-.644-.647V7.111a.652.652 0 0 1 .644-.644h2.586V3.881a.652.652 0 0 1 .644-.644H8.4a.652.652 0 0 1 .644.644v2.586h2.586a.652.652 0 0 1 .644.644V8.4z" class="cls-2" data-name="Path 12149"/>
        </g>
    </g>
</svg>
