<svg xmlns="http://www.w3.org/2000/svg" viewBox="0 0 34.875 32.696">
    <defs>
        <style>
            .cls-1{fill:#eceff1}.cls-2{fill:#d36f4a}.cls-3{fill:#fafafa}
        </style>
    </defs>
    <g id="powerpoint-thumbnail-icon" transform="translate(-8786.93 -484.878)">
        <path id="Path_6132" d="M272.347 64H257.09a1.093 1.093 0 0 0-1.09 1.09v21.8a1.093 1.093 0 0 0 1.09 1.09h15.257a1.093 1.093 0 0 0 1.09-1.09v-21.8a1.093 1.093 0 0 0-1.09-1.09z" class="cls-1" data-name="Path 6132" transform="translate(8548.367 425.239)"/>
        <g id="Group_2087" data-name="Group 2087" transform="translate(8804.367 491.419)">
            <path id="Path_6133" d="M267.988 322.18h-10.9a1.09 1.09 0 1 1 0-2.18h10.9a1.09 1.09 0 1 1 0 2.18z" class="cls-2" data-name="Path 6133" transform="translate(-256 -304.743)"/>
            <path id="Path_6134" d="M277.449 128a5.449 5.449 0 1 0 5.449 5.449h-5.449z" class="cls-2" data-name="Path 6134" transform="translate(-270.91 -125.82)"/>
            <path id="Path_6135" d="M384 96v5.449h5.449A5.448 5.448 0 0 0 384 96z" class="cls-2" data-name="Path 6135" transform="translate(-375.281 -96)"/>
        </g>
        <path id="Path_6136" d="M19.222.233a1.07 1.07 0 0 0-.9-.232L.885 3.271A1.088 1.088 0 0 0 0 4.34v23.976a1.088 1.088 0 0 0 .892 1.069l17.437 3.269a1.024 1.024 0 0 0 .2.02 1.093 1.093 0 0 0 1.09-1.09V1.071a1.083 1.083 0 0 0-.397-.838z" class="cls-2" data-name="Path 6136" transform="translate(8786.931 484.898)"/>
        <path id="Path_6137" d="M97.09 173.078a1.093 1.093 0 0 1-1.09-1.09v-10.9A1.093 1.093 0 0 1 97.09 160h3.269a4.359 4.359 0 0 1 0 8.719H98.18v3.269a1.089 1.089 0 0 1-1.09 1.09zm1.09-6.539h2.18a2.18 2.18 0 0 0 0-4.359h-2.18z" class="cls-3" data-name="Path 6137" transform="translate(8697.47 335.778)"/>
    </g>
</svg>
