<svg xmlns="http://www.w3.org/2000/svg" viewBox="0 0 115.054 90.1">
    <defs>
        <style>
            .cls-1{opacity:.2}.cls-2{fill:#808495}
        </style>
    </defs>
    <g id="preview-off-icon" transform="translate(-877.498 -450.9)">
        <g id="Group_2420" class="cls-1" data-name="Group 2420" transform="translate(877.473 450.9)">
            <g id="Group_2420-2" data-name="Group 2420" transform="translate(.025)">
                <path id="Path_12032" d="M18.094 121.838l15.023-15.023a25.951 25.951 0 0 1 33.156-33.156L76.531 63.4A63.251 63.251 0 0 0 .256 97.051a2.466 2.466 0 0 0 0 2.086 63.446 63.446 0 0 0 17.838 22.701z" class="cls-2" data-name="Path 12032" transform="translate(-.025 -53.032)"/>
                <path id="Path_12033" d="M370.737 172.6l-15.023 15.023a25.951 25.951 0 0 1-33.156 33.156L312.3 231.037a63.251 63.251 0 0 0 76.275-33.65 2.466 2.466 0 0 0 0-2.086 63.445 63.445 0 0 0-17.838-22.701z" class="cls-2" data-name="Path 12033" transform="translate(-273.752 -151.294)"/>
                <path id="Path_12034" d="M459.964 375.467a16.6 16.6 0 0 0 16.6-16.6c0-.284-.012-.58-.025-.864L459.1 375.442c.284.013.568.025.864.025z" class="cls-2" data-name="Path 12034" transform="translate(-402.431 -313.808)"/>
                <path id="Path_12035" d="M348.2 230.6a16.6 16.6 0 0 0-16.6 16.6c0 .284.012.58.025.864l17.442-17.442c-.296-.022-.58-.022-.867-.022z" class="cls-2" data-name="Path 12035" transform="translate(-290.67 -202.134)"/>
                <path id="Path_12036" d="M110.682 71.769l-7.8 7.8a6.176 6.176 0 0 0 8.74 8.727l10.418-10.418 10.641-10.641 6.925-6.925 21.8-21.8 6.925-6.925 13.258-13.258 7.8-7.8a6.176 6.176 0 0 0-8.74-8.727L170.23 12.221l-10.641 10.64-6.925 6.925-21.8 21.8-6.925 6.925z" class="cls-2" data-name="Path 12036" transform="translate(-88.601)"/>
            </g>
        </g>
    </g>
</svg>
