<svg xmlns="http://www.w3.org/2000/svg" viewBox="0 0 19.506 10.457">
    <defs>
        <style>
            .cls-1{fill:#fff}
        </style>
    </defs>
    <g id="preview-document-icon" transform="translate(-725.497 -212.318)">
        <path id="Path_476" d="M9.753 0C4.994 0 .385 4.541.2 4.742a.688.688 0 0 0 0 .972c.2.2 4.793 4.742 9.552 4.742S19.12 5.915 19.3 5.714a.688.688 0 0 0 0-.972C19.12 4.541 14.529 0 9.753 0zm0 9.066c-3.335 0-6.77-2.715-8.06-3.854 1.29-1.139 4.726-3.854 8.06-3.854s6.77 2.715 8.06 3.854c-1.29 1.139-4.726 3.854-8.06 3.854z" class="cls-1" data-name="Path 476" transform="translate(725.497 212.318)"/>
        <path id="Path_477" d="M43.5 18.78a2.48 2.48 0 1 0 2.48-2.48 2.485 2.485 0 0 0-2.48 2.48zm3.569 0a1.106 1.106 0 1 1-1.106-1.106 1.127 1.127 0 0 1 1.106 1.106z" class="cls-1" data-name="Path 477" transform="translate(689.286 198.75)"/>
    </g>
</svg>
