<svg xmlns="http://www.w3.org/2000/svg" viewBox="0 0 27.871 27.871">
    <defs>
        <style>
            .cls-1{fill:#95a5a5;opacity:.9}
        </style>
    </defs>
    <g id="question-mark-icon" transform="translate(-8712.922 -616.584)">
        <path id="Path_12084" d="M13.935 0a13.935 13.935 0 1 0 13.936 13.935A13.976 13.976 0 0 0 13.935 0zm1.072 21.975a1.072 1.072 0 1 1-2.144 0V20.9a1.072 1.072 0 1 1 2.144 0zm1.554-8.79a3.518 3.518 0 0 0-1.554 3v1.5a1.072 1.072 0 1 1-2.144 0v-1.5a5.751 5.751 0 0 1 2.519-4.824 2.607 2.607 0 0 0 1.233-2.3 2.7 2.7 0 0 0-2.626-2.626 2.583 2.583 0 0 0-1.929.75 2.548 2.548 0 0 0-.8 1.93 1.072 1.072 0 1 1-2.144 0 4.874 4.874 0 0 1 1.447-3.43 4.7 4.7 0 0 1 3.377-1.394h.054a4.842 4.842 0 0 1 2.573 8.9z" class="cls-1" data-name="Path 12084" transform="translate(8712.922 616.584)"/>
    </g>
</svg>
