<svg xmlns="http://www.w3.org/2000/svg" viewBox="0 0 31.576 28.194">
    <defs>
        <style>
            .cls-1{fill:#fff}
        </style>
    </defs>
    <g id="share-icon" transform="translate(-683.111 -400.074)">
        <path id="Path_11949" d="M31.236 9.355L22.215.333a1.1 1.1 0 0 0-1.58 0 1.083 1.083 0 0 0-.333.79v4.511h-3.95q-12.561 0-15.414 7.1A15.892 15.892 0 0 0 0 18.6q0 2.925 2.24 7.948c.037.08.1.222.185.42s.167.376.241.531a1.9 1.9 0 0 0 .228.389.609.609 0 0 0 .494.3.51.51 0 0 0 .413-.179.661.661 0 0 0 .148-.438 3.405 3.405 0 0 0-.043-.469 3.262 3.262 0 0 1-.043-.413c-.062-.8-.086-1.524-.086-2.166a15.164 15.164 0 0 1 .309-3.19 9.476 9.476 0 0 1 .851-2.433 6.182 6.182 0 0 1 1.407-1.777A8.188 8.188 0 0 1 8.2 15.9a10.075 10.075 0 0 1 2.345-.747 21.278 21.278 0 0 1 2.715-.376 42.1 42.1 0 0 1 3.092-.1H20.3v4.511a1.138 1.138 0 0 0 1.123 1.123 1.107 1.107 0 0 0 .8-.333l9.022-9.022a1.083 1.083 0 0 0 .333-.79 1.124 1.124 0 0 0-.342-.811z" class="cls-1" data-name="Path 11949" transform="translate(683.111 400.074)"/>
    </g>
</svg>
