<svg xmlns="http://www.w3.org/2000/svg" viewBox="0 0 33.154 33.147"><defs><style>.a{fill:#1e557b;}</style></defs><g transform="translate(-864.825 -498.075)"><path class="a" d="M30.875,11.051a4.865,4.865,0,0,0,.2-1.379H29.7a3.454,3.454,0,0,1-3.451,3.451H23.307A8.27,8.27,0,0,0,24.75,6.908h2.874V5.522H21.41a1.379,1.379,0,0,1,0-2.758h4.836A3.454,3.454,0,0,1,29.7,6.215h1.379a4.831,4.831,0,0,0-.2-1.379h2.272V4.143a.694.694,0,0,0-.693-.693H30.2a4.833,4.833,0,0,0-3.962-2.072H21.4a2.145,2.145,0,0,0-.356.026l.045-.065a8.288,8.288,0,0,0-10,13.162h-.732a2.069,2.069,0,0,0-2.072,2.072v2.072H6.908a4.833,4.833,0,0,0-3.962,2.072H.693A.694.694,0,0,0,0,21.41V22.1H2.272a4.865,4.865,0,0,0-.2,1.379H3.451A3.454,3.454,0,0,1,6.9,20.031h6.215a1.379,1.379,0,1,1,0,2.758H6.9v1.379H8.287v6.215H6.908a3.454,3.454,0,0,1-3.451-3.451H2.072a4.831,4.831,0,0,0,.2,1.379H0V29a.694.694,0,0,0,.693.693H2.946a4.833,4.833,0,0,0,3.962,2.072h1.5a2.071,2.071,0,0,0,1.955,1.379H25.56a2.069,2.069,0,0,0,2.072-2.072V15.881H26.252V31.075a.694.694,0,0,1-.693.693h-15.2a.694.694,0,0,1-.693-.693V24.168h3.451a2.764,2.764,0,0,0,0-5.529H9.666V16.567a.694.694,0,0,1,.693-.693h2.764V15.81a8.109,8.109,0,0,0,3.451.764A8.276,8.276,0,0,0,22.057,14.5h4.189a4.833,4.833,0,0,0,3.962-2.072h2.253a.694.694,0,0,0,.693-.693v-.693H30.875ZM19.662,8.28a4.45,4.45,0,0,1-.136,1.23,1.382,1.382,0,0,1-.356.647,1.242,1.242,0,0,1-.544.278,3.54,3.54,0,0,1-.822.065h-1.01V6.053H17.4a5.905,5.905,0,0,1,1.114.065,1.289,1.289,0,0,1,.628.317,1.473,1.473,0,0,1,.382.647A4.077,4.077,0,0,1,19.662,8.28Zm-6.824,5.775a6.893,6.893,0,0,1,6.746-11.99,2.752,2.752,0,0,0-.939,2.072,2.871,2.871,0,0,0,.123.822,6.543,6.543,0,0,0-.855-.045H15.441v6.707h2.551a4,4,0,0,0,1.2-.142,2.325,2.325,0,0,0,.952-.537,3,3,0,0,0,.719-1.185,4.451,4.451,0,0,0,.207-1.431,5.165,5.165,0,0,0-.188-1.483,2.893,2.893,0,0,0,.531.052h1.936a6.887,6.887,0,0,1-1.852,6.215H21.41v.084A6.883,6.883,0,0,1,12.838,14.055Z" transform="translate(864.825 498.075)"/><rect class="a" width="1.353" height="6.707" transform="translate(877.624 502.995)"/><path class="a" d="M295.872,394.135a.329.329,0,0,0,.1.233l.194.194a.333.333,0,0,0,.233.1.329.329,0,0,0,.233-.1l2.149-2.149a.308.308,0,0,0,.1-.233.329.329,0,0,0-.1-.233l-2.149-2.149a.333.333,0,0,0-.233-.1.328.328,0,0,0-.233.1l-.194.194a.333.333,0,0,0-.1.233.328.328,0,0,0,.1.233l1.256,1.256h-3.988a.332.332,0,0,0-.337.324v.278a.337.337,0,0,0,.33.337h3.994l-1.269,1.262A.308.308,0,0,0,295.872,394.135Z" transform="translate(590.887 133.605)"/></g></svg>