<svg xmlns="http://www.w3.org/2000/svg" viewBox="0 0 61.772 61.772">
    <defs>
        <style>
            .cls-1{fill:#35b3d4}
        </style>
    </defs>
    <g id="upload-icon" transform="translate(-609.528 -331.7)">
        <g id="Group_2408" data-name="Group 2408" transform="translate(609.528 331.7)">
            <path id="Path_12021" d="M30.886 0a30.886 30.886 0 1 0 30.886 30.886A30.886 30.886 0 0 0 30.886 0zm0 58.784a27.893 27.893 0 1 1 27.9-27.9 27.9 27.9 0 0 1-27.9 27.9zM43.018 27.9a1.512 1.512 0 0 1 0 2.1 1.337 1.337 0 0 1-1.05.4 1.7 1.7 0 0 1-1.05-.4l-8.579-8.569v23.687a1.453 1.453 0 1 1-2.907 0v-23.69l-8.5 8.489a1.485 1.485 0 0 1-2.1-2.1l11-10.992c.081-.081.161-.161.242-.161l.081-.081c.081 0 .081-.081.161-.081s.081 0 .161-.081h.888c.081 0 .081 0 .161.081.081 0 .081.081.161.081a.079.079 0 0 1 .081.081c.081.081.161.081.242.161z" class="cls-1" data-name="Path 12021"/>
        </g>
    </g>
</svg>
