<svg xmlns="http://www.w3.org/2000/svg" viewBox="0 0 14.41 14.41">
    <defs>
        <style>
            .cls-1{fill:#ffd05b;stroke:#fff}.cls-2{fill:#fff}
        </style>
    </defs>
    <g id="uploading-icon" transform="translate(-368.619 -301.619)">
        <circle id="Ellipse_408" cx="6.705" cy="6.705" r="6.705" class="cls-1" data-name="Ellipse 408" transform="translate(369.119 302.119)"/>
        <path id="Path_739" d="M141.18 135.279a.238.238 0 0 0-.285.056l-.529.527a3.166 3.166 0 0 0-.992-.636 3.088 3.088 0 0 0-1.155-.226 3.042 3.042 0 0 0-1.211.247 3.071 3.071 0 0 0-1.66 1.66 3.085 3.085 0 0 0 0 2.421 3.071 3.071 0 0 0 1.66 1.66 3.042 3.042 0 0 0 1.211.247 3.112 3.112 0 0 0 2.4-1.125.128.128 0 0 0 .029-.09.105.105 0 0 0-.037-.082l-.556-.561a.158.158 0 0 0-.1-.037.127.127 0 0 0-.093.048 2.065 2.065 0 0 1-2.448.644 2.128 2.128 0 0 1-.665-.444 2.069 2.069 0 0 1-.444-.665 2.052 2.052 0 0 1 0-1.612 2.128 2.128 0 0 1 .444-.665 2.068 2.068 0 0 1 .665-.444 2.075 2.075 0 0 1 2.224.391l-.561.561a.226.226 0 0 0-.056.279.24.24 0 0 0 .239.162h1.82a.26.26 0 0 0 .184-.077.251.251 0 0 0 .077-.184v-1.82a.248.248 0 0 0-.161-.235z" class="cls-2" data-name="Path 739" transform="translate(237.614 170.711)"/>
    </g>
</svg>
