<svg xmlns="http://www.w3.org/2000/svg" viewBox="0 0 13.891 15.659"><defs><style>.a{fill:#1e557b;}</style></defs><rect class="a" width="6.903" height="1.094" transform="translate(2.778 3.452)"/><rect class="a" width="6.903" height="1.094" transform="translate(2.778 6.566)"/><path class="a" d="M1.347,13.722a.223.223,0,0,1-.253-.253V1.347a.223.223,0,0,1,.253-.253h9.681a.223.223,0,0,1,.253.253v6.23a2.609,2.609,0,0,1,1.094.505V1.347A1.281,1.281,0,0,0,11.028,0H1.347A1.33,1.33,0,0,0,0,1.347V13.47a1.33,1.33,0,0,0,1.347,1.347H6.9a3.2,3.2,0,0,1-.758-1.094h-4.8Z"/><path class="a" d="M11.4,9.8a3.7,3.7,0,1,0,3.7,3.7A3.683,3.683,0,0,0,11.4,9.8Zm0,6.566A2.862,2.862,0,1,1,14.266,13.5,2.839,2.839,0,0,1,11.4,16.366Z" transform="translate(-1.218 -1.55)"/><path class="a" d="M13.926,13.072h-1.6V11.763a.363.363,0,0,0-.727,0v1.672a.343.343,0,0,0,.363.363h1.89a.343.343,0,0,0,.363-.363A.333.333,0,0,0,13.926,13.072Z" transform="translate(-1.834 -1.423)"/></svg>