<svg xmlns="http://www.w3.org/2000/svg" viewBox="0 0 41.173 51.78">
    <defs>
        <style>
            .cls-1{fill:#35b3d3}
        </style>
    </defs>
    <g id="proven-db-icon" transform="translate(-55.752 -50.586)">
        <path id="Path_1968" d="M30.97-191l-12.123 34.043-9.61-12.154-6.608 5.04 12.433 15.941h9.09L39.3-190.972 31.111-191z" class="cls-1" data-name="Path 1968" transform="translate(55.731 241.586)"/>
        <path id="Path_1970" d="M40.382-183.4l-2.012 5.5v28.629a5 5 0 0 1-5.027 4.957H7.831a5 5 0 0 1-5.031-4.958v-30.434a5 5 0 0 1 5.027-4.957h18.166l.975-2.765H7.4a7.356 7.356 0 0 0-7.4 7.3v31.287a7.177 7.177 0 0 0 .334 2.167A7.4 7.4 0 0 0 7.4-141.55h26.376a7.418 7.418 0 0 0 6.5-3.821 7.166 7.166 0 0 0 .894-3.475v-31.287a7.158 7.158 0 0 0-.791-3.265" class="cls-1" data-name="Path 1970" transform="translate(55.752 243.916)"/>
    </g>
</svg>
