<svg xmlns="http://www.w3.org/2000/svg" viewBox="0 0 19.999 29.539"><defs><style>.a{fill:#fff;}</style></defs><g transform="translate(0 -0.827)"><rect class="a" width="9.818" height="1.636" transform="translate(4 12.367)"/><rect class="a" width="9.818" height="1.636" transform="translate(4 15.307)"/><path class="a" d="M0,0H2.7V1.636H0Z" transform="translate(4 18.153)"/><path class="a" d="M10.418,10.5a5.818,5.818,0,1,0,0,11.636,5.818,5.818,0,1,0,0-11.636ZM8.6,11.591a6.458,6.458,0,0,0-.727,1.636c-.364-.182-.727-.182-.909-.364A3.959,3.959,0,0,1,8.6,11.591ZM6.418,13.409a8.864,8.864,0,0,0,1.273.545,6.817,6.817,0,0,0-.182,2H5.691A3.258,3.258,0,0,1,6.418,13.409Zm0,5.818a4.344,4.344,0,0,1-.909-2.545H7.327c0,.727.182,1.273.182,2Zm.545.545c.364-.182.545-.364.909-.364A6.458,6.458,0,0,0,8.6,21.045,3.959,3.959,0,0,1,6.963,19.772Zm3.091,1.454a4.113,4.113,0,0,1-1.636-2.182,5.033,5.033,0,0,1,1.636-.182Zm0-3.091c-.545,0-1.273.182-1.818.182A5.6,5.6,0,0,1,8.054,16.5h2Zm0-2.182h-2c0-.545.182-1.273.182-1.818a5.6,5.6,0,0,0,1.818.182Zm0-2.363c-.545,0-1.091-.182-1.636-.182a3.244,3.244,0,0,1,1.636-2.182Zm4.545-.182a4.344,4.344,0,0,1,.909,2.545H13.69c0-.727-.182-1.273-.182-2Zm-.545-.545c-.364.182-.545.364-.909.364a6.458,6.458,0,0,0-.727-1.636A9.991,9.991,0,0,1,14.054,12.863Zm-3.273-1.454a4.113,4.113,0,0,1,1.636,2.182,5.033,5.033,0,0,1-1.636.182Zm0,3.091c.545,0,1.273-.182,1.818-.182a5.6,5.6,0,0,1,.182,1.818h-2Zm0,2.182h2c0,.545-.182,1.273-.182,1.818a5.6,5.6,0,0,0-1.818-.182Zm0,4.545V18.863c.545,0,1.091.182,1.636.182C12.236,19.954,11.69,21.045,10.781,21.227Zm1.636-.364a6.458,6.458,0,0,0,.727-1.636c.364.182.727.182.909.364A3.361,3.361,0,0,1,12.418,20.863ZM14.6,19.227a8.863,8.863,0,0,0-1.273-.545,6.817,6.817,0,0,0,.182-2h1.818A4.174,4.174,0,0,1,14.6,19.227Z" transform="translate(3.763 8.23)"/><path class="a" d="M3.081,4.623,5.543,2.161V8.244a.684.684,0,0,0,.724.724c.145,0,.29-.145.434-.145s.145-.29.145-.434V2.306L9.309,4.768c.29.29.724.29.869,0,.29-.29.29-.724,0-.869L6.557.134a.923.923,0,0,0-.869,0L2.067,3.754c-.29.29-.29.724,0,.869A.7.7,0,0,0,3.081,4.623Z" transform="translate(2.604 0.802)"/><path class="a" d="M2,23.5a.391.391,0,0,1-.364-.364V6.229A.391.391,0,0,1,2,5.865H5.454a.782.782,0,0,0,.727-.727.782.782,0,0,0-.727-.727H2A1.767,1.767,0,0,0,0,6.229V23.137a2.018,2.018,0,0,0,2,2H8.909A4.767,4.767,0,0,1,8,23.5Z" transform="translate(0 3.229)"/><path class="a" d="M7.127,4.3h0a.666.666,0,0,0-.727.727.782.782,0,0,0,.727.727H10.4a.391.391,0,0,1,.364.364v8.727a6.458,6.458,0,0,1,1.636.727V6.3a2.018,2.018,0,0,0-2-2Z" transform="translate(5.236 3.158)"/></g></svg>