<svg xmlns="http://www.w3.org/2000/svg" viewBox="0 0 23.801 25.744"><defs><style>.a{fill:#fff;}</style></defs><path class="a" d="M23.8,13.115a5.23,5.23,0,0,0-3.886-4.857V3.886H10.2A5.23,5.23,0,0,0,5.343,0,5.391,5.391,0,0,0,0,5.343a5.391,5.391,0,0,0,5.343,5.343,5.691,5.691,0,0,0,5.343-4.372h7.286V8.258a4.868,4.868,0,0,0-4.857,4.857,5.691,5.691,0,0,0,4.372,5.343v1.457H10.2c-.486-2.429-2.429-4.857-5.343-4.857C2.429,15.058,0,17.487,0,20.4a5.391,5.391,0,0,0,5.343,5.343A4.73,4.73,0,0,0,10.2,21.858H19.43V17.972A5.165,5.165,0,0,0,23.8,13.115ZM5.343,8.743a3.32,3.32,0,0,1-3.4-3.4,3.32,3.32,0,0,1,3.4-3.4,3.32,3.32,0,0,1,3.4,3.4A3.32,3.32,0,0,1,5.343,8.743Zm0,15.058a3.4,3.4,0,1,1,0-6.8,3.4,3.4,0,1,1,0,6.8Zm13.115-7.286a3.32,3.32,0,0,1-3.4-3.4,3.4,3.4,0,1,1,6.8,0A3.32,3.32,0,0,1,18.458,16.515Z"/></svg>