<svg xmlns="http://www.w3.org/2000/svg" viewBox="0 0 20.19 25.771"><defs><style>.a{fill:#fff;}</style></defs><path class="a" d="M19.215,172H15.01a.993.993,0,1,0,0,1.986H18.2v11.751H1.986V173.986H5.508a.993.993,0,1,0,0-1.986H.975A1.026,1.026,0,0,0,0,173.04v13.766a.914.914,0,0,0,.975.911h18.24a.911.911,0,0,0,.975-.911V173.04A1.026,1.026,0,0,0,19.215,172Z" transform="translate(0 -161.946)"/><path class="a" d="M71.327,17.356a.992.992,0,0,0,.993-.993V2.907l4.234,3.773a1,1,0,0,0,1.326-1.5L72.168.1A1,1,0,0,0,70.895.068a1.016,1.016,0,0,0-.432.4l-4.947,4.76a1,1,0,0,0,1.372,1.443l3.446-3.312V16.363A1,1,0,0,0,71.327,17.356Z" transform="translate(-61.398 0.145)"/></svg>