<svg xmlns="http://www.w3.org/2000/svg" viewBox="0 0 19.999 29.542"><defs><style>.a{fill:#fff;}</style></defs><g transform="translate(0 -0.827)"><rect class="a" width="9.818" height="1.636" transform="translate(4 12.368)"/><rect class="a" width="9.818" height="1.636" transform="translate(4 15.309)"/><path class="a" d="M0,0H2.7V1.636H0Z" transform="translate(4 18.154)"/><path class="a" d="M3.081,4.624,5.543,2.161V8.245a.684.684,0,0,0,.724.724c.145,0,.29-.145.435-.145s.145-.29.145-.435V2.306L9.309,4.769c.29.29.724.29.869,0,.29-.29.29-.724,0-.869L6.557.134a.923.923,0,0,0-.869,0L2.067,3.755c-.29.29-.29.724,0,.869A.7.7,0,0,0,3.081,4.624Z" transform="translate(2.605 0.802)"/><path class="a" d="M2,23.5a.391.391,0,0,1-.364-.364V6.229A.391.391,0,0,1,2,5.865H5.455a.782.782,0,0,0,.727-.727.782.782,0,0,0-.727-.727H2A1.767,1.767,0,0,0,0,6.229v16.91a2.018,2.018,0,0,0,2,2H8.909A4.767,4.767,0,0,1,8,23.5Z" transform="translate(0 3.23)"/><path class="a" d="M7.127,4.3h0a.666.666,0,0,0-.727.727.782.782,0,0,0,.727.727H10.4a.391.391,0,0,1,.364.364v8.728a6.459,6.459,0,0,1,1.636.727V6.3a2.018,2.018,0,0,0-2-2Z" transform="translate(5.237 3.159)"/><path class="a" d="M13.566,9.8a5.866,5.866,0,1,0,5.866,5.866A5.832,5.832,0,0,0,13.566,9.8Zm0,10.4A4.533,4.533,0,1,1,18.1,15.666,4.5,4.5,0,0,1,13.566,20.2Z" transform="translate(0.567 8.837)"/><path class="a" d="M15.283,14.048H12.751V11.976a.576.576,0,1,0-1.151,0v2.648a.544.544,0,0,0,.576.576h2.993a.544.544,0,0,0,.576-.576A.527.527,0,0,0,15.283,14.048Z" transform="translate(1.866 9.971)"/></g></svg>