<svg xmlns="http://www.w3.org/2000/svg" viewBox="0 0 34.438 28.6">
    <defs>
        <style>
            .cls-1{fill:#fff;opacity:.7}
        </style>
    </defs>
    <g id="arrow" transform="translate(-917.781 -423)">
        <path id="arrow-2" d="M32.5 11.6l.056.014H9.512l7.244-7.258a1.873 1.873 0 0 0 .544-1.339 1.9 1.9 0 0 0-.546-1.337L15.63.553a1.884 1.884 0 0 0-2.66-.007L.546 12.963a1.91 1.91 0 0 0 0 2.674l12.417 12.417a1.857 1.857 0 0 0 1.33.546 1.886 1.886 0 0 0 1.33-.546l1.127-1.127a1.857 1.857 0 0 0 .55-1.327 1.837 1.837 0 0 0-.546-1.309l-7.321-7.3h23.1a1.955 1.955 0 0 0 1.911-1.932v-1.6A1.914 1.914 0 0 0 32.5 11.6z" class="cls-1" data-name="arrow" transform="translate(917.781 423)"/>
    </g>
</svg>
